<svg width="162" height="31" viewBox="0 0 162 31" fill="none" xmlns="http://www.w3.org/2000/svg">
<g clip-path="url(#clip0_1377_429)">
<path d="M162 18.9834H92.729V31H162V18.9834Z" fill="#1B9DD9"/>
<path d="M97.876 21.3795H99.7596V22.265H99.903C100.523 22.265 101.063 22.3781 101.525 22.6044C101.989 22.8307 102.345 23.1488 102.592 23.5588C102.843 23.9687 102.968 24.4345 102.968 24.9559C102.968 25.5003 102.846 25.9775 102.602 26.3875C102.358 26.7941 102.001 27.109 101.53 27.332C101.058 27.555 100.488 27.6665 99.819 27.6665H99.7596V28.7734H97.876V27.6665H97.7772C97.1114 27.6665 96.5445 27.5583 96.0765 27.3418C95.6118 27.1221 95.2607 26.8105 95.0234 26.4071C94.7861 26.0005 94.6675 25.5134 94.6675 24.9461C94.6675 24.4115 94.7927 23.9376 95.0432 23.5244C95.297 23.1078 95.6497 22.7946 96.1012 22.5847C96.556 22.3716 97.0867 22.265 97.6931 22.265H97.876V21.3795ZM99.7596 26.1956H99.819C100.234 26.1956 100.546 26.0939 100.753 25.8906C100.961 25.6873 101.065 25.3724 101.065 24.9461C101.065 24.5722 100.958 24.2803 100.743 24.0704C100.529 23.8572 100.228 23.7506 99.8387 23.7506H99.7596V26.1956ZM97.876 23.7506H97.7623C97.3767 23.7506 97.0817 23.8523 96.8774 24.0557C96.673 24.259 96.5709 24.5558 96.5709 24.9461C96.5709 25.3888 96.6697 25.7086 96.8675 25.9054C97.0685 26.0989 97.3718 26.1956 97.7772 26.1956H97.876V23.7506Z" fill="white"/>
<path d="M108.565 28.675L108.209 27.3271H105.86L105.495 28.675H103.349L105.707 21.4533H108.313L110.7 28.675H108.565ZM107.803 25.7332L107.492 24.5525C107.419 24.2901 107.33 23.9507 107.225 23.5342C107.123 23.1177 107.055 22.8192 107.022 22.6389C106.992 22.8061 106.933 23.0816 106.844 23.4653C106.758 23.849 106.566 24.605 106.266 25.7332H107.803Z" fill="white"/>
<path d="M117.805 28.675H115.595L113.449 25.0297V28.675H111.486V21.4828H113.449V24.9657L115.516 21.4828H117.661L115.432 24.9166L117.805 28.675Z" fill="white"/>
<path d="M121.735 28.675H119.782V23.0718H118.017V21.4828H123.495V23.0718H121.735V28.675Z" fill="white"/>
<path d="M131.292 25.0691C131.292 26.2792 130.993 27.1992 130.397 27.8289C129.8 28.4585 128.927 28.7734 127.776 28.7734C126.643 28.7734 125.773 28.4569 125.166 27.8239C124.563 27.191 124.261 26.2694 124.261 25.0592C124.261 23.8622 124.561 22.9488 125.161 22.3191C125.764 21.6861 126.639 21.3696 127.786 21.3696C128.937 21.3696 129.808 21.6828 130.402 22.3093C130.995 22.9357 131.292 23.8556 131.292 25.0691ZM126.318 25.0691C126.318 26.4596 126.804 27.1549 127.776 27.1549C128.271 27.1549 128.637 26.986 128.874 26.6482C129.115 26.3104 129.235 25.784 129.235 25.0691C129.235 24.3508 129.113 23.8212 128.869 23.4801C128.628 23.1357 128.268 22.9635 127.786 22.9635C126.807 22.9635 126.318 23.6654 126.318 25.0691Z" fill="white"/>
<path d="M137.842 23.7703C137.842 24.5738 137.603 25.1953 137.125 25.6348C136.651 26.071 135.975 26.2891 135.098 26.2891H134.55V28.675H132.597V21.4828H135.098C136.011 21.4828 136.697 21.6812 137.155 22.078C137.613 22.4749 137.842 23.039 137.842 23.7703ZM134.55 24.705H134.905C135.199 24.705 135.431 24.623 135.603 24.459C135.777 24.2951 135.865 24.0688 135.865 23.7802C135.865 23.2948 135.594 23.0521 135.054 23.0521H134.55V24.705Z" fill="white"/>
<path d="M138.994 21.4828H140.734V24.5722C140.734 24.9002 140.708 25.5561 140.655 26.54H140.695L143.577 21.4828H145.99V28.675H144.259V25.6643C144.259 25.2084 144.289 24.5263 144.348 23.6178H144.309L141.402 28.675H138.994V21.4828Z" fill="white"/>
<path d="M153.751 28.675H151.789V25.743H149.519V28.675H147.557V21.4828H149.519V24.1491H151.789V21.4828H153.751V28.675Z" fill="white"/>
<path d="M160.139 21.4828V23.0521H157.281V28.675H155.319V21.4828H160.139Z" fill="white"/>
<path fill-rule="evenodd" clip-rule="evenodd" d="M31.2748 13.9645L30.6097 8.56381L29.4747 13.9645H27.9229L26.6815 8.55065L25.9367 13.9645H23.2056L24.7884 3.19825H27.6126L28.6367 7.95398L29.723 3.21581H32.4541L34.0059 13.982L31.2748 13.9645ZM40.6785 3.19825V5.90517H37.9163V7.29153H39.8715V10.016H37.9163V11.3058H40.6785V13.9645H35.1852V3.21581L40.6785 3.19825ZM42.1682 3.19825H48.189V6.12453H46.5441V13.9645H43.782V6.14208H42.1682V3.21581V3.19825ZM49.2309 13.9645L51.931 3.19825H55.1276L57.81 13.9645H55.1099L54.6665 12.4202H52.3344L51.931 13.9645H49.2309ZM54.1966 10.2792L53.5448 7.54159L52.831 10.2792H54.1966ZM64.4826 3.21581L66.655 13.9645H63.8929L62.7135 5.93588H62.4963L61.2859 13.9645H58.5415L60.6519 3.19825L64.4826 3.21581ZM73.3498 3.21581L75.5666 13.982H72.8045L71.6251 5.95342H71.4079L70.162 13.9645H67.4309L69.5724 3.19825L73.3498 3.21581ZM84.7708 3.21581V13.9645H82.0086V9.03762L79.4416 13.9645H76.7193V3.21581H79.4505V8.41026L82.1816 3.21581H84.7708ZM89.4882 3.21581V7.30906H91.5675V3.21581H94.2986V13.9645H91.5675V10.016H89.4882V13.9645H86.7571V3.21581H89.4882ZM100.382 3.21581C100.718 3.20487 101.053 3.2699 101.36 3.40597C101.667 3.54203 101.939 3.74557 102.155 4.00112C102.604 4.58778 102.834 5.31008 102.807 6.04556C102.833 6.57459 102.737 7.10254 102.527 7.58985C102.456 7.7483 102.353 7.89113 102.225 8.0101C102.097 8.12906 101.947 8.22182 101.783 8.28302C102.261 8.40965 102.679 8.70039 102.962 9.10344C103.309 9.62234 103.483 10.2363 103.458 10.8583C103.515 11.6807 103.273 12.496 102.776 13.1572C102.524 13.4361 102.212 13.6545 101.862 13.796C101.513 13.9374 101.135 13.998 100.758 13.9732H96.1696V3.21581H100.382ZM98.9539 5.54541V7.0897H99.4195C99.8229 7.0897 100.04 6.83963 100.04 6.3351C100.04 5.83057 99.8229 5.54541 99.4195 5.54541H98.9539ZM98.9539 9.63868V11.2137H99.6678C100.111 11.2137 100.351 10.9636 100.351 10.4284C100.366 10.2228 100.299 10.0194 100.164 9.86242C100.034 9.72812 99.8558 9.64942 99.6678 9.64306L98.9539 9.63868ZM110.375 3.21581V5.92272H107.613V7.30906H110.344V10.016H107.613V11.3058H110.375V13.9645H104.86V3.21581H110.375ZM116.644 6.6817C116.423 6.6741 116.204 6.71871 116.004 6.81179C115.805 6.90488 115.63 7.04377 115.496 7.21694C115.23 7.62987 115.1 8.1142 115.123 8.6033C115.103 9.09636 115.245 9.58262 115.527 9.98966C115.653 10.1646 115.821 10.3054 116.016 10.399C116.211 10.4925 116.427 10.5358 116.644 10.5249C116.874 10.543 117.105 10.5208 117.327 10.4591C117.482 10.4286 117.631 10.3753 117.77 10.3011V13.9645C117.65 14.0084 117.525 14.0408 117.398 14.061C117.14 14.0919 116.881 14.1022 116.622 14.0917C115.95 14.1141 115.283 13.9702 114.681 13.6729C114.08 13.3757 113.563 12.9345 113.177 12.3895C112.428 11.2633 112.029 9.94475 112.029 8.59672C112.029 7.24869 112.428 5.93017 113.177 4.80397C113.658 4.20206 114.288 3.73263 115.005 3.4407C115.723 3.14876 116.504 3.04413 117.274 3.13684C117.436 3.19067 117.602 3.23317 117.77 3.26406V6.94493C117.65 6.88453 117.525 6.83179 117.398 6.787C117.144 6.72345 116.883 6.69248 116.622 6.69486L116.644 6.6817ZM119.251 3.21581H125.303V6.14208H123.658V13.9645H120.878V6.14208H119.233V3.21581H119.251ZM129.741 7.21255H131.417C131.781 7.20328 132.144 7.27492 132.477 7.4222C132.809 7.56948 133.105 7.78866 133.341 8.06366C133.92 8.73718 134.209 9.60787 134.148 10.4898C134.192 11.4023 133.918 12.3023 133.372 13.0388C133.142 13.3345 132.845 13.5735 132.506 13.7372C132.167 13.9008 131.794 13.9846 131.417 13.982H126.983V3.21581H133.346V5.484H129.745V7.21694L129.741 7.21255ZM129.741 9.84487V11.3892H130.424C130.867 11.3892 131.107 11.1391 131.107 10.6039C131.122 10.3983 131.055 10.1948 130.92 10.0379C130.856 9.97322 130.778 9.92293 130.693 9.89039C130.607 9.85785 130.515 9.84382 130.424 9.84926L129.741 9.84487ZM135.017 13.9996L137.717 3.23336H140.883L143.565 13.9645H140.865L140.461 12.4202H138.103L137.699 13.9645L135.017 13.9996ZM139.952 10.2529L139.3 7.62057L138.586 10.2529H139.952ZM147.741 3.23336V7.32662H149.79V3.21581H152.521V13.9645H149.79V10.016H147.741V13.9645H144.979V3.21581L147.741 3.23336ZM157.207 3.23336V7.13797L159.1 3.23336H161.925L159.504 8.23916L162 13.9645H159.185L157.198 9.33597V13.9645H154.467V3.21581L157.207 3.23336Z" fill="#002D73"/>
<path fill-rule="evenodd" clip-rule="evenodd" d="M9.0922 -0.000775911C11.3705 0.102381 13.5176 1.08373 15.0741 2.73334C16.6306 4.38295 17.4728 6.56982 17.4207 8.82608C17.3686 11.0823 16.4262 13.2288 14.7951 14.8063C13.1641 16.3838 10.9739 17.267 8.69318 17.267C6.41245 17.267 4.22229 16.3838 2.59124 14.8063C0.960198 13.2288 0.0178007 11.0823 -0.0343371 8.82608C-0.086475 6.56982 0.755788 4.38295 2.31226 2.73334C3.86874 1.08373 6.01581 0.102381 8.29415 -0.000775911V2.44728C7.03465 2.52553 5.82863 2.97942 4.8349 3.74917C3.84118 4.51892 3.10637 5.56844 2.72722 6.75952C2.34807 7.9506 2.34237 9.22738 2.71087 10.4217C3.07937 11.6161 3.80478 12.672 4.79159 13.4504L7.15914 7.28637H5.51427C5.33922 7.2506 5.15697 7.28196 5.00441 7.37412L4.61424 7.74264C4.59221 7.36858 4.59221 6.99358 4.61424 6.61952C4.65858 6.4879 4.79159 5.47006 5.25269 4.95237C5.57737 4.63703 5.99816 4.43655 6.44976 4.38204L11.7036 4.34693L10.9455 5.13225L12.7677 13.2881C13.7109 12.4834 14.3896 11.4181 14.7165 10.229C15.0434 9.03987 15.0037 7.78119 14.6025 6.61456C14.2012 5.44794 13.4568 4.42661 12.4646 3.68172C11.4725 2.93682 10.278 2.50236 9.03456 2.43412L9.06116 -0.013937L9.0922 -0.000775911ZM7.08377 5.0796C7.1375 5.08218 7.18927 5.10029 7.2327 5.1317C7.27612 5.16311 7.30928 5.20645 7.32806 5.25632C7.34684 5.3062 7.35041 5.36042 7.33835 5.41229C7.32629 5.46415 7.29912 5.51138 7.2602 5.54811C7.22128 5.58485 7.17232 5.60948 7.11939 5.61895C7.06646 5.62843 7.01189 5.62233 6.96243 5.60141C6.91298 5.5805 6.87081 5.54567 6.84115 5.50127C6.81149 5.45687 6.79565 5.40483 6.79558 5.35161C6.7979 5.27791 6.82943 5.20807 6.88336 5.15718C6.93728 5.10628 7.00927 5.07842 7.08377 5.0796Z" fill="#002D73"/>
<path d="M92.7291 18.9834H0V31H92.7291V18.9834Z" fill="#CADCE8"/>
</g>
<defs>
<clipPath id="clip0_1377_429">
<rect width="162" height="31" fill="white"/>
</clipPath>
</defs>
</svg>
