<svg width="176" height="34" viewBox="0 0 176 34" fill="none" xmlns="http://www.w3.org/2000/svg">
<g clip-path="url(#clip0_711_66439)">
<mask id="mask0_711_66439" style="mask-type:luminance" maskUnits="userSpaceOnUse" x="0" y="0" width="176" height="34">
<path d="M176 0H0V34H176V0Z" fill="white"/>
</mask>
<g mask="url(#mask0_711_66439)">
<path d="M175.999 20.8206H100.742V34.0001H175.999V20.8206Z" fill="#009FD9"/>
<path d="M113.157 24.3065H114.768V25.0749H114.89C115.42 25.0749 115.882 25.1731 116.276 25.3694C116.674 25.5658 116.978 25.8418 117.19 26.1976C117.403 26.5534 117.511 26.9575 117.511 27.41C117.511 27.8824 117.406 28.2966 117.197 28.6523C116.99 29.0052 116.684 29.2784 116.281 29.4719C115.878 29.6655 115.39 29.7622 114.818 29.7622H114.768V30.7227H113.157V29.7622H113.072C112.504 29.7622 112.019 29.6683 111.619 29.4804C111.222 29.2897 110.922 29.0194 110.719 28.6694C110.516 28.3165 110.414 27.8938 110.414 27.4015C110.414 26.9376 110.522 26.5263 110.735 26.1678C110.953 25.8063 111.254 25.5345 111.64 25.3523C112.029 25.1674 112.483 25.0749 113.001 25.0749H113.157V24.3065ZM114.768 28.4858H114.818C115.173 28.4858 115.439 28.3976 115.617 28.2211C115.794 28.0447 115.884 27.7715 115.884 27.4015C115.884 27.077 115.792 26.8238 115.608 26.6416C115.426 26.4566 115.168 26.3641 114.835 26.3641H114.768V28.4858ZM113.157 26.3641H113.06C112.73 26.3641 112.478 26.4523 112.304 26.6288C112.129 26.8052 112.041 27.0628 112.041 27.4015C112.041 27.7857 112.126 28.0631 112.295 28.2339C112.467 28.4019 112.726 28.4858 113.072 28.4858H113.157V26.3641ZM122.295 30.6374L121.991 29.4677H119.982L119.67 30.6374H117.836L119.852 24.3705H122.079L124.121 30.6374H122.295ZM121.644 28.0845L121.378 27.0599C121.315 26.8323 121.24 26.5377 121.149 26.1763C121.063 25.8148 121.004 25.5559 120.976 25.3994C120.951 25.5445 120.9 25.7836 120.824 26.1165C120.751 26.4495 120.586 27.1055 120.33 28.0845H121.644ZM130.194 30.6374H128.305L126.47 27.474V30.6374H124.792V24.3961H126.47V27.4186L128.237 24.3961H130.071L128.165 27.3758L130.194 30.6374ZM133.554 30.6374H131.884V25.775H130.376V24.3961H135.059V25.775H133.554V30.6374ZM141.724 27.5082C141.724 28.5584 141.469 29.3567 140.959 29.9031C140.449 30.4495 139.702 30.7227 138.718 30.7227C137.75 30.7227 137.005 30.4481 136.487 29.8988C135.972 29.3496 135.714 28.5498 135.714 27.4997C135.714 26.4608 135.971 25.6683 136.483 25.1218C136.999 24.5726 137.747 24.298 138.727 24.298C139.711 24.298 140.456 24.5698 140.963 25.1133C141.47 25.6569 141.724 26.4552 141.724 27.5082ZM137.472 27.5082C137.472 28.7149 137.887 29.3182 138.718 29.3182C139.141 29.3182 139.454 29.1717 139.657 28.8785C139.863 28.5854 139.966 28.1286 139.966 27.5082C139.966 26.885 139.861 26.4253 139.653 26.1293C139.447 25.8305 139.139 25.6811 138.727 25.6811C137.89 25.6811 137.472 26.2902 137.472 27.5082ZM147.324 26.3812C147.324 27.0785 147.119 27.6178 146.71 27.9991C146.306 28.3777 145.728 28.5669 144.978 28.5669H144.509V30.6374H142.839V24.3961H144.978C145.758 24.3961 146.345 24.5683 146.736 24.9127C147.128 25.257 147.324 25.7466 147.324 26.3812ZM144.509 27.1923H144.813C145.064 27.1923 145.263 27.1211 145.409 26.9788C145.558 26.8366 145.633 26.6402 145.633 26.3897C145.633 25.9685 145.402 25.7579 144.94 25.7579H144.509V27.1923ZM148.309 24.3961H149.796V27.077C149.796 27.3616 149.774 27.9308 149.728 28.7846H149.762L152.226 24.3961H154.289V30.6374H152.81V28.0247C152.81 27.6292 152.835 27.0372 152.886 26.2489H152.852L150.367 30.6374H148.309V24.3961ZM160.924 30.6374H159.247V28.093H157.307V30.6374H155.629V24.3961H157.307V26.7099H159.247V24.3961H160.924V30.6374ZM166.385 24.3961V25.7579H163.942V30.6374H162.264V24.3961H166.385Z" fill="white"/>
<path fill-rule="evenodd" clip-rule="evenodd" d="M33.9775 15.3159L33.2549 9.39264L32.0219 15.3159H30.3359L28.9872 9.3782L28.178 15.3159H25.2109L26.9304 3.50783H29.9988L31.1115 8.7238L32.2915 3.52708H35.2587L36.9446 15.3352L33.9775 15.3159ZM44.1938 3.50783V6.47671H41.193V7.99723H43.3171V10.9853H41.193V12.4H44.1938V15.3159H38.2258V3.52708L44.1938 3.50783ZM45.8123 3.50783H52.3534V6.71729H50.5664V15.3159H47.5655V6.73655H45.8123V3.52708V3.50783ZM53.4854 15.3159L56.4187 3.50783H59.8917L62.8058 15.3159H59.8724L59.3907 13.6222H56.8571L56.4187 15.3159H53.4854ZM58.8801 11.274L58.1721 8.27149L57.3965 11.274H58.8801ZM70.0551 3.52708L72.4153 15.3159H69.4144L68.1331 6.51039H67.8971L66.5822 15.3159H63.6006L65.8934 3.50783L70.0551 3.52708ZM79.6886 3.52708L82.0969 15.3352H79.0961L77.8148 6.52962H77.5788L76.2254 15.3159H73.2582L75.5847 3.50783L79.6886 3.52708ZM92.0966 3.52708V15.3159H89.0958V9.91226L86.3068 15.3159H83.3493V3.52708H86.3165V9.22422L89.2836 3.52708H92.0966ZM97.222 3.52708V8.01646H99.4811V3.52708H102.448V15.3159H99.4811V10.9853H97.222V15.3159H94.2545V3.52708H97.222ZM109.056 3.52708C109.422 3.51509 109.785 3.58641 110.119 3.73565C110.453 3.88488 110.749 4.10811 110.983 4.3884C111.471 5.03183 111.721 5.82404 111.691 6.63068C111.719 7.21091 111.616 7.78995 111.388 8.32443C111.31 8.49821 111.198 8.65486 111.06 8.78534C110.92 8.91582 110.757 9.01755 110.579 9.08467C111.099 9.22355 111.553 9.54243 111.86 9.98454C112.238 10.5536 112.426 11.227 112.399 11.9092C112.461 12.8111 112.197 13.7053 111.658 14.4306C111.385 14.7365 111.045 14.976 110.665 15.1311C110.285 15.2862 109.876 15.3528 109.466 15.3256H104.48V3.52708H109.056ZM107.505 6.08214V7.77588H108.011C108.449 7.77588 108.686 7.50161 108.686 6.94825C108.686 6.3949 108.449 6.08214 108.011 6.08214H107.505ZM107.505 10.5716V12.299H108.281C108.763 12.299 109.023 12.0246 109.023 11.4376C109.04 11.2121 108.967 10.989 108.821 10.817C108.679 10.6696 108.485 10.5833 108.281 10.5763L107.505 10.5716ZM119.913 3.52708V6.49595H116.913V8.01646H119.88V10.9853H116.913V12.4H119.913V15.3159H113.922V3.52708H119.913ZM126.725 7.32838C126.485 7.32006 126.247 7.36898 126.029 7.47107C125.813 7.57317 125.623 7.7255 125.477 7.91542C125.188 8.36831 125.046 8.89951 125.072 9.43594C125.05 9.97677 125.204 10.5101 125.511 10.9565C125.647 11.1484 125.83 11.3028 126.042 11.4054C126.254 11.508 126.489 11.5555 126.725 11.5435C126.974 11.5634 127.225 11.539 127.466 11.4713C127.634 11.4379 127.797 11.3794 127.948 11.2981V15.3159C127.817 15.3642 127.682 15.3996 127.543 15.4218C127.263 15.4557 126.981 15.467 126.701 15.4555C125.971 15.4801 125.245 15.3222 124.592 14.9962C123.938 14.6701 123.377 14.1864 122.957 13.5885C122.144 12.3534 121.711 10.9072 121.711 9.42874C121.711 7.95025 122.144 6.50412 122.957 5.26894C123.481 4.60878 124.164 4.09392 124.943 3.77374C125.723 3.45356 126.572 3.3388 127.408 3.44048C127.584 3.49951 127.765 3.54613 127.948 3.58001V7.61709C127.817 7.55085 127.682 7.493 127.543 7.44387C127.268 7.37417 126.984 7.3402 126.701 7.34282L126.725 7.32838ZM129.557 3.52708H136.131V6.73655H134.345V15.3159H131.325V6.73655H129.538V3.52708H129.557ZM140.953 7.91061H142.774C143.17 7.90044 143.563 7.97901 143.925 8.14054C144.287 8.30208 144.607 8.54247 144.864 8.84409C145.493 9.58278 145.808 10.5378 145.741 11.505C145.789 12.5059 145.491 13.493 144.898 14.3007C144.648 14.6251 144.326 14.8871 143.957 15.0667C143.589 15.2461 143.184 15.338 142.774 15.3352H137.957V3.52708H144.869V6.01478H140.957V7.91542L140.953 7.91061ZM140.953 10.7976V12.4914H141.695C142.177 12.4914 142.437 12.2172 142.437 11.6301C142.454 11.4047 142.381 11.1815 142.235 11.0094C142.164 10.9385 142.08 10.8833 141.987 10.8476C141.894 10.8119 141.794 10.7966 141.695 10.8025L140.953 10.7976ZM146.685 15.3544L149.618 3.54634H153.057L155.971 15.3159H153.038L152.6 13.6222H150.037L149.599 15.3159L146.685 15.3544ZM152.046 11.2452L151.338 8.35811L150.562 11.2452H152.046ZM160.509 3.54634V8.03572H162.734V3.52708H165.701V15.3159H162.734V10.9853H160.509V15.3159H157.508V3.52708L160.509 3.54634ZM170.793 3.54634V7.82881L172.85 3.54634H175.918L173.288 9.03657L176 15.3159H172.941L170.783 10.2395V15.3159H167.816V3.52708L170.793 3.54634Z" fill="#0A3576"/>
<path fill-rule="evenodd" clip-rule="evenodd" d="M9.8787 -0.000381538C12.3539 0.112758 14.6866 1.18907 16.3775 2.99833C18.0685 4.80758 18.9836 7.20608 18.9269 9.68069C18.8703 12.1553 17.8464 14.5095 16.0744 16.2397C14.3025 17.9698 11.923 18.9385 9.44517 18.9385C6.96734 18.9385 4.58791 17.9698 2.8159 16.2397C1.0439 14.5095 0.0200625 12.1553 -0.0365812 9.68069C-0.0932248 7.20608 0.821826 4.80758 2.51281 2.99833C4.20379 1.18907 6.53642 0.112758 9.01165 -0.000381538V2.68458C7.6433 2.7704 6.33306 3.26821 5.25346 4.11246C4.17386 4.9567 3.37554 6.1078 2.96363 7.41414C2.55171 8.72048 2.54552 10.1208 2.94586 11.4307C3.3462 12.7407 4.13432 13.8987 5.20641 14.7525L7.77855 7.99197H5.99153C5.80135 7.95273 5.60336 7.98714 5.43761 8.08821L5.01373 8.4924C4.98979 8.08215 4.98979 7.67084 5.01373 7.26058C5.06189 7.11624 5.20641 5.99989 5.70734 5.4321C6.06009 5.08624 6.51724 4.86636 7.00788 4.80658L12.7158 4.76808L11.8921 5.62939L13.8718 14.5744C14.8965 13.6919 15.6338 12.5236 15.989 11.2193C16.3442 9.91518 16.3011 8.53468 15.8651 7.25515C15.4292 5.97562 14.6204 4.85546 13.5426 4.03848C12.4646 3.2215 11.167 2.74499 9.81609 2.67014L9.84494 -0.0148163L9.8787 -0.000381538ZM7.69667 5.57164C7.75504 5.57447 7.81129 5.59434 7.85847 5.62878C7.90564 5.66323 7.94167 5.71076 7.96207 5.76546C7.98247 5.82017 7.98636 5.87964 7.97325 5.93652C7.96015 5.99341 7.93064 6.04521 7.88835 6.0855C7.84607 6.12579 7.79288 6.1528 7.73537 6.1632C7.67787 6.17358 7.61858 6.1669 7.56485 6.14395C7.51111 6.12102 7.4653 6.08282 7.43309 6.03411C7.40086 5.98541 7.38365 5.92835 7.38358 5.86997C7.3861 5.78914 7.42035 5.71255 7.47894 5.65673C7.53752 5.6009 7.61573 5.57034 7.69667 5.57164Z" fill="#0A3576"/>
<path d="M100.743 20.8206H0V34.0001H100.743V20.8206Z" fill="#C8DDE7"/>
</g>
</g>
<defs>
<clipPath id="clip0_711_66439">
<rect width="176" height="34" fill="white"/>
</clipPath>
</defs>
</svg>
