<svg width="40" height="40" viewBox="0 0 40 40" fill="none" xmlns="http://www.w3.org/2000/svg">
<g clip-path="url(#clip0_711_50076)">
<path fill-rule="evenodd" clip-rule="evenodd" d="M20.8673 0.0304638C26.087 0.26924 31.006 2.54075 34.5718 6.35909C38.1376 10.1774 40.0673 15.2393 39.9479 20.4619C39.8284 25.6844 37.6693 30.6527 33.9325 34.3043C30.196 37.9556 25.1783 40 19.9531 40C14.728 40 9.7103 37.9556 5.97357 34.3043C2.23684 30.6527 0.0778055 25.6844 -0.0416424 20.4619C-0.16109 15.2393 1.76854 10.1774 5.33441 6.35909C8.9003 2.54075 13.8193 0.26924 19.0389 0.0304638V5.69694C16.1534 5.87807 13.3904 6.92867 11.1138 8.71041C8.83719 10.4921 7.15372 12.9215 6.28509 15.6784C5.41645 18.4354 5.40339 21.3908 6.24763 24.1552C7.09184 26.9198 8.75379 29.3638 11.0146 31.1657L16.4386 16.8979H12.6702C12.2692 16.8151 11.8517 16.8877 11.5021 17.101L10.6083 17.9541C10.5578 17.0882 10.5578 16.2202 10.6083 15.3544C10.7098 15.0497 11.0146 12.6937 12.0709 11.4954C12.8148 10.7655 13.7788 10.3015 14.8134 10.1753L26.85 10.0941L25.1132 11.9118L29.2878 30.7899C31.4487 28.9273 33.0035 26.4616 33.7525 23.7091C34.5016 20.9568 34.4106 18.0433 33.4912 15.3429C32.5721 12.6425 30.8665 10.2785 28.5936 8.55427C26.3205 6.83007 23.584 5.82443 20.7353 5.66647L20.7961 0L20.8673 0.0304638ZM16.266 11.7899C16.389 11.7959 16.5077 11.8378 16.6071 11.9105C16.7066 11.9832 16.7826 12.0835 16.8256 12.199C16.8686 12.3144 16.8768 12.4399 16.8492 12.56C16.8216 12.6801 16.7593 12.7894 16.6702 12.8744C16.581 12.9594 16.4688 13.0164 16.3476 13.0384C16.2263 13.0603 16.1013 13.0462 15.988 12.9978C15.8747 12.9494 15.7781 12.8688 15.7101 12.766C15.6421 12.6632 15.6059 12.5428 15.6057 12.4195C15.611 12.249 15.6833 12.0873 15.8068 11.9695C15.9303 11.8517 16.0953 11.7872 16.266 11.7899Z" fill="#0A3576"/>
</g>
<defs>
<clipPath id="clip0_711_50076">
<rect width="40" height="40" fill="white"/>
</clipPath>
</defs>
</svg>
