<svg width="183" height="35" viewBox="0 0 183 35" fill="none" xmlns="http://www.w3.org/2000/svg">
<g clip-path="url(#clip0)">
<path d="M183 21.433H104.75V35.0001H183V21.433Z" fill="#009FD9"/>
<path d="M117.657 25.0214H119.332V25.8124H119.459C120.01 25.8124 120.49 25.9135 120.9 26.1156C121.314 26.3177 121.63 26.6019 121.85 26.9681C122.072 27.3344 122.184 27.7504 122.184 28.2162C122.184 28.7025 122.075 29.1288 121.858 29.495C121.642 29.8583 121.324 30.1395 120.905 30.3387C120.486 30.538 119.979 30.6376 119.384 30.6376H119.332V31.6263H117.657V30.6376H117.569C116.978 30.6376 116.474 30.5409 116.058 30.3475C115.645 30.1512 115.333 29.8729 115.122 29.5126C114.911 29.1493 114.805 28.7142 114.805 28.2074C114.805 27.7299 114.917 27.3065 115.139 26.9374C115.365 26.5653 115.678 26.2855 116.08 26.098C116.484 25.9076 116.956 25.8124 117.495 25.8124H117.657V25.0214ZM119.332 29.3236H119.384C119.753 29.3236 120.03 29.2328 120.215 29.0511C120.399 28.8695 120.492 28.5883 120.492 28.2074C120.492 27.8734 120.397 27.6127 120.206 27.4252C120.016 27.2347 119.748 27.1395 119.402 27.1395H119.332V29.3236ZM117.657 27.1395H117.556C117.213 27.1395 116.951 27.2303 116.77 27.412C116.588 27.5936 116.497 27.8588 116.497 28.2074C116.497 28.6029 116.585 28.8885 116.761 29.0643C116.94 29.2372 117.209 29.3236 117.569 29.3236H117.657V27.1395ZM127.158 31.5385L126.842 30.3344H124.754L124.429 31.5385H122.522L124.618 25.0873H126.934L129.057 31.5385H127.158ZM126.482 28.9105L126.205 27.8558C126.14 27.6215 126.061 27.3182 125.967 26.9462C125.877 26.5741 125.816 26.3075 125.787 26.1464C125.761 26.2958 125.708 26.5419 125.629 26.8846C125.553 27.2274 125.381 27.9027 125.115 28.9105H126.482ZM135.372 31.5385H133.407L131.5 28.2821V31.5385H129.755V25.1136H131.5V28.225L133.337 25.1136H135.244L133.262 28.181L135.372 31.5385ZM138.865 31.5385H137.129V26.5331H135.561V25.1136H140.43V26.5331H138.865V31.5385ZM147.36 28.3173C147.36 29.3983 147.095 30.2201 146.565 30.7826C146.034 31.3451 145.258 31.6263 144.235 31.6263C143.228 31.6263 142.454 31.3436 141.915 30.7782C141.379 30.2128 141.111 29.3895 141.111 28.3085C141.111 27.2391 141.378 26.4232 141.911 25.8607C142.447 25.2953 143.225 25.0126 144.244 25.0126C145.267 25.0126 146.042 25.2924 146.569 25.8519C147.096 26.4115 147.36 27.2333 147.36 28.3173ZM142.939 28.3173C142.939 29.5594 143.371 30.1805 144.235 30.1805C144.675 30.1805 145 30.0297 145.211 29.7279C145.425 29.4261 145.532 28.9559 145.532 28.3173C145.532 27.6757 145.423 27.2025 145.207 26.8978C144.993 26.5902 144.672 26.4364 144.244 26.4364C143.374 26.4364 142.939 27.0634 142.939 28.3173ZM153.183 27.1571C153.183 27.8749 152.97 28.4301 152.545 28.8226C152.124 29.2123 151.523 29.4071 150.744 29.4071H150.256V31.5385H148.52V25.1136H150.744C151.555 25.1136 152.165 25.2909 152.572 25.6454C152.979 25.9999 153.183 26.5038 153.183 27.1571ZM150.256 27.9921H150.572C150.833 27.9921 151.04 27.9188 151.192 27.7723C151.347 27.6259 151.425 27.4237 151.425 27.1659C151.425 26.7323 151.185 26.5155 150.704 26.5155H150.256V27.9921ZM154.207 25.1136H155.753V27.8734C155.753 28.1664 155.73 28.7523 155.683 29.6312H155.718L158.28 25.1136H160.425V31.5385H158.887V28.849C158.887 28.4418 158.913 27.8324 158.966 27.0209H158.931L156.347 31.5385H154.207V25.1136ZM167.324 31.5385H165.58V28.9193H163.563V31.5385H161.818V25.1136H163.563V27.4955H165.58V25.1136H167.324V31.5385ZM173.002 25.1136V26.5155H170.462V31.5385H168.717V25.1136H173.002Z" fill="white"/>
<path fill-rule="evenodd" clip-rule="evenodd" d="M35.3291 15.7664L34.5778 9.66889L33.2957 15.7664H31.5427L30.1404 9.65403L29.299 15.7664H26.2139L28.0018 3.611H31.1922L32.3491 8.98038L33.5761 3.63082H36.6613L38.4142 15.7862L35.3291 15.7664ZM45.9518 3.611V6.6672H42.8316V8.23244H45.0402V11.3084H42.8316V12.7647H45.9518V15.7664H39.7464V3.63082L45.9518 3.611ZM47.6346 3.611H54.4359V6.91486H52.5778V15.7664H49.4576V6.93468H47.6346V3.63082V3.611ZM55.6129 15.7664L58.6629 3.611H62.274L65.304 15.7664H62.2539L61.7531 14.0228H59.1187L58.6629 15.7664H55.6129ZM61.2222 11.6056L60.486 8.51477L59.6796 11.6056H61.2222ZM72.8416 3.63082L75.2957 15.7664H72.1755L70.8432 6.70187H70.5978L69.2306 15.7664H66.1304L68.5144 3.611L72.8416 3.63082ZM82.8583 3.63082L85.3624 15.7862H82.2422L80.91 6.72167H80.6646L79.2573 15.7664H76.1721L78.5912 3.611L82.8583 3.63082ZM95.7598 3.63082V15.7664H92.6396V10.2038L89.7397 15.7664H86.6646V3.63082H89.7498V9.49552L92.8349 3.63082H95.7598ZM101.089 3.63082V8.25224H103.438V3.63082H106.523V15.7664H103.438V11.3084H101.089V15.7664H98.0035V3.63082H101.089ZM113.394 3.63082C113.774 3.61847 114.152 3.69189 114.499 3.84552C114.846 3.99914 115.154 4.22894 115.397 4.51747C115.905 5.17982 116.165 5.99533 116.134 6.8257C116.163 7.42299 116.055 8.01906 115.818 8.56926C115.737 8.74816 115.621 8.90941 115.477 9.04373C115.332 9.17805 115.162 9.28277 114.977 9.35187C115.518 9.49483 115.99 9.82309 116.309 10.2782C116.702 10.864 116.898 11.5572 116.87 12.2595C116.934 13.1879 116.66 14.1084 116.099 14.855C115.815 15.1699 115.462 15.4165 115.067 15.5761C114.672 15.7358 114.246 15.8043 113.82 15.7763H108.636V3.63082H113.394ZM111.781 6.26102V8.00458H112.307C112.763 8.00458 113.009 7.72224 113.009 7.15261C113.009 6.58298 112.763 6.26102 112.307 6.26102H111.781ZM111.781 10.8825V12.6607H112.588C113.089 12.6607 113.359 12.3783 113.359 11.774C113.377 11.5419 113.301 11.3122 113.149 11.1351C113.002 10.9834 112.8 10.8946 112.588 10.8874L111.781 10.8825ZM124.683 3.63082V6.68701H121.563V8.25224H124.648V11.3084H121.563V12.7647H124.683V15.7664H118.453V3.63082H124.683ZM131.765 7.54392C131.516 7.53535 131.268 7.58571 131.042 7.69081C130.817 7.79591 130.62 7.95272 130.468 8.14823C130.167 8.61444 130.02 9.16126 130.047 9.71347C130.024 10.2702 130.184 10.8192 130.503 11.2787C130.645 11.4763 130.835 11.6352 131.055 11.7408C131.276 11.8465 131.52 11.8954 131.765 11.883C132.024 11.9035 132.285 11.8784 132.536 11.8087C132.711 11.7743 132.88 11.7141 133.037 11.6304V15.7664C132.901 15.8161 132.76 15.8525 132.616 15.8754C132.325 15.9103 132.032 15.9219 131.74 15.9101C130.981 15.9354 130.227 15.7729 129.548 15.4373C128.868 15.1016 128.284 14.6036 127.848 13.9882C127.002 12.7167 126.552 11.228 126.552 9.70605C126.552 8.18408 127.002 6.69542 127.848 5.42391C128.392 4.74433 129.103 4.21433 129.913 3.88473C130.724 3.55513 131.606 3.437 132.476 3.54167C132.659 3.60244 132.847 3.65043 133.037 3.6853V7.84112C132.901 7.77293 132.76 7.71338 132.616 7.66281C132.33 7.59106 132.035 7.55609 131.74 7.55878L131.765 7.54392ZM134.71 3.63082H141.546V6.93468H139.688V15.7664H136.548V6.93468H134.69V3.63082H134.71ZM146.559 8.14327H148.453C148.864 8.13281 149.273 8.21369 149.65 8.37997C150.026 8.54626 150.359 8.79372 150.626 9.10421C151.28 9.86463 151.607 10.8477 151.538 11.8434C151.588 12.8737 151.278 13.8898 150.661 14.7213C150.401 15.0552 150.066 15.325 149.683 15.5098C149.3 15.6945 148.879 15.7891 148.453 15.7862H143.444V3.63082H150.631V6.19168H146.564V8.14823L146.559 8.14327ZM146.559 11.1152V12.8588H147.331C147.832 12.8588 148.102 12.5765 148.102 11.9722C148.12 11.7401 148.044 11.5104 147.892 11.3332C147.819 11.2602 147.731 11.2034 147.634 11.1666C147.538 11.1299 147.434 11.1141 147.331 11.1202L146.559 11.1152ZM152.519 15.806L155.569 3.65064H159.145L162.175 15.7664H159.125L158.67 14.0228H156.005L155.549 15.7664L152.519 15.806ZM158.094 11.5759L157.357 8.60394L156.551 11.5759H158.094ZM166.893 3.65064V8.27206H169.207V3.63082H172.292V15.7664H169.207V11.3084H166.893V15.7664H163.773V3.63082L166.893 3.65064ZM177.586 3.65064V8.05907L179.725 3.65064H182.915L180.18 9.30235L183 15.7664H179.82L177.576 10.5407V15.7664H174.491V3.63082L177.586 3.65064Z" fill="#002D73"/>
<path fill-rule="evenodd" clip-rule="evenodd" d="M10.2712 -0.000399501C12.8449 0.116068 15.2703 1.22404 17.0285 3.08651C18.7867 4.94897 19.7382 7.41802 19.6793 9.96541C19.6204 12.5128 18.5558 14.9362 16.7133 16.7173C14.8709 18.4983 12.3968 19.4955 9.82043 19.4955C7.24405 19.4955 4.76998 18.4983 2.9275 16.7173C1.08502 14.9362 0.0204609 12.5128 -0.0384356 9.96541C-0.0973321 7.41802 0.854113 4.94897 2.61235 3.08651C4.37059 1.22404 6.79599 0.116068 9.36967 -0.000399501V2.76353C7.9469 2.85188 6.58454 3.36433 5.462 4.23341C4.33947 5.10248 3.5094 6.28743 3.0811 7.6322C2.6528 8.97696 2.64636 10.4185 3.06263 11.7669C3.47889 13.1154 4.29835 14.3075 5.41308 15.1864L8.08753 8.22702H6.22943C6.03169 8.18663 5.82582 8.22205 5.65348 8.32609L5.21274 8.74217C5.18785 8.31985 5.18785 7.89645 5.21274 7.47412C5.26282 7.32553 5.41308 6.17635 5.93394 5.59186C6.30072 5.23583 6.77605 5.00948 7.2862 4.94794L13.2211 4.90831L12.3647 5.79495L14.4231 15.0031C15.4886 14.0946 16.2552 12.8919 16.6245 11.5493C16.9939 10.2068 16.949 8.78569 16.4957 7.46853C16.0425 6.15137 15.2015 4.99826 14.0808 4.15725C12.96 3.31624 11.6107 2.82572 10.2061 2.74867L10.2361 -0.0152588L10.2712 -0.000399501ZM8.00239 5.73551C8.06308 5.73842 8.12157 5.75887 8.17062 5.79433C8.21967 5.82979 8.25713 5.87872 8.27834 5.93503C8.29956 5.99134 8.3036 6.05256 8.28997 6.11112C8.27635 6.16968 8.24566 6.223 8.20169 6.26448C8.15773 6.30595 8.10242 6.33376 8.04263 6.34446C7.98284 6.35515 7.92119 6.34827 7.86532 6.32465C7.80945 6.30104 7.76182 6.26172 7.72832 6.21158C7.69481 6.16145 7.67692 6.10271 7.67685 6.04261C7.67947 5.9594 7.71508 5.88056 7.776 5.8231C7.83691 5.76563 7.91823 5.73417 8.00239 5.73551Z" fill="#002D73"/>
<path d="M104.75 21.433H0V35.0001H104.75V21.433Z" fill="#C7DDE8"/>
</g>
<defs>
<clipPath id="clip0">
<rect width="183" height="35" fill="white"/>
</clipPath>
</defs>
</svg>
