<svg width="40" height="40" viewBox="0 0 40 40" fill="none" xmlns="http://www.w3.org/2000/svg">
<g clip-path="url(#clip0_1655:1215)">
<path d="M28.8338 4.91633C28.6872 4.76984 28.4886 4.6875 28.2814 4.6875H20.3116C18.8498 1.82398 15.9002 0 12.6564 0C7.91778 0 4.06262 3.85516 4.06262 8.59375C4.06262 13.3323 7.91778 17.1875 12.6564 17.1875C15.0265 17.1875 17.228 16.2419 18.8404 14.5624C20.4332 16.7869 22.4428 18.75 26.2126 18.75H29.5203L38.6664 27.8962C38.89 28.1197 39.2259 28.1863 39.5179 28.0655C39.8097 27.9446 40.0001 27.6598 40.0001 27.3438V16.4062C40.0001 16.1991 39.9178 16.0004 39.7713 15.8538L28.8338 4.91633ZM12.6564 15.625C8.77934 15.625 5.62512 12.4708 5.62512 8.59375C5.62512 4.71672 8.77934 1.5625 12.6564 1.5625C15.4529 1.5625 17.9833 3.21852 19.1029 5.78148C19.3866 6.43094 19.5675 7.11141 19.6446 7.8125H17.3439C16.9125 7.8125 16.5626 8.16234 16.5626 8.59375C16.5626 10.1069 17.4417 11.4584 18.7511 12.102C17.4996 14.271 15.2175 15.625 12.6564 15.625V15.625ZM38.4376 25.4576L31.6798 18.6998C31.9762 18.5888 32.1876 18.3038 32.1876 17.9687C32.1876 17.5373 31.8378 17.1874 31.4064 17.1874H26.2126C22.9509 17.1874 21.3465 15.4605 19.8544 13.2886C20.0216 13.0328 20.1749 12.768 20.3137 12.496C20.3654 12.498 20.4171 12.4999 20.4689 12.4999H21.7762C22.6733 14.3899 24.5945 15.6249 26.7189 15.6249C27.1503 15.6249 27.5001 15.2751 27.5001 14.8437C27.5001 14.4123 27.1503 14.0624 26.7189 14.0624C25.066 14.0624 23.5853 13.0159 23.0343 11.4582C22.924 11.1461 22.6289 10.9374 22.2978 10.9374H20.4689C19.4629 10.9374 18.5888 10.3001 18.2599 9.37492H26.7189C27.1503 9.37492 27.5001 9.02508 27.5001 8.59367C27.5001 8.16227 27.1503 7.81242 26.7189 7.81242H21.2147C21.1671 7.28148 21.0709 6.75969 20.9264 6.24992H27.9578L38.4376 16.7299V25.4576Z" fill="white"/>
<path d="M12.6697 7.77969C12.2389 7.77969 11.8884 7.42922 11.8884 6.99844C11.8884 6.57109 12.2358 6.2207 12.6619 6.21719C12.6638 6.21719 12.6657 6.21711 12.6676 6.21711C12.9458 6.21711 13.2386 6.35828 13.5147 6.62547C13.8247 6.9257 14.3195 6.91758 14.6194 6.60742C14.9195 6.29734 14.9113 5.80281 14.6013 5.50273C14.2006 5.11484 13.7991 4.89672 13.4377 4.77906V3.90625C13.4377 3.47484 13.0878 3.125 12.6564 3.125C12.225 3.125 11.8752 3.47484 11.8752 3.90625V4.79438C10.9735 5.12172 10.3259 5.98828 10.3259 6.99844C10.3259 8.29078 11.3774 9.34219 12.6697 9.34219C13.1005 9.34219 13.4509 9.69266 13.4509 10.1234C13.4509 10.5573 13.0992 10.9048 12.6708 10.9048C12.6684 10.9048 12.666 10.9048 12.6636 10.9047C12.3255 10.9016 11.977 10.6976 11.656 10.3145C11.3788 9.98375 10.8862 9.94047 10.5554 10.2177C10.2248 10.4949 10.1813 10.9876 10.4585 11.3183C10.8716 11.811 11.3584 12.156 11.8752 12.3323V13.2812C11.8752 13.7127 12.2251 14.0625 12.6565 14.0625C13.0879 14.0625 13.4377 13.7127 13.4377 13.2812V12.339C14.3374 12.0279 15.0135 11.1677 15.0135 10.1234C15.0134 8.83109 13.962 7.77969 12.6697 7.77969V7.77969Z" fill="white"/>
<path d="M12.1876 19.2188C11.7562 19.2188 11.4063 19.5686 11.4063 20V23.2701L11.1775 23.0413C10.8723 22.7363 10.3778 22.7363 10.0726 23.0413C9.76748 23.3463 9.76748 23.841 10.0726 24.1462L11.6351 25.7087C11.7877 25.8612 11.9876 25.9375 12.1876 25.9375C12.3876 25.9375 12.5874 25.8612 12.74 25.7087L14.3025 24.1462C14.6076 23.8411 14.6076 23.3464 14.3025 23.0413C13.9973 22.7363 13.5028 22.7363 13.1976 23.0413L12.9688 23.2701V20C12.9688 19.5686 12.619 19.2188 12.1876 19.2188V19.2188Z" fill="white"/>
<path d="M11.4064 40C11.8378 40 12.1876 39.6502 12.1876 39.2188C12.1876 38.7873 11.8378 38.4375 11.4064 38.4375C10.9749 38.4375 10.6251 38.7873 10.6251 39.2188C10.6251 39.6502 10.9749 40 11.4064 40Z" fill="white"/>
<path d="M5.68356 30.625H0.781372C0.349966 30.625 0.00012207 30.9748 0.00012207 31.4062V39.2188C0.00012207 39.6502 0.349966 40 0.781372 40H7.89075C8.32215 40 8.672 39.6502 8.672 39.2188C8.672 38.7873 8.32215 38.4375 7.89075 38.4375H1.56262V32.1867H5.21286C5.17598 32.4451 5.15637 32.7058 5.15637 32.9688C5.15637 33.4002 5.50622 33.75 5.93762 33.75C6.36903 33.75 6.71887 33.4002 6.71887 32.9688C6.71887 32.5215 6.79348 32.0833 6.94059 31.6666C7.49129 30.1091 8.972 29.0625 10.6251 29.0617H15.96C15.6375 29.972 14.7686 30.625 13.7501 30.625H10.6251C10.1937 30.625 9.84387 30.9748 9.84387 31.4062C9.84387 33.5602 11.5962 35.3125 13.7501 35.3117H21.1936C21.1989 35.3126 21.2042 35.3133 21.2096 35.3133C21.4096 35.3133 21.6094 35.237 21.762 35.0845L25.5354 31.311C25.5386 31.308 25.5411 31.3045 25.5442 31.3013C26.2852 30.5853 27.3909 30.4567 28.2635 30.9134L22.1313 38.4375H14.922C14.4906 38.4375 14.1407 38.7873 14.1407 39.2188C14.1407 39.6502 14.4906 40 14.922 40H22.5025C22.7373 40 22.9597 39.8943 23.1081 39.7123L29.9878 31.2709C30.241 30.9601 30.2179 30.508 29.9343 30.2247C28.5955 28.8864 26.5046 28.7272 24.9865 29.7507C23.4654 28.7039 21.362 28.8549 20.0109 30.206L16.4671 33.75H13.7501C12.7316 33.75 11.8627 33.097 11.5403 32.1875H13.7501C15.904 32.1875 17.6564 30.4352 17.6564 28.2812C17.6564 27.8498 17.3065 27.5 16.8751 27.5H10.6251C8.50083 27.5 6.58075 28.7352 5.68356 30.625V30.625ZM21.1158 31.311C21.8353 30.5913 22.9109 30.4387 23.7822 30.853L20.885 33.75H18.6768L21.1158 31.311Z" fill="white"/>
</g>
<defs>
<clipPath id="clip0_1655:1215">
<rect width="40" height="40" fill="white" transform="translate(0.00012207)"/>
</clipPath>
</defs>
</svg>
