<svg width="47" height="47" viewBox="0 0 47 47" fill="none" xmlns="http://www.w3.org/2000/svg">
<g clip-path="url(#clip0_1655:1255)">
<path d="M21.8645 39.6925C21.4319 39.7216 20.9917 39.7365 20.5561 39.7365C9.98074 39.7364 1.37704 31.1327 1.37704 20.5574C1.37704 9.98201 9.98074 1.37822 20.5562 1.37822C31.1316 1.37822 39.7353 9.98192 39.7353 20.5574C39.7353 22.2979 39.5023 24.0227 39.0426 25.684C38.9413 26.0504 39.1561 26.4297 39.5226 26.5312C39.8891 26.6326 40.2684 26.4177 40.3698 26.0512C40.8625 24.2704 41.1123 22.422 41.1123 20.5574C41.1123 15.0667 38.9742 9.90454 35.0916 6.0221C31.2089 2.13956 26.0469 0.00130463 20.5562 0.00130463C15.0655 0.00130463 9.90336 2.13956 6.02082 6.0221C2.13829 9.90454 0.00012207 15.0666 0.00012207 20.5574C0.00012207 26.0481 2.13829 31.2102 6.02082 35.0926C9.90326 38.9752 15.0654 41.1133 20.5561 41.1133C21.0224 41.1133 21.4938 41.0975 21.9571 41.0662C22.3365 41.0407 22.6233 40.7125 22.5978 40.3331C22.5722 39.9538 22.2452 39.6665 21.8645 39.6925Z" fill="white"/>
<path d="M37.1216 24.1076C37.4968 24.172 37.8521 23.9198 37.9163 23.5451C38.0839 22.5647 38.1689 21.5593 38.1689 20.5568C38.1689 10.8452 30.2679 2.94415 20.5563 2.94415C10.8446 2.94415 2.94348 10.8452 2.94348 20.5568C2.94348 30.2685 10.8445 38.1695 20.5562 38.1695C21.6587 38.1695 22.7626 38.0668 23.8371 37.8643C24.2107 37.7939 24.4565 37.434 24.3861 37.0603C24.3157 36.6867 23.9559 36.4408 23.5821 36.5112C22.5914 36.6979 21.5734 36.7926 20.5562 36.7926C11.6037 36.7926 4.3204 29.5093 4.3204 20.5568C4.3204 11.6044 11.6038 4.32106 20.5563 4.32106C29.5087 4.32106 36.792 11.6044 36.792 20.5568C36.792 21.4818 36.7136 22.4091 36.5591 23.313C36.495 23.6878 36.7469 24.0436 37.1216 24.1076Z" fill="white"/>
<path d="M46.6115 42.6988L37.3878 26.7229C36.8695 25.8254 35.9414 25.2895 34.9049 25.2895C33.8685 25.2895 32.9403 25.8254 32.4221 26.7229L23.1984 42.6988C22.6801 43.5964 22.6801 44.6682 23.1984 45.5658C23.7167 46.4634 24.6448 46.9993 25.6812 46.9993H44.1286C45.1652 46.9993 46.0933 46.4634 46.6115 45.5658C47.1297 44.6682 47.1297 43.5964 46.6115 42.6988ZM45.4191 44.8774C45.1497 45.3439 44.6674 45.6224 44.1286 45.6224H25.6812C25.1425 45.6224 24.6601 45.3439 24.3908 44.8774C24.1215 44.4108 24.1215 43.8538 24.3908 43.3873L33.6145 27.4114C33.8838 26.9449 34.3662 26.6664 34.9049 26.6664C35.4437 26.6664 35.9261 26.9449 36.1954 27.4114L45.4191 43.3873C45.6884 43.8538 45.6884 44.4108 45.4191 44.8774Z" fill="white"/>
<path d="M34.8865 30.2731C34.5063 30.2731 34.1981 30.5814 34.1981 30.9616V39.7917C34.1981 40.1719 34.5063 40.4801 34.8865 40.4801C35.2667 40.4801 35.575 40.1719 35.575 39.7917V30.9616C35.575 30.5814 35.2667 30.2731 34.8865 30.2731Z" fill="white"/>
<path d="M22.6031 21.2451H34.537C34.9172 21.2451 35.2255 20.9369 35.2255 20.5567C35.2255 20.1764 34.9172 19.8682 34.537 19.8682H22.6031C22.315 19.0138 21.5065 18.3966 20.5561 18.3966C20.2112 18.3966 19.8852 18.4782 19.5956 18.6226L11.477 10.504C11.2081 10.2351 10.7722 10.2351 10.5034 10.504C10.2345 10.7728 10.2345 11.2088 10.5034 11.4776L18.6221 19.5962C18.4777 19.8857 18.396 20.2118 18.396 20.5567C18.396 21.7478 19.365 22.7168 20.5561 22.7168C21.5065 22.7168 22.315 22.0995 22.6031 21.2451ZM20.5562 21.3398C20.1243 21.3398 19.773 20.9885 19.773 20.5567C19.773 20.1249 20.1244 19.7735 20.5562 19.7735C20.988 19.7735 21.3394 20.1249 21.3394 20.5567C21.3394 20.9885 20.988 21.3398 20.5562 21.3398Z" fill="white"/>
<path d="M8.73536 20.5567C8.73536 20.1765 8.4271 19.8682 8.04688 19.8682H6.57519C6.19497 19.8682 5.88672 20.1765 5.88672 20.5567C5.88672 20.9369 6.19497 21.2452 6.57519 21.2452H8.04688C8.4271 21.2452 8.73536 20.9369 8.73536 20.5567Z" fill="white"/>
<path d="M21.2448 8.04744V6.57575C21.2448 6.19553 20.9365 5.88728 20.5563 5.88728C20.1761 5.88728 19.8678 6.19553 19.8678 6.57575V8.04744C19.8678 8.42766 20.1761 8.73592 20.5563 8.73592C20.9365 8.73592 21.2448 8.42766 21.2448 8.04744Z" fill="white"/>
<path d="M19.8678 33.0659V34.5376C19.8678 34.9178 20.1761 35.226 20.5563 35.226C20.9365 35.226 21.2448 34.9178 21.2448 34.5376V33.0659C21.2448 32.6856 20.9365 32.3774 20.5563 32.3774C20.1761 32.3774 19.8678 32.6856 19.8678 33.0659Z" fill="white"/>
<path d="M13.3373 31.683L12.9694 32.3202C12.7793 32.6495 12.8921 33.0706 13.2214 33.2607C13.3298 33.3233 13.4482 33.353 13.565 33.353C13.8029 33.353 14.0344 33.2296 14.1619 33.0087L14.5298 32.3715C14.7199 32.0422 14.6071 31.6211 14.2778 31.431C13.9486 31.2407 13.5275 31.3536 13.3373 31.683Z" fill="white"/>
<path d="M27.178 9.77477C27.416 9.77477 27.6474 9.6513 27.7749 9.43044L28.1428 8.79319C28.3329 8.46391 28.2201 8.04284 27.8908 7.85273C27.5616 7.66252 27.1405 7.77534 26.9504 8.10471L26.5825 8.74196C26.3924 9.07124 26.5052 9.49231 26.8344 9.68242C26.9429 9.74503 27.0612 9.77477 27.178 9.77477Z" fill="white"/>
<path d="M9.42995 13.338L8.7927 12.9701C8.46342 12.7799 8.04235 12.8927 7.85224 13.222C7.66213 13.5513 7.77495 13.9724 8.10422 14.1625L8.74147 14.5304C8.84989 14.593 8.9683 14.6228 9.08507 14.6228C9.32301 14.6228 9.55443 14.4993 9.68193 14.2784C9.87204 13.9492 9.75923 13.5281 9.42995 13.338Z" fill="white"/>
<path d="M13.9342 9.77477C14.051 9.77477 14.1694 9.74503 14.2778 9.68242C14.6071 9.49231 14.7199 9.07124 14.5298 8.74196L14.1619 8.10471C13.9718 7.77534 13.5506 7.66252 13.2214 7.85273C12.8921 8.04284 12.7793 8.46391 12.9694 8.79319L13.3373 9.43044C13.4649 9.6513 13.6964 9.77477 13.9342 9.77477Z" fill="white"/>
<path d="M32.0272 14.6228C32.144 14.6228 32.2624 14.5931 32.3708 14.5305L33.0081 14.1625C33.3373 13.9724 33.4502 13.5514 33.2601 13.2221C33.0699 12.8928 32.6488 12.78 32.3196 12.9701L31.6823 13.338C31.3531 13.5281 31.2403 13.9492 31.4304 14.2785C31.558 14.4993 31.7894 14.6228 32.0272 14.6228Z" fill="white"/>
<path d="M8.44898 28.2358C8.56575 28.2358 8.68416 28.2061 8.79257 28.1435L9.42983 27.7755C9.7591 27.5854 9.87192 27.1643 9.68181 26.8351C9.4917 26.5057 9.07044 26.3929 8.74135 26.5831L8.1041 26.951C7.77482 27.1411 7.66201 27.5622 7.85212 27.8915C7.97962 28.1122 8.21104 28.2358 8.44898 28.2358Z" fill="white"/>
<path d="M34.8865 43.423C35.2668 43.423 35.575 43.1148 35.575 42.7346C35.575 42.3543 35.2668 42.0461 34.8865 42.0461C34.5063 42.0461 34.1981 42.3543 34.1981 42.7346C34.1981 43.1148 34.5063 43.423 34.8865 43.423Z" fill="white"/>
</g>
<defs>
<clipPath id="clip0_1655:1255">
<rect width="47" height="47" fill="white" transform="translate(0.00012207)"/>
</clipPath>
</defs>
</svg>
