<svg width="45" height="45" viewBox="0 0 45 45" fill="none" xmlns="http://www.w3.org/2000/svg">
<g clip-path="url(#clip0_1655:1234)">
<path d="M24.8277 0C24.0356 0 23.2566 0.0589655 22.4885 0.162931C21.6878 0.0558621 20.9267 0 20.1725 0C14.4606 0 9.3097 2.7706 5.69496 7.18759C5.65849 7.22017 5.63211 7.25897 5.60263 7.29776C4.45048 8.72457 3.46048 10.3221 2.65979 12.0507C2.63961 12.0887 2.62177 12.1259 2.60703 12.1671C2.05539 13.3751 1.5953 14.6444 1.24151 15.9665C1.2066 16.0409 1.19108 16.1224 1.18099 16.207C0.668148 18.2056 0.388062 20.3159 0.388062 22.5C0.388062 25.9169 1.06461 29.1561 2.26798 32.0594C2.27884 32.0904 2.28892 32.1199 2.30366 32.1494C3.02522 33.8703 3.93298 35.4701 4.99823 36.9171C5.02539 36.9543 5.04789 36.9939 5.08125 37.0257C6.1597 38.4727 7.39565 39.7614 8.75884 40.86C8.79763 40.9027 8.84418 40.9345 8.89229 40.9678C12.0943 43.5065 15.9821 45 20.1725 45C20.9267 45 21.6878 44.9441 22.4885 44.8371C23.2566 44.941 24.0356 45 24.8277 45C35.7371 45 44.6122 34.9068 44.6122 22.5C44.6122 10.0932 35.7371 0 24.8277 0ZM16.6346 2.0281C16.3778 2.16155 16.1241 2.30121 15.8735 2.44629C15.7331 2.52776 15.5919 2.60612 15.4537 2.69147C15.2388 2.82336 15.0286 2.96302 14.8191 3.10345H13.3256C14.4599 2.57276 15.6438 2.15457 16.8782 1.89466C16.7952 1.93578 16.7169 1.98543 16.6346 2.0281ZM8.81392 35.6897H6.03168C5.34737 34.7229 4.73987 33.6841 4.21229 32.5862H7.15125C7.27306 32.8609 7.39798 33.1332 7.5291 33.4016C7.58573 33.5172 7.6447 33.6313 7.70366 33.7461C7.86272 34.058 8.0272 34.3645 8.19867 34.6663C8.26229 34.7788 8.32358 34.8928 8.38953 35.0046C8.52608 35.2366 8.66961 35.4631 8.81392 35.6897ZM3.85461 13.1897H6.82384C6.68806 13.5287 6.55927 13.8716 6.43746 14.2192C6.4041 14.3154 6.36996 14.4109 6.33737 14.5071C6.22565 14.8407 6.12168 15.1774 6.02315 15.5172H2.99263C3.23935 14.7173 3.52798 13.9415 3.85461 13.1897ZM1.93979 22.5C1.93979 21.9771 1.96772 21.4619 2.0003 20.9483H5.09366C5.09289 20.9607 5.09289 20.9731 5.09211 20.9855C5.06341 21.4867 5.04323 21.9903 5.04323 22.5C5.04323 22.7599 5.05254 23.0175 5.0603 23.2759H1.97004C1.96151 23.0167 1.93979 22.7615 1.93979 22.5ZM5.14875 24.8276C5.17823 25.1542 5.21625 25.4785 5.25815 25.8013C5.26125 25.8246 5.2628 25.8486 5.26591 25.8727C5.32332 26.3041 5.39315 26.7316 5.47151 27.1552H2.41151C2.26022 26.3933 2.14073 25.6182 2.06392 24.8276H5.14875ZM5.62979 17.069C5.60961 17.1605 5.59254 17.2536 5.57392 17.3452C5.55298 17.4476 5.53125 17.5492 5.51108 17.6516C5.41642 18.1381 5.33263 18.6292 5.26668 19.1273C5.26358 19.1506 5.26203 19.1747 5.25892 19.1987C5.24961 19.2647 5.24418 19.3306 5.23565 19.3966H2.15625C2.25866 18.6067 2.38823 17.8278 2.56591 17.069H5.62979ZM5.81522 28.7069C5.83927 28.8016 5.86177 28.8978 5.8866 28.9916C5.89591 29.0258 5.90366 29.0615 5.91297 29.0956C6.04099 29.5681 6.18453 30.0328 6.33815 30.4922C6.37073 30.5891 6.40487 30.6838 6.43823 30.78C6.46694 30.8653 6.49565 30.9507 6.52591 31.0345H3.53651C3.24246 30.2811 2.98953 29.5037 2.77384 28.7069H5.81522ZM8.38875 9.99621C8.32358 10.1072 8.26151 10.222 8.19789 10.3345C8.02642 10.6363 7.86117 10.9435 7.70289 11.2547C7.6447 11.3695 7.58496 11.4828 7.52832 11.5991C7.52211 11.6116 7.51513 11.6247 7.50892 11.6379H4.60022C5.18754 10.5308 5.8641 9.495 6.61435 8.53448H9.3322C9.23754 8.67026 9.14211 8.80526 9.04978 8.94336C8.82091 9.28707 8.60056 9.63776 8.38875 9.99621ZM10.6543 4.65517H12.7972C12.6048 4.82353 12.4124 4.99267 12.2254 5.16879C12.0694 5.31621 11.9181 5.46905 11.7661 5.6219C11.6125 5.77629 11.4604 5.93302 11.3114 6.09207C11.1679 6.24491 11.0244 6.39698 10.8847 6.55448C10.7606 6.69414 10.6419 6.83922 10.5216 6.98276H7.9597C8.79297 6.11612 9.6922 5.33483 10.6543 4.65517ZM7.23427 37.2414H9.89703C9.9847 37.3562 10.0716 37.471 10.1616 37.5835C10.3959 37.8784 10.6372 38.1654 10.8847 38.4455C11.0236 38.603 11.1679 38.7551 11.3114 38.9079C11.4612 39.0678 11.6132 39.2245 11.7676 39.3789C11.8297 39.441 11.8887 39.5077 11.9515 39.569H9.61772C8.76504 38.8715 7.96823 38.0925 7.23427 37.2414ZM16.8775 43.1053C15.0984 42.7306 13.4171 42.0432 11.8576 41.1207H13.7344C13.8338 41.1975 13.9362 41.2697 14.0363 41.3441C14.1969 41.4636 14.3575 41.5839 14.5212 41.6979C14.8261 41.9105 15.1372 42.1146 15.453 42.3085C15.5911 42.3931 15.7323 42.4722 15.8727 42.5537C16.1233 42.6988 16.377 42.8385 16.6338 42.9719C16.7169 43.0146 16.7952 43.0642 16.8775 43.1053ZM24.8277 43.4483C24.2109 43.4483 23.6019 43.4118 23.0013 43.3428L22.7011 43.3009C22.6592 43.2954 22.6181 43.2884 22.5769 43.283C22.3085 43.245 22.0424 43.2008 21.7786 43.1496C21.7561 43.1449 21.7344 43.1403 21.7126 43.1356C21.4558 43.0852 21.2013 43.0285 20.9492 42.9657C20.9112 42.9564 20.8731 42.9455 20.8351 42.9354C20.6 42.8749 20.3657 42.8113 20.1345 42.7407C20.0639 42.719 19.9933 42.6941 19.9227 42.6716C19.7249 42.6088 19.5278 42.5444 19.3331 42.4738C19.1748 42.4164 19.0188 42.3528 18.8629 42.2907C18.7566 42.2488 18.6488 42.2092 18.544 42.165C14.3722 40.3999 10.9126 36.9295 8.80772 32.4931C8.78832 32.4528 8.77047 32.4101 8.75185 32.3697C8.63935 32.1284 8.52996 31.8848 8.42522 31.6381C8.38332 31.5396 8.34453 31.4395 8.30418 31.3402C8.22582 31.1478 8.14823 30.9546 8.0753 30.7591C8.02798 30.6334 7.98375 30.5053 7.93875 30.3781C7.87746 30.2059 7.81694 30.0328 7.7603 29.8583C7.71375 29.7155 7.66953 29.5712 7.6253 29.4277C7.57487 29.264 7.52599 29.0995 7.47944 28.9342C7.43599 28.7829 7.39487 28.6293 7.3553 28.4765C7.31341 28.3143 7.27306 28.1506 7.23427 27.9869C7.19703 27.8302 7.16134 27.6735 7.1272 27.5152C7.09151 27.3499 7.05892 27.1839 7.02711 27.0171C6.99685 26.858 6.9666 26.699 6.93866 26.5384C6.90918 26.3669 6.88358 26.1947 6.85798 26.0216C6.8347 25.8649 6.81065 25.709 6.79047 25.5507C6.76642 25.3645 6.7478 25.1759 6.72841 24.9882C6.71289 24.8416 6.69582 24.6957 6.68341 24.5483C6.66479 24.3326 6.65237 24.1153 6.63996 23.8973C6.63297 23.7747 6.62289 23.6537 6.61746 23.5311C6.60349 23.1897 6.59496 22.846 6.59496 22.5C6.59496 22.154 6.60349 21.8103 6.61746 21.4681C6.62289 21.3455 6.63297 21.2237 6.63996 21.1019C6.65237 20.8847 6.66479 20.6666 6.68341 20.4509C6.69582 20.3035 6.71289 20.1577 6.72841 20.011C6.7478 19.8233 6.7672 19.6355 6.79047 19.4485C6.81065 19.291 6.8347 19.1343 6.85798 18.9776C6.88358 18.8046 6.90918 18.6323 6.93866 18.4609C6.96582 18.3003 6.99608 18.1412 7.02711 17.9822C7.05892 17.8153 7.09229 17.6493 7.1272 17.4841C7.16134 17.3258 7.19703 17.1691 7.23427 17.0123C7.27306 16.8486 7.31341 16.6849 7.3553 16.5228C7.39487 16.3691 7.43599 16.2163 7.47866 16.0642C7.52522 15.899 7.5741 15.7345 7.62453 15.5708C7.66875 15.4265 7.71298 15.2829 7.75953 15.1402C7.81694 14.9656 7.87746 14.7926 7.93875 14.6196C7.98375 14.4923 8.02798 14.3651 8.0753 14.2394C8.14901 14.0439 8.22582 13.8507 8.30418 13.6583C8.34453 13.559 8.38332 13.4589 8.42522 13.3603C8.52996 13.1136 8.63935 12.87 8.75185 12.6287C8.77125 12.5876 8.78832 12.5457 8.80772 12.5053C10.9126 8.06897 14.3722 4.59931 18.544 2.83345C18.6495 2.78922 18.7566 2.74966 18.8629 2.70776C19.0188 2.64569 19.1748 2.58207 19.3331 2.52466C19.5278 2.45405 19.7249 2.39043 19.9227 2.32681C19.9933 2.30431 20.0631 2.27948 20.1345 2.25776C20.3657 2.18716 20.6 2.12276 20.8351 2.06302C20.8724 2.05448 20.9104 2.04285 20.9484 2.03353C21.2006 1.97069 21.455 1.91483 21.7119 1.86362C21.7344 1.85897 21.7561 1.85431 21.7778 1.84966C22.0416 1.79845 22.3077 1.75422 22.5762 1.71621C22.6173 1.71 22.6592 1.70379 22.7003 1.69836L23.0006 1.65647C23.6019 1.58819 24.2109 1.55172 24.8277 1.55172C34.8813 1.55172 43.0605 10.949 43.0605 22.5C43.0605 34.051 34.8813 43.4483 24.8277 43.4483Z" fill="white"/>
<path d="M10.9918 22.5C10.9918 22.012 11.0112 21.5216 11.0492 21.0422C11.0826 20.6154 10.7645 20.2415 10.337 20.2073C9.90791 20.1763 9.53627 20.4929 9.50213 20.9196C9.46101 21.4386 9.44006 21.9709 9.44006 22.5V22.5163C9.44006 22.9446 9.78765 23.2836 10.2159 23.2836C10.6442 23.2836 10.9918 22.9283 10.9918 22.5Z" fill="white"/>
<path d="M38.1214 18.0714C38.2098 18.4236 38.5256 18.6579 38.8732 18.6579C38.936 18.6579 38.9996 18.6502 39.0633 18.6347C39.4784 18.5299 39.7305 18.1086 39.6265 17.6928C39.4962 17.1745 39.3434 16.6578 39.1711 16.1566C39.0322 15.7516 38.5915 15.5335 38.1858 15.674C37.7808 15.8129 37.5643 16.2543 37.7032 16.6593C37.8607 17.1194 38.0011 17.595 38.1214 18.0714Z" fill="white"/>
<path d="M34.931 33.3768C34.6207 33.7585 34.2925 34.124 33.9557 34.4646C33.6539 34.7687 33.6563 35.2598 33.9604 35.5616C34.1117 35.7114 34.3095 35.7866 34.5066 35.7866C34.706 35.7866 34.9062 35.7098 35.0575 35.557C35.4307 35.1807 35.793 34.7765 36.1351 34.3559C36.4059 34.0231 36.3547 33.5343 36.0226 33.2643C35.6906 32.9935 35.2018 33.0447 34.931 33.3768Z" fill="white"/>
<path d="M11.5263 26.8984C11.4231 26.4825 11.0003 26.228 10.586 26.3327C10.1701 26.4359 9.91718 26.8572 10.0204 27.2731C10.1492 27.7906 10.3012 28.3081 10.4727 28.8109C10.5829 29.1336 10.8839 29.3369 11.2067 29.3369C11.2897 29.3369 11.3742 29.3229 11.4573 29.295C11.8623 29.1569 12.0795 28.7162 11.9414 28.3104C11.7847 27.8496 11.645 27.374 11.5263 26.8984Z" fill="white"/>
<path d="M32.4761 7.33112C32.023 7.03552 31.5498 6.76319 31.0703 6.5219C30.687 6.32793 30.2215 6.48388 30.0283 6.86483C29.8351 7.24733 29.9887 7.7144 30.3712 7.90681C30.8003 8.12328 31.2231 8.3669 31.6289 8.63147C31.7592 8.71681 31.9066 8.75715 32.0517 8.75715C32.3054 8.75715 32.5537 8.63302 32.7027 8.40491C32.9362 8.04647 32.8354 7.56543 32.4761 7.33112Z" fill="white"/>
<path d="M30.4559 37.0497C30.0245 37.2709 29.5791 37.4687 29.1322 37.6371C28.7311 37.7876 28.5286 38.2353 28.6799 38.6364C28.7971 38.9475 29.0919 39.1391 29.4061 39.1391C29.4969 39.1391 29.5892 39.1228 29.68 39.0887C30.182 38.8994 30.6816 38.6783 31.165 38.43C31.546 38.2345 31.6972 37.7666 31.501 37.3857C31.3047 37.0047 30.8368 36.8534 30.4559 37.0497Z" fill="white"/>
<path d="M37.032 11.8529C36.7302 11.4067 36.4059 10.973 36.0676 10.5626C35.7953 10.2321 35.3057 10.184 34.9752 10.4571C34.6447 10.7294 34.5974 11.2182 34.8697 11.5495C35.1769 11.9227 35.4718 12.3176 35.7464 12.7226C35.8961 12.9445 36.1405 13.0632 36.3896 13.0632C36.5393 13.0632 36.6906 13.0198 36.8241 12.9298C37.1794 12.6892 37.2725 12.2074 37.032 11.8529Z" fill="white"/>
<path d="M39.4396 21.6993C39.0113 21.6993 38.6637 22.0717 38.6637 22.5C38.6637 22.9756 38.6451 23.4559 38.6086 23.926C38.576 24.3535 38.8949 24.7267 39.3224 24.7593C39.3426 24.7609 39.3627 24.7616 39.3829 24.7616C39.784 24.7616 40.1246 24.4528 40.1557 24.0455C40.1953 23.535 40.2154 23.0152 40.2154 22.4992V22.4488C40.2154 22.0213 39.8686 21.6993 39.4396 21.6993Z" fill="white"/>
<path d="M38.7165 27.7619C38.3099 27.6253 37.8708 27.8441 37.7334 28.2499C37.5767 28.7147 37.399 29.1763 37.2051 29.6224C37.0344 30.015 37.2136 30.4728 37.607 30.6434C37.7078 30.6877 37.8134 30.7078 37.9165 30.7078C38.216 30.7078 38.5008 30.5333 38.628 30.2416C38.8398 29.7551 39.0338 29.2508 39.2045 28.7441C39.3418 28.3384 39.123 27.8985 38.7165 27.7619Z" fill="white"/>
<path d="M26.4174 5.11682C25.8914 5.05552 25.3568 5.02449 24.8277 5.02449H24.7951C24.3668 5.02449 24.0355 5.37208 24.0355 5.80035C24.0355 6.22863 24.3994 6.57621 24.8277 6.57621C25.2971 6.57621 25.7719 6.60337 26.239 6.65768C26.2692 6.66156 26.2995 6.66311 26.3297 6.66311C26.7177 6.66311 27.0536 6.37216 27.0994 5.97647C27.1483 5.55052 26.8434 5.1657 26.4174 5.11682Z" fill="white"/>
<path d="M13.8903 32.251C13.6506 31.8949 13.168 31.8018 12.8134 32.0416C12.4581 32.2813 12.3642 32.7631 12.604 33.1185C12.905 33.5646 13.2285 33.9991 13.5653 34.4103C13.7189 34.5972 13.9415 34.6942 14.1658 34.6942C14.3388 34.6942 14.5134 34.6368 14.6577 34.5181C14.989 34.2458 15.0371 33.7578 14.7655 33.4257C14.459 33.0533 14.1642 32.6576 13.8903 32.251Z" fill="white"/>
<path d="M12.0625 14.3263C11.6691 14.1556 11.2129 14.3333 11.0407 14.7266C10.8273 15.2146 10.6326 15.7182 10.4611 16.2225C10.3238 16.6283 10.541 17.069 10.9468 17.2071C11.029 17.235 11.1136 17.2482 11.1959 17.2482C11.5194 17.2482 11.8212 17.0441 11.9306 16.7214C12.0873 16.2582 12.2665 15.7965 12.4621 15.3481C12.6351 14.9555 12.4559 14.4978 12.0625 14.3263Z" fill="white"/>
<path d="M24.8277 38.4238C24.3451 38.4238 23.8602 38.3951 23.3862 38.3384C22.9633 38.2934 22.5746 38.5914 22.5234 39.0173C22.473 39.4425 22.7764 39.8289 23.2023 39.8801C23.7376 39.9437 24.2854 39.9763 24.8285 39.9763H24.8952C25.3235 39.9763 25.6377 39.6287 25.6377 39.2004C25.6377 38.7722 25.256 38.4238 24.8277 38.4238Z" fill="white"/>
<path d="M14.622 9.41819C14.2488 9.79449 13.8849 10.1972 13.5428 10.6169C13.2712 10.949 13.3209 11.4378 13.653 11.7085C13.7973 11.8265 13.9711 11.8839 14.1433 11.8839C14.3683 11.8839 14.591 11.7869 14.7446 11.5991C15.0557 11.2182 15.3847 10.8528 15.723 10.5129C16.0248 10.2088 16.0232 9.71767 15.7198 9.41509C15.4157 9.11328 14.9254 9.11561 14.622 9.41819Z" fill="white"/>
<path d="M20.0088 5.89809C19.506 6.08663 19.0056 6.30697 18.5222 6.5537C18.1405 6.74766 17.9885 7.21551 18.1832 7.59723C18.3198 7.86645 18.5921 8.02085 18.8753 8.02085C18.994 8.02085 19.1142 7.9937 19.2267 7.93628C19.6581 7.71671 20.1042 7.51964 20.5519 7.35206C20.953 7.20154 21.1571 6.75464 21.0066 6.35352C20.8576 5.95085 20.4091 5.74758 20.0088 5.89809Z" fill="white"/>
<path d="M19.2563 37.0792C18.8295 36.8628 18.4067 36.6176 18.0001 36.3515C17.6409 36.1172 17.1614 36.218 16.9256 36.5757C16.6913 36.9341 16.7913 37.4152 17.1498 37.6495C17.6037 37.9466 18.0762 38.2205 18.5533 38.4626C18.6658 38.52 18.7861 38.5464 18.904 38.5464C19.1872 38.5464 19.4595 38.3912 19.5969 38.122C19.7908 37.7403 19.638 37.2732 19.2563 37.0792Z" fill="white"/>
</g>
<defs>
<clipPath id="clip0_1655:1234">
<rect width="45" height="45" fill="white" transform="translate(0.00012207)"/>
</clipPath>
</defs>
</svg>
