<svg width="39" height="39" viewBox="0 0 39 39" fill="none" xmlns="http://www.w3.org/2000/svg">
<path d="M4.53882 4.54768V38.3307C4.53882 38.6895 4.8297 38.9804 5.18856 38.9804H29.8762C30.2348 38.9804 30.5257 38.6895 30.5257 38.3307V11.0446C30.5257 11.0301 30.5187 11.0178 30.5174 11.0037C30.5142 10.9467 30.5029 10.8905 30.4842 10.8367C30.477 10.8158 30.4719 10.7957 30.4628 10.7754C30.4312 10.7047 30.3873 10.6402 30.3327 10.5851L23.8361 4.08847C23.781 4.03361 23.7162 3.98972 23.645 3.95841C23.6255 3.95012 23.6057 3.94316 23.5853 3.937C23.531 3.91827 23.4745 3.90703 23.417 3.90329C23.406 3.90516 23.3932 3.8982 23.3795 3.8982H5.18856C4.8297 3.8982 4.53882 4.18882 4.53882 4.54768ZM28.3078 10.3948H24.029V6.11611L28.3078 10.3948ZM5.83804 5.19742H22.7298V11.0446C22.7298 11.4032 23.0207 11.6941 23.3793 11.6941H29.2264V37.6812H5.83804V5.19742Z" fill="white"/>
<path d="M31.8252 33.783V35.0822H33.7741C34.133 35.0822 34.4239 34.7916 34.4239 34.4327V0.649752C34.4239 0.290894 34.133 7.62939e-06 33.7741 7.62939e-06H9.08651C8.72765 7.62939e-06 8.43677 0.290894 8.43677 0.649752V2.59872H9.73626V1.29923H33.1244V33.783H31.8252Z" fill="white"/>
<path d="M9.73633 12.9936H25.3283V14.2928H9.73633V12.9936Z" fill="white"/>
<path d="M9.73633 9.09534H14.9338V10.3948H9.73633V9.09534Z" fill="white"/>
<path d="M9.73633 16.8915H20.1312V18.191H9.73633V16.8915Z" fill="white"/>
<path d="M21.4303 16.8915H25.3282V18.191H21.4303V16.8915Z" fill="white"/>
<path d="M9.73633 20.7894H25.3283V22.0889H9.73633V20.7894Z" fill="white"/>
<path d="M9.73633 28.5855H25.3283V29.885H9.73633V28.5855Z" fill="white"/>
<path d="M15.5833 24.6876H25.3284V25.9869H15.5833V24.6876Z" fill="white"/>
<path d="M9.73633 24.6876H14.284V25.9869H9.73633V24.6876Z" fill="white"/>
<path d="M9.73633 32.4837H12.335V33.783H9.73633V32.4837Z" fill="white"/>
<path d="M13.6343 32.4837H25.3283V33.783H13.6343V32.4837Z" fill="white"/>
</svg>
