<svg width="44" height="44" viewBox="0 0 44 44" fill="none" xmlns="http://www.w3.org/2000/svg">
<g clip-path="url(#clip0_1655:1224)">
<path d="M14.8591 33.7946C14.6332 33.7946 14.4115 33.8856 14.2517 34.0463C14.092 34.2061 14 34.4269 14 34.6537C14 34.8796 14.0919 35.1012 14.2517 35.261C14.4115 35.4208 14.6332 35.5128 14.8591 35.5128C15.085 35.5128 15.3067 35.4208 15.4665 35.261C15.6262 35.1012 15.7182 34.8796 15.7182 34.6537C15.7182 34.4269 15.6263 34.2061 15.4665 34.0463C15.3067 33.8855 15.085 33.7946 14.8591 33.7946Z" fill="white"/>
<path d="M22.7072 28.1962C22.7072 27.7217 22.3225 27.3371 21.8481 27.3371H12.2546C11.7802 27.3371 11.3955 27.7217 11.3955 28.1962C11.3955 28.6707 11.7802 29.0553 12.2546 29.0553H21.8481C22.3226 29.0553 22.7072 28.6707 22.7072 28.1962Z" fill="white"/>
<path d="M11.254 19.4334H22.8489C23.3233 19.4334 23.708 19.0488 23.708 18.5743C23.708 18.0999 23.3233 17.7153 22.8489 17.7153H11.254C10.7796 17.7153 10.3949 18.0999 10.3949 18.5743C10.3949 19.0488 10.7796 19.4334 11.254 19.4334Z" fill="white"/>
<path d="M16.792 12.7263C16.1682 12.7263 15.6607 12.3013 15.6607 11.779C15.6607 11.3045 15.276 10.9199 14.8016 10.9199C14.3272 10.9199 13.9425 11.3045 13.9425 11.779C13.9425 12.9688 14.7803 13.9787 15.9329 14.3205V14.4399C15.9329 14.9144 16.3176 15.299 16.792 15.299C17.2664 15.299 17.6511 14.9144 17.6511 14.4399V14.3205C18.8038 13.9788 19.6416 12.9689 19.6416 11.779C19.6416 10.3093 18.3632 9.1135 16.792 9.1135C16.1682 9.1135 15.6607 8.68851 15.6607 8.16618C15.6607 7.64385 16.1682 7.21885 16.792 7.21885C17.4159 7.21885 17.9234 7.64385 17.9234 8.16618C17.9234 8.64066 18.3081 9.02527 18.7825 9.02527C19.2569 9.02527 19.6416 8.64066 19.6416 8.16618C19.6416 6.97642 18.8038 5.96647 17.6511 5.62472V5.5053C17.6511 5.03083 17.2664 4.64621 16.792 4.64621C16.3176 4.64621 15.9329 5.03083 15.9329 5.5053V5.62472C14.7803 5.96638 13.9425 6.97633 13.9425 8.16618C13.9425 9.63592 15.2208 10.8317 16.792 10.8317C17.4159 10.8317 17.9234 11.2567 17.9234 11.779C17.9234 12.3013 17.4159 12.7263 16.792 12.7263Z" fill="white"/>
<path d="M42.6255 26.5427L41.2852 27.5053C39.2741 28.9498 36.9021 29.7134 34.4259 29.7134H31.4376C30.7262 29.7134 30.1474 29.1346 30.1474 28.4232C30.1474 27.7118 30.7262 27.1331 31.4376 27.1331H32.898C35.4019 27.1331 37.4481 25.1412 37.5382 22.6591L41.2915 16.1581H43.1409C43.6153 16.1581 44 15.7735 44 15.299C44 14.8246 43.6153 14.4399 43.1409 14.4399H42.2835L43.8849 11.6661C43.9988 11.4688 44.0298 11.2343 43.9707 11.0142C43.9117 10.7941 43.7678 10.6065 43.5705 10.4926L40.2969 8.60256C39.8859 8.36536 39.3606 8.50617 39.1234 8.91698L35.9348 14.4399H35.1234C34.6932 14.4399 34.2676 14.4694 33.8485 14.5261V0.866236C33.8485 0.391758 33.4638 0.00714111 32.9894 0.00714111H0.859217C0.384825 0.00714111 0.00012207 0.391758 0.00012207 0.866236V43.1337C0.00012207 43.6082 0.384825 43.9928 0.859217 43.9928H32.9894C33.4638 43.9928 33.8485 43.6082 33.8485 43.1337V31.4315H34.426C37.264 31.4315 39.9826 30.5565 42.2877 28.9008L43.628 27.9382C44.0133 27.6614 44.1013 27.1246 43.8245 26.7392C43.5477 26.354 43.011 26.2658 42.6255 26.5427ZM30.5643 31.3018L30.5575 31.3136L28.5002 32.8152L28.7721 30.2827L28.9077 30.0477C29.29 30.6413 29.8749 31.0923 30.5643 31.3018ZM40.1819 10.5201L41.9675 11.5511L34.1174 25.1477C33.746 25.3187 33.3332 25.4149 32.8981 25.4149H31.5824L40.1819 10.5201ZM30.4483 23.9428C30.4482 23.9431 30.4481 23.9432 30.4479 23.9434L28.2233 27.7965C28.0819 28.0414 27.8517 28.2078 27.5749 28.2653C27.2983 28.3227 27.0206 28.2617 26.7935 28.0933C26.475 27.8571 26.331 27.4561 26.4268 27.0713L27.6981 21.9621C28.035 20.6083 28.7355 19.3725 29.7239 18.3882C31.1244 16.9934 32.9709 16.2087 34.9401 16.1627L30.4483 23.9428ZM1.71831 42.2746V1.72533H32.1303V14.9265C30.783 15.3792 29.5477 16.1389 28.5116 17.1707C27.3012 18.376 26.4434 19.8893 26.0309 21.5471L25.7873 22.5262H7.67132C7.19693 22.5262 6.81223 22.9108 6.81223 23.3853C6.81223 23.8597 7.19693 24.2444 7.67132 24.2444H25.3597L24.7596 26.6563C24.4957 27.7168 24.8924 28.8226 25.7704 29.4735C26.1561 29.7595 26.6078 29.9322 27.0759 29.9847L26.667 33.7942H18.725C18.2506 33.7942 17.8659 34.1788 17.8659 34.6533C17.8659 35.1278 18.2506 35.5124 18.725 35.5124H27.4389C27.6174 35.5124 27.7953 35.4568 27.9454 35.3472L31.7172 32.5943C31.8139 32.5237 31.8948 32.4336 31.9548 32.3299L32.1304 32.0258V42.2745H1.71831V42.2746Z" fill="white"/>
</g>
<defs>
<clipPath id="clip0_1655:1224">
<rect width="44" height="44" fill="white" transform="translate(0.00012207)"/>
</clipPath>
</defs>
</svg>
