<svg width="59" height="80" viewBox="0 0 59 80" fill="none" xmlns="http://www.w3.org/2000/svg">
<mask id="mask0_1655:1274" style="mask-type:alpha" maskUnits="userSpaceOnUse" x="0" y="0" width="60" height="80">
<path d="M0.00012207 10C0.00012207 4.47715 4.47727 0 10.0001 0H59.0001V80H10.0001C4.47727 80 0.00012207 75.5229 0.00012207 70V10Z" fill="#4B75B1"/>
<path d="M0.00012207 10C0.00012207 4.47715 4.47727 0 10.0001 0H59.0001V80H10.0001C4.47727 80 0.00012207 75.5229 0.00012207 70V10Z" fill="url(#paint0_linear_1655:1274)"/>
</mask>
<g mask="url(#mask0_1655:1274)">
<path d="M58.7067 38.1015V26.5734H57.3832V42.4127H58.7067V39.6705L62.0593 41.8051L48.0774 49.8088H44.854V47.8088H47.722L44.7037 44.1837L43.8719 41.1891H39.0773L38.2071 44.2014L35.5639 47.8088H38.1486V49.8088H34.8518L20.9387 41.8051L24.3279 39.6364V42.4975H25.6514V21.3235H57.3833V22.6029H58.7068V20H24.3279V38.0653L19.0021 41.473V65H64.0004V41.4721L58.7067 38.1015ZM42.8659 42.5126L43.2335 43.8361H39.6901L40.0725 42.5126H42.8659ZM39.1458 45.1596H43.7941L44.8979 46.4853H38.1744L39.1458 45.1596ZM43.5305 47.8088V50.2579L42.4406 51.7793H40.4864L39.472 50.2688V47.8087L43.5305 47.8088ZM38.4576 51.1322L39.7811 53.1028H43.1208L44.5324 51.1322H46.3098L43.2113 55.2637L41.4573 56.3162L39.7109 55.2682L36.7696 51.1323L38.4576 51.1322ZM20.3256 63.6765V42.9793L35.5935 51.7623L38.7926 56.2607L41.4572 57.8597L44.1143 56.2652L47.614 51.599L62.6769 42.9765V63.6766L20.3256 63.6765Z" fill="white"/>
<path d="M57.3821 23.9264H58.7055V25.2499H57.3821V23.9264Z" fill="white"/>
<path d="M44.1472 22.647H26.942V26.6175H44.1472V22.647ZM42.8238 25.294H28.2655V23.9705H42.8238V25.294Z" fill="white"/>
<path d="M26.8978 30.5879H29.5448V31.9113H26.8978V30.5879Z" fill="white"/>
<path d="M30.8682 30.5879H48.0742V31.9113H30.8682V30.5879Z" fill="white"/>
<path d="M30.9124 33.2338H33.5594V34.5572H30.9124V33.2338Z" fill="white"/>
<path d="M34.8829 33.2338H52.0889V34.5572H34.8829V33.2338Z" fill="white"/>
<path d="M30.9124 38.527H33.5594V39.8505H30.9124V38.527Z" fill="white"/>
<path d="M34.8829 38.527H52.0889V39.8505H34.8829V38.527Z" fill="white"/>
<path d="M34.8837 35.8807H37.5306V37.2042H34.8837V35.8807Z" fill="white"/>
<path d="M38.8541 35.8807H56.0601V37.2042H38.8541V35.8807Z" fill="white"/>
<path d="M21.648 47.749H22.9715V49.0725H21.648V47.749Z" fill="white"/>
<path d="M21.648 50.396H22.9715V57.0133H21.648V50.396Z" fill="white"/>
</g>
<defs>
<linearGradient id="paint0_linear_1655:1274" x1="44.4908" y1="-0.01733" x2="-13.0569" y2="58.0933" gradientUnits="userSpaceOnUse">
<stop stop-color="#009FD9"/>
<stop offset="1" stop-color="#009FD9" stop-opacity="0"/>
</linearGradient>
</defs>
</svg>
