<svg width="10" height="10" viewBox="0 0 10 10" fill="none" xmlns="http://www.w3.org/2000/svg">
<g clip-path="url(#clip0)">
<path d="M9.05853 0.941924C7.80197 -0.314639 5.7575 -0.314619 4.50094 0.941943C3.64264 1.80024 3.34451 3.06511 3.71615 4.21267L0.0868164 7.84202C0.031875 7.89696 0.000976562 7.97134 0.000976562 8.04917V9.70655C0.000976562 9.86849 0.132012 9.99952 0.293945 9.99952H1.95133C2.02914 9.99952 2.10354 9.96862 2.15846 9.91368L2.57273 9.49911C2.63596 9.43589 2.66686 9.3472 2.65656 9.25821L2.60506 8.81304L3.22189 8.75495C3.36209 8.74179 3.47281 8.63106 3.48598 8.49087L3.54406 7.87403L3.98924 7.92581C4.07191 7.93696 4.15518 7.90921 4.21783 7.85372C4.2802 7.79794 4.31596 7.71839 4.31596 7.63485V7.08937H4.85154C4.92936 7.08937 5.00375 7.05847 5.05867 7.00353L5.80998 6.26216C6.95725 6.63409 8.20023 6.35843 9.05853 5.49954C10.3151 4.243 10.3151 2.19849 9.05853 0.941924ZM8.22973 3.0136C7.88697 3.35636 7.32965 3.35636 6.98689 3.0136C6.64414 2.67085 6.64414 2.11353 6.98689 1.77077C7.32965 1.42802 7.88697 1.42802 8.22973 1.77077C8.57248 2.11353 8.57246 2.67085 8.22973 3.0136Z" fill="white"/>
</g>
<defs>
<clipPath id="clip0">
<rect width="10" height="10" fill="white"/>
</clipPath>
</defs>
</svg>
