<svg width="100" height="100" viewBox="0 0 100 100" fill="none" xmlns="http://www.w3.org/2000/svg">
<g filter="url(#filter0_d)">
<circle cx="49.9999" cy="35" r="35" fill="#BCEBFF"/>
</g>
<path d="M49.6095 41.4991C49.4377 41.1368 49.0043 40.9823 48.642 41.1544C48.0524 41.4341 47.4343 41.6654 46.8049 41.8415C46.5415 41.9152 46.342 42.1303 46.2885 42.3985L45.5201 46.2401C45.4443 46.6194 45.1084 46.8948 44.7216 46.8948H42.6256C42.2387 46.8948 41.903 46.6195 41.8271 46.2401L41.0587 42.3985C41.0051 42.1303 40.8055 41.9152 40.5423 41.8415C39.653 41.5926 38.7949 41.237 37.9916 40.7846C37.7532 40.6503 37.4597 40.6614 37.2322 40.8131L33.9721 42.9864C33.6503 43.2009 33.2182 43.1581 32.9445 42.8846L31.4624 41.4024C31.1889 41.1289 31.1462 40.6967 31.3606 40.3748L33.534 37.1147C33.6857 36.8871 33.6968 36.5937 33.5624 36.3554C33.1099 35.552 32.7543 34.6937 32.5055 33.8046C32.4319 33.5413 32.2167 33.3417 31.9485 33.2882L28.107 32.5198C27.7276 32.444 27.4523 32.1082 27.4523 31.7213V29.6253C27.4523 29.2385 27.7275 28.9027 28.107 28.8268L31.9485 28.0585C32.2167 28.0048 32.4319 27.8052 32.5055 27.542C32.7544 26.6528 33.11 25.7946 33.5624 24.9913C33.6967 24.753 33.6856 24.4595 33.534 24.2319L31.3608 20.9722C31.1463 20.6503 31.189 20.2183 31.4626 19.9446L32.9447 18.4625C33.2183 18.189 33.6505 18.1463 33.9723 18.3607L37.2324 20.5341C37.4599 20.6858 37.7535 20.6968 37.9917 20.5625C38.795 20.1101 39.6532 19.7545 40.5425 19.5056C40.8058 19.4319 41.0054 19.2168 41.0589 18.9486L41.8273 15.107C41.9031 14.7277 42.2389 14.4524 42.6258 14.4524H44.7218C45.1086 14.4524 45.4444 14.7276 45.5203 15.107L46.2886 18.9486C46.3423 19.2168 46.5419 19.4319 46.8051 19.5056C47.6943 19.7545 48.5525 20.1101 49.3558 20.5625C49.5942 20.6968 49.8877 20.6857 50.1152 20.5341L53.3752 18.3607C53.6971 18.1462 54.1291 18.189 54.4029 18.4625L55.8849 19.9446C56.1585 20.2182 56.2012 20.6503 55.9867 20.9722L53.8134 24.2323C53.6617 24.4599 53.6506 24.7533 53.7849 24.9917C54.2374 25.7949 54.593 26.6531 54.8419 27.5424C54.9155 27.8057 55.1307 28.0053 55.3989 28.0588L59.2404 28.8272C59.6197 28.903 59.8951 29.2388 59.8951 29.6257V31.7217C59.8951 32.1085 59.6198 32.4443 59.2404 32.5202L55.3989 33.2885C55.1307 33.3422 54.9155 33.5418 54.8419 33.8051C54.6614 34.4502 54.4232 35.083 54.1339 35.6859C53.9603 36.0476 54.1129 36.4814 54.4745 36.6549C54.8361 36.8286 55.27 36.6759 55.4434 36.3143C55.7045 35.7701 55.9287 35.2044 56.1121 34.6273L59.5253 33.9447C60.5809 33.7334 61.3473 32.7984 61.3473 31.7216V29.6256C61.3473 28.5487 60.5809 27.6139 59.5249 27.4026L56.1117 26.72C55.8878 26.0152 55.6041 25.3301 55.2641 24.6743L57.195 21.7779C57.7923 20.8818 57.6733 19.6788 56.9118 18.9173L55.4297 17.4353C54.6681 16.6737 53.4651 16.5548 52.5692 17.152L49.6727 19.0829C49.0169 18.743 48.3318 18.4592 47.627 18.2353L46.9444 14.8222C46.7334 13.7664 45.7984 13 44.7216 13H42.6256C41.5487 13 40.6139 13.7664 40.4026 14.8224L39.72 18.2356C39.0152 18.4595 38.3301 18.7432 37.6743 19.0832L34.778 17.1522C33.8821 16.555 32.679 16.6739 31.9175 17.4355L30.4354 18.9176C29.674 19.6791 29.5549 20.882 30.1522 21.7781L32.0831 24.6746C31.7432 25.3304 31.4594 26.0154 31.2355 26.7203L27.8222 27.4029C26.7663 27.614 25.9999 28.5489 25.9999 29.6258V31.7218C25.9999 32.7986 26.7663 33.7335 27.8223 33.9448L31.2355 34.6274C31.4593 35.332 31.7431 36.0172 32.0831 36.673L30.1522 39.5695C29.5549 40.4655 29.6739 41.6685 30.4354 42.4301L31.9175 43.9121C32.679 44.6736 33.882 44.7926 34.778 44.1954L37.6745 42.2645C38.3303 42.6044 39.0153 42.8882 39.7202 43.1121L40.4028 46.5254C40.6139 47.5811 41.5488 48.3475 42.6257 48.3475H44.7217C45.7985 48.3475 46.7334 47.5812 46.9447 46.5251L47.6273 43.112C48.1869 42.9342 48.7362 42.7179 49.265 42.4669C49.6273 42.2948 49.7817 41.8615 49.6095 41.4991Z" fill="#0C83F1"/>
<path d="M49.9648 34.7095C50.0708 34.764 50.184 34.7897 50.2956 34.7897C50.5593 34.7897 50.8139 34.6455 50.9424 34.3947C51.5282 33.2523 51.8379 31.9657 51.8379 30.6738C51.8379 26.172 48.1754 22.5094 43.6735 22.5094C41.5318 22.5094 39.508 23.3326 37.9748 24.8275C37.6875 25.1075 37.6817 25.5674 37.9616 25.8545C38.2416 26.1417 38.7014 26.1477 38.9886 25.8676C40.2491 24.6389 41.9128 23.9621 43.6734 23.9621C47.3742 23.9621 50.3851 26.973 50.3851 30.6739C50.3851 31.7515 50.1377 32.7804 49.6498 33.732C49.4668 34.0887 49.6078 34.5264 49.9648 34.7095Z" fill="#0C83F1"/>
<path d="M36.8749 27.566C36.4955 27.4354 36.0824 27.6371 35.9518 28.0164C35.6583 28.8698 35.5095 29.7639 35.5095 30.6737C35.5095 35.1756 39.172 38.8381 43.6738 38.8381C45.4052 38.8381 47.0594 38.303 48.4577 37.2904C48.7826 37.0551 48.8553 36.6009 48.6201 36.276C48.3849 35.9512 47.9306 35.8785 47.6058 36.1137C46.4568 36.9456 45.0972 37.3853 43.6737 37.3853C39.9728 37.3853 36.962 34.3744 36.962 30.6736C36.962 29.9248 37.0842 29.1896 37.3253 28.4887C37.4557 28.1095 37.2541 27.6963 36.8749 27.566Z" fill="#0C83F1"/>
<path d="M70.6021 44.7433L68.5019 44.3232C68.3739 43.9426 68.2199 43.5709 68.0412 43.2116L69.2295 41.4293C69.6876 40.742 69.5964 39.8193 69.0123 39.2353L68.0384 38.2614C67.4543 37.6774 66.5316 37.586 65.8444 38.0442L64.0621 39.2324C63.7028 39.0538 63.3311 38.8997 62.9504 38.7719L62.5304 36.6716C62.3684 35.8617 61.6514 35.2738 60.8254 35.2738H59.4481C58.6222 35.2738 57.9051 35.8617 57.7431 36.6716L57.3231 38.7719C56.9424 38.8998 56.5707 39.0539 56.2114 39.2324L54.4291 38.0442C53.7418 37.5861 52.8191 37.6773 52.2351 38.2614L51.2612 39.2353C50.6771 39.8194 50.5859 40.7421 51.044 41.4293L52.2323 43.2116C51.9866 43.7056 51.7876 44.2229 51.6388 44.7549C51.5308 45.1412 51.7563 45.5419 52.1426 45.6501C52.5289 45.7581 52.9296 45.5326 53.0378 45.1463C53.1959 44.581 53.422 44.0357 53.7095 43.5253C53.8437 43.2869 53.8326 42.9934 53.681 42.7659L52.2527 40.6236C52.1774 40.5105 52.1924 40.3586 52.2885 40.2625L53.2624 39.2886C53.3585 39.1925 53.5104 39.1776 53.6235 39.2528L55.7658 40.6811C55.9933 40.8328 56.2868 40.8438 56.5252 40.7095C57.0357 40.422 57.5809 40.196 58.1462 40.0379C58.4095 39.9642 58.6091 39.749 58.6626 39.4808L59.1675 36.9565C59.1941 36.8233 59.3121 36.7265 59.4481 36.7265H60.8254C60.9613 36.7265 61.0793 36.8233 61.106 36.9565L61.6109 39.481C61.6645 39.7492 61.8641 39.9644 62.1273 40.0381C62.6926 40.1962 63.2379 40.4222 63.7483 40.7097C63.9866 40.844 64.2802 40.8329 64.5077 40.6812L66.65 39.253C66.7631 39.1776 66.915 39.1925 67.0111 39.2888L67.985 40.2627C68.081 40.3588 68.0961 40.5106 68.0208 40.6237L66.5925 42.7661C66.4408 42.9936 66.4297 43.2871 66.564 43.5254C66.8515 44.0359 67.0776 44.5812 67.2357 45.1465C67.3094 45.4098 67.5246 45.6094 67.7927 45.6629L70.3171 46.1677C70.4503 46.1943 70.5471 46.3124 70.5471 46.4483V47.8257C70.5471 47.9616 70.4503 48.0796 70.3171 48.1063L67.7926 48.6111C67.5244 48.6648 67.3092 48.8644 67.2355 49.1275C67.0774 49.6928 66.8514 50.2382 66.5639 50.7486C66.4296 50.9869 66.4407 51.2805 66.5923 51.508L68.0206 53.6503C68.096 53.7634 68.081 53.9152 67.9848 54.0114L67.0109 54.9853C66.9149 55.0814 66.763 55.0963 66.6498 55.021L64.5075 53.5928C64.28 53.4411 63.9864 53.4301 63.7482 53.5643C63.2377 53.8518 62.6924 54.0778 62.1271 54.236C61.8638 54.3096 61.6642 54.5248 61.6107 54.793L61.1058 57.3173C61.0793 57.4506 60.9612 57.5473 60.8253 57.5473H59.4479C59.312 57.5473 59.194 57.4506 59.1673 57.3173L58.6625 54.7928C58.6088 54.5246 58.4092 54.3095 58.146 54.2358C57.5807 54.0777 57.0354 53.8516 56.525 53.5641C56.2866 53.4299 55.993 53.4409 55.7656 53.5926L53.6233 55.0208C53.5102 55.0962 53.3584 55.0813 53.2622 54.9851L52.2883 54.0112C52.1923 53.915 52.1773 53.7632 52.2526 53.6501L53.6808 51.5078C53.8326 51.2802 53.8436 50.9868 53.7093 50.7484C53.4218 50.2379 53.1957 49.6927 53.0376 49.1274C52.9639 48.864 52.7488 48.6645 52.4806 48.6109L49.9562 48.1061C49.823 48.0795 49.7262 47.9615 49.7262 47.8255V46.4481C49.7262 46.3123 49.823 46.1942 49.9562 46.1676L50.1108 46.1367C50.5041 46.0579 50.7593 45.6753 50.6805 45.282C50.6018 44.8886 50.2196 44.6339 49.8257 44.7123L49.6712 44.7432C48.8614 44.9053 48.2736 45.6223 48.2736 46.4482V47.8256C48.2736 48.6515 48.8614 49.3686 49.6713 49.5306L51.7716 49.9506C51.8996 50.3313 52.0536 50.703 52.2322 51.0622L51.0439 52.8446C50.5857 53.5319 50.6771 54.4546 51.2611 55.0385L52.235 56.0125C52.8191 56.5965 53.7418 56.6878 54.429 56.2297L56.2113 55.0414C56.5706 55.22 56.9423 55.3741 57.323 55.502L57.743 57.6022C57.9052 58.4122 58.6222 59 59.4481 59H60.8255C61.6514 59 62.3685 58.4122 62.5305 57.6022L62.9505 55.502C63.3312 55.374 63.7029 55.2199 64.0622 55.0413L65.8445 56.2296C66.5318 56.6877 67.4545 56.5964 68.0385 56.0124L69.0124 55.0385C69.5964 54.4544 69.6877 53.5317 69.2296 52.8445L68.0413 51.0622C68.2199 50.7029 68.374 50.3312 68.5019 49.9505L70.6021 49.5305C71.412 49.3685 71.9998 48.6515 71.9998 47.8255V46.4481C71.9999 45.6223 71.4121 44.9053 70.6021 44.7433Z" fill="#0C83F1"/>
<path d="M60.1368 44.5221C61.5786 44.5221 62.7515 45.6951 62.7515 47.1369C62.7515 47.538 63.0767 47.8632 63.4778 47.8632C63.8789 47.8632 64.2041 47.5379 64.2041 47.1369C64.2041 44.8941 62.3795 43.0695 60.1367 43.0695C57.8939 43.0695 56.0693 44.8941 56.0693 47.1369C56.0693 49.3796 57.8939 51.2043 60.1367 51.2043C61.0451 51.2043 61.9044 50.9113 62.6217 50.3571C62.9391 50.1119 62.9976 49.6557 62.7524 49.3382C62.5071 49.0208 62.0509 48.9622 61.7335 49.2075C61.2728 49.5634 60.7206 49.7516 60.1367 49.7516C58.6949 49.7516 57.522 48.5787 57.522 47.1369C57.5221 45.695 58.695 44.5221 60.1368 44.5221Z" fill="#0C83F1"/>
<path d="M48.0987 30.6737C48.0987 28.2338 46.1135 26.2487 43.6736 26.2487C41.2337 26.2487 39.2486 28.2338 39.2486 30.6737C39.2486 33.1137 41.2337 35.0988 43.6736 35.0988C46.1136 35.0988 48.0987 33.1136 48.0987 30.6737ZM40.7012 30.6737C40.7012 29.0348 42.0347 27.7013 43.6736 27.7013C45.3126 27.7013 46.6461 29.0348 46.6461 30.6737C46.6461 32.3127 45.3127 33.6462 43.6736 33.6462C42.0345 33.6462 40.7012 32.3127 40.7012 30.6737Z" fill="#0C83F1"/>
<path d="M49.6095 41.4991C49.4377 41.1368 49.0043 40.9823 48.642 41.1544C48.0524 41.4341 47.4343 41.6654 46.8049 41.8415C46.5415 41.9152 46.342 42.1303 46.2885 42.3985L45.5201 46.2401C45.4443 46.6194 45.1084 46.8948 44.7216 46.8948H42.6256C42.2387 46.8948 41.903 46.6195 41.8271 46.2401L41.0587 42.3985C41.0051 42.1303 40.8055 41.9152 40.5423 41.8415C39.653 41.5926 38.7949 41.237 37.9916 40.7846C37.7532 40.6503 37.4597 40.6614 37.2322 40.8131L33.9721 42.9864C33.6503 43.2009 33.2182 43.1581 32.9445 42.8846L31.4624 41.4024C31.1889 41.1289 31.1462 40.6967 31.3606 40.3748L33.534 37.1147C33.6857 36.8871 33.6968 36.5937 33.5624 36.3554C33.1099 35.552 32.7543 34.6937 32.5055 33.8046C32.4319 33.5413 32.2167 33.3417 31.9485 33.2882L28.107 32.5198C27.7276 32.444 27.4523 32.1082 27.4523 31.7213V29.6253C27.4523 29.2385 27.7275 28.9027 28.107 28.8268L31.9485 28.0585C32.2167 28.0048 32.4319 27.8052 32.5055 27.542C32.7544 26.6528 33.11 25.7946 33.5624 24.9913C33.6967 24.753 33.6856 24.4595 33.534 24.2319L31.3608 20.9722C31.1463 20.6503 31.189 20.2183 31.4626 19.9446L32.9447 18.4625C33.2183 18.189 33.6505 18.1463 33.9723 18.3607L37.2324 20.5341C37.4599 20.6858 37.7535 20.6968 37.9917 20.5625C38.795 20.1101 39.6532 19.7545 40.5425 19.5056C40.8058 19.4319 41.0054 19.2168 41.0589 18.9486L41.8273 15.107C41.9031 14.7277 42.2389 14.4524 42.6258 14.4524H44.7218C45.1086 14.4524 45.4444 14.7276 45.5203 15.107L46.2886 18.9486C46.3423 19.2168 46.5419 19.4319 46.8051 19.5056C47.6943 19.7545 48.5525 20.1101 49.3558 20.5625C49.5942 20.6968 49.8877 20.6857 50.1152 20.5341L53.3752 18.3607C53.6971 18.1462 54.1291 18.189 54.4029 18.4625L55.8849 19.9446C56.1585 20.2182 56.2012 20.6503 55.9867 20.9722L53.8134 24.2323C53.6617 24.4599 53.6506 24.7533 53.7849 24.9917C54.2374 25.7949 54.593 26.6531 54.8419 27.5424C54.9155 27.8057 55.1307 28.0053 55.3989 28.0588L59.2404 28.8272C59.6197 28.903 59.8951 29.2388 59.8951 29.6257V31.7217C59.8951 32.1085 59.6198 32.4443 59.2404 32.5202L55.3989 33.2885C55.1307 33.3422 54.9155 33.5418 54.8419 33.8051C54.6614 34.4502 54.4232 35.083 54.1339 35.6859C53.9603 36.0476 54.1129 36.4814 54.4745 36.6549C54.8361 36.8286 55.27 36.6759 55.4434 36.3143C55.7045 35.7701 55.9287 35.2044 56.1121 34.6273L59.5253 33.9447C60.5809 33.7334 61.3473 32.7984 61.3473 31.7216V29.6256C61.3473 28.5487 60.5809 27.6139 59.5249 27.4026L56.1117 26.72C55.8878 26.0152 55.6041 25.3301 55.2641 24.6743L57.195 21.7779C57.7923 20.8818 57.6733 19.6788 56.9118 18.9173L55.4297 17.4353C54.6681 16.6737 53.4651 16.5548 52.5692 17.152L49.6727 19.0829C49.0169 18.743 48.3318 18.4592 47.627 18.2353L46.9444 14.8222C46.7334 13.7664 45.7984 13 44.7216 13H42.6256C41.5487 13 40.6139 13.7664 40.4026 14.8224L39.72 18.2356C39.0152 18.4595 38.3301 18.7432 37.6743 19.0832L34.778 17.1522C33.8821 16.555 32.679 16.6739 31.9175 17.4355L30.4354 18.9176C29.674 19.6791 29.5549 20.882 30.1522 21.7781L32.0831 24.6746C31.7432 25.3304 31.4594 26.0154 31.2355 26.7203L27.8222 27.4029C26.7663 27.614 25.9999 28.5489 25.9999 29.6258V31.7218C25.9999 32.7986 26.7663 33.7335 27.8223 33.9448L31.2355 34.6274C31.4593 35.332 31.7431 36.0172 32.0831 36.673L30.1522 39.5695C29.5549 40.4655 29.6739 41.6685 30.4354 42.4301L31.9175 43.9121C32.679 44.6736 33.882 44.7926 34.778 44.1954L37.6745 42.2645C38.3303 42.6044 39.0153 42.8882 39.7202 43.1121L40.4028 46.5254C40.6139 47.5811 41.5488 48.3475 42.6257 48.3475H44.7217C45.7985 48.3475 46.7334 47.5812 46.9447 46.5251L47.6273 43.112C48.1869 42.9342 48.7362 42.7179 49.265 42.4669C49.6273 42.2948 49.7817 41.8615 49.6095 41.4991Z" stroke="#0C83F1"/>
<path d="M49.9648 34.7095C50.0708 34.764 50.184 34.7897 50.2956 34.7897C50.5593 34.7897 50.8139 34.6455 50.9424 34.3947C51.5282 33.2523 51.8379 31.9657 51.8379 30.6738C51.8379 26.172 48.1754 22.5094 43.6735 22.5094C41.5318 22.5094 39.508 23.3326 37.9748 24.8275C37.6875 25.1075 37.6817 25.5674 37.9616 25.8545C38.2416 26.1417 38.7014 26.1477 38.9886 25.8676C40.2491 24.6389 41.9128 23.9621 43.6734 23.9621C47.3742 23.9621 50.3851 26.973 50.3851 30.6739C50.3851 31.7515 50.1377 32.7804 49.6498 33.732C49.4668 34.0887 49.6078 34.5264 49.9648 34.7095Z" stroke="#0C83F1"/>
<path d="M36.8749 27.566C36.4955 27.4354 36.0824 27.6371 35.9518 28.0164C35.6583 28.8698 35.5095 29.7639 35.5095 30.6737C35.5095 35.1756 39.172 38.8381 43.6738 38.8381C45.4052 38.8381 47.0594 38.303 48.4577 37.2904C48.7826 37.0551 48.8553 36.6009 48.6201 36.276C48.3849 35.9512 47.9306 35.8785 47.6058 36.1137C46.4568 36.9456 45.0972 37.3853 43.6737 37.3853C39.9728 37.3853 36.962 34.3744 36.962 30.6736C36.962 29.9248 37.0842 29.1896 37.3253 28.4887C37.4557 28.1095 37.2541 27.6963 36.8749 27.566Z" stroke="#0C83F1"/>
<path d="M70.6021 44.7433L68.5019 44.3232C68.3739 43.9426 68.2199 43.5709 68.0412 43.2116L69.2295 41.4293C69.6876 40.742 69.5964 39.8193 69.0123 39.2353L68.0384 38.2614C67.4543 37.6774 66.5316 37.586 65.8444 38.0442L64.0621 39.2324C63.7028 39.0538 63.3311 38.8997 62.9504 38.7719L62.5304 36.6716C62.3684 35.8617 61.6514 35.2738 60.8254 35.2738H59.4481C58.6222 35.2738 57.9051 35.8617 57.7431 36.6716L57.3231 38.7719C56.9424 38.8998 56.5707 39.0539 56.2114 39.2324L54.4291 38.0442C53.7418 37.5861 52.8191 37.6773 52.2351 38.2614L51.2612 39.2353C50.6771 39.8194 50.5859 40.7421 51.044 41.4293L52.2323 43.2116C51.9866 43.7056 51.7876 44.2229 51.6388 44.7549C51.5308 45.1412 51.7563 45.5419 52.1426 45.6501C52.5289 45.7581 52.9296 45.5326 53.0378 45.1463C53.1959 44.581 53.422 44.0357 53.7095 43.5253C53.8437 43.2869 53.8326 42.9934 53.681 42.7659L52.2527 40.6236C52.1774 40.5105 52.1924 40.3586 52.2885 40.2625L53.2624 39.2886C53.3585 39.1925 53.5104 39.1776 53.6235 39.2528L55.7658 40.6811C55.9933 40.8328 56.2868 40.8438 56.5252 40.7095C57.0357 40.422 57.5809 40.196 58.1462 40.0379C58.4095 39.9642 58.6091 39.749 58.6626 39.4808L59.1675 36.9565C59.1941 36.8233 59.3121 36.7265 59.4481 36.7265H60.8254C60.9613 36.7265 61.0793 36.8233 61.106 36.9565L61.6109 39.481C61.6645 39.7492 61.8641 39.9644 62.1273 40.0381C62.6926 40.1962 63.2379 40.4222 63.7483 40.7097C63.9866 40.844 64.2802 40.8329 64.5077 40.6812L66.65 39.253C66.7631 39.1776 66.915 39.1925 67.0111 39.2888L67.985 40.2627C68.081 40.3588 68.0961 40.5106 68.0208 40.6237L66.5925 42.7661C66.4408 42.9936 66.4297 43.2871 66.564 43.5254C66.8515 44.0359 67.0776 44.5812 67.2357 45.1465C67.3094 45.4098 67.5246 45.6094 67.7927 45.6629L70.3171 46.1677C70.4503 46.1943 70.5471 46.3124 70.5471 46.4483V47.8257C70.5471 47.9616 70.4503 48.0796 70.3171 48.1063L67.7926 48.6111C67.5244 48.6648 67.3092 48.8644 67.2355 49.1275C67.0774 49.6928 66.8514 50.2382 66.5639 50.7486C66.4296 50.9869 66.4407 51.2805 66.5923 51.508L68.0206 53.6503C68.096 53.7634 68.081 53.9152 67.9848 54.0114L67.0109 54.9853C66.9149 55.0814 66.763 55.0963 66.6498 55.021L64.5075 53.5928C64.28 53.4411 63.9864 53.4301 63.7482 53.5643C63.2377 53.8518 62.6924 54.0778 62.1271 54.236C61.8638 54.3096 61.6642 54.5248 61.6107 54.793L61.1058 57.3173C61.0793 57.4506 60.9612 57.5473 60.8253 57.5473H59.4479C59.312 57.5473 59.194 57.4506 59.1673 57.3173L58.6625 54.7928C58.6088 54.5246 58.4092 54.3095 58.146 54.2358C57.5807 54.0777 57.0354 53.8516 56.525 53.5641C56.2866 53.4299 55.993 53.4409 55.7656 53.5926L53.6233 55.0208C53.5102 55.0962 53.3584 55.0813 53.2622 54.9851L52.2883 54.0112C52.1923 53.915 52.1773 53.7632 52.2526 53.6501L53.6808 51.5078C53.8326 51.2802 53.8436 50.9868 53.7093 50.7484C53.4218 50.2379 53.1957 49.6927 53.0376 49.1274C52.9639 48.864 52.7488 48.6645 52.4806 48.6109L49.9562 48.1061C49.823 48.0795 49.7262 47.9615 49.7262 47.8255V46.4481C49.7262 46.3123 49.823 46.1942 49.9562 46.1676L50.1108 46.1367C50.5041 46.0579 50.7593 45.6753 50.6805 45.282C50.6018 44.8886 50.2196 44.6339 49.8257 44.7123L49.6712 44.7432C48.8614 44.9053 48.2736 45.6223 48.2736 46.4482V47.8256C48.2736 48.6515 48.8614 49.3686 49.6713 49.5306L51.7716 49.9506C51.8996 50.3313 52.0536 50.703 52.2322 51.0622L51.0439 52.8446C50.5857 53.5319 50.6771 54.4546 51.2611 55.0385L52.235 56.0125C52.8191 56.5965 53.7418 56.6878 54.429 56.2297L56.2113 55.0414C56.5706 55.22 56.9423 55.3741 57.323 55.502L57.743 57.6022C57.9052 58.4122 58.6222 59 59.4481 59H60.8255C61.6514 59 62.3685 58.4122 62.5305 57.6022L62.9505 55.502C63.3312 55.374 63.7029 55.2199 64.0622 55.0413L65.8445 56.2296C66.5318 56.6877 67.4545 56.5964 68.0385 56.0124L69.0124 55.0385C69.5964 54.4544 69.6877 53.5317 69.2296 52.8445L68.0413 51.0622C68.2199 50.7029 68.374 50.3312 68.5019 49.9505L70.6021 49.5305C71.412 49.3685 71.9998 48.6515 71.9998 47.8255V46.4481C71.9999 45.6223 71.4121 44.9053 70.6021 44.7433Z" stroke="#0C83F1"/>
<path d="M60.1368 44.5221C61.5786 44.5221 62.7515 45.6951 62.7515 47.1369C62.7515 47.538 63.0767 47.8632 63.4778 47.8632C63.8789 47.8632 64.2041 47.5379 64.2041 47.1369C64.2041 44.8941 62.3795 43.0695 60.1367 43.0695C57.8939 43.0695 56.0693 44.8941 56.0693 47.1369C56.0693 49.3796 57.8939 51.2043 60.1367 51.2043C61.0451 51.2043 61.9044 50.9113 62.6217 50.3571C62.9391 50.1119 62.9976 49.6557 62.7524 49.3382C62.5071 49.0208 62.0509 48.9622 61.7335 49.2075C61.2728 49.5634 60.7206 49.7516 60.1367 49.7516C58.6949 49.7516 57.522 48.5787 57.522 47.1369C57.5221 45.695 58.695 44.5221 60.1368 44.5221Z" stroke="#0C83F1"/>
<path d="M48.0987 30.6737C48.0987 28.2338 46.1135 26.2487 43.6736 26.2487C41.2337 26.2487 39.2486 28.2338 39.2486 30.6737C39.2486 33.1137 41.2337 35.0988 43.6736 35.0988C46.1136 35.0988 48.0987 33.1136 48.0987 30.6737ZM40.7012 30.6737C40.7012 29.0348 42.0347 27.7013 43.6736 27.7013C45.3126 27.7013 46.6461 29.0348 46.6461 30.6737C46.6461 32.3127 45.3127 33.6462 43.6736 33.6462C42.0345 33.6462 40.7012 32.3127 40.7012 30.6737Z" stroke="#0C83F1"/>
<defs>
<filter id="filter0_d" x="-6.10352e-05" y="3.05176e-05" width="100" height="100" filterUnits="userSpaceOnUse" color-interpolation-filters="sRGB">
<feFlood flood-opacity="0" result="BackgroundImageFix"/>
<feColorMatrix in="SourceAlpha" type="matrix" values="0 0 0 0 0 0 0 0 0 0 0 0 0 0 0 0 0 0 127 0" result="hardAlpha"/>
<feOffset dy="15"/>
<feGaussianBlur stdDeviation="7.5"/>
<feColorMatrix type="matrix" values="0 0 0 0 0.737255 0 0 0 0 0.921569 0 0 0 0 1 0 0 0 0.2 0"/>
<feBlend mode="normal" in2="BackgroundImageFix" result="effect1_dropShadow"/>
<feBlend mode="normal" in="SourceGraphic" in2="effect1_dropShadow" result="shape"/>
</filter>
</defs>
</svg>
