<svg width="100" height="100" viewBox="0 0 100 100" fill="none" xmlns="http://www.w3.org/2000/svg">
<g filter="url(#filter0_d)">
<circle cx="49.9998" cy="35" r="35" fill="#FFF4BC"/>
</g>
<path d="M65.3436 30.0156H60.1121L67.3283 22.7988C68.0132 22.1139 68.3904 21.2035 68.3904 20.2352C68.3904 18.2358 66.764 16.6094 64.7647 16.6094C63.7964 16.6094 62.886 16.9866 62.201 17.6715L49.8569 30.0156H47.8283C48.5041 28.7408 48.8904 27.2905 48.8904 25.75C48.8904 20.7099 44.79 16.6094 39.7498 16.6094C34.7097 16.6094 30.6092 20.7099 30.6092 25.75C30.6092 29.2502 32.5884 32.2929 35.4842 33.8285V46.4688C35.4842 48.1488 36.851 49.5156 38.5311 49.5156H44.4109L50.0909 54.0597C50.3578 54.2736 50.6936 54.3906 51.0354 54.3906C51.8691 54.3906 52.5467 53.713 52.5467 52.8794V49.5156H65.3436C67.0236 49.5156 68.3904 48.1488 68.3904 46.4688V33.0625C68.3904 31.3825 67.0236 30.0156 65.3436 30.0156ZM59.5021 22.0938L60.4686 21.1273L63.8725 24.5312L62.9061 25.4977L59.5021 22.0938ZM59.9116 24.2266L50.4139 33.7243L49.1433 32.4531L58.6404 22.9554L59.9116 24.2266ZM48.4779 33.5116L51.4882 36.5219L47.0099 38.5121C46.7595 38.6261 46.4529 38.4256 46.4529 38.1514C46.4529 38.0953 46.4645 38.0411 46.4877 37.9899L48.4779 33.5116ZM50.1092 38.4689L52.8977 37.2294L56.4558 33.6719H64.7342V45.8594H50.1092V38.4689ZM52.5467 35.8565L51.2755 34.5859L60.7733 25.0882L62.0444 26.3594L52.5467 35.8565ZM63.0627 18.5332C63.5173 18.0786 64.1218 17.8281 64.7647 17.8281C66.0919 17.8281 67.1717 18.9079 67.1717 20.2352C67.1717 20.878 66.9212 21.4825 66.4666 21.9371L64.7342 23.6696L61.3302 20.2656L63.0627 18.5332ZM31.8279 25.75C31.8279 21.382 35.3818 17.8281 39.7498 17.8281C44.1178 17.8281 47.6717 21.382 47.6717 25.75C47.6717 30.118 44.1178 33.6719 39.7498 33.6719C35.3818 33.6719 31.8279 30.118 31.8279 25.75ZM67.1717 46.4688C67.1717 47.4767 66.3515 48.2969 65.3436 48.2969H51.3279V52.8794C51.3279 53.1067 51.0287 53.2511 50.8526 53.1079L44.8387 48.2969H38.5311C37.5232 48.2969 36.7029 47.4767 36.7029 46.4688V34.3574C37.6578 34.6962 38.6804 34.8906 39.7498 34.8906C42.7315 34.8906 45.3756 33.4495 47.0453 31.2344H48.6382L47.8502 32.0223L47.7698 32.1021L45.3731 37.4951C45.2811 37.7029 45.2342 37.9241 45.2342 38.1514C45.2342 39.0417 45.9581 39.7656 46.8484 39.7656C47.0757 39.7656 47.2963 39.7187 47.5047 39.6261L48.8904 39.0106V45.8594C48.8904 46.5315 49.4371 47.0781 50.1092 47.0781H64.7342C65.4063 47.0781 65.9529 46.5315 65.9529 45.8594V33.6719C65.9529 32.9997 65.4063 32.4531 64.7342 32.4531H57.6746L58.8933 31.2344H65.3436C66.3515 31.2344 67.1717 32.0546 67.1717 33.0625V46.4688Z" fill="#FF7A00"/>
<path d="M37.9217 44.4219H43.9998V45.6406H37.9217V44.4219Z" fill="#FF7A00"/>
<path d="M37.9217 41.9844H45.9998V43.2031H37.9217V41.9844Z" fill="#FF7A00"/>
<path d="M37.9217 39.5469H44.0154V40.7656H37.9217V39.5469Z" fill="#FF7A00"/>
<path d="M37.9217 37.1094H44.0154V38.3281H37.9217V37.1094Z" fill="#FF7A00"/>
<path d="M57.4217 34.8906C54.7337 34.8906 52.5467 37.0777 52.5467 39.7656C52.5467 42.4536 54.7337 44.6406 57.4217 44.6406C60.1096 44.6406 62.2967 42.4536 62.2967 39.7656C62.2967 37.0777 60.1096 34.8906 57.4217 34.8906ZM61.0231 39.1562H58.0311V36.1642C59.5588 36.4226 60.7647 37.6285 61.0231 39.1562ZM57.4217 43.4219C55.4053 43.4219 53.7654 41.782 53.7654 39.7656C53.7654 37.9576 55.086 36.4561 56.8123 36.1642V40.375H61.0231C60.7312 42.1014 59.2297 43.4219 57.4217 43.4219Z" fill="#FF7A00"/>
<path d="M65.3436 30.0156H60.1121L67.3283 22.7988C68.0132 22.1139 68.3904 21.2035 68.3904 20.2352C68.3904 18.2358 66.764 16.6094 64.7647 16.6094C63.7964 16.6094 62.886 16.9866 62.201 17.6715L49.8569 30.0156H47.8283C48.5041 28.7408 48.8904 27.2905 48.8904 25.75C48.8904 20.7099 44.79 16.6094 39.7498 16.6094C34.7097 16.6094 30.6092 20.7099 30.6092 25.75C30.6092 29.2502 32.5884 32.2929 35.4842 33.8285V46.4688C35.4842 48.1488 36.851 49.5156 38.5311 49.5156H44.4109L50.0909 54.0597C50.3578 54.2736 50.6936 54.3906 51.0354 54.3906C51.8691 54.3906 52.5467 53.713 52.5467 52.8794V49.5156H65.3436C67.0236 49.5156 68.3904 48.1488 68.3904 46.4688V33.0625C68.3904 31.3825 67.0236 30.0156 65.3436 30.0156ZM59.5021 22.0938L60.4686 21.1273L63.8725 24.5312L62.9061 25.4977L59.5021 22.0938ZM59.9116 24.2266L50.4139 33.7243L49.1433 32.4531L58.6404 22.9554L59.9116 24.2266ZM48.4779 33.5116L51.4882 36.5219L47.0099 38.5121C46.7595 38.6261 46.4529 38.4256 46.4529 38.1514C46.4529 38.0953 46.4645 38.0411 46.4877 37.9899L48.4779 33.5116ZM50.1092 38.4689L52.8977 37.2294L56.4558 33.6719H64.7342V45.8594H50.1092V38.4689ZM52.5467 35.8565L51.2755 34.5859L60.7733 25.0882L62.0444 26.3594L52.5467 35.8565ZM63.0627 18.5332C63.5173 18.0786 64.1218 17.8281 64.7647 17.8281C66.0919 17.8281 67.1717 18.9079 67.1717 20.2352C67.1717 20.878 66.9212 21.4825 66.4666 21.9371L64.7342 23.6696L61.3302 20.2656L63.0627 18.5332ZM31.8279 25.75C31.8279 21.382 35.3818 17.8281 39.7498 17.8281C44.1178 17.8281 47.6717 21.382 47.6717 25.75C47.6717 30.118 44.1178 33.6719 39.7498 33.6719C35.3818 33.6719 31.8279 30.118 31.8279 25.75ZM67.1717 46.4688C67.1717 47.4767 66.3515 48.2969 65.3436 48.2969H51.3279V52.8794C51.3279 53.1067 51.0287 53.2511 50.8526 53.1079L44.8387 48.2969H38.5311C37.5232 48.2969 36.7029 47.4767 36.7029 46.4688V34.3574C37.6578 34.6962 38.6804 34.8906 39.7498 34.8906C42.7315 34.8906 45.3756 33.4495 47.0453 31.2344H48.6382L47.8502 32.0223L47.7698 32.1021L45.3731 37.4951C45.2811 37.7029 45.2342 37.9241 45.2342 38.1514C45.2342 39.0417 45.9581 39.7656 46.8484 39.7656C47.0757 39.7656 47.2963 39.7187 47.5047 39.6261L48.8904 39.0106V45.8594C48.8904 46.5315 49.4371 47.0781 50.1092 47.0781H64.7342C65.4063 47.0781 65.9529 46.5315 65.9529 45.8594V33.6719C65.9529 32.9997 65.4063 32.4531 64.7342 32.4531H57.6746L58.8933 31.2344H65.3436C66.3515 31.2344 67.1717 32.0546 67.1717 33.0625V46.4688Z" stroke="#FF7A00" stroke-width="0.8"/>
<path d="M37.9217 44.4219H43.9998V45.6406H37.9217V44.4219Z" stroke="#FF7A00" stroke-width="0.8"/>
<path d="M37.9217 41.9844H45.9998V43.2031H37.9217V41.9844Z" stroke="#FF7A00" stroke-width="0.8"/>
<path d="M37.9217 39.5469H44.0154V40.7656H37.9217V39.5469Z" stroke="#FF7A00" stroke-width="0.8"/>
<path d="M37.9217 37.1094H44.0154V38.3281H37.9217V37.1094Z" stroke="#FF7A00" stroke-width="0.8"/>
<path d="M57.4217 34.8906C54.7337 34.8906 52.5467 37.0777 52.5467 39.7656C52.5467 42.4536 54.7337 44.6406 57.4217 44.6406C60.1096 44.6406 62.2967 42.4536 62.2967 39.7656C62.2967 37.0777 60.1096 34.8906 57.4217 34.8906ZM61.0231 39.1562H58.0311V36.1642C59.5588 36.4226 60.7647 37.6285 61.0231 39.1562ZM57.4217 43.4219C55.4053 43.4219 53.7654 41.782 53.7654 39.7656C53.7654 37.9576 55.086 36.4561 56.8123 36.1642V40.375H61.0231C60.7312 42.1014 59.2297 43.4219 57.4217 43.4219Z" stroke="#FF7A00" stroke-width="0.8"/>
<defs>
<filter id="filter0_d" x="-0.000183105" y="0" width="100" height="100" filterUnits="userSpaceOnUse" color-interpolation-filters="sRGB">
<feFlood flood-opacity="0" result="BackgroundImageFix"/>
<feColorMatrix in="SourceAlpha" type="matrix" values="0 0 0 0 0 0 0 0 0 0 0 0 0 0 0 0 0 0 127 0" result="hardAlpha"/>
<feOffset dy="15"/>
<feGaussianBlur stdDeviation="7.5"/>
<feColorMatrix type="matrix" values="0 0 0 0 1 0 0 0 0 0.956863 0 0 0 0 0.737255 0 0 0 0.2 0"/>
<feBlend mode="normal" in2="BackgroundImageFix" result="effect1_dropShadow"/>
<feBlend mode="normal" in="SourceGraphic" in2="effect1_dropShadow" result="shape"/>
</filter>
</defs>
</svg>
