<svg width="100" height="100" viewBox="0 0 100 100" fill="none" xmlns="http://www.w3.org/2000/svg">
<g filter="url(#filter0_d)">
<circle cx="50.0002" cy="35" r="35" fill="#BCDBFF"/>
</g>
<path d="M51.5345 34.2015C51.3124 33.8406 51.0379 33.5744 50.7113 33.4028C50.3846 33.2315 50.0299 33.0817 49.6477 32.9531C49.2655 32.8246 48.9077 32.7237 48.5745 32.6504C48.241 32.5769 47.9612 32.4728 47.7347 32.3381C47.5083 32.2036 47.3951 32.0324 47.3951 31.8242C47.3951 31.616 47.5084 31.4265 47.7347 31.2551C47.9612 31.0838 48.2882 30.998 48.716 30.998C49.1058 30.998 49.5242 31.0768 49.9709 31.2339C50.4173 31.3914 50.6909 31.4699 50.7917 31.4699C51.0433 31.4699 51.2541 31.3283 51.424 31.0453C51.5938 30.7622 51.6787 30.514 51.6787 30.2999C51.6787 29.9603 51.3735 29.671 50.7635 29.4319C50.3404 29.2663 49.8758 29.1594 49.3713 29.1085V27.2834C49.3713 26.7816 48.9645 26.3749 48.4628 26.3749C47.9609 26.3749 47.5542 26.7817 47.5542 27.2834V29.1802C46.9425 29.3091 46.4612 29.5547 46.112 29.9184C45.571 30.4816 45.3006 31.1536 45.3006 31.9342C45.3006 32.4974 45.4545 32.9594 45.7629 33.3203C46.071 33.6812 46.4452 33.9383 46.8857 34.0913C47.3259 34.2443 47.7631 34.3758 48.1971 34.4858C48.6311 34.5961 49.002 34.7368 49.3105 34.9081C49.6186 35.0797 49.7728 35.3121 49.7728 35.6057C49.7728 36.132 49.3081 36.395 48.3787 36.395C47.9076 36.395 47.5004 36.3293 47.1565 36.1975C46.8128 36.0657 46.5359 35.9368 46.3259 35.8106C46.1157 35.6844 45.9406 35.6213 45.8008 35.6213C45.5844 35.6213 45.3933 35.744 45.2279 35.9893C45.0623 36.2347 44.9796 36.4704 44.9796 36.697C44.9796 37.1248 45.3128 37.5022 45.9797 37.8292C46.4388 38.0543 46.9636 38.202 47.5539 38.2721V40.1129C47.5539 40.6147 47.9608 41.0215 48.4625 41.0215C48.9643 41.0215 49.3711 40.6147 49.3711 40.1129V38.2427C50.0099 38.134 50.537 37.9101 50.952 37.5703C51.562 37.0708 51.8672 36.3853 51.8672 35.514C51.8673 34.9999 51.7561 34.5624 51.5345 34.2015Z" fill="#0075FF"/>
<path d="M59.4604 22.5398C56.5329 19.6122 52.6404 18 48.5003 18C44.3602 18 40.4677 19.6122 37.5401 22.5398C34.6125 25.4674 33.0002 29.3598 33.0002 33.5C33.0002 37.6402 34.6125 41.5326 37.54 44.4601C40.4676 47.3877 44.36 49 48.5002 49C52.6404 49 56.5328 47.3878 59.4604 44.4602C62.3879 41.5326 64.0002 37.6402 64.0002 33.5C64.0002 29.3598 62.388 25.4674 59.4604 22.5398ZM58.1755 43.1752C55.5912 45.7595 52.1551 47.1828 48.5002 47.1828C44.8454 47.1828 41.4094 45.7596 38.825 43.1752C36.2406 40.5909 34.8174 37.1549 34.8174 33.5C34.8174 29.8451 36.2407 26.4091 38.825 23.8247C41.4094 21.2404 44.8455 19.8171 48.5003 19.8171C52.1552 19.8171 55.5912 21.2403 58.1756 23.8247C60.76 26.4091 62.1832 29.8451 62.1832 33.5C62.1832 37.1549 60.7598 40.5909 58.1755 43.1752Z" fill="#0075FF"/>
<path d="M48.5003 21.9072C42.0692 21.9072 36.8372 27.1392 36.8372 33.5704C36.8372 40.0014 42.0692 45.2334 48.5003 45.2334C54.9314 45.2334 60.1635 40.0014 60.1635 33.5704C60.1635 27.1392 54.9314 21.9072 48.5003 21.9072ZM48.5003 43.4162C43.0712 43.4162 38.6544 38.9994 38.6544 33.5704C38.6544 28.1412 43.0713 23.7244 48.5003 23.7244C53.9294 23.7244 58.3463 28.1412 58.3463 33.5704C58.3463 38.9994 53.9294 43.4162 48.5003 43.4162Z" fill="#0075FF"/>
<path d="M51.5345 34.2015C51.3124 33.8406 51.0379 33.5744 50.7113 33.4028C50.3846 33.2315 50.0299 33.0817 49.6477 32.9531C49.2655 32.8246 48.9077 32.7237 48.5745 32.6504C48.241 32.5769 47.9612 32.4728 47.7347 32.3381C47.5083 32.2036 47.3951 32.0324 47.3951 31.8242C47.3951 31.616 47.5084 31.4265 47.7347 31.2551C47.9612 31.0838 48.2882 30.998 48.716 30.998C49.1058 30.998 49.5242 31.0768 49.9709 31.2339C50.4173 31.3914 50.6909 31.4699 50.7917 31.4699C51.0433 31.4699 51.2541 31.3283 51.424 31.0453C51.5938 30.7622 51.6787 30.514 51.6787 30.2999C51.6787 29.9603 51.3735 29.671 50.7635 29.4319C50.3404 29.2663 49.8758 29.1594 49.3713 29.1085V27.2834C49.3713 26.7816 48.9645 26.3749 48.4628 26.3749C47.9609 26.3749 47.5542 26.7817 47.5542 27.2834V29.1802C46.9425 29.3091 46.4612 29.5547 46.112 29.9184C45.571 30.4816 45.3006 31.1536 45.3006 31.9342C45.3006 32.4974 45.4545 32.9594 45.7629 33.3203C46.071 33.6812 46.4452 33.9383 46.8857 34.0913C47.3259 34.2443 47.7631 34.3758 48.1971 34.4858C48.6311 34.5961 49.002 34.7368 49.3105 34.9081C49.6186 35.0797 49.7728 35.3121 49.7728 35.6057C49.7728 36.132 49.3081 36.395 48.3787 36.395C47.9076 36.395 47.5004 36.3293 47.1565 36.1975C46.8128 36.0657 46.5359 35.9368 46.3259 35.8106C46.1157 35.6844 45.9406 35.6213 45.8008 35.6213C45.5844 35.6213 45.3933 35.744 45.2279 35.9893C45.0623 36.2347 44.9796 36.4704 44.9796 36.697C44.9796 37.1248 45.3128 37.5022 45.9797 37.8292C46.4388 38.0543 46.9636 38.202 47.5539 38.2721V40.1129C47.5539 40.6147 47.9608 41.0215 48.4625 41.0215C48.9643 41.0215 49.3711 40.6147 49.3711 40.1129V38.2427C50.0099 38.134 50.537 37.9101 50.952 37.5703C51.562 37.0708 51.8672 36.3853 51.8672 35.514C51.8673 34.9999 51.7561 34.5624 51.5345 34.2015Z" stroke="#0075FF"/>
<path d="M59.4604 22.5398C56.5329 19.6122 52.6404 18 48.5003 18C44.3602 18 40.4677 19.6122 37.5401 22.5398C34.6125 25.4674 33.0002 29.3598 33.0002 33.5C33.0002 37.6402 34.6125 41.5326 37.54 44.4601C40.4676 47.3877 44.36 49 48.5002 49C52.6404 49 56.5328 47.3878 59.4604 44.4602C62.3879 41.5326 64.0002 37.6402 64.0002 33.5C64.0002 29.3598 62.388 25.4674 59.4604 22.5398ZM58.1755 43.1752C55.5912 45.7595 52.1551 47.1828 48.5002 47.1828C44.8454 47.1828 41.4094 45.7596 38.825 43.1752C36.2406 40.5909 34.8174 37.1549 34.8174 33.5C34.8174 29.8451 36.2407 26.4091 38.825 23.8247C41.4094 21.2404 44.8455 19.8171 48.5003 19.8171C52.1552 19.8171 55.5912 21.2403 58.1756 23.8247C60.76 26.4091 62.1832 29.8451 62.1832 33.5C62.1832 37.1549 60.7598 40.5909 58.1755 43.1752Z" stroke="#0075FF"/>
<path d="M48.5003 21.9072C42.0692 21.9072 36.8372 27.1392 36.8372 33.5704C36.8372 40.0014 42.0692 45.2334 48.5003 45.2334C54.9314 45.2334 60.1635 40.0014 60.1635 33.5704C60.1635 27.1392 54.9314 21.9072 48.5003 21.9072ZM48.5003 43.4162C43.0712 43.4162 38.6544 38.9994 38.6544 33.5704C38.6544 28.1412 43.0713 23.7244 48.5003 23.7244C53.9294 23.7244 58.3463 28.1412 58.3463 33.5704C58.3463 38.9994 53.9294 43.4162 48.5003 43.4162Z" stroke="#0075FF"/>
<path d="M43.4434 50.6697L43.4435 50.6699L43.4434 50.6697ZM43.4434 50.6697L43.4433 50.6696L43.4434 50.6697ZM53.7506 48.7738L54.9228 47.9783C54.6694 47.753 54.4319 47.5109 54.2109 47.2528M53.7506 48.7738L52.8487 44.9244C52.964 45.2398 53.1013 45.5501 53.261 45.8532M53.7506 48.7738C53.7449 48.4117 53.6812 48.0479 53.5561 47.6972M53.7506 48.7738L52.6886 48.286L53.5561 47.6972M54.2109 47.2528L55.0444 46.6872C54.858 46.4769 54.6845 46.2537 54.5244 46.0177C54.3636 45.7807 54.2203 45.5368 54.0944 45.2876L53.261 45.8532M54.2109 47.2528C54.0281 47.0392 53.8567 46.8146 53.697 46.5793C53.5366 46.3429 53.3913 46.1005 53.261 45.8532M54.2109 47.2528L53.5561 47.6972M53.261 45.8532L52.6068 46.2971C52.8185 46.4837 53.0079 46.6981 53.1701 46.937C53.3341 47.1787 53.4624 47.4343 53.5561 47.6972M50.9577 51.6478L50.8698 51.9374L51.2752 51.6623C51.9461 51.6617 52.6055 51.4629 53.1766 51.0754L57.5403 48.1139C58.9791 47.1375 59.4497 45.2458 58.644 43.7004M50.9577 51.6478L53.5036 51.5571L57.8672 48.5957C57.8672 48.5956 57.8672 48.5956 57.8672 48.5956C59.5632 47.4444 60.0979 45.2106 59.1765 43.4335L58.644 43.7004M50.9577 51.6478C50.8208 51.6351 50.6838 51.6142 50.5476 51.5849M50.9577 51.6478L53.5035 51.5571C53.5035 51.5571 53.5035 51.5571 53.5034 51.5572C52.7499 52.0685 51.8604 52.2921 50.9879 52.2339L50.5476 51.5849M58.644 43.7004L59.1721 43.425L58.9335 43.0256C58.9335 43.0256 58.9334 43.0256 58.9334 43.0256C58.9334 43.0256 58.9334 43.0256 58.9334 43.0255C58.7101 42.6967 58.4453 42.4094 58.1411 42.1646C58.1058 42.5704 58.2053 42.9895 58.4518 43.3525C58.5179 43.4499 58.6385 43.6895 58.644 43.7004ZM50.5476 51.5849L49.9153 52.014C50.0823 52.0728 50.2525 52.1202 50.4248 52.1564L50.5476 51.5849ZM51.3521 38.9954L51.3522 38.9953C52.1032 38.4859 52.9238 38.1214 53.7975 37.9085C54.3066 37.1929 54.9486 36.5544 55.7158 36.0339C55.7159 36.0339 55.7159 36.0339 55.7159 36.0338L60.0793 33.0726C61.4725 32.1271 63.1014 31.6778 64.7801 31.7772L51.3521 38.9954ZM51.3521 38.9954L46.9884 41.9569M51.3521 38.9954L46.9884 41.9569M42.882 49.8425L42.8821 49.8424L43.7355 49.2634C43.5813 48.123 43.6847 46.9478 44.0485 45.8471L42.882 49.8425ZM42.882 49.8425C41.3422 50.8874 40.9401 52.9881 41.9851 54.5278M42.882 49.8425L41.9851 54.5278M72.7124 37.7511L72.7123 37.7511L71.859 38.3302C72.0131 39.4706 71.9097 40.6458 71.5459 41.7466C71.0183 43.3433 69.9992 44.6911 68.606 45.6366L64.2423 48.5981C63.4914 49.1077 62.6706 49.4721 61.7969 49.6851C61.2877 50.4007 60.6455 51.039 59.8786 51.5594L55.515 54.5208C55.515 54.5208 55.515 54.5209 55.5149 54.5209C54.1219 55.4664 52.493 55.9157 50.8144 55.8163L72.7124 37.7511ZM72.7124 37.7511C73.4565 37.2461 73.9621 36.4771 74.1312 35.594C74.3002 34.711 74.1143 33.8097 73.6093 33.0657C72.5644 31.526 70.4635 31.1237 68.9239 32.1688M72.7124 37.7511L68.9239 32.1688M68.9239 32.1688L68.9238 32.1688M68.9239 32.1688C68.9238 32.1688 68.9238 32.1688 68.9238 32.1688M68.9238 32.1688L68.0706 32.748M68.9238 32.1688L68.0706 32.748M68.0706 32.748C67.0677 32.1836 65.9373 31.8457 64.7802 31.7772L68.0706 32.748ZM46.9884 41.9569C45.5952 42.9024 44.5761 44.2502 44.0485 45.847L46.9884 41.9569ZM41.9851 54.5278C42.49 55.2719 43.259 55.7776 44.1419 55.9466M41.9851 54.5278L44.1419 55.9466M44.1419 55.9466C45.025 56.1156 45.9265 55.9297 46.6705 55.4246M44.1419 55.9466L46.6705 55.4246M46.6705 55.4246L47.5231 54.8459C48.2433 55.2511 49.0285 55.5391 49.8416 55.6947C50.1616 55.756 50.4866 55.797 50.8142 55.8163L46.6705 55.4246ZM62.4243 40.6565C62.5865 40.8955 62.7759 41.1099 62.9876 41.2964L62.3334 41.7404C62.2031 41.493 62.0577 41.2505 61.8973 41.014C61.7376 40.7788 61.5662 40.5543 61.3834 40.3407L62.0377 39.8967C62.1329 40.1623 62.2621 40.4175 62.4243 40.6565ZM58.1019 48.9414C59.9621 47.6789 60.5679 45.2353 59.5341 43.2446L58.1019 48.9414ZM53.738 51.9029L53.7382 51.9028L54.0651 52.3845C52.8777 53.1903 51.4266 53.4242 50.0877 53.1055L50.7812 52.6349C51.815 52.7503 52.8586 52.4996 53.738 51.9029Z" fill="#0075FF" stroke="#BCDBFF" stroke-width="2"/>
<path d="M73.0214 35.2784C73.1406 34.6558 73.0102 34.0241 72.6542 33.4996C71.9194 32.4168 70.4404 32.1337 69.3579 32.8686L67.9665 33.8131C66.9766 33.1292 65.7998 32.7192 64.5934 32.6479C63.1353 32.5615 61.7245 32.9504 60.5132 33.7724L56.1497 36.7337C55.3731 37.2606 54.7452 37.9257 54.2752 38.6736C53.3786 38.839 52.5429 39.1818 51.786 39.6952L47.4223 42.6567C46.2111 43.4788 45.3286 44.6462 44.8704 46.0332C44.4911 47.1808 44.4376 48.4256 44.7075 49.5981L43.3159 50.5423C42.2331 51.2771 41.9501 52.7559 42.6849 53.8387C43.0409 54.3632 43.5798 54.7176 44.2023 54.8368C44.8251 54.956 45.4568 54.8257 45.9811 54.4696L47.3719 53.5257C48.1294 54.0489 48.996 54.4115 49.902 54.5849C50.1802 54.6382 50.4622 54.6737 50.7457 54.6904C52.2038 54.7768 53.6147 54.3879 54.8257 53.5658L59.1895 50.6043C59.9659 50.0774 60.594 49.4126 61.0639 48.6647C61.9605 48.4993 62.7965 48.1566 63.5531 47.6431L67.9168 44.6816C69.1281 43.8595 70.0106 42.692 70.4688 41.3051C70.8481 40.1575 70.9016 38.9127 70.6317 37.7402L72.0232 36.796C72.5478 36.44 72.9022 35.9011 73.0214 35.2784ZM60.9422 41.448C60.5875 40.9254 60.1669 40.4648 59.6863 40.0697L62.8171 37.945C62.793 38.0245 62.7728 38.1058 62.757 38.1884C62.6378 38.8111 62.7682 39.4428 63.1241 39.9673C63.4801 40.4919 64.019 40.8463 64.6416 40.9654C64.7243 40.9813 64.8074 40.9924 64.8901 40.9996L61.7608 43.1233C61.5735 42.5424 61.3019 41.978 60.9422 41.448ZM52.215 47.371C51.859 46.8464 51.3202 46.4918 50.6974 46.3726C50.6147 46.3568 50.5318 46.3457 50.4491 46.3387L53.5784 44.215C53.7656 44.7959 54.0372 45.3603 54.3968 45.8901C54.7516 46.4129 55.1721 46.8734 55.6528 47.2685L52.5202 49.3946C52.7213 48.7319 52.6333 47.9873 52.215 47.371ZM57.038 38.0428L61.4017 35.0814C62.9406 34.037 64.923 33.9534 66.5291 34.7883L64.9192 35.881C64.0058 35.6849 63.0673 35.8631 62.2902 36.3905L57.9265 39.352C57.8903 39.3765 57.8576 39.404 57.8268 39.4332C57.8241 39.4352 57.8215 39.4368 57.8188 39.4388C56.3339 40.5364 55.981 42.5897 57.0148 44.1133C57.0228 44.1251 57.0978 44.2748 57.104 44.2862C57.4539 44.9409 57.3767 45.7137 56.9528 46.2712C56.4629 45.9261 56.0447 45.501 55.7059 45.0018C54.1545 42.716 54.7521 39.5942 57.038 38.0428ZM48.3106 43.9658L52.6743 41.0043C52.9267 40.833 53.191 40.6871 53.4656 40.5662C53.3048 41.2001 53.2377 41.8565 53.2689 42.5129L49.199 45.2749C48.4217 45.8025 47.9094 46.6093 47.7546 47.5299L46.1446 48.6225C45.9619 46.8214 46.7717 45.0102 48.3106 43.9658ZM45.0928 53.1605C44.732 53.4054 44.2391 53.3113 43.994 52.9502C43.7489 52.5893 43.8433 52.0963 44.2044 51.8514L49.8071 48.0491C49.9821 47.9303 50.1926 47.8869 50.4001 47.9267C50.6075 47.9663 50.7873 48.0844 50.9059 48.2594C51.1508 48.6203 51.0564 49.1131 50.6955 49.3582L45.0928 53.1605ZM58.3012 49.2954L53.9374 52.2569C52.3984 53.3012 50.4163 53.3849 48.8098 52.5499L50.42 51.4573C51.3307 51.6531 52.2716 51.4752 53.049 50.9478L57.4127 47.9863C58.8515 47.0098 59.3221 45.1181 58.5164 43.5727C58.5109 43.5618 58.3902 43.3223 58.3241 43.2249C57.8672 42.5519 57.9154 41.6857 58.3914 41.0702C58.8792 41.4146 59.2954 41.8389 59.6333 42.3365C61.1844 44.6223 60.5868 47.7441 58.3012 49.2954ZM67.0284 43.3724L62.6647 46.3339C62.4123 46.5052 62.1482 46.6512 61.8736 46.772C62.0341 46.1381 62.1015 45.4818 62.07 44.8254L66.1401 42.0633C66.9175 41.5358 67.4298 40.7288 67.5844 39.8083L69.1945 38.7157C69.3773 40.5167 68.5674 42.3281 67.0284 43.3724ZM71.1348 35.4869L65.5321 39.2892C65.171 39.5341 64.6783 39.44 64.4333 39.0789C64.3145 38.9041 64.2711 38.6934 64.3108 38.486C64.3506 38.2784 64.4686 38.0988 64.6436 37.9801L70.2463 34.1777C70.4268 34.0554 70.6402 34.0176 70.8393 34.0557C71.0382 34.0938 71.2225 34.2077 71.3451 34.3881C71.59 34.7489 71.4956 35.242 71.1348 35.4869Z" fill="#0075FF" stroke="#0075FF" stroke-width="0.5"/>
<defs>
<filter id="filter0_d" x="0.000244141" y="0" width="100" height="100" filterUnits="userSpaceOnUse" color-interpolation-filters="sRGB">
<feFlood flood-opacity="0" result="BackgroundImageFix"/>
<feColorMatrix in="SourceAlpha" type="matrix" values="0 0 0 0 0 0 0 0 0 0 0 0 0 0 0 0 0 0 127 0" result="hardAlpha"/>
<feOffset dy="15"/>
<feGaussianBlur stdDeviation="7.5"/>
<feColorMatrix type="matrix" values="0 0 0 0 0.737255 0 0 0 0 0.858824 0 0 0 0 1 0 0 0 0.2 0"/>
<feBlend mode="normal" in2="BackgroundImageFix" result="effect1_dropShadow"/>
<feBlend mode="normal" in="SourceGraphic" in2="effect1_dropShadow" result="shape"/>
</filter>
</defs>
</svg>
