<svg width="100" height="100" viewBox="0 0 100 100" fill="none" xmlns="http://www.w3.org/2000/svg">
<g filter="url(#filter0_d)">
<circle cx="49.9998" cy="35" r="35" fill="#FFBCBC"/>
</g>
<path d="M36.9163 30.1475V55.0235H34.5017C34.3587 55.0235 34.2216 55.0803 34.1205 55.1814C34.0194 55.2824 33.9626 55.4196 33.9626 55.5625C33.9626 55.7055 34.0194 55.8426 34.1205 55.9437C34.2216 56.0448 34.3587 56.1016 34.5017 56.1016H65.4978C65.6408 56.1016 65.7779 56.0448 65.879 55.9437C65.9801 55.8426 66.0369 55.7055 66.0369 55.5625C66.0369 55.4196 65.9801 55.2824 65.879 55.1814C65.7779 55.0803 65.6408 55.0235 65.4978 55.0235H55.2947C55.9756 54.5875 56.5748 54.0356 57.0652 53.3928C57.6902 52.588 58.1198 51.649 58.3201 50.6498C58.5204 49.6507 58.4858 48.6186 58.2192 47.6351C58.2039 47.5785 58.1878 47.5218 58.1711 47.4648C57.4779 45.097 55.9288 43.2768 53.7741 42.2736C53.8138 42.1577 53.8342 42.0361 53.8345 41.9136V41.1845C53.8344 40.9997 53.7886 40.8179 53.7013 40.6551C53.6139 40.4923 53.4877 40.3537 53.3339 40.2514C53.6491 39.5695 54.0201 38.9148 54.4432 38.294C54.9237 37.5949 55.3596 37.257 55.8212 36.8992C56.0009 36.7596 56.1876 36.6152 56.3759 36.4494C56.5243 36.3213 56.6328 36.1533 56.6883 35.9653C56.7437 35.7773 56.7439 35.5773 56.6888 35.3892C56.551 34.94 56.1412 34.6762 55.6458 34.7171C55.2072 34.753 54.6194 34.4121 54.1903 34.1632C54.0009 34.0464 53.8036 33.9427 53.6 33.8529C52.5481 33.4328 51.869 34.1444 51.5785 34.4484C51.4789 34.5527 51.1273 34.7444 50.959 34.8095C50.9377 34.8178 50.9162 34.8252 50.8946 34.8314C50.3926 34.9773 50.1309 34.9544 49.6609 34.5357C48.6214 33.6103 47.714 34.0715 47.4607 34.2349C47.195 34.4063 47.0603 34.7015 46.93 34.987C46.8736 35.1166 46.8105 35.2431 46.7408 35.3661C46.7204 35.4056 46.6942 35.4418 46.663 35.4735C46.6554 35.4761 46.6477 35.4779 46.6398 35.4789C46.5436 35.4945 46.5236 35.4976 46.3325 35.3589L46.2578 35.3039C45.8352 34.9867 45.3762 34.7212 44.8904 34.5133C44.8705 34.5043 44.8479 34.4936 44.8233 34.482C44.7493 34.447 44.6572 34.4033 44.5538 34.3634C44.1197 34.1961 43.1649 34.1585 42.6961 34.2903C42.5694 34.321 42.4491 34.3738 42.3408 34.4462C42.1327 34.5986 41.9823 34.8168 41.9138 35.0655C41.8378 35.3349 41.85 35.6217 41.9486 35.8837C42.0472 36.1458 42.227 36.3694 42.4619 36.5219C43.1519 36.9751 43.7526 37.5517 44.2336 38.2227C44.6455 38.8037 44.9729 39.4403 45.206 40.1133C44.9774 40.1844 44.7776 40.3266 44.6355 40.5193C44.4935 40.712 44.4168 40.9449 44.4165 41.1843V41.9134C44.4165 42.0955 44.4611 42.2748 44.5463 42.4356C43.2903 43.0645 41.1895 44.3326 40.2375 46.9342C40.1874 47.0714 40.1397 47.2114 40.096 47.3502C39.7807 48.3466 39.707 49.4037 39.8812 50.4342C40.0553 51.4646 40.4722 52.4389 41.0975 53.2763C41.603 53.9684 42.2325 54.5608 42.954 55.0235H37.9947V30.1475C37.9947 26.6864 40.8678 23.8706 44.3993 23.8706C47.9309 23.8706 50.8039 26.6864 50.8039 30.1475C50.8039 30.2905 50.8607 30.4276 50.9618 30.5287C51.0629 30.6298 51.2 30.6866 51.343 30.6866C51.486 30.6866 51.6231 30.6298 51.7242 30.5287C51.8253 30.4276 51.8821 30.2905 51.8821 30.1475C51.8821 27.3919 50.3315 24.9867 48.0437 23.727H48.8427C49.3695 23.7277 49.8893 23.8465 50.3641 24.0745L50.7137 24.2432C51.736 24.7388 52.8751 24.9428 54.0058 24.8327C55.1365 24.7226 56.2149 24.3027 57.1223 23.6192C57.1341 23.6102 57.1456 23.6012 57.1566 23.5912L58.0012 22.8417C58.2636 22.6095 58.5677 22.4292 58.8973 22.3103L59.3295 23.7234C59.3633 23.8338 59.4316 23.9305 59.5244 23.9991C59.6172 24.0678 59.7296 24.1048 59.845 24.1048H63.929C64.0053 24.1048 64.0808 24.0886 64.1504 24.0573C64.2199 24.0259 64.2821 23.9802 64.3326 23.923C64.3832 23.8659 64.4211 23.7987 64.4437 23.7258C64.4664 23.6529 64.4733 23.5761 64.4641 23.5004L63.1023 12.3721C63.0863 12.2415 63.0231 12.1212 62.9245 12.0339C62.826 11.9467 62.6989 11.8985 62.5673 11.8985H56.4416C56.3573 11.8985 56.2742 11.9182 56.1989 11.9562C56.1236 11.9941 56.0583 12.0491 56.0082 12.1169C55.958 12.1847 55.9245 12.2632 55.9102 12.3463C55.896 12.4294 55.9014 12.5146 55.926 12.5952L56.6952 15.1102L54.2964 16.622C53.9965 16.7859 53.6459 16.8305 53.3145 16.7469C53.3034 16.7442 53.2922 16.7417 53.2808 16.7396L48.1817 15.8036C46.7631 15.5506 45.3008 15.7564 44.0072 16.3913C43.9843 16.4025 43.9623 16.4154 43.9412 16.4298L35.1224 22.4659C35.0089 22.5436 34.9293 22.6619 34.9002 22.7964C34.871 22.9309 34.8943 23.0715 34.9655 23.1893C35.3083 23.7574 35.8567 24.1717 36.4968 24.3464C37.1369 24.521 37.8197 24.4425 38.4035 24.1273L38.4439 24.1056C38.697 24.3776 39.01 24.5869 39.3579 24.7171C38.5913 25.3991 37.9775 26.2355 37.5567 27.1714C37.1359 28.1072 36.9177 29.1214 36.9163 30.1475ZM45.5378 41.9567C45.5263 41.9567 45.5154 41.9521 45.5073 41.944C45.4992 41.9359 45.4947 41.925 45.4946 41.9136V41.1845C45.4947 41.173 45.4992 41.1621 45.5073 41.154C45.5154 41.1459 45.5263 41.1414 45.5378 41.1413H52.713C52.7245 41.1414 52.7354 41.146 52.7434 41.154C52.7515 41.1621 52.756 41.1731 52.7561 41.1845V41.9136C52.756 41.925 52.7515 41.9359 52.7434 41.944C52.7354 41.9521 52.7245 41.9566 52.713 41.9567H45.5378ZM43.0634 35.6272C43.0197 35.6017 42.9851 35.5632 42.9644 35.517C42.9437 35.4709 42.9379 35.4195 42.9479 35.3699C42.9513 35.3583 42.9557 35.3469 42.9609 35.336C42.9684 35.3337 42.9773 35.3311 42.9878 35.3281C43.2304 35.2596 43.9464 35.2847 44.1656 35.3692C44.2322 35.3949 44.3013 35.4276 44.3623 35.4565C44.394 35.4715 44.4231 35.4851 44.4486 35.4966C44.8638 35.6733 45.256 35.8998 45.6165 36.1712L45.6988 36.2316C45.9792 36.4352 46.2963 36.6269 46.8123 36.5433C47.2906 36.4657 47.5291 36.1493 47.6668 35.918C47.7569 35.7616 47.8383 35.6003 47.9105 35.4349C47.9549 35.3291 48.0068 35.2266 48.0658 35.1282C48.3234 34.9748 48.6108 35.0448 48.9435 35.341C49.6622 35.9814 50.2936 36.1288 51.1954 35.867C51.2455 35.8524 51.2969 35.8349 51.3481 35.8151C51.4877 35.7612 52.068 35.4975 52.3583 35.1931C52.7289 34.8049 52.9019 34.7353 53.1996 34.8544C53.3539 34.9263 53.5039 35.007 53.6488 35.0962C54.1408 35.3815 54.7947 35.7605 55.4793 35.7954C55.3755 35.8801 55.2696 35.9621 55.16 36.0469C54.6771 36.4213 54.1298 36.8456 53.5541 37.6831C53.0426 38.4344 52.6012 39.231 52.2355 40.063H50.7709C50.7974 39.6253 50.5193 39.3545 50.9517 38.8616C51.1296 38.6603 51.3418 38.4922 51.5785 38.365C51.7041 38.2967 51.7975 38.1814 51.838 38.0443C51.8786 37.9072 51.863 37.7596 51.7947 37.6339C51.7609 37.5717 51.7152 37.5168 51.6602 37.4723C51.6052 37.4277 51.5419 37.3945 51.474 37.3744C51.3369 37.3339 51.1893 37.3494 51.0637 37.4177C50.7152 37.6056 50.4028 37.8538 50.141 38.1508C49.4861 38.8973 49.72 39.4545 49.6911 40.0632H49.1283C48.902 39.3883 48.6102 38.731 48.325 38.2814C48.2483 38.1607 48.1269 38.0754 47.9873 38.0443C47.8478 38.0131 47.7016 38.0387 47.5809 38.1154C47.4602 38.192 47.3749 38.3135 47.3438 38.453C47.3127 38.5926 47.3382 38.7387 47.4149 38.8594C47.602 39.1541 47.7685 39.4695 47.9873 40.063H46.3259C46.0544 39.1789 45.6428 38.344 45.1068 37.5903C44.5503 36.8176 43.8577 36.1524 43.0634 35.6272ZM41.9673 52.6388C41.4429 51.9376 41.093 51.1216 40.9465 50.2583C40.8 49.3951 40.8611 48.5093 41.1247 47.6743C41.1635 47.5511 41.2056 47.4267 41.2505 47.3049C42.189 44.7402 44.4228 43.6824 45.4962 43.174C45.6071 43.1215 45.7016 43.0765 45.7849 43.0348H52.713C52.74 43.0348 52.7664 43.0326 52.793 43.0307C54.9663 43.8496 56.4681 45.486 57.1362 47.7677C57.1509 47.8177 57.1649 47.8678 57.1784 47.9174C57.401 48.7411 57.4292 49.6053 57.2608 50.4418C57.0924 51.2783 56.732 52.0643 56.208 52.7378C55.6654 53.4515 54.9644 54.0295 54.1603 54.4261C53.3562 54.8228 52.471 55.0273 51.5744 55.0235H46.681C45.7624 55.0287 44.8557 54.8151 44.0359 54.4005C43.2162 53.9858 42.5074 53.3819 41.9673 52.6388ZM62.0901 12.9766L63.3195 23.0267H60.2435L57.1698 12.9766H62.0901ZM36.2232 23.0189L44.5176 17.3417C45.5956 16.8215 46.8101 16.6545 47.9885 16.8643L53.07 17.7972C53.6668 17.9428 54.2966 17.8571 54.8327 17.5572C54.8412 17.5525 54.8494 17.5476 54.8576 17.5425L57.0217 16.1786L58.5813 21.2782C58.1037 21.4431 57.6633 21.7003 57.2851 22.0353L56.4576 22.7696C55.7087 23.3288 54.8205 23.6714 53.8901 23.76C52.9596 23.8485 52.0227 23.6797 51.1817 23.2718L50.8321 23.1032C50.2112 22.8049 49.5313 22.6496 48.8425 22.6487H45.4507C45.0252 22.6487 44.611 22.512 44.2691 22.2588C43.9272 22.0056 43.6757 21.6492 43.5516 21.2422L45.7977 21.3436C46.701 21.384 47.6062 21.3424 48.502 21.219C48.5721 21.2094 48.6396 21.186 48.7007 21.1502C48.7618 21.1144 48.8153 21.067 48.858 21.0105C48.9008 20.9541 48.932 20.8898 48.9499 20.8213C48.9678 20.7528 48.972 20.6815 48.9623 20.6113C48.9527 20.5412 48.9293 20.4737 48.8935 20.4126C48.8577 20.3515 48.8103 20.298 48.7538 20.2553C48.6974 20.2125 48.6331 20.1813 48.5646 20.1634C48.4961 20.1455 48.4248 20.1413 48.3546 20.151C47.5238 20.2655 46.6843 20.3042 45.8465 20.2664L42.9536 20.136C42.8808 20.1327 42.8082 20.1442 42.74 20.1698C42.6718 20.1954 42.6095 20.2345 42.5568 20.2848C42.5042 20.3352 42.4623 20.3956 42.4336 20.4626C42.405 20.5296 42.3903 20.6017 42.3903 20.6745C42.3903 20.704 42.3916 20.7331 42.3925 20.7623L42.0839 20.924L37.893 23.1779C37.6303 23.3198 37.3313 23.3805 37.034 23.3522C36.7366 23.3239 36.4545 23.2079 36.2232 23.0189ZM42.5897 21.8759L42.6286 21.8555C42.7106 22.0493 42.8125 22.234 42.9326 22.4068L40.5195 23.7029C40.2043 23.8592 39.7847 23.7873 39.4549 23.5619L42.5897 21.8759Z" fill="#FF2E00" stroke="#FF2E00"/>
<defs>
<filter id="filter0_d" x="-0.000244141" y="3.05176e-05" width="100" height="100" filterUnits="userSpaceOnUse" color-interpolation-filters="sRGB">
<feFlood flood-opacity="0" result="BackgroundImageFix"/>
<feColorMatrix in="SourceAlpha" type="matrix" values="0 0 0 0 0 0 0 0 0 0 0 0 0 0 0 0 0 0 127 0" result="hardAlpha"/>
<feOffset dy="15"/>
<feGaussianBlur stdDeviation="7.5"/>
<feColorMatrix type="matrix" values="0 0 0 0 1 0 0 0 0 0.737255 0 0 0 0 0.737255 0 0 0 0.2 0"/>
<feBlend mode="normal" in2="BackgroundImageFix" result="effect1_dropShadow"/>
<feBlend mode="normal" in="SourceGraphic" in2="effect1_dropShadow" result="shape"/>
</filter>
</defs>
</svg>
