<svg width="24" height="31" viewBox="0 0 24 31" fill="none" xmlns="http://www.w3.org/2000/svg">
<path d="M23.0437 8.05805C21.9516 4.52889 19.0806 1.65709 15.5515 0.564888C11.8162 -0.592163 7.84203 0.0509057 4.80857 2.28605C1.79745 4.50576 0 8.06156 0 11.7975C0 14.3748 0.815324 16.8234 2.35727 18.8781L11.8101 31L21.263 18.8772C23.5707 15.8005 24.2201 11.857 23.0437 8.05805ZM11.8101 18.1568C8.304 18.1568 5.45085 15.3036 5.45085 11.7975C5.45085 8.29134 8.304 5.43818 11.8101 5.43818C15.3163 5.43818 18.1694 8.29134 18.1694 11.7975C18.1694 15.3036 15.3163 18.1568 11.8101 18.1568Z" fill="#0C83F1"/>
<path d="M11.8101 7.2672C9.30562 7.2672 7.26779 9.29292 7.26779 11.7974C7.26779 14.302 9.30562 16.3398 11.8101 16.3398C14.3147 16.3398 16.3525 14.302 16.3525 11.7974C16.3525 9.29292 14.3147 7.2672 11.8101 7.2672Z" fill="#0C83F1"/>
</svg>
