<svg width="100" height="100" viewBox="0 0 100 100" fill="none" xmlns="http://www.w3.org/2000/svg">
<g filter="url(#filter0_d)">
<circle cx="50.0001" cy="35" r="35" fill="#C1FFCF"/>
</g>
<path d="M74.0431 33.543H51.4572V22.25C51.4572 21.7215 51.0287 21.293 50.5001 21.293C49.9716 21.293 49.5431 21.7215 49.5431 22.25V27.4606C47.34 23.4572 43.3232 20.1446 38.7286 20.1446C31.8151 20.1446 26.0001 27.667 26.0001 34.5C26.0001 35.0286 26.4286 35.4571 26.9572 35.4571H49.5431V58.043C49.5431 58.5715 49.9716 59 50.5001 59C51.0287 59 51.4572 58.5715 51.4572 58.043V41.5395C54.1284 46.3936 58.4827 48.8555 62.2716 48.8555C69.158 48.8555 75.0001 41.361 75.0001 34.5C75.0001 33.9715 74.5717 33.543 74.0431 33.543ZM29.924 33.543H27.9576C28.1317 31.6016 28.8237 29.6015 29.924 27.8058V33.543ZM33.8478 33.543H31.838V25.3293C32.4648 24.6818 33.1427 24.1138 33.8478 23.6432V33.543ZM37.7716 33.543H35.7618V22.6365C36.4271 22.3765 37.0989 22.2037 37.7716 22.1194V33.543ZM41.6954 33.543H39.6857V22.1194C40.3583 22.2037 41.0302 22.3765 41.6954 22.6365V33.543ZM45.6193 33.543H43.6095V23.6432C44.3144 24.1138 44.9925 24.6818 45.6193 25.3293V33.543ZM47.5333 33.543V27.8058C48.6335 29.6015 49.3256 31.6016 49.4996 33.543H47.5333ZM53.4669 41.1943C52.3667 39.3986 51.6747 37.3985 51.5006 35.4571H53.4669V41.1943ZM57.3907 45.3569C56.6858 44.8863 56.0077 44.3183 55.381 43.6708V35.4571H57.3907V45.3569ZM61.3146 46.8807C60.642 46.7963 59.97 46.6235 59.3048 46.3636V35.4571H61.3146V46.8807ZM65.2384 46.3636C64.5732 46.6235 63.9013 46.7963 63.2286 46.8807V35.4571H65.2384V46.3636ZM69.1622 43.6708C68.5355 44.3182 67.8575 44.8863 67.1525 45.3569V35.4571H69.1622V43.6708ZM71.0763 41.1943V35.4561H73.0426C72.8685 37.3985 72.1766 39.3986 71.0763 41.1943Z" fill="#00C614"/>
<path d="M34.6134 43.1133C35.142 43.1133 35.5704 42.6848 35.5704 42.1563C35.5704 41.6277 35.142 41.1992 34.6134 41.1992H26.9572C26.4286 41.1992 26.0001 41.6277 26.0001 42.1563C26.0001 42.6848 26.4286 43.1133 26.9572 43.1133H34.6134Z" fill="#00C614"/>
<path d="M74.0431 25.8867H71.172V23.0157C71.172 22.4871 70.7435 22.0586 70.215 22.0586C69.6864 22.0586 69.2579 22.4871 69.2579 23.0157V25.8867H66.3868C65.8583 25.8867 65.4298 26.3152 65.4298 26.8438C65.4298 27.3723 65.8583 27.8008 66.3868 27.8008H69.2579V30.6719C69.2579 31.2005 69.6864 31.6289 70.215 31.6289C70.7435 31.6289 71.172 31.2005 71.172 30.6719V27.8008H74.0431C74.5717 27.8008 75.0001 27.3723 75.0001 26.8438C75.0001 26.3152 74.5717 25.8867 74.0431 25.8867Z" fill="#00C614"/>
<path d="M50.5001 18.9004C51.0287 18.9004 51.4572 18.4719 51.4572 17.9434C51.4572 17.4148 51.0287 16.9864 50.5001 16.9864C49.9716 16.9864 49.5431 17.4148 49.5431 17.9434C49.5431 18.4719 49.9716 18.9004 50.5001 18.9004Z" fill="#00C614"/>
<path d="M49.5431 13.6367C49.5431 14.1653 49.9716 14.5938 50.5001 14.5938C51.0287 14.5938 51.4572 14.1653 51.4572 13.6367V10.9571C51.4572 10.4285 51.0287 10 50.5001 10C49.9716 10 49.5431 10.4285 49.5431 10.9571V13.6367Z" fill="#00C614"/>
<path d="M74.0431 33.543H51.4572V22.25C51.4572 21.7215 51.0287 21.293 50.5001 21.293C49.9716 21.293 49.5431 21.7215 49.5431 22.25V27.4606C47.34 23.4572 43.3232 20.1446 38.7286 20.1446C31.8151 20.1446 26.0001 27.667 26.0001 34.5C26.0001 35.0286 26.4286 35.4571 26.9572 35.4571H49.5431V58.043C49.5431 58.5715 49.9716 59 50.5001 59C51.0287 59 51.4572 58.5715 51.4572 58.043V41.5395C54.1284 46.3936 58.4827 48.8555 62.2716 48.8555C69.158 48.8555 75.0001 41.361 75.0001 34.5C75.0001 33.9715 74.5717 33.543 74.0431 33.543ZM29.924 33.543H27.9576C28.1317 31.6016 28.8237 29.6015 29.924 27.8058V33.543ZM33.8478 33.543H31.838V25.3293C32.4648 24.6818 33.1427 24.1138 33.8478 23.6432V33.543ZM37.7716 33.543H35.7618V22.6365C36.4271 22.3765 37.0989 22.2037 37.7716 22.1194V33.543ZM41.6954 33.543H39.6857V22.1194C40.3583 22.2037 41.0302 22.3765 41.6954 22.6365V33.543ZM45.6193 33.543H43.6095V23.6432C44.3144 24.1138 44.9925 24.6818 45.6193 25.3293V33.543ZM47.5333 33.543V27.8058C48.6335 29.6015 49.3256 31.6016 49.4996 33.543H47.5333ZM53.4669 41.1943C52.3667 39.3986 51.6747 37.3985 51.5006 35.4571H53.4669V41.1943ZM57.3907 45.3569C56.6858 44.8863 56.0077 44.3183 55.381 43.6708V35.4571H57.3907V45.3569ZM61.3146 46.8807C60.642 46.7963 59.97 46.6235 59.3048 46.3636V35.4571H61.3146V46.8807ZM65.2384 46.3636C64.5732 46.6235 63.9013 46.7963 63.2286 46.8807V35.4571H65.2384V46.3636ZM69.1622 43.6708C68.5355 44.3182 67.8575 44.8863 67.1525 45.3569V35.4571H69.1622V43.6708ZM71.0763 41.1943V35.4561H73.0426C72.8685 37.3985 72.1766 39.3986 71.0763 41.1943Z" stroke="#00C614" stroke-width="0.6"/>
<path d="M34.6134 43.1133C35.142 43.1133 35.5704 42.6848 35.5704 42.1563C35.5704 41.6277 35.142 41.1992 34.6134 41.1992H26.9572C26.4286 41.1992 26.0001 41.6277 26.0001 42.1563C26.0001 42.6848 26.4286 43.1133 26.9572 43.1133H34.6134Z" stroke="#00C614" stroke-width="0.6"/>
<path d="M74.0431 25.8867H71.172V23.0157C71.172 22.4871 70.7435 22.0586 70.215 22.0586C69.6864 22.0586 69.2579 22.4871 69.2579 23.0157V25.8867H66.3868C65.8583 25.8867 65.4298 26.3152 65.4298 26.8438C65.4298 27.3723 65.8583 27.8008 66.3868 27.8008H69.2579V30.6719C69.2579 31.2005 69.6864 31.6289 70.215 31.6289C70.7435 31.6289 71.172 31.2005 71.172 30.6719V27.8008H74.0431C74.5717 27.8008 75.0001 27.3723 75.0001 26.8438C75.0001 26.3152 74.5717 25.8867 74.0431 25.8867Z" stroke="#00C614" stroke-width="0.6"/>
<path d="M50.5001 18.9004C51.0287 18.9004 51.4572 18.4719 51.4572 17.9434C51.4572 17.4148 51.0287 16.9864 50.5001 16.9864C49.9716 16.9864 49.5431 17.4148 49.5431 17.9434C49.5431 18.4719 49.9716 18.9004 50.5001 18.9004Z" stroke="#00C614" stroke-width="0.6"/>
<path d="M49.5431 13.6367C49.5431 14.1653 49.9716 14.5938 50.5001 14.5938C51.0287 14.5938 51.4572 14.1653 51.4572 13.6367V10.9571C51.4572 10.4285 51.0287 10 50.5001 10C49.9716 10 49.5431 10.4285 49.5431 10.9571V13.6367Z" stroke="#00C614" stroke-width="0.6"/>
<defs>
<filter id="filter0_d" x="0.00012207" y="3.05176e-05" width="100" height="100" filterUnits="userSpaceOnUse" color-interpolation-filters="sRGB">
<feFlood flood-opacity="0" result="BackgroundImageFix"/>
<feColorMatrix in="SourceAlpha" type="matrix" values="0 0 0 0 0 0 0 0 0 0 0 0 0 0 0 0 0 0 127 0" result="hardAlpha"/>
<feOffset dy="15"/>
<feGaussianBlur stdDeviation="7.5"/>
<feColorMatrix type="matrix" values="0 0 0 0 0.756863 0 0 0 0 1 0 0 0 0 0.811765 0 0 0 0.2 0"/>
<feBlend mode="normal" in2="BackgroundImageFix" result="effect1_dropShadow"/>
<feBlend mode="normal" in="SourceGraphic" in2="effect1_dropShadow" result="shape"/>
</filter>
</defs>
</svg>
