<svg width="100" height="100" viewBox="0 0 100 100" fill="none" xmlns="http://www.w3.org/2000/svg">
<g filter="url(#filter0_d)">
<circle cx="50.0001" cy="35" r="35" fill="#FFDCBC"/>
</g>
<g clip-path="url(#clip0)">
<path d="M50.0001 40.2422C49.2893 40.2422 48.711 39.6639 48.711 38.9532C48.711 38.4339 49.02 37.9676 49.4981 37.7651C50.0754 37.5207 50.7661 37.7292 51.3938 38.3373C51.9051 38.8327 52.7212 38.8198 53.2165 38.3085C53.712 37.7972 53.699 36.9811 53.1877 36.4858C52.6058 35.922 51.9588 35.5235 51.2891 35.2986V33.7969C51.2891 33.085 50.712 32.5078 50.0001 32.5078C49.2882 32.5078 48.711 33.085 48.711 33.7969V35.3069C48.6379 35.333 48.565 35.3605 48.4927 35.391C47.0592 35.9982 46.1329 37.3964 46.1329 38.9532C46.1329 41.0855 47.8677 42.8203 50.0001 42.8203C50.7109 42.8203 51.2891 43.3986 51.2891 44.1094C51.2891 44.6496 50.9484 45.1367 50.4413 45.3214C49.7791 45.5624 49.0084 45.2354 48.3267 44.4238C47.8688 43.8786 47.0558 43.8079 46.5106 44.2657C45.9654 44.7236 45.8947 45.5367 46.3525 46.0818C47.0494 46.9116 47.8606 47.4806 48.7111 47.7669V49.2657C48.7111 49.9776 49.2883 50.5547 50.0002 50.5547C50.7121 50.5547 51.2892 49.9776 51.2892 49.2657V47.7555C51.3007 47.7514 51.3122 47.7479 51.3237 47.7438C52.845 47.1897 53.8673 45.7291 53.8673 44.1094C53.8673 41.977 52.1324 40.2422 50.0001 40.2422Z" fill="#FF7A00"/>
<path d="M61.9385 32.3582C60.4064 30.4734 58.655 28.9717 56.7324 27.8918C57.0473 27.5193 57.2957 27.0824 57.4561 26.5956C58.0857 24.6784 57.1661 22.4011 54.8189 21.6592L58.1094 15.9216C58.5245 15.1975 58.1516 14.2752 57.351 14.0425C54.972 13.3507 52.4988 13 50.0001 13C47.5014 13 45.0283 13.3507 42.6492 14.0425C41.8477 14.2754 41.4762 15.1983 41.8909 15.9216L45.1813 21.6593C42.8434 22.3974 41.9122 24.6714 42.5444 26.5966C42.7044 27.0822 42.9527 27.5187 43.2686 27.8915C41.3457 28.9713 39.5941 30.4732 38.0619 32.3582C34.999 36.1263 33.2423 40.8793 33.2423 45.3985C33.2423 54.7735 40.7229 57 50.0001 57C59.2839 57 66.7579 54.7697 66.7579 45.3985C66.7579 40.8793 65.0013 36.1263 61.9385 32.3582ZM44.9724 16.1125C46.617 15.7575 48.3018 15.5782 50.0001 15.5782C51.6984 15.5782 53.3832 15.7575 55.0278 16.1125L52.189 21.0627C50.7351 20.8597 49.2656 20.8598 47.8113 21.0628L44.9724 16.1125ZM45.8146 24.163C48.0331 23.4352 50.3541 23.2973 52.6106 23.7484C52.6132 23.7489 52.616 23.7494 52.6186 23.75C53.1446 23.8555 53.667 23.9928 54.1838 24.1624C54.8594 24.385 55.2286 25.1158 55.0071 25.7901C54.8461 26.2785 54.4212 26.6149 53.9213 26.6693C52.636 26.2669 51.325 26.0625 50.0001 26.0625C48.6779 26.0625 47.3695 26.266 46.0867 26.6668C45.5791 26.6146 45.1531 26.2758 44.9935 25.7913C44.7717 25.1158 45.1409 24.3849 45.8146 24.163ZM50.0001 54.4391C39.9286 54.4391 35.8204 51.8077 35.8204 45.3985C35.8204 41.5191 37.4062 37.2522 40.0623 33.9844C42.8634 30.5384 46.3927 28.6407 50.0001 28.6407C53.971 28.6407 57.4441 30.9165 59.9379 33.9844C62.594 37.2522 64.1798 41.5191 64.1798 45.3985C64.1798 51.8077 60.0717 54.4391 50.0001 54.4391Z" fill="#FF7A00"/>
</g>
<defs>
<filter id="filter0_d" x="0.00012207" y="3.05176e-05" width="100" height="100" filterUnits="userSpaceOnUse" color-interpolation-filters="sRGB">
<feFlood flood-opacity="0" result="BackgroundImageFix"/>
<feColorMatrix in="SourceAlpha" type="matrix" values="0 0 0 0 0 0 0 0 0 0 0 0 0 0 0 0 0 0 127 0" result="hardAlpha"/>
<feOffset dy="15"/>
<feGaussianBlur stdDeviation="7.5"/>
<feColorMatrix type="matrix" values="0 0 0 0 1 0 0 0 0 0.862745 0 0 0 0 0.737255 0 0 0 0.2 0"/>
<feBlend mode="normal" in2="BackgroundImageFix" result="effect1_dropShadow"/>
<feBlend mode="normal" in="SourceGraphic" in2="effect1_dropShadow" result="shape"/>
</filter>
<clipPath id="clip0">
<rect width="44" height="44" fill="white" transform="translate(28.0001 13)"/>
</clipPath>
</defs>
</svg>
