<svg width="100" height="100" viewBox="0 0 100 100" fill="none" xmlns="http://www.w3.org/2000/svg">
<g filter="url(#filter0_d)">
<circle cx="49.9999" cy="35" r="35" fill="#DEBCFF"/>
</g>
<path d="M69.9999 29.9861C69.9999 21.7227 63.2772 15 55.0139 15C47.9682 15 42.0437 19.8878 40.4503 26.4503C33.8877 28.0437 28.9999 33.9683 28.9999 41.0139C28.9999 49.2773 35.7227 56 43.986 56C51.0317 56 56.9562 51.1122 58.5496 44.5497C65.1121 42.9563 69.9999 37.0317 69.9999 29.9861ZM43.986 53.5977C37.0473 53.5977 31.4023 47.9526 31.4023 41.0139C31.4023 35.4466 35.0368 30.7129 40.0574 29.0589C40.0385 29.3657 40.0278 29.6746 40.0278 29.986C40.0278 38.2493 46.7505 44.9721 55.0139 44.9721C55.3253 44.9721 55.6342 44.9614 55.9409 44.9426C54.2869 49.9632 49.5533 53.5977 43.986 53.5977ZM56.5697 41.0139C56.5697 41.5111 56.5398 42.0012 56.4835 42.4835C56.0012 42.5398 55.5111 42.5697 55.014 42.5697C51.8492 42.5697 48.9539 41.395 46.7403 39.4591H56.4738C56.5367 39.9688 56.5697 40.4876 56.5697 41.0139ZM44.61 37.0568C43.9606 36.1044 43.4387 35.0586 43.0685 33.9442H54.3906C55.0398 34.8966 55.5615 35.9424 55.9317 37.0568H44.61ZM42.5263 31.5418C42.4632 31.0319 42.4302 30.5127 42.4302 29.986C42.4302 29.4889 42.4601 28.9987 42.5164 28.5165C42.9986 28.4601 43.4888 28.4302 43.9859 28.4302C47.1512 28.4302 50.047 29.6054 52.2608 31.5418H42.5263ZM58.9425 41.941C58.9613 41.6342 58.9721 41.3254 58.9721 41.0139C58.9721 32.7506 52.2493 26.0278 43.986 26.0278C43.6746 26.0278 43.3657 26.0385 43.0589 26.0573C44.7129 21.0368 49.4466 17.4023 55.0139 17.4023C61.9526 17.4023 67.5976 23.0474 67.5976 29.9861C67.5976 35.5533 63.9631 40.287 58.9425 41.941Z" fill="#7F00FF" stroke="#7F00FF" stroke-width="0.7"/>
<defs>
<filter id="filter0_d" x="-6.10352e-05" y="0" width="100" height="100" filterUnits="userSpaceOnUse" color-interpolation-filters="sRGB">
<feFlood flood-opacity="0" result="BackgroundImageFix"/>
<feColorMatrix in="SourceAlpha" type="matrix" values="0 0 0 0 0 0 0 0 0 0 0 0 0 0 0 0 0 0 127 0" result="hardAlpha"/>
<feOffset dy="15"/>
<feGaussianBlur stdDeviation="7.5"/>
<feColorMatrix type="matrix" values="0 0 0 0 0.870588 0 0 0 0 0.737255 0 0 0 0 1 0 0 0 0.2 0"/>
<feBlend mode="normal" in2="BackgroundImageFix" result="effect1_dropShadow"/>
<feBlend mode="normal" in="SourceGraphic" in2="effect1_dropShadow" result="shape"/>
</filter>
</defs>
</svg>
