<svg width="27" height="26" viewBox="0 0 27 26" fill="none" xmlns="http://www.w3.org/2000/svg">
<path d="M25.6014 19.0814L21.973 15.453C20.6771 14.1572 18.4742 14.6755 17.9558 16.3601C17.5671 17.5264 16.2712 18.1743 15.105 17.9151C12.5133 17.2672 9.01449 13.898 8.36656 11.1767C7.97781 10.0104 8.75531 8.71453 9.92158 8.32583C11.6062 7.80749 12.1245 5.60455 10.8287 4.3087L7.2003 0.680321C6.16362 -0.226774 4.6086 -0.226774 3.7015 0.680321L1.23939 3.14243C-1.22272 5.73413 1.49856 12.6021 7.58905 18.6926C13.6795 24.7831 20.5475 27.634 23.1392 25.0423L25.6014 22.5802C26.5085 21.5435 26.5085 19.9885 25.6014 19.0814Z" fill="#0C83F1"/>
</svg>
