<svg width="152" height="29" viewBox="0 0 152 29" fill="none" xmlns="http://www.w3.org/2000/svg">
<g clip-path="url(#clip0)">
<path d="M152 17.7587H87.0049V29H152V17.7587Z" fill="#0C83F1"/>
<path d="M93.2892 21.1576H94.9636V21.9486H95.091C95.6418 21.9486 96.1223 22.0497 96.5324 22.2519C96.9455 22.454 97.2619 22.7382 97.4816 23.1044C97.7043 23.4706 97.8156 23.8866 97.8156 24.3524C97.8156 24.8388 97.7072 25.265 97.4904 25.6313C97.2736 25.9945 96.9558 26.2758 96.5368 26.475C96.1179 26.6742 95.611 26.7738 95.0163 26.7738H94.9636V27.7626H93.2892V26.7738H93.2014C92.6096 26.7738 92.1057 26.6772 91.6896 26.4838C91.2766 26.2875 90.9645 26.0092 90.7536 25.6488C90.5427 25.2856 90.4372 24.8505 90.4372 24.3437C90.4372 23.8661 90.5485 23.4428 90.7712 23.0736C90.9968 22.7016 91.3102 22.4218 91.7116 22.2343C92.1159 22.0439 92.5876 21.9486 93.1267 21.9486H93.2892V21.1576ZM94.9636 25.4599H95.0163C95.3854 25.4599 95.6623 25.369 95.8469 25.1874C96.0314 25.0058 96.1237 24.7245 96.1237 24.3437C96.1237 24.0097 96.0285 23.7489 95.8381 23.5614C95.6476 23.371 95.3796 23.2758 95.0339 23.2758H94.9636V25.4599ZM93.2892 23.2758H93.1882C92.8454 23.2758 92.5832 23.3666 92.4016 23.5482C92.2199 23.7299 92.1291 23.995 92.1291 24.3437C92.1291 24.7392 92.217 25.0248 92.3928 25.2006C92.5715 25.3734 92.841 25.4599 93.2014 25.4599H93.2892V23.2758ZM102.79 27.6747L102.474 26.4706H100.386L100.061 27.6747H98.154L100.25 21.2235H102.566L104.689 27.6747H102.79ZM102.113 25.0468L101.837 23.9921C101.772 23.7577 101.693 23.4545 101.599 23.0824C101.508 22.7104 101.448 22.4438 101.419 22.2826C101.393 22.432 101.34 22.6781 101.261 23.0209C101.185 23.3637 101.013 24.039 100.747 25.0468H102.113ZM111.004 27.6747H109.039L107.132 24.4184V27.6747H105.387V21.2499H107.132V24.3612L108.969 21.2499H110.876L108.894 24.3173L111.004 27.6747ZM114.497 27.6747H112.761V22.6693H111.193V21.2499H116.062V22.6693H114.497V27.6747ZM122.992 24.4535C122.992 25.5346 122.727 26.3564 122.196 26.9189C121.666 27.4814 120.89 27.7626 119.867 27.7626C118.86 27.7626 118.086 27.4799 117.547 26.9145C117.011 26.349 116.743 25.5258 116.743 24.4447C116.743 23.3754 117.009 22.5595 117.543 21.997C118.079 21.4315 118.857 21.1488 119.876 21.1488C120.899 21.1488 121.674 21.4286 122.201 21.9882C122.728 22.5478 122.992 23.3695 122.992 24.4535ZM118.571 24.4535C118.571 25.6957 119.003 26.3168 119.867 26.3168C120.307 26.3168 120.632 26.1659 120.843 25.8642C121.057 25.5624 121.164 25.0922 121.164 24.4535C121.164 23.8119 121.055 23.3388 120.839 23.0341C120.625 22.7265 120.304 22.5727 119.876 22.5727C119.006 22.5727 118.571 23.1996 118.571 24.4535ZM128.815 23.2934C128.815 24.0111 128.602 24.5663 128.177 24.9589C127.756 25.3485 127.155 25.5434 126.376 25.5434H125.888V27.6747H124.152V21.2499H126.376C127.187 21.2499 127.797 21.4272 128.204 21.7816C128.611 22.1361 128.815 22.64 128.815 23.2934ZM125.888 24.1283H126.204C126.465 24.1283 126.672 24.0551 126.824 23.9086C126.979 23.7621 127.057 23.56 127.057 23.3022C127.057 22.8686 126.817 22.6518 126.336 22.6518H125.888V24.1283ZM129.839 21.2499H131.385V24.0097C131.385 24.3026 131.362 24.8886 131.315 25.7675H131.35L133.912 21.2499H136.057V27.6747H134.519V24.9853C134.519 24.578 134.545 23.9687 134.598 23.1571H134.563L131.979 27.6747H129.839V21.2499ZM142.956 27.6747H141.212V25.0556H139.195V27.6747H137.45V21.2499H139.195V23.6317H141.212V21.2499H142.956V27.6747ZM148.634 21.2499V22.6518H146.094V27.6747H144.349V21.2499H148.634Z" fill="white"/>
<path fill-rule="evenodd" clip-rule="evenodd" d="M29.344 13.0636L28.72 8.01136L27.6551 13.0636H26.1991L25.0343 7.99905L24.3355 13.0636H21.7729L23.258 2.99197H25.9079L26.8689 7.44088L27.8881 3.00839H30.4506L31.9066 13.08L29.344 13.0636ZM38.1673 2.99197V5.52424H35.5756V6.82116H37.4102V9.36984H35.5756V10.5765H38.1673V13.0636H33.0131V3.00839L38.1673 2.99197ZM39.565 2.99197H45.2142V5.72945H43.6709V13.0636H41.0792V5.74587H39.565V3.00839V2.99197ZM46.1918 13.0636L48.7252 2.99197H51.7245L54.2413 13.0636H51.7079L51.2919 11.6189H49.1037L48.7252 13.0636H46.1918ZM50.8509 9.61609L50.2394 7.05509L49.5697 9.61609H50.8509ZM60.502 3.00839L62.5403 13.0636H59.9487L58.8422 5.55298H58.6383L57.5027 13.0636H54.9277L56.9078 2.99197L60.502 3.00839ZM68.8218 3.00839L70.9018 13.08H68.3102L67.2036 5.56938H66.9998L65.8308 13.0636H63.2683L65.2776 2.99197L68.8218 3.00839ZM79.5378 3.00839V13.0636H76.9462V8.45461L74.5376 13.0636H71.9834V3.00839H74.5459V7.86772L77.1084 3.00839H79.5378ZM83.964 3.00839V6.83757H85.915V3.00839H88.4776V13.0636H85.915V9.36984H83.964V13.0636H81.4015V3.00839H83.964ZM94.185 3.00839C94.5007 2.99816 94.8146 3.05899 95.1029 3.18628C95.3912 3.31357 95.6463 3.50397 95.849 3.74304C96.2704 4.29185 96.4864 4.96755 96.4605 5.65558C96.4847 6.15048 96.3951 6.64436 96.1984 7.10024C96.131 7.24847 96.0346 7.38208 95.9146 7.49337C95.7947 7.60466 95.6536 7.69143 95.4995 7.74869C95.9489 7.86714 96.341 8.13913 96.6061 8.51618C96.9322 9.0016 97.0952 9.57594 97.072 10.1578C97.1251 10.9271 96.8979 11.6898 96.4314 12.3084C96.1955 12.5693 95.9024 12.7737 95.5744 12.9059C95.2464 13.0382 94.8922 13.0949 94.5386 13.0718H90.233V3.00839H94.185ZM92.8455 5.1877V6.63236H93.2823C93.6608 6.63236 93.8647 6.39842 93.8647 5.92644C93.8647 5.45446 93.6608 5.1877 93.2823 5.1877H92.8455ZM92.8455 9.01689V10.4903H93.5152C93.9312 10.4903 94.1559 10.2563 94.1559 9.75563C94.1708 9.56332 94.1079 9.373 93.9812 9.22619C93.8589 9.10055 93.6917 9.02693 93.5152 9.02098L92.8455 9.01689ZM103.561 3.00839V5.54066H100.97V6.83757H103.532V9.36984H100.97V10.5765H103.561V13.0636H98.3865V3.00839H103.561ZM109.444 6.25068C109.237 6.24357 109.031 6.2853 108.843 6.37238C108.656 6.45946 108.492 6.58939 108.366 6.75138C108.117 7.13767 107.995 7.59076 108.017 8.0483C107.998 8.50955 108.131 8.96444 108.395 9.34522C108.513 9.50891 108.671 9.64061 108.854 9.72813C109.038 9.81565 109.24 9.85616 109.444 9.84592C109.659 9.8629 109.876 9.84206 110.084 9.78437C110.23 9.75581 110.37 9.706 110.5 9.63661V13.0636C110.387 13.1047 110.27 13.135 110.151 13.1539C109.909 13.1828 109.666 13.1924 109.423 13.1826C108.792 13.2036 108.166 13.0689 107.602 12.7909C107.038 12.5128 106.552 12.1001 106.191 11.5902C105.488 10.5367 105.114 9.30321 105.114 8.04215C105.114 6.78109 105.488 5.54763 106.191 4.4941C106.642 3.93101 107.233 3.49187 107.906 3.21877C108.579 2.94567 109.312 2.84779 110.034 2.93452C110.187 2.98487 110.342 3.02464 110.5 3.05353V6.49693C110.387 6.44043 110.27 6.39108 110.151 6.34918C109.913 6.28974 109.668 6.26076 109.423 6.26299L109.444 6.25068ZM111.89 3.00839H117.568V5.74587H116.025V13.0636H113.416V5.74587H111.873V3.00839H111.89ZM121.732 6.74728H123.305C123.647 6.73861 123.986 6.80563 124.299 6.9434C124.611 7.08118 124.888 7.28622 125.11 7.54348C125.653 8.17355 125.925 8.98806 125.867 9.81308C125.909 10.6668 125.652 11.5087 125.139 12.1976C124.923 12.4743 124.645 12.6979 124.327 12.8509C124.008 13.004 123.659 13.0824 123.305 13.08H119.145V3.00839H125.114V5.13025H121.736V6.75138L121.732 6.74728ZM121.732 9.20977V10.6544H122.373C122.789 10.6544 123.013 10.4205 123.013 9.9198C123.028 9.72748 122.965 9.53716 122.839 9.39036C122.778 9.32984 122.705 9.2828 122.625 9.25236C122.545 9.22192 122.459 9.20879 122.373 9.21388L121.732 9.20977ZM126.682 13.0964L129.216 3.02481H132.186L134.703 13.0636H132.169L131.791 11.6189H129.578L129.199 13.0636L126.682 13.0964ZM131.312 9.59147L130.701 7.12897L130.031 9.59147H131.312ZM138.621 3.02481V6.85399H140.543V3.00839H143.106V13.0636H140.543V9.36984H138.621V13.0636H136.03V3.00839L138.621 3.02481ZM147.503 3.02481V6.67751L149.279 3.02481H151.929L149.658 7.70766L152 13.0636H149.358L147.495 8.7337V13.0636H144.932V3.00839L147.503 3.02481Z" fill="#102538"/>
<path fill-rule="evenodd" clip-rule="evenodd" d="M8.53211 -0.000291777C10.6698 0.0962101 12.6844 1.01425 14.1447 2.55743C15.6051 4.10062 16.3954 6.1464 16.3465 8.25709C16.2976 10.3678 15.4134 12.3758 13.883 13.8515C12.3526 15.3272 10.2977 16.1534 8.15772 16.1534C6.01778 16.1534 3.96281 15.3272 2.43245 13.8515C0.902084 12.3758 0.0178593 10.3678 -0.0310602 8.25709C-0.0799796 6.1464 0.710292 4.10062 2.17069 2.55743C3.63108 1.01425 5.64562 0.0962101 7.78332 -0.000291777V2.28982C6.60157 2.36302 5.46999 2.78763 4.53761 3.50772C3.60523 4.22781 2.91577 5.20962 2.56003 6.32386C2.20428 7.4381 2.19893 8.6325 2.54469 9.7498C2.89044 10.8671 3.57108 11.8549 4.49697 12.5831L6.71838 6.81671H5.17504C5.01079 6.78325 4.8398 6.81259 4.69665 6.8988L4.33057 7.24355C4.3099 6.89363 4.3099 6.54281 4.33057 6.19289C4.37217 6.06976 4.49697 5.11759 4.9296 4.6333C5.23425 4.3383 5.62906 4.15075 6.05279 4.09976L10.9823 4.06692L10.271 4.80157L11.9807 12.4312C12.8657 11.6784 13.5025 10.6819 13.8092 9.56949C14.116 8.45708 14.0787 7.27961 13.7022 6.18825C13.3258 5.09689 12.6272 4.14146 11.6964 3.44462C10.7655 2.74779 9.64474 2.34135 8.47803 2.27751L8.50299 -0.0126038L8.53211 -0.000291777ZM6.64766 4.75232C6.69807 4.75473 6.74665 4.77167 6.78739 4.80106C6.82813 4.83044 6.85924 4.87098 6.87687 4.91764C6.89449 4.96429 6.89784 5.01502 6.88653 5.06354C6.87521 5.11206 6.84972 5.15624 6.8132 5.19061C6.77668 5.22497 6.73074 5.24801 6.68108 5.25687C6.63142 5.26574 6.58022 5.26004 6.53381 5.24047C6.48741 5.2209 6.44784 5.18832 6.42001 5.14678C6.39219 5.10524 6.37732 5.05657 6.37726 5.00678C6.37944 4.93783 6.40902 4.8725 6.45961 4.82489C6.51021 4.77728 6.57775 4.75121 6.64766 4.75232Z" fill="#002D73"/>
<path d="M87.0051 17.7587H0V29H87.0051V17.7587Z" fill="#CADCE8"/>
</g>
<defs>
<clipPath id="clip0">
<rect width="152" height="29" fill="white"/>
</clipPath>
</defs>
</svg>
