<svg width="1398" height="590" viewBox="0 0 1398 590" fill="none" xmlns="http://www.w3.org/2000/svg">
<g filter="url(#filter0_bdi_6573_10995)">
<path d="M253.434 124.376C258.649 121.276 258.649 113.724 253.434 110.624L76.0883 5.18678C70.7556 2.01637 64 5.85933 64 12.0633L64 222.937C64 229.141 70.7556 232.984 76.0883 229.813L253.434 124.376Z" fill="url(#paint0_linear_6573_10995)" shape-rendering="crispEdges"/>
<path d="M253.434 124.376C258.649 121.276 258.649 113.724 253.434 110.624L76.0883 5.18678C70.7556 2.01637 64 5.85933 64 12.0633L64 222.937C64 229.141 70.7556 232.984 76.0883 229.813L253.434 124.376Z" fill="url(#paint1_linear_6573_10995)" fill-opacity="0.4" shape-rendering="crispEdges"/>
<path d="M253.178 111.053C258.068 113.96 258.068 121.04 253.178 123.947L75.8327 229.383C70.8334 232.356 64.5 228.753 64.5 222.937L64.5 12.0633C64.5 6.24707 70.8334 2.6443 75.8328 5.61656L253.178 111.053Z" stroke="url(#paint2_linear_6573_10995)" shape-rendering="crispEdges"/>
</g>
<g filter="url(#filter1_bdi_6573_10995)">
<path d="M908.468 130.372C913.674 127.27 913.674 119.73 908.468 116.628L760.095 28.208C754.763 25.0302 748 28.8726 748 35.0802L748 211.92C748 218.127 754.763 221.97 760.095 218.792L908.468 130.372Z" fill="url(#paint3_linear_6573_10995)" shape-rendering="crispEdges"/>
<path d="M908.468 130.372C913.674 127.27 913.674 119.73 908.468 116.628L760.095 28.208C754.763 25.0302 748 28.8726 748 35.0802L748 211.92C748 218.127 754.763 221.97 760.095 218.792L908.468 130.372Z" fill="url(#paint4_linear_6573_10995)" fill-opacity="0.4" shape-rendering="crispEdges"/>
<path d="M908.212 117.057C913.093 119.966 913.093 127.034 908.212 129.943L759.839 218.362C754.84 221.342 748.5 217.739 748.5 211.92L748.5 35.0802C748.5 29.2606 754.84 25.6583 759.839 28.6375L908.212 117.057Z" stroke="url(#paint5_linear_6573_10995)" shape-rendering="crispEdges"/>
</g>
<g filter="url(#filter2_bdi_6573_10995)">
<path d="M1438.24 429.757C1438.15 423.698 1431.62 419.93 1426.33 422.886L1215.38 540.777C1209.96 543.806 1209.9 551.585 1215.28 554.689L1429.62 678.435C1434.99 681.539 1441.7 677.603 1441.62 671.395L1438.24 429.757Z" fill="url(#paint6_linear_6573_10995)" shape-rendering="crispEdges"/>
<path d="M1438.24 429.757C1438.15 423.698 1431.62 419.93 1426.33 422.886L1215.38 540.777C1209.96 543.806 1209.9 551.585 1215.28 554.689L1429.62 678.435C1434.99 681.539 1441.7 677.603 1441.62 671.395L1438.24 429.757Z" fill="url(#paint7_linear_6573_10995)" fill-opacity="0.4" shape-rendering="crispEdges"/>
<path d="M1426.58 423.322C1431.54 420.551 1437.66 424.084 1437.74 429.764L1441.12 671.402C1441.2 677.222 1434.91 680.912 1429.87 678.002L1215.53 554.256C1210.49 551.346 1210.54 544.053 1215.62 541.214L1426.58 423.322Z" stroke="url(#paint8_linear_6573_10995)" shape-rendering="crispEdges"/>
</g>
<g filter="url(#filter3_bdi_6573_10995)">
<path d="M658.473 559.872C663.678 556.769 663.678 549.231 658.473 546.128L526.096 467.211C520.764 464.032 514 467.875 514 474.083L514 631.917C514 638.125 520.764 641.968 526.097 638.789L658.473 559.872Z" fill="url(#paint9_linear_6573_10995)" shape-rendering="crispEdges"/>
<path d="M658.473 559.872C663.678 556.769 663.678 549.231 658.473 546.128L526.096 467.211C520.764 464.032 514 467.875 514 474.083L514 631.917C514 638.125 520.764 641.968 526.097 638.789L658.473 559.872Z" fill="url(#paint10_linear_6573_10995)" fill-opacity="0.4" shape-rendering="crispEdges"/>
<path d="M658.217 546.558C663.097 549.467 663.097 556.533 658.217 559.442L525.84 638.359C520.841 641.339 514.5 637.737 514.5 631.917L514.5 474.083C514.5 468.263 520.841 464.661 525.84 467.641L658.217 546.558Z" stroke="url(#paint11_linear_6573_10995)" shape-rendering="crispEdges"/>
</g>
<g filter="url(#filter4_bdi_6573_10995)">
<path d="M659.068 470.123C653.852 473.224 653.852 480.776 659.068 483.876L725.412 523.314C730.745 526.484 737.5 522.641 737.5 516.437L737.5 437.562C737.5 431.358 730.745 427.515 725.412 430.685L659.068 470.123Z" fill="url(#paint12_linear_6573_10995)" shape-rendering="crispEdges"/>
<path d="M659.068 470.123C653.852 473.224 653.852 480.776 659.068 483.876L725.412 523.314C730.745 526.484 737.5 522.641 737.5 516.437L737.5 437.562C737.5 431.358 730.745 427.515 725.412 430.685L659.068 470.123Z" fill="url(#paint13_linear_6573_10995)" fill-opacity="0.4" shape-rendering="crispEdges"/>
<path d="M659.324 483.446C654.434 480.54 654.434 473.46 659.324 470.553L725.668 431.115C730.667 428.143 737 431.746 737 437.562L737 516.437C737 522.253 730.667 525.856 725.668 522.884L659.324 483.446Z" stroke="url(#paint14_linear_6573_10995)" shape-rendering="crispEdges"/>
</g>
<g filter="url(#filter5_bdi_6573_10995)">
<path d="M1197.91 304.621C1192.62 301.654 1186.08 305.43 1186 311.498L1184.07 462.982C1183.99 469.185 1190.7 473.114 1196.07 470.012L1330.15 392.601C1335.53 389.499 1335.48 381.727 1330.06 378.694L1197.91 304.621Z" fill="url(#paint15_linear_6573_10995)" shape-rendering="crispEdges"/>
<path d="M1197.91 304.621C1192.62 301.654 1186.08 305.43 1186 311.498L1184.07 462.982C1183.99 469.185 1190.7 473.114 1196.07 470.012L1330.15 392.601C1335.53 389.499 1335.48 381.727 1330.06 378.694L1197.91 304.621Z" fill="url(#paint16_linear_6573_10995)" fill-opacity="0.4" shape-rendering="crispEdges"/>
<path d="M1186.5 311.505C1186.57 305.816 1192.7 302.276 1197.67 305.058L1329.82 379.13C1334.89 381.974 1334.94 389.26 1329.9 392.168L1195.82 469.579C1190.79 472.487 1184.5 468.804 1184.57 462.989L1186.5 311.505Z" stroke="url(#paint17_linear_6573_10995)" shape-rendering="crispEdges"/>
</g>
<g filter="url(#filter6_bdi_6573_10995)">
<path d="M739.27 347.797C734.054 350.898 734.054 358.45 739.27 361.551L869.495 438.962C874.828 442.132 881.583 438.289 881.583 432.085L881.583 277.262C881.583 271.058 874.828 267.216 869.495 270.386L739.27 347.797Z" fill="url(#paint18_linear_6573_10995)" shape-rendering="crispEdges"/>
<path d="M739.27 347.797C734.054 350.898 734.054 358.45 739.27 361.551L869.495 438.962C874.828 442.132 881.583 438.289 881.583 432.085L881.583 277.262C881.583 271.058 874.828 267.216 869.495 270.386L739.27 347.797Z" fill="url(#paint19_linear_6573_10995)" fill-opacity="0.4" shape-rendering="crispEdges"/>
<path d="M739.525 361.121C734.635 358.214 734.635 351.134 739.525 348.227L869.751 270.815C874.75 267.843 881.083 271.446 881.083 277.262L881.083 432.085C881.083 437.901 874.75 441.504 869.751 438.532L739.525 361.121Z" stroke="url(#paint20_linear_6573_10995)" shape-rendering="crispEdges"/>
</g>
<defs>
<filter id="filter0_bdi_6573_10995" x="0" y="-27.949" width="321.345" height="354.898" filterUnits="userSpaceOnUse" color-interpolation-filters="sRGB">
<feFlood flood-opacity="0" result="BackgroundImageFix"/>
<feGaussianBlur in="BackgroundImageFix" stdDeviation="4"/>
<feComposite in2="SourceAlpha" operator="in" result="effect1_backgroundBlur_6573_10995"/>
<feColorMatrix in="SourceAlpha" type="matrix" values="0 0 0 0 0 0 0 0 0 0 0 0 0 0 0 0 0 0 127 0" result="hardAlpha"/>
<feOffset dy="32"/>
<feGaussianBlur stdDeviation="32"/>
<feComposite in2="hardAlpha" operator="out"/>
<feColorMatrix type="matrix" values="0 0 0 0 0.0352941 0 0 0 0 0.0392157 0 0 0 0 0.0470588 0 0 0 0.04 0"/>
<feBlend mode="normal" in2="effect1_backgroundBlur_6573_10995" result="effect2_dropShadow_6573_10995"/>
<feBlend mode="normal" in="SourceGraphic" in2="effect2_dropShadow_6573_10995" result="shape"/>
<feColorMatrix in="SourceAlpha" type="matrix" values="0 0 0 0 0 0 0 0 0 0 0 0 0 0 0 0 0 0 127 0" result="hardAlpha"/>
<feOffset dy="-12"/>
<feGaussianBlur stdDeviation="12"/>
<feComposite in2="hardAlpha" operator="arithmetic" k2="-1" k3="1"/>
<feColorMatrix type="matrix" values="0 0 0 0 1 0 0 0 0 1 0 0 0 0 1 0 0 0 0.4 0"/>
<feBlend mode="normal" in2="shape" result="effect3_innerShadow_6573_10995"/>
</filter>
<filter id="filter1_bdi_6573_10995" x="684" y="-4.93213" width="292.373" height="320.864" filterUnits="userSpaceOnUse" color-interpolation-filters="sRGB">
<feFlood flood-opacity="0" result="BackgroundImageFix"/>
<feGaussianBlur in="BackgroundImageFix" stdDeviation="4"/>
<feComposite in2="SourceAlpha" operator="in" result="effect1_backgroundBlur_6573_10995"/>
<feColorMatrix in="SourceAlpha" type="matrix" values="0 0 0 0 0 0 0 0 0 0 0 0 0 0 0 0 0 0 127 0" result="hardAlpha"/>
<feOffset dy="32"/>
<feGaussianBlur stdDeviation="32"/>
<feComposite in2="hardAlpha" operator="out"/>
<feColorMatrix type="matrix" values="0 0 0 0 0.0352941 0 0 0 0 0.0392157 0 0 0 0 0.0470588 0 0 0 0.04 0"/>
<feBlend mode="normal" in2="effect1_backgroundBlur_6573_10995" result="effect2_dropShadow_6573_10995"/>
<feBlend mode="normal" in="SourceGraphic" in2="effect2_dropShadow_6573_10995" result="shape"/>
<feColorMatrix in="SourceAlpha" type="matrix" values="0 0 0 0 0 0 0 0 0 0 0 0 0 0 0 0 0 0 127 0" result="hardAlpha"/>
<feOffset dy="-12"/>
<feGaussianBlur stdDeviation="12"/>
<feComposite in2="hardAlpha" operator="arithmetic" k2="-1" k3="1"/>
<feColorMatrix type="matrix" values="0 0 0 0 1 0 0 0 0 1 0 0 0 0 1 0 0 0 0.4 0"/>
<feBlend mode="normal" in2="shape" result="effect3_innerShadow_6573_10995"/>
</filter>
<filter id="filter2_bdi_6573_10995" x="1147.28" y="389.858" width="358.335" height="385.662" filterUnits="userSpaceOnUse" color-interpolation-filters="sRGB">
<feFlood flood-opacity="0" result="BackgroundImageFix"/>
<feGaussianBlur in="BackgroundImageFix" stdDeviation="4"/>
<feComposite in2="SourceAlpha" operator="in" result="effect1_backgroundBlur_6573_10995"/>
<feColorMatrix in="SourceAlpha" type="matrix" values="0 0 0 0 0 0 0 0 0 0 0 0 0 0 0 0 0 0 127 0" result="hardAlpha"/>
<feOffset dy="32"/>
<feGaussianBlur stdDeviation="32"/>
<feComposite in2="hardAlpha" operator="out"/>
<feColorMatrix type="matrix" values="0 0 0 0 0.0352941 0 0 0 0 0.0392157 0 0 0 0 0.0470588 0 0 0 0.04 0"/>
<feBlend mode="normal" in2="effect1_backgroundBlur_6573_10995" result="effect2_dropShadow_6573_10995"/>
<feBlend mode="normal" in="SourceGraphic" in2="effect2_dropShadow_6573_10995" result="shape"/>
<feColorMatrix in="SourceAlpha" type="matrix" values="0 0 0 0 0 0 0 0 0 0 0 0 0 0 0 0 0 0 127 0" result="hardAlpha"/>
<feOffset dy="-12"/>
<feGaussianBlur stdDeviation="12"/>
<feComposite in2="hardAlpha" operator="arithmetic" k2="-1" k3="1"/>
<feColorMatrix type="matrix" values="0 0 0 0 1 0 0 0 0 1 0 0 0 0 1 0 0 0 0.4 0"/>
<feBlend mode="normal" in2="shape" result="effect3_innerShadow_6573_10995"/>
</filter>
<filter id="filter3_bdi_6573_10995" x="450" y="434.071" width="276.377" height="301.859" filterUnits="userSpaceOnUse" color-interpolation-filters="sRGB">
<feFlood flood-opacity="0" result="BackgroundImageFix"/>
<feGaussianBlur in="BackgroundImageFix" stdDeviation="4"/>
<feComposite in2="SourceAlpha" operator="in" result="effect1_backgroundBlur_6573_10995"/>
<feColorMatrix in="SourceAlpha" type="matrix" values="0 0 0 0 0 0 0 0 0 0 0 0 0 0 0 0 0 0 127 0" result="hardAlpha"/>
<feOffset dy="32"/>
<feGaussianBlur stdDeviation="32"/>
<feComposite in2="hardAlpha" operator="out"/>
<feColorMatrix type="matrix" values="0 0 0 0 0.0352941 0 0 0 0 0.0392157 0 0 0 0 0.0470588 0 0 0 0.04 0"/>
<feBlend mode="normal" in2="effect1_backgroundBlur_6573_10995" result="effect2_dropShadow_6573_10995"/>
<feBlend mode="normal" in="SourceGraphic" in2="effect2_dropShadow_6573_10995" result="shape"/>
<feColorMatrix in="SourceAlpha" type="matrix" values="0 0 0 0 0 0 0 0 0 0 0 0 0 0 0 0 0 0 127 0" result="hardAlpha"/>
<feOffset dy="-12"/>
<feGaussianBlur stdDeviation="12"/>
<feComposite in2="hardAlpha" operator="arithmetic" k2="-1" k3="1"/>
<feColorMatrix type="matrix" values="0 0 0 0 1 0 0 0 0 1 0 0 0 0 1 0 0 0 0.4 0"/>
<feBlend mode="normal" in2="shape" result="effect3_innerShadow_6573_10995"/>
</filter>
<filter id="filter4_bdi_6573_10995" x="591.156" y="397.55" width="210.344" height="222.9" filterUnits="userSpaceOnUse" color-interpolation-filters="sRGB">
<feFlood flood-opacity="0" result="BackgroundImageFix"/>
<feGaussianBlur in="BackgroundImageFix" stdDeviation="4"/>
<feComposite in2="SourceAlpha" operator="in" result="effect1_backgroundBlur_6573_10995"/>
<feColorMatrix in="SourceAlpha" type="matrix" values="0 0 0 0 0 0 0 0 0 0 0 0 0 0 0 0 0 0 127 0" result="hardAlpha"/>
<feOffset dy="32"/>
<feGaussianBlur stdDeviation="32"/>
<feComposite in2="hardAlpha" operator="out"/>
<feColorMatrix type="matrix" values="0 0 0 0 0.0352941 0 0 0 0 0.0392157 0 0 0 0 0.0470588 0 0 0 0.04 0"/>
<feBlend mode="normal" in2="effect1_backgroundBlur_6573_10995" result="effect2_dropShadow_6573_10995"/>
<feBlend mode="normal" in="SourceGraphic" in2="effect2_dropShadow_6573_10995" result="shape"/>
<feColorMatrix in="SourceAlpha" type="matrix" values="0 0 0 0 0 0 0 0 0 0 0 0 0 0 0 0 0 0 127 0" result="hardAlpha"/>
<feOffset dy="-12"/>
<feGaussianBlur stdDeviation="12"/>
<feComposite in2="hardAlpha" operator="arithmetic" k2="-1" k3="1"/>
<feColorMatrix type="matrix" values="0 0 0 0 1 0 0 0 0 1 0 0 0 0 1 0 0 0 0.4 0"/>
<feBlend mode="normal" in2="shape" result="effect3_innerShadow_6573_10995"/>
</filter>
<filter id="filter5_bdi_6573_10995" x="1120.07" y="271.589" width="278.081" height="295.508" filterUnits="userSpaceOnUse" color-interpolation-filters="sRGB">
<feFlood flood-opacity="0" result="BackgroundImageFix"/>
<feGaussianBlur in="BackgroundImageFix" stdDeviation="4"/>
<feComposite in2="SourceAlpha" operator="in" result="effect1_backgroundBlur_6573_10995"/>
<feColorMatrix in="SourceAlpha" type="matrix" values="0 0 0 0 0 0 0 0 0 0 0 0 0 0 0 0 0 0 127 0" result="hardAlpha"/>
<feOffset dy="32"/>
<feGaussianBlur stdDeviation="32"/>
<feComposite in2="hardAlpha" operator="out"/>
<feColorMatrix type="matrix" values="0 0 0 0 0.0352941 0 0 0 0 0.0392157 0 0 0 0 0.0470588 0 0 0 0.04 0"/>
<feBlend mode="normal" in2="effect1_backgroundBlur_6573_10995" result="effect2_dropShadow_6573_10995"/>
<feBlend mode="normal" in="SourceGraphic" in2="effect2_dropShadow_6573_10995" result="shape"/>
<feColorMatrix in="SourceAlpha" type="matrix" values="0 0 0 0 0 0 0 0 0 0 0 0 0 0 0 0 0 0 127 0" result="hardAlpha"/>
<feOffset dy="-12"/>
<feGaussianBlur stdDeviation="12"/>
<feComposite in2="hardAlpha" operator="arithmetic" k2="-1" k3="1"/>
<feColorMatrix type="matrix" values="0 0 0 0 1 0 0 0 0 1 0 0 0 0 1 0 0 0 0.4 0"/>
<feBlend mode="normal" in2="shape" result="effect3_innerShadow_6573_10995"/>
</filter>
<filter id="filter6_bdi_6573_10995" x="671.358" y="237.25" width="274.225" height="298.848" filterUnits="userSpaceOnUse" color-interpolation-filters="sRGB">
<feFlood flood-opacity="0" result="BackgroundImageFix"/>
<feGaussianBlur in="BackgroundImageFix" stdDeviation="4"/>
<feComposite in2="SourceAlpha" operator="in" result="effect1_backgroundBlur_6573_10995"/>
<feColorMatrix in="SourceAlpha" type="matrix" values="0 0 0 0 0 0 0 0 0 0 0 0 0 0 0 0 0 0 127 0" result="hardAlpha"/>
<feOffset dy="32"/>
<feGaussianBlur stdDeviation="32"/>
<feComposite in2="hardAlpha" operator="out"/>
<feColorMatrix type="matrix" values="0 0 0 0 0.0352941 0 0 0 0 0.0392157 0 0 0 0 0.0470588 0 0 0 0.04 0"/>
<feBlend mode="normal" in2="effect1_backgroundBlur_6573_10995" result="effect2_dropShadow_6573_10995"/>
<feBlend mode="normal" in="SourceGraphic" in2="effect2_dropShadow_6573_10995" result="shape"/>
<feColorMatrix in="SourceAlpha" type="matrix" values="0 0 0 0 0 0 0 0 0 0 0 0 0 0 0 0 0 0 127 0" result="hardAlpha"/>
<feOffset dy="-12"/>
<feGaussianBlur stdDeviation="12"/>
<feComposite in2="hardAlpha" operator="arithmetic" k2="-1" k3="1"/>
<feColorMatrix type="matrix" values="0 0 0 0 1 0 0 0 0 1 0 0 0 0 1 0 0 0 0.4 0"/>
<feBlend mode="normal" in2="shape" result="effect3_innerShadow_6573_10995"/>
</filter>
<linearGradient id="paint0_linear_6573_10995" x1="265" y1="237" x2="265" y2="-1.99998" gradientUnits="userSpaceOnUse">
<stop stop-color="#F0F4F9" stop-opacity="0.6"/>
<stop offset="1" stop-color="#DEE8F7" stop-opacity="0.2"/>
</linearGradient>
<linearGradient id="paint1_linear_6573_10995" x1="164.5" y1="237" x2="164.5" y2="-1.99999" gradientUnits="userSpaceOnUse">
<stop stop-color="#1760CF" stop-opacity="0"/>
<stop offset="0.9999" stop-color="#1760CF"/>
</linearGradient>
<linearGradient id="paint2_linear_6573_10995" x1="164.5" y1="237" x2="164.5" y2="-1.99999" gradientUnits="userSpaceOnUse">
<stop stop-color="white" stop-opacity="0.4"/>
<stop offset="1" stop-color="white" stop-opacity="0"/>
<stop offset="1" stop-color="white" stop-opacity="0"/>
</linearGradient>
<linearGradient id="paint3_linear_6573_10995" x1="920" y1="226" x2="920" y2="21" gradientUnits="userSpaceOnUse">
<stop stop-color="#F0F4F9" stop-opacity="0.6"/>
<stop offset="1" stop-color="#DEE8F7" stop-opacity="0.2"/>
</linearGradient>
<linearGradient id="paint4_linear_6573_10995" x1="834" y1="226" x2="834" y2="21" gradientUnits="userSpaceOnUse">
<stop stop-color="#1760CF" stop-opacity="0"/>
<stop offset="0.9999" stop-color="#1760CF"/>
</linearGradient>
<linearGradient id="paint5_linear_6573_10995" x1="834" y1="226" x2="834" y2="21" gradientUnits="userSpaceOnUse">
<stop stop-color="white" stop-opacity="0.4"/>
<stop offset="1" stop-color="white" stop-opacity="0"/>
<stop offset="1" stop-color="white" stop-opacity="0"/>
</linearGradient>
<linearGradient id="paint6_linear_6573_10995" x1="1557.41" y1="485.254" x2="1318.68" y2="347.424" gradientUnits="userSpaceOnUse">
<stop stop-color="#F0F4F9" stop-opacity="0.6"/>
<stop offset="1" stop-color="#DEE8F7" stop-opacity="0.2"/>
</linearGradient>
<linearGradient id="paint7_linear_6573_10995" x1="1499.61" y1="585.365" x2="1260.88" y2="447.536" gradientUnits="userSpaceOnUse">
<stop stop-color="#1760CF" stop-opacity="0"/>
<stop offset="0.9999" stop-color="#1760CF"/>
</linearGradient>
<linearGradient id="paint8_linear_6573_10995" x1="1499.61" y1="585.365" x2="1260.88" y2="447.536" gradientUnits="userSpaceOnUse">
<stop stop-color="white" stop-opacity="0.4"/>
<stop offset="1" stop-color="white" stop-opacity="0"/>
<stop offset="1" stop-color="white" stop-opacity="0"/>
</linearGradient>
<linearGradient id="paint9_linear_6573_10995" x1="670" y1="646" x2="670" y2="460" gradientUnits="userSpaceOnUse">
<stop stop-color="#F0F4F9" stop-opacity="0.6"/>
<stop offset="1" stop-color="#DEE8F7" stop-opacity="0.2"/>
</linearGradient>
<linearGradient id="paint10_linear_6573_10995" x1="592" y1="646" x2="592" y2="460" gradientUnits="userSpaceOnUse">
<stop stop-color="#1760CF" stop-opacity="0"/>
<stop offset="0.9999" stop-color="#1760CF"/>
</linearGradient>
<linearGradient id="paint11_linear_6573_10995" x1="592" y1="646" x2="592" y2="460" gradientUnits="userSpaceOnUse">
<stop stop-color="white" stop-opacity="0.4"/>
<stop offset="1" stop-color="white" stop-opacity="0"/>
<stop offset="1" stop-color="white" stop-opacity="0"/>
</linearGradient>
<linearGradient id="paint12_linear_6573_10995" x1="647.5" y1="423.5" x2="647.5" y2="530.5" gradientUnits="userSpaceOnUse">
<stop stop-color="#F0F4F9" stop-opacity="0.6"/>
<stop offset="1" stop-color="#DEE8F7" stop-opacity="0.2"/>
</linearGradient>
<linearGradient id="paint13_linear_6573_10995" x1="692.5" y1="423.5" x2="692.5" y2="530.5" gradientUnits="userSpaceOnUse">
<stop stop-color="#1760CF" stop-opacity="0"/>
<stop offset="0.9999" stop-color="#1760CF"/>
</linearGradient>
<linearGradient id="paint14_linear_6573_10995" x1="692.5" y1="423.5" x2="692.5" y2="530.5" gradientUnits="userSpaceOnUse">
<stop stop-color="white" stop-opacity="0.4"/>
<stop offset="1" stop-color="white" stop-opacity="0"/>
<stop offset="1" stop-color="white" stop-opacity="0"/>
</linearGradient>
<linearGradient id="paint15_linear_6573_10995" x1="1265.39" y1="252.304" x2="1106.95" y2="343.778" gradientUnits="userSpaceOnUse">
<stop stop-color="#F0F4F9" stop-opacity="0.6"/>
<stop offset="1" stop-color="#DEE8F7" stop-opacity="0.2"/>
</linearGradient>
<linearGradient id="paint16_linear_6573_10995" x1="1303.86" y1="318.937" x2="1145.42" y2="410.411" gradientUnits="userSpaceOnUse">
<stop stop-color="#1760CF" stop-opacity="0"/>
<stop offset="0.9999" stop-color="#1760CF"/>
</linearGradient>
<linearGradient id="paint17_linear_6573_10995" x1="1303.86" y1="318.937" x2="1145.42" y2="410.411" gradientUnits="userSpaceOnUse">
<stop stop-color="white" stop-opacity="0.4"/>
<stop offset="1" stop-color="white" stop-opacity="0"/>
<stop offset="1" stop-color="white" stop-opacity="0"/>
</linearGradient>
<linearGradient id="paint18_linear_6573_10995" x1="727.702" y1="263.2" x2="727.702" y2="446.148" gradientUnits="userSpaceOnUse">
<stop stop-color="#F0F4F9" stop-opacity="0.6"/>
<stop offset="1" stop-color="#DEE8F7" stop-opacity="0.2"/>
</linearGradient>
<linearGradient id="paint19_linear_6573_10995" x1="804.642" y1="263.2" x2="804.642" y2="446.148" gradientUnits="userSpaceOnUse">
<stop stop-color="#1760CF" stop-opacity="0"/>
<stop offset="0.9999" stop-color="#1760CF"/>
</linearGradient>
<linearGradient id="paint20_linear_6573_10995" x1="804.642" y1="263.2" x2="804.642" y2="446.148" gradientUnits="userSpaceOnUse">
<stop stop-color="white" stop-opacity="0.4"/>
<stop offset="1" stop-color="white" stop-opacity="0"/>
<stop offset="1" stop-color="white" stop-opacity="0"/>
</linearGradient>
</defs>
</svg>
