<svg width="128" height="30" viewBox="0 0 128 30" fill="none" xmlns="http://www.w3.org/2000/svg">
<g clip-path="url(#clip0_2130_197278)">
<path d="M58.0723 25.7482H62.6332V15.054C62.6332 9.40461 59.4534 6.4054 55.6275 6.4054C53.0955 6.4054 51.1825 7.65043 49.8046 9.37403H49.1854C48.1456 7.84114 46.3454 6.4054 43.6736 6.4054C41.2495 6.4054 39.3128 7.61804 38.3 9.02319H37.6808V6.94875H33.4327V25.7482H37.965V15.9176C37.965 12.564 38.8381 11.4161 41.875 11.4161C44.9119 11.4161 45.7549 12.564 45.7549 15.9176V25.7464H50.3173V15.9176C50.3173 12.564 51.1603 11.4161 54.1988 11.4161C57.2388 11.4161 58.0802 12.564 58.0802 15.9176L58.0739 25.7464L58.0723 25.7482ZM15.2637 23.0567C14.4494 22.3874 14.0826 21.3979 14.0826 19.8992C14.0826 18.0154 14.5906 15.6945 15.4336 14.696C16.0242 14.0249 16.8671 13.7064 18.0212 13.7064C19.6532 13.7064 21.6503 14.1922 22.4932 15.1745C23.0568 15.8132 23.3108 16.7056 23.3108 17.9507C23.3108 19.739 22.8599 22.2597 21.8741 23.3122C21.3121 23.8879 20.5533 24.1416 19.4849 24.1416C18.0244 24.1416 16.1893 23.7566 15.2637 23.0567ZM22.4392 27.0149L22.2408 28.7385L26.4858 29.3322L28.4971 10.7054L24.2538 10.1135L24.0553 11.9198H23.5648C22.9298 10.6442 21.228 8.91884 18.0212 8.91884C13.5492 8.91884 10.2584 12.6539 9.66622 17.7581C9.61136 18.2565 9.58326 18.7582 9.58209 19.2605C9.58209 24.1416 12.5078 28.1645 17.064 28.7385C17.318 28.7654 17.5704 28.7744 17.8244 28.7708C19.7373 28.7708 21.1724 27.8461 21.9043 27.0167H22.4377L22.4392 27.0149ZM118.467 21.5022C115.064 21.5022 113.938 20.2266 113.938 16.3656C113.938 12.5028 115.065 11.1894 118.467 11.1894C121.871 11.1894 122.996 12.4974 122.996 16.3656C122.996 20.232 121.871 21.5022 118.467 21.5022ZM96.639 21.5022C93.2338 21.5022 92.1099 20.2266 92.1099 16.3656C92.1099 12.5028 93.2338 11.1894 96.6374 11.1894C100.041 11.1894 101.168 12.4974 101.168 16.3656C101.168 20.232 100.041 21.5022 96.6374 21.5022H96.639ZM75.3713 21.5022C71.9692 21.5022 70.8437 20.2266 70.8437 16.3656C70.8437 12.5028 71.9692 11.1894 75.3713 11.1894C78.7733 11.1894 79.902 12.4974 79.902 16.3656C79.902 20.232 78.7748 21.5022 75.3713 21.5022ZM3.26542 0.606689L0.5 25.7105L5.01485 26.3348L7.73582 1.2292L3.26542 0.606689ZM123.193 23.9293V25.7464H127.44V6.95055H123.193V8.77131H122.574C121.898 7.74938 120.183 6.409 117.87 6.409C112.806 6.409 109.349 10.7756 109.349 16.3674C109.349 21.9574 112.808 26.2934 117.87 26.2934C120.178 26.2934 121.893 24.953 122.574 23.9311L123.193 23.9293ZM75.3713 6.4072C69.7452 6.4072 66.259 10.7738 66.259 16.3656C66.259 21.9556 69.7452 26.2916 75.3713 26.2916C80.9974 26.2916 84.4946 21.9502 84.4946 16.3656C84.4946 10.7792 81.0053 6.4072 75.3713 6.4072ZM101.421 23.9293V25.7464H105.667V0.822589H101.168V8.76951H100.549C99.8743 7.74758 98.3535 6.4072 96.0484 6.4072C90.9843 6.4072 87.5236 10.7738 87.5236 16.3656C87.5236 21.9556 90.9843 26.2916 96.0484 26.2916C98.3535 26.2916 100.154 24.9512 100.801 23.9293H101.421Z" fill="black"/>
</g>
<defs>
<clipPath id="clip0_2130_197278">
<rect width="127" height="28.7867" fill="white" transform="translate(0.5 0.606689)"/>
</clipPath>
</defs>
</svg>
