<svg width="128" height="30" viewBox="0 0 128 30" fill="none" xmlns="http://www.w3.org/2000/svg">
<path d="M0.5 20.6342C2.75496 25.9598 7.98717 29.4161 13.7655 29.4161C11.5105 24.0905 6.27833 20.6342 0.5 20.6342Z" fill="#00BE64"/>
<path d="M13.7484 22.2037C19.7126 22.2037 24.5475 17.3639 24.5475 11.3937C24.5475 5.42352 19.7126 0.58374 13.7484 0.58374C7.78416 0.58374 2.94922 5.42352 2.94922 11.3937C2.94922 17.3639 7.78416 22.2037 13.7484 22.2037Z" fill="#FFB900"/>
<path d="M13.7656 29.4162C18.0113 29.4162 21.8518 26.9297 23.5958 23.0677C19.3678 23.0677 15.5097 25.5542 13.7656 29.4162Z" fill="#00BE64"/>
<path d="M13.7482 16.8074C16.7352 16.8074 19.1566 14.3836 19.1566 11.3937C19.1566 8.4037 16.7352 5.97986 13.7482 5.97986C10.7613 5.97986 8.33984 8.4037 8.33984 11.3937C8.33984 14.3836 10.7613 16.8074 13.7482 16.8074Z" fill="#003C96"/>
<path d="M83.2461 11.3938H87.756V28.9225H83.2461V22.0979H75.3537V28.9225H70.8438V11.3938H75.3537V17.848H83.2461V11.3938ZM89.8876 15.7495H95.5074V28.9401H100.035V15.7495H105.584V11.3938H89.8876V15.7495ZM127.5 25.1134V28.8343C126.724 29.2223 125.773 29.4163 124.646 29.4163C122.303 29.4163 121.122 28.3935 120.647 26.7535L120.576 26.8593C119.202 28.5698 117.317 29.4163 114.868 29.4163C112.525 29.4163 110.517 28.5345 108.843 26.7535C107.205 24.9724 106.359 22.7504 106.359 20.1581C106.359 17.5659 107.205 15.3968 108.843 13.5981C110.517 11.817 112.525 10.9 114.868 10.9C117.211 10.9 119.044 11.6759 120.4 13.2454V11.3938H124.928V23.7909C124.928 24.8489 125.403 25.3956 126.372 25.3956C126.742 25.4132 127.147 25.3074 127.5 25.1134ZM120.559 20.1581C120.559 18.7121 120.101 17.5306 119.149 16.6136C118.233 15.6613 117.088 15.2028 115.679 15.2028C114.269 15.2028 113.124 15.6613 112.208 16.6136C111.292 17.5306 110.834 18.7121 110.834 20.1581C110.834 21.6042 111.292 22.7857 112.208 23.738C113.124 24.6549 114.269 25.1134 115.679 25.1134C117.088 25.1134 118.233 24.6549 119.149 23.738C120.101 22.7857 120.559 21.6042 120.559 20.1581ZM33.6193 11.3938L33.496 17.9715C33.4608 20.6343 33.3727 21.9569 32.9851 23.4734C32.6328 24.9195 31.9634 25.3251 30.9064 25.3251C30.5892 25.3427 30.2721 25.2898 29.9727 25.2016V28.9225C30.325 29.1165 30.9063 29.2047 31.6815 29.2047C34.8525 29.1165 36.4028 27.5999 37.178 24.9018C37.7241 22.9797 37.8122 21.4984 37.9179 19.2764L38.0236 15.7142H43.6257V28.8872H48.1356V11.3938H33.6193ZM55.3762 21.3397C55.8694 24.3375 58.2301 25.3074 60.6436 25.3074C62.2291 25.3074 63.9027 24.6902 64.9245 23.7556L67.708 26.5595C66.052 28.4111 63.7266 29.4163 60.5555 29.4163C56.1161 29.4163 50.7782 26.8064 50.7782 20.1581C50.7782 13.5099 55.9223 10.9 60.2913 10.9C65.823 10.9 68.1132 13.5099 68.1132 16.4196C68.1308 21.1986 62.0706 23.3853 55.3762 21.3397ZM63.2157 16.931C63.2157 15.5732 61.8768 14.9736 60.3617 14.9736C58.0539 14.9736 56.0632 15.9435 55.4643 18.4476C60.168 19.8055 63.2157 18.7827 63.2157 16.931Z" fill="#003C96"/>
</svg>
