<svg width="82" height="48" viewBox="0 0 82 48" fill="none" xmlns="http://www.w3.org/2000/svg">
<g clip-path="url(#clip0_2130_197347)">
<path d="M8.97656 47.9677H72.637L40.9756 16.6664L8.97656 47.9677Z" fill="#7BB51C"/>
<path d="M7.75936 46.4285L12.7191 41.6451L11.0671 39.97L7.9519 42.9758L2.46416 37.4131L0.619141 39.1927L7.75936 46.4285Z" fill="black"/>
<path d="M13.8077 40.5557L18.8897 35.6527L17.4941 34.2393L14.2673 37.3514L12.7177 35.7808L15.3035 33.2866L13.8431 31.8079L11.2573 34.3007L9.92973 32.9554L13.0504 29.9447L11.6557 28.5318L6.58984 33.4184L13.8077 40.5557Z" fill="black"/>
<path d="M30.4413 17.3125C28.3918 15.2354 24.8364 15.4839 23.1242 17.1358C21.4115 18.7876 20.5374 22.0814 22.956 24.5324C25.6125 27.2242 28.7732 26.2466 30.4859 24.5956C33.011 22.16 32.1122 19.0057 30.4413 17.3125ZM28.9349 23.1731C27.8013 24.2667 26.4153 23.97 24.8318 22.3649C23.501 21.0165 23.5809 19.6617 24.5487 18.7281C25.2141 18.0862 26.5656 17.5119 28.1735 19.1416C30.008 21.0006 30.0686 22.0796 28.9349 23.1731Z" fill="black"/>
<path d="M36.1566 19.0374L38.0315 17.2284L35.2109 14.3703L33.5226 7.42566L31.3734 9.49915L32.4914 13.4389L28.714 12.0637L26.6875 14.0182L33.1274 16.0626L36.1566 19.0374Z" fill="black"/>
<path d="M26.1612 28.6908C26.1612 28.6908 21.5981 27.1516 21.3812 27.1888C21.3109 27.2002 22.3614 24.4366 20.0012 23.2118C20.0012 23.2118 18.2499 22.2745 16.4973 23.8487L12.7617 27.4882L19.9631 34.6582L21.8683 32.8205L17.9714 28.8725L24.2707 30.5144L26.1612 28.6908ZM19.0936 27.7063C18.0349 28.7258 17.8919 28.8062 17.8919 28.8062C17.8919 28.8062 16.2321 27.1243 16.1733 27.0648C16.1145 27.0053 17.3603 25.9495 17.5565 25.76C17.6397 25.6796 18.4153 25.1794 19.0573 25.8295C19.0573 25.8295 20.1519 26.685 19.0936 27.7063Z" fill="black"/>
<path d="M35.5764 8.79414L33.9102 7.13317L41.1846 0L43.5654 2.37288L40.9447 7.47209L46.2877 5.08649L48.5784 7.37032L41.304 14.5035L39.5482 12.7535L43.388 8.98859L38.1351 11.3447L37.0492 10.262L39.4907 5.07377L35.5764 8.79414Z" fill="black"/>
<path d="M48.2059 21.3841L43.1621 16.3571L50.437 9.22394L55.495 14.2659L54.0255 15.707L50.8565 12.5486L49.6714 13.7103L52.1708 16.2017L50.6405 17.7019L48.1563 15.2254L46.5663 16.7842L49.7054 19.913L48.2059 21.3841Z" fill="black"/>
<path d="M64.8374 23.5784L66.7118 25.4474L61.2071 30.8447L64.2864 33.9131L62.5163 35.6499L57.5625 30.712L64.8374 23.5784Z" fill="black"/>
<path d="M63.8262 36.9552L71.101 29.822L72.9309 31.6456L65.656 38.7784L63.8262 36.9552Z" fill="black"/>
<path d="M68.973 42.0866L67.2617 40.3807L74.537 33.248L77.0217 35.7231L74.8987 43.1293L79.7141 38.4072L81.3804 40.0681L74.106 47.2009L71.9333 45.0365L73.8041 37.2614L68.973 42.0866Z" fill="black"/>
<path d="M61.5502 20.3014L57.1318 15.8969L49.8418 23.0155L51.7162 24.8836L55.6907 20.9865L54.2602 27.4196L56.1792 29.3327C56.1792 29.3327 57.692 24.731 57.7384 24.5392C57.7384 24.5392 59.3776 25.432 61.1762 23.9032C61.1762 23.9032 62.9012 22.2413 61.5502 20.3014ZM58.8523 22.3876C58.8523 22.3876 57.9236 23.0041 57.1052 22.1886L55.8267 20.8539C55.8267 20.8539 57.3712 19.3392 57.5661 19.1479C57.5661 19.1479 58.7563 20.3346 58.9052 20.4827C59.0536 20.6308 59.9919 21.3286 58.8523 22.3876Z" fill="black"/>
</g>
<defs>
<clipPath id="clip0_2130_197347">
<rect width="80.7619" height="48" fill="white" transform="translate(0.619141)"/>
</clipPath>
</defs>
</svg>
