<svg width="96" height="48" viewBox="0 0 96 48" fill="none" xmlns="http://www.w3.org/2000/svg">
<g clip-path="url(#clip0_2130_197473)">
<path d="M95.635 0.0959473H0.365234V47.9039H95.635V0.0959473Z" fill="#014171"/>
<path d="M84.434 27.9188C84.4125 28.0892 84.3484 28.5374 83.7678 28.5957H78.6678C78.0871 28.5374 77.9811 28.0892 77.9593 27.9188V20.0011C77.9809 19.8303 78.0613 19.4672 78.642 19.409H83.77C84.3509 19.4672 84.4125 19.8303 84.434 20.0011V27.9188ZM86.1998 16.4259H76.1935C74.69 16.5478 73.42 17.3147 73.2505 19.0302V28.8327C73.42 30.5482 74.69 31.457 76.1935 31.579H86.1998C87.7033 31.457 88.9732 30.5482 89.1428 28.8327V19.0302C88.9732 17.3147 87.7033 16.5478 86.1998 16.4259ZM45.7035 19.409H41.23V16.4259H54.8859V19.409H50.4124V31.579H45.7035V19.409ZM39.8175 19.409V16.4259H27.5742V31.579L39.9802 31.5758L39.9847 28.5959H32.295L32.2958 25.3504H39.8174V22.3746H32.2958V19.409L39.8175 19.409ZM67.129 21.7577C67.129 22.0857 67.0479 22.3734 66.4626 22.3734H61.0074V19.399H66.4697C67.134 19.399 67.129 19.8363 67.129 20.1092V21.7577ZM68.4334 25.6883C69.9023 25.57 71.3668 24.5645 71.3668 22.9132V19.1722C71.1964 17.4647 69.9225 16.5425 68.4122 16.421H56.2984L56.2988 31.579H61.0074V25.6883H62.8815L65.9422 31.579H71.3575L67.7127 25.6883H68.4334ZM17.827 31.579L20.9819 22.0609V31.579H25.6908V16.4259H19.334L16.2731 24.0027L13.2123 16.4259H6.85547V31.579H11.5643V22.0609L14.7426 31.579H17.827Z" fill="#FBC51D"/>
</g>
<defs>
<clipPath id="clip0_2130_197473">
<rect width="95.4607" height="48" fill="white" transform="translate(0.269531)"/>
</clipPath>
</defs>
</svg>
