<svg width="128" height="26" viewBox="0 0 128 26" fill="none" xmlns="http://www.w3.org/2000/svg">
<path d="M69.4867 13.1152V16.6257C69.4867 16.7561 69.3823 16.8689 69.2477 16.8689H66.5338C64.3417 16.8328 63.4618 15.8003 63.4282 13.5557C63.4618 11.3807 64.2468 10.2954 66.5467 10.2628V10.2677H72.2671V7.86454H66.5467C62.4715 7.88568 60.7927 9.65547 60.7116 13.417L60.7082 13.7121L60.7116 13.7171C60.7987 17.3676 62.474 19.1603 66.432 19.2202V19.2231H70.6203C71.5873 19.2231 72.2809 18.3985 72.2809 17.529V13.1147L69.4867 13.1152ZM91.9119 19.2172V14.5404H98.8728V12.22H91.9119V8.71569C91.9119 8.58179 92.018 8.47079 92.1518 8.47079H99.0342V6.0685H90.7793C89.8131 6.0685 89.1178 6.89129 89.1178 7.76253V19.2172H91.9119ZM51.9916 16.8273C51.8553 16.8273 51.7518 16.7154 51.7518 16.5833V14.5536H58.7101V12.235H51.7518V10.5057C51.7518 10.3736 51.8553 10.2608 51.9916 10.2608H58.8749V7.85767H50.6191C49.6512 7.85767 48.9559 8.68398 48.9559 9.55345V17.5347C48.9559 18.4068 49.6512 19.2313 50.6191 19.2313H58.8749V16.8273H51.9916ZM44.3996 5.79858C43.0926 5.79858 42.2584 6.51037 41.6399 7.94188L38.0012 16.501L34.3598 7.94188C33.7404 6.51037 32.9062 5.79858 31.5984 5.79858C30.3751 5.79858 29.1113 6.69273 29.1113 8.63517V19.2319H31.9003V8.925L35.5633 17.4119C36.0558 18.5976 36.8469 19.342 37.9986 19.3437H38.0013C39.1521 19.3416 39.9449 18.5976 40.4367 17.4119L44.0987 8.925V19.2319H46.8877V8.63517C46.8877 6.69273 45.622 5.79858 44.3996 5.79858ZM78.6361 14.5538L80.3537 10.4249C80.408 10.2954 80.5064 10.261 80.5806 10.261H80.582C80.6561 10.261 80.7562 10.2954 80.8088 10.4249L82.529 14.5538H78.6361ZM82.8762 9.12726C82.4077 8.09129 81.4769 7.58652 80.5823 7.58652H80.5809C79.6855 7.58652 78.7547 8.09129 78.2897 9.12726L73.7253 19.2315H76.6946L77.6892 16.8301H83.4752L84.4707 19.2315H87.44L82.8762 9.12726ZM124.035 7.85793V15.4595L119.24 8.77762C118.835 8.25787 118.385 7.85793 117.459 7.85793C116.61 7.85793 115.56 8.54417 115.56 9.84706V19.2386H118.353V11.6389L123.127 18.3427C123.543 18.9206 123.972 19.2386 124.928 19.2386C125.779 19.2386 126.828 18.6158 126.828 17.2486V7.85793H124.035ZM107.298 16.9877C104.446 16.9877 103.626 15.9182 103.626 13.5371V13.5248C103.626 11.2141 104.408 10.0786 107.298 10.0786C110.192 10.0786 110.973 11.2141 110.973 13.5248V13.5371C110.973 15.9182 110.15 16.9877 107.298 16.9877ZM113.692 13.5248C113.691 9.54297 112.135 7.68597 107.298 7.68597C102.466 7.68597 100.909 9.54297 100.906 13.5248V13.5327C100.906 17.4529 102.506 19.3433 107.298 19.3433C112.092 19.3433 113.692 17.4529 113.692 13.5327V13.5248Z" fill="#00B956"/>
<path d="M10.2012 10.9977C9.43 10.9977 8.8037 10.359 8.8037 9.57233C8.8037 8.7839 9.43 8.14522 10.2012 8.14522C10.9725 8.14522 11.597 8.7839 11.597 9.57233C11.597 10.359 10.9725 10.9977 10.2012 10.9977ZM12.3432 1.58936C6.17083 1.58936 1.16992 6.69698 1.16992 12.9991C1.16992 18.4679 4.93893 23.0382 9.96745 24.1508V13.9118L9.96814 13.9111C9.97939 13.4169 10.365 13.0187 10.8446 13.0002L11.3096 12.9995H12.2559C12.3215 12.9995 12.375 12.9466 12.3784 12.8806L12.3791 1.5914M20.0429 19.2234C19.2726 19.2234 18.6463 18.5848 18.6463 17.7963C18.6463 17.0105 19.2726 16.3719 20.0429 16.3719C20.8133 16.3719 21.4396 17.0105 21.4396 17.7963C21.4396 18.5848 20.8133 19.2234 20.0429 19.2234ZM16.7691 19.2234C15.9987 19.2234 15.3733 18.5848 15.3733 17.7963C15.3733 17.0105 15.9987 16.3719 16.7691 16.3719C17.5403 16.3719 18.1658 17.0105 18.1658 17.7963C18.1658 18.5848 17.5403 19.2234 16.7691 19.2234ZM13.4935 19.2234C12.7232 19.2234 12.096 18.5848 12.096 17.7963C12.096 17.0105 12.7232 16.3719 13.4935 16.3719C14.2656 16.3719 14.8911 17.0105 14.8911 17.7963C14.8911 18.5848 14.2656 19.2234 13.4935 19.2234ZM13.7221 1.67535V12.9988V13.4393V13.4472L13.7194 13.45C13.7152 13.9592 13.3087 14.3706 12.8084 14.3706H12.3788H11.4333C11.3643 14.3706 11.3091 14.427 11.3091 14.4966V24.3612C11.6498 24.3929 11.9932 24.4106 12.3426 24.4106C18.5141 24.4106 23.5159 19.3012 23.5159 12.999C23.5159 7.17519 19.2424 2.36952 13.7221 1.67535Z" fill="#00B956"/>
</svg>
