<svg class='more-main' width="111" height="22" viewBox="0 0 111 22" fill="none" xmlns="http://www.w3.org/2000/svg">
<path class='more-path' d="M4.73295 16.9688V5.17329H7.40909V16.9688H4.73295ZM0.173295 12.4091V9.73295H11.9688V12.4091H0.173295ZM21.2891 18.2557C19.9766 18.2557 18.8431 17.983 17.8886 17.4375C16.9397 16.8864 16.2096 16.108 15.6982 15.1023C15.1868 14.0909 14.9312 12.9006 14.9312 11.5312C14.9312 10.1847 15.1868 9.00284 15.6982 7.9858C16.2153 6.96307 16.9368 6.16761 17.863 5.59943C18.7891 5.02557 19.8772 4.73864 21.1272 4.73864C21.934 4.73864 22.6954 4.86932 23.4113 5.13068C24.1329 5.38636 24.7692 5.78409 25.3204 6.32386C25.8772 6.86364 26.3147 7.55114 26.6329 8.38636C26.9511 9.21591 27.1101 10.2045 27.1101 11.3523V12.2983H16.38V10.2188H24.1528C24.1471 9.62784 24.0192 9.10227 23.7692 8.64205C23.5192 8.17614 23.1698 7.80966 22.7209 7.54261C22.2778 7.27557 21.7607 7.14205 21.1698 7.14205C20.5391 7.14205 19.9851 7.29545 19.5079 7.60227C19.0306 7.90341 18.6584 8.30114 18.3914 8.79545C18.13 9.28409 17.9965 9.82102 17.9908 10.4062V12.2216C17.9908 12.983 18.13 13.6364 18.4084 14.1818C18.6868 14.7216 19.0761 15.1364 19.5761 15.4261C20.0761 15.7102 20.6613 15.8523 21.3317 15.8523C21.7806 15.8523 22.1868 15.7898 22.5505 15.6648C22.9141 15.5341 23.2295 15.3438 23.4965 15.0938C23.7636 14.8438 23.9653 14.5341 24.1016 14.1648L26.9823 14.4886C26.8005 15.25 26.4539 15.9148 25.9425 16.483C25.4368 17.0455 24.7891 17.483 23.9993 17.7955C23.2096 18.1023 22.3062 18.2557 21.2891 18.2557ZM49.1422 15.4688L48.8865 21.75H45.9802V18H44.4376V15.4688H49.1422ZM29.4802 4.90909H32.4547V15.4602H36.5711V4.90909H39.5456V15.4602H43.662V4.90909H46.6365V18H29.4802V4.90909ZM56.9966 18.2557C55.6841 18.2557 54.5506 17.983 53.5961 17.4375C52.6472 16.8864 51.9171 16.108 51.4057 15.1023C50.8943 14.0909 50.6387 12.9006 50.6387 11.5312C50.6387 10.1847 50.8943 9.00284 51.4057 7.9858C51.9228 6.96307 52.6443 6.16761 53.5705 5.59943C54.4966 5.02557 55.5847 4.73864 56.8347 4.73864C57.6415 4.73864 58.4029 4.86932 59.1188 5.13068C59.8404 5.38636 60.4767 5.78409 61.0279 6.32386C61.5847 6.86364 62.0222 7.55114 62.3404 8.38636C62.6586 9.21591 62.8176 10.2045 62.8176 11.3523V12.2983H52.0875V10.2188H59.8603C59.8546 9.62784 59.7267 9.10227 59.4767 8.64205C59.2267 8.17614 58.8773 7.80966 58.4284 7.54261C57.9853 7.27557 57.4682 7.14205 56.8773 7.14205C56.2466 7.14205 55.6926 7.29545 55.2154 7.60227C54.7381 7.90341 54.3659 8.30114 54.0989 8.79545C53.8375 9.28409 53.704 9.82102 53.6983 10.4062V12.2216C53.6983 12.983 53.8375 13.6364 54.1159 14.1818C54.3943 14.7216 54.7836 15.1364 55.2836 15.4261C55.7835 15.7102 56.3688 15.8523 57.0392 15.8523C57.4881 15.8523 57.8943 15.7898 58.258 15.6648C58.6216 15.5341 58.937 15.3438 59.204 15.0938C59.4711 14.8438 59.6728 14.5341 59.8091 14.1648L62.6898 14.4886C62.508 15.25 62.1614 15.9148 61.65 16.483C61.1443 17.0455 60.4966 17.483 59.7068 17.7955C58.9171 18.1023 58.0137 18.2557 56.9966 18.2557ZM77.9662 0.545454V18H74.8043V3.62216H74.702L70.6196 6.23011V3.33239L74.9577 0.545454H77.9662ZM88.3626 18.2386C87.0955 18.2386 85.9705 18.0256 84.9876 17.5994C84.0103 17.1733 83.2432 16.5909 82.6864 15.8523C82.1353 15.108 81.8626 14.2642 81.8682 13.321C81.8626 12.5881 82.0216 11.9148 82.3455 11.3011C82.6694 10.6875 83.1069 10.1761 83.658 9.76705C84.2148 9.35227 84.8341 9.08807 85.516 8.97443V8.85511C84.6182 8.65625 83.891 8.19886 83.3341 7.48295C82.783 6.76136 82.5103 5.92898 82.516 4.98579C82.5103 4.08807 82.7603 3.28693 83.266 2.58239C83.7716 1.87784 84.4648 1.32386 85.3455 0.920454C86.2262 0.511363 87.2319 0.306818 88.3626 0.306818C89.4819 0.306818 90.479 0.511363 91.354 0.920454C92.2347 1.32386 92.9279 1.87784 93.4336 2.58239C93.9449 3.28693 94.2006 4.08807 94.2006 4.98579C94.2006 5.92898 93.9194 6.76136 93.3569 7.48295C92.8001 8.19886 92.0813 8.65625 91.2006 8.85511V8.97443C91.8824 9.08807 92.4961 9.35227 93.0415 9.76705C93.5927 10.1761 94.0302 10.6875 94.354 11.3011C94.6836 11.9148 94.8483 12.5881 94.8483 13.321C94.8483 14.2642 94.5699 15.108 94.0131 15.8523C93.4563 16.5909 92.6893 17.1733 91.712 17.5994C90.7404 18.0256 89.6239 18.2386 88.3626 18.2386ZM88.3626 15.8011C89.016 15.8011 89.5841 15.6903 90.0671 15.4688C90.5501 15.2415 90.9251 14.9233 91.1921 14.5142C91.4591 14.1051 91.5955 13.6335 91.6012 13.0994C91.5955 12.5426 91.4506 12.0511 91.1665 11.625C90.8881 11.1932 90.5046 10.8551 90.016 10.6108C89.533 10.3665 88.9819 10.2443 88.3626 10.2443C87.7376 10.2443 87.1807 10.3665 86.6921 10.6108C86.2035 10.8551 85.8171 11.1932 85.533 11.625C85.2546 12.0511 85.1182 12.5426 85.1239 13.0994C85.1182 13.6335 85.2489 14.1051 85.516 14.5142C85.783 14.9176 86.158 15.233 86.641 15.4602C87.1296 15.6875 87.7035 15.8011 88.3626 15.8011ZM88.3626 7.84943C88.8966 7.84943 89.3682 7.74148 89.7773 7.52557C90.1921 7.30966 90.5188 7.00852 90.7574 6.62216C90.9961 6.2358 91.1182 5.78977 91.1239 5.28409C91.1182 4.78409 90.9989 4.34659 90.766 3.97159C90.533 3.59091 90.2091 3.2983 89.7944 3.09375C89.3796 2.88352 88.9023 2.77841 88.3626 2.77841C87.8114 2.77841 87.3256 2.88352 86.9052 3.09375C86.4904 3.2983 86.1665 3.59091 85.9336 3.97159C85.7063 4.34659 85.5955 4.78409 85.6012 5.28409C85.5955 5.78977 85.7091 6.2358 85.9421 6.62216C86.1807 7.00284 86.5074 7.30398 86.9222 7.52557C87.3427 7.74148 87.8228 7.84943 88.3626 7.84943ZM103.615 18.2386C102.348 18.2386 101.223 18.0256 100.24 17.5994C99.2625 17.1733 98.4954 16.5909 97.9386 15.8523C97.3875 15.108 97.1147 14.2642 97.1204 13.321C97.1147 12.5881 97.2738 11.9148 97.5977 11.3011C97.9216 10.6875 98.3591 10.1761 98.9102 9.76705C99.467 9.35227 100.086 9.08807 100.768 8.97443V8.85511C99.8704 8.65625 99.1432 8.19886 98.5863 7.48295C98.0352 6.76136 97.7625 5.92898 97.7682 4.98579C97.7625 4.08807 98.0125 3.28693 98.5182 2.58239C99.0238 1.87784 99.717 1.32386 100.598 0.920454C101.478 0.511363 102.484 0.306818 103.615 0.306818C104.734 0.306818 105.731 0.511363 106.606 0.920454C107.487 1.32386 108.18 1.87784 108.686 2.58239C109.197 3.28693 109.453 4.08807 109.453 4.98579C109.453 5.92898 109.172 6.76136 108.609 7.48295C108.052 8.19886 107.333 8.65625 106.453 8.85511V8.97443C107.135 9.08807 107.748 9.35227 108.294 9.76705C108.845 10.1761 109.282 10.6875 109.606 11.3011C109.936 11.9148 110.101 12.5881 110.101 13.321C110.101 14.2642 109.822 15.108 109.265 15.8523C108.708 16.5909 107.941 17.1733 106.964 17.5994C105.993 18.0256 104.876 18.2386 103.615 18.2386ZM103.615 15.8011C104.268 15.8011 104.836 15.6903 105.319 15.4688C105.802 15.2415 106.177 14.9233 106.444 14.5142C106.711 14.1051 106.848 13.6335 106.853 13.0994C106.848 12.5426 106.703 12.0511 106.419 11.625C106.14 11.1932 105.757 10.8551 105.268 10.6108C104.785 10.3665 104.234 10.2443 103.615 10.2443C102.99 10.2443 102.433 10.3665 101.944 10.6108C101.456 10.8551 101.069 11.1932 100.785 11.625C100.507 12.0511 100.37 12.5426 100.376 13.0994C100.37 13.6335 100.501 14.1051 100.768 14.5142C101.035 14.9176 101.41 15.233 101.893 15.4602C102.382 15.6875 102.956 15.8011 103.615 15.8011ZM103.615 7.84943C104.149 7.84943 104.62 7.74148 105.03 7.52557C105.444 7.30966 105.771 7.00852 106.01 6.62216C106.248 6.2358 106.37 5.78977 106.376 5.28409C106.37 4.78409 106.251 4.34659 106.018 3.97159C105.785 3.59091 105.461 3.2983 105.047 3.09375C104.632 2.88352 104.155 2.77841 103.615 2.77841C103.064 2.77841 102.578 2.88352 102.157 3.09375C101.743 3.2983 101.419 3.59091 101.186 3.97159C100.958 4.34659 100.848 4.78409 100.853 5.28409C100.848 5.78977 100.961 6.2358 101.194 6.62216C101.433 7.00284 101.76 7.30398 102.174 7.52557C102.595 7.74148 103.075 7.84943 103.615 7.84943Z" fill="#6C7075"/>
</svg>
