<svg width="48" height="48" viewBox="0 0 48 48" fill="none" xmlns="http://www.w3.org/2000/svg">
<g clip-path="url(#clip0_2130_197216)">
<mask id="mask0_2130_197216" style="mask-type:luminance" maskUnits="userSpaceOnUse" x="0" y="0" width="48" height="48">
<path d="M48 0H0V48H48V0Z" fill="white"/>
</mask>
<g mask="url(#mask0_2130_197216)">
<path d="M48 0H0V48H48V0Z" fill="#FF0032"/>
<path d="M14.6023 3.69141L11.0745 11.0178L7.54675 3.69141H3.69727V14.7657H6.39529V6.84098L9.84402 13.5352H12.305L15.7537 6.84098V14.7657H18.4574V3.69141H14.6023Z" fill="white"/>
<path d="M31.9805 3.69141V5.89837H36.8008L36.7895 14.7657H39.4875L39.4988 5.89837H44.3248V3.69141H31.9805Z" fill="white"/>
<path d="M41.6209 40.6115C41.5532 41.0518 41.3782 41.4187 41.0903 41.6896C40.8194 41.9492 40.4581 42.1299 40.0066 42.2371C39.5607 42.3387 38.9116 42.4008 38.2173 42.4008C37.5231 42.4008 36.8683 42.3105 36.3321 42.1242C35.8128 41.9492 35.4008 41.6388 35.1129 41.2042C34.8194 40.7696 34.6726 40.1374 34.6726 39.3359V38.2014C34.6726 37.3942 34.8194 36.7677 35.1129 36.3331C35.4008 35.8984 35.8128 35.5936 36.3321 35.413C36.8683 35.2324 37.5005 35.1365 38.2173 35.1365C38.9342 35.1365 39.5607 35.1985 40.0066 35.3001C40.4581 35.4017 40.8194 35.588 41.0903 35.8476C41.3725 36.1242 41.5532 36.4855 41.6209 36.9257H44.3246C44.2512 36.0113 43.9407 35.2324 43.3989 34.6115C42.9022 34.0414 42.2192 33.6238 41.3669 33.3698C40.5372 33.1214 39.4534 32.9916 38.223 32.9916C36.9304 32.9916 35.8072 33.1778 34.8815 33.5447C33.9445 33.9173 33.222 34.5381 32.7197 35.3904C32.2399 36.2089 31.9915 37.2983 31.9746 38.636V38.7602L32.1214 38.7658L31.9746 38.7714V38.8956C31.9915 40.2333 32.2399 41.3227 32.7197 42.1412C33.2164 42.9935 33.9445 43.6143 34.8815 43.9869C35.8015 44.3538 36.9248 44.54 38.223 44.54C39.5155 44.54 40.5428 44.4102 41.3669 44.1619C42.2192 43.9079 42.9022 43.4902 43.3989 42.9201C43.9407 42.2992 44.2512 41.5203 44.3246 40.6059L41.6209 40.6115Z" fill="white"/>
</g>
</g>
<defs>
<clipPath id="clip0_2130_197216">
<rect width="48" height="48" fill="white"/>
</clipPath>
</defs>
</svg>
