<svg width="116" height="48" viewBox="0 0 116 48" fill="none" xmlns="http://www.w3.org/2000/svg">
<g clip-path="url(#clip0_2130_197399)">
<path fill-rule="evenodd" clip-rule="evenodd" d="M24.0041 47.1401L23.8149 47.1408C11.1476 47.1408 0.878906 36.7806 0.878906 24C0.878906 11.2195 11.1476 0.859253 23.8149 0.859253L24.0212 0.859977H92.389C104.97 0.962361 115.119 11.2831 115.119 23.9998C115.119 36.7167 104.952 47.0375 92.3719 47.1399H24.0041V47.1401Z" fill="#ED1C24"/>
<path fill-rule="evenodd" clip-rule="evenodd" d="M79.2227 15.4865H79.7322V13.5451C79.7322 13.3102 79.9537 12.7494 80.5592 12.7494C81.0146 12.7494 81.1403 13.0388 81.1403 13.4428V15.4867H81.6496V13.5451C81.6496 13.0629 81.9673 12.7494 82.4585 12.7494C82.9559 12.7494 83.0577 13.0569 83.0577 13.4428V15.4867H83.567V13.2015C83.567 12.5564 83.1535 12.297 82.5365 12.297C82.1411 12.297 81.7756 12.496 81.566 12.8277C81.44 12.4479 81.0924 12.297 80.7151 12.297C80.2897 12.297 79.942 12.4779 79.7144 12.8277H79.7023V12.3695H79.223V15.4865H79.2227Z" fill="white"/>
<path fill-rule="evenodd" clip-rule="evenodd" d="M87.0354 12.3696H86.5022L85.6572 14.9681H85.6451L84.7762 12.3696H84.207L85.3575 15.4865H85.9028L87.0354 12.3696Z" fill="white"/>
<path fill-rule="evenodd" clip-rule="evenodd" d="M87.707 15.4865H88.2164V12.3696H87.707V15.4865ZM88.2164 11.1816H87.707V11.8086H88.2164V11.1816Z" fill="white"/>
<path fill-rule="evenodd" clip-rule="evenodd" d="M91.9478 11.1816H91.4385V12.7854H91.4266C91.1986 12.4177 90.7432 12.297 90.4259 12.297C89.4792 12.297 89.0117 13.0387 89.0117 13.9189C89.0117 14.7991 89.4853 15.5587 90.438 15.5587C90.8635 15.5587 91.2589 15.408 91.4268 15.0643H91.4387V15.4863H91.948V11.1816H91.9478ZM89.5509 13.9551C89.5509 13.3462 89.7846 12.7492 90.4798 12.7492C91.1807 12.7492 91.4564 13.316 91.4564 13.931C91.4564 14.5158 91.1927 15.1068 90.5097 15.1068C89.8504 15.1068 89.5509 14.5401 89.5509 13.9551Z" fill="white"/>
<path fill-rule="evenodd" clip-rule="evenodd" d="M95.0455 14.4977C94.9556 14.9017 94.662 15.1068 94.2424 15.1068C93.5653 15.1068 93.2597 14.6244 93.2778 14.0817H95.5967C95.6266 13.3281 95.2913 12.297 94.1946 12.297C93.3496 12.297 92.7383 12.9844 92.7383 13.9189C92.7681 14.8714 93.2356 15.5587 94.2244 15.5587C94.9195 15.5587 95.411 15.1849 95.5487 14.4975H95.0455V14.4977ZM93.2778 13.6296C93.3136 13.1533 93.6313 12.7494 94.1645 12.7494C94.6681 12.7494 95.0336 13.1412 95.0575 13.6296H93.2778Z" fill="white"/>
<path fill-rule="evenodd" clip-rule="evenodd" d="M96.3691 13.931C96.3691 14.8414 96.8905 15.5588 97.8731 15.5588C98.8559 15.5588 99.3771 14.8414 99.3771 13.931C99.3771 13.0146 98.8559 12.297 97.8731 12.297C96.8905 12.297 96.3691 13.0146 96.3691 13.931ZM96.9085 13.931C96.9085 13.1712 97.3398 12.7492 97.8731 12.7492C98.4065 12.7492 98.838 13.1712 98.838 13.931C98.838 14.6848 98.4065 15.1068 97.8731 15.1068C97.3398 15.1068 96.9085 14.6848 96.9085 13.931Z" fill="white"/>
<path d="M100.929 14.8174H100.264V15.4865H100.929V14.8174Z" fill="white"/>
<path fill-rule="evenodd" clip-rule="evenodd" d="M101.969 15.4865H102.478V14.0998C102.478 13.31 102.778 12.8397 103.599 12.8397V12.297C103.047 12.2789 102.706 12.5262 102.46 13.0265H102.448V12.3694H101.969V15.4865Z" fill="white"/>
<path fill-rule="evenodd" clip-rule="evenodd" d="M106.899 12.3696H106.389V14.13C106.389 14.6908 106.09 15.1068 105.473 15.1068C105.083 15.1068 104.843 14.8595 104.843 14.4797V12.3696H104.334V14.4194C104.334 15.0887 104.586 15.5589 105.401 15.5589C105.844 15.5589 106.192 15.378 106.407 14.9921H106.419V15.4865H106.899V12.3696Z" fill="white"/>
<path d="M43.047 11.1084H43.3437L43.7985 11.8316H44.0743L43.6002 11.0898C43.857 11.0702 44.0348 10.9335 44.0348 10.6403C44.0348 10.3083 43.8377 10.1524 43.4426 10.1524H42.791V11.8316H43.0472V11.1084H43.047ZM43.047 10.3669H43.4028C43.5808 10.3669 43.7782 10.406 43.7782 10.6211C43.7782 10.8747 43.5806 10.8942 43.3633 10.8942H43.0469L43.047 10.3669Z" fill="white"/>
<path d="M43.3624 12.4761C44.152 12.4761 44.8439 11.8316 44.8439 10.9917C44.8439 10.1522 44.152 9.54639 43.3624 9.54639C42.553 9.54639 41.8418 10.1522 41.8418 10.9917C41.8418 11.8314 42.553 12.4761 43.3624 12.4761ZM43.3624 9.781C44.0336 9.781 44.5478 10.3081 44.5478 10.9917C44.5478 11.695 44.0336 12.2026 43.3624 12.2026C42.6904 12.2026 42.1579 11.6948 42.1579 10.9917C42.158 10.3081 42.6906 9.781 43.3624 9.781Z" fill="white"/>
<path d="M41.5334 32.3672C41.5334 33.2558 40.8168 33.9764 39.9341 33.9764C39.0511 33.9764 38.3359 33.2558 38.3359 32.3672C38.3359 31.4791 39.0511 30.7596 39.9341 30.7596C40.8168 30.7596 41.5334 31.4791 41.5334 32.3672Z" fill="white"/>
<path d="M61.3531 12.8482C58.9959 11.527 48.5095 14.5144 45.1446 25.9216C44.7486 26.0311 42.8455 26.5289 42.8455 26.5289L42.0137 28.7833L44.9643 27.8778C44.9643 27.8778 44.6405 33.3465 49.5884 33.5098C53.4738 33.3639 55.5061 27.8051 54.2616 23.8944C54.0246 24.0204 50.9197 25.5235 50.9197 25.5235C50.9197 25.5235 51.6391 29.8155 49.9122 30.3408C49.3531 30.4128 48.6969 28.6947 49.2984 26.121C57.5526 21.8029 62.7856 13.6573 61.3531 12.8482ZM58.0612 15.4556C59.6437 15.312 52.035 23.4595 50.0911 23.8575C49.462 23.4959 54.9126 16.2345 58.0612 15.4556Z" fill="white"/>
<path d="M56.8208 23.2607V24.8717C56.8208 24.8717 58.9259 23.4958 59.0877 23.7496C59.1411 24.4736 56.4801 30.5946 56.4256 31.5173C56.3713 32.079 56.893 34.1978 59.3566 33.093C60.5632 32.5685 63.7968 29.9012 63.7968 29.9012C63.7968 29.9012 63.2758 31.2621 63.4969 32.3499C63.7159 33.4382 65.058 33.7247 66.2676 33.2741C67.4774 32.8226 68.8587 31.8974 69.4536 31.1734C69.3634 30.9374 69.0212 29.8513 69.0212 29.8513C69.0212 29.8513 67.9371 30.8807 67.6701 30.7465C67.4022 30.6116 70.7486 20.7439 70.7486 20.7439C70.7486 20.7439 67.3174 20.6102 66.9753 20.6102C66.41 23.2024 63.2062 29.7786 60.9956 30.0687C60.2381 30.0143 63.6756 22.3007 63.8027 21.4311C64.0543 20.2901 63.2062 19.7655 62.2003 20.0008C61.1392 20.3635 56.8208 23.2607 56.8208 23.2607Z" fill="white"/>
<path d="M80.3945 20.5005C80.3945 20.5005 79.9787 21.533 79.901 21.711C79.467 20.957 77.966 19.4878 74.867 21.4337C71.6323 23.5384 70.2503 27.1327 70.6855 30.9443C71.1589 34.1014 74.5524 34.4776 76.8407 31.7972C76.6047 32.4932 74.177 39.9984 74.177 39.9984L77.9459 40.0181L84.1043 20.5795L80.3945 20.5005ZM76.2625 29.8915C75.73 30.1887 74.9019 30.6843 74.7845 28.7983C74.7246 26.575 76.5033 24.0894 76.8429 23.6997C77.7307 22.6874 78.8381 22.6688 78.8099 24.2719C78.6927 26.1177 77.5065 29.0364 76.2625 29.8915Z" fill="white"/>
<path d="M19.8711 33.2544C17.9864 31.2505 19.4522 27.5612 19.7683 24.2932C19.3483 24.7154 15.1569 34.5188 11.385 34.0954C8.03254 33.0438 8.45144 29.2473 9.49906 26.4015H14.9466C13.2704 31.039 15.5753 29.142 17.1473 26.1909C20.2905 19.7606 20.5004 19.2338 23.958 9.53442C25.9484 9.53442 27.9385 9.53442 29.9303 9.53442C28.1494 15.0167 26.4721 20.393 25.7399 26.0853C25.7399 26.2959 25.844 26.5068 26.0538 26.4015C27.3101 26.1909 34.2258 10.5899 34.8539 9.53442C36.6358 9.53442 38.7314 9.53442 40.6159 9.53442C40.6159 10.0615 34.2258 27.6663 35.2736 29.3526C35.798 30.3012 36.5319 28.51 37.1595 27.7712L38.1034 28.7205C36.2174 30.8297 34.0178 34.6232 30.874 33.9915C30.4546 33.8859 30.0355 33.6764 29.7219 33.3591C26.4723 30.5134 32.3402 20.2248 31.7124 19.5495C31.5171 19.5714 31.3217 20.0943 30.9779 20.8141C29.1961 24.5043 25.112 34.2021 21.7571 34.2021C21.2342 34.2021 20.185 33.6762 19.8711 33.2544Z" fill="white"/>
<path d="M87.7565 30.3628C94.7416 26.6693 96.4185 21.9839 94.2682 20.6731C91.09 18.8861 82.3888 22.0828 83.3757 30.8398C82.9399 31.0974 82.0312 31.5941 82.0312 31.5941L82.6643 33.3411C82.6643 33.3411 83.9467 32.5675 84.2777 32.3363C88.7233 35.9626 93.6012 30.0165 93.6012 30.0165L92.7481 28.6948C92.7481 28.6948 89.0566 32.2677 87.7565 30.3628ZM88.6828 25.0013C89.6891 23.2143 91.3084 21.8247 92.0973 22.3807C92.8866 22.937 91.2877 25.756 87.5252 28.7516C87.3747 28.4905 87.6762 26.7887 88.6828 25.0013Z" fill="white"/>
<path d="M99.2031 20.8117L103.249 20.693C103.249 20.693 97.5658 25.2046 98.3939 29.469C99.0471 32.0612 101.451 30.7985 102.775 27.8607C103.03 27.2847 104.629 23.3731 103.622 23.3731C102.616 23.3731 101.565 25.3787 101.565 25.3787L100.464 24.2669C100.464 24.2669 102.694 21.0695 105.234 20.2135C105.537 20.1172 107.371 19.7403 107.391 22.3804C107.472 23.6114 106.15 30.363 101.552 32.7449C97.3342 34.9272 95.4835 32.3139 95.1498 31.5339C92.8391 25.7622 99.2031 20.8117 99.2031 20.8117Z" fill="white"/>
</g>
<defs>
<clipPath id="clip0_2130_197399">
<rect width="115.948" height="48" fill="white" transform="translate(0.0253906)"/>
</clipPath>
</defs>
</svg>
