<svg width="128" height="32" viewBox="0 0 128 32" fill="none" xmlns="http://www.w3.org/2000/svg">
<path fill-rule="evenodd" clip-rule="evenodd" d="M103.033 9.01231L103.798 24.304L97.0789 27.7446L97.2516 31.1851H126.845L126.683 27.9356L118.829 24.304L118.052 8.82108L125.351 4.99835L125.14 0.793518H94.6328L94.8241 4.61625L103.033 9.01231Z" fill="#FF7313"/>
<path fill-rule="evenodd" clip-rule="evenodd" d="M96.6851 31.7886H127.471L127.258 27.5388L119.404 23.9071L118.666 9.17878L125.965 5.35603L125.706 0.190025H94.0059L94.246 4.98957L102.455 9.38563L103.184 23.9424L96.464 27.383L96.6851 31.7886ZM97.8168 30.5816L97.6926 28.1062L104.412 24.6656L103.61 8.63901L95.401 4.24296L95.2585 1.39704H124.574L124.737 4.64069L117.438 8.46341L118.252 24.7008L126.106 28.3325L126.218 30.5816H97.8168Z" fill="black"/>
<path fill-rule="evenodd" clip-rule="evenodd" d="M70.9904 8.60221H66.5146L66.7863 14.2404L71.2697 14.2411C73.6449 14.3367 74.7031 12.1864 74.1011 10.8005C74.1011 10.8005 73.8733 8.69773 70.9904 8.60221ZM71.5408 19.5467H67.065L67.3375 24.8432H72.0453C73.8266 24.8907 75.1058 23.5598 74.7178 21.8679C74.7178 21.8679 74.604 19.5453 71.5408 19.5467ZM84.3622 31.2374C84.3622 31.2374 90.071 31.8587 91.1762 24.5195C91.1762 24.5195 91.6324 19.4587 86.5585 16.4918C92.0891 14.8723 91.0839 8.08674 91.0839 8.08674C89.4133 0.376993 81.6291 0.817831 81.6291 0.817831H43.9531L44.1833 4.64057L51.206 9.03037L51.8759 24.5293L45.2925 27.771L45.5227 31.2122L84.3622 31.2374Z" fill="#FF7313"/>
<path fill-rule="evenodd" clip-rule="evenodd" d="M84.4258 30.6374L84.4251 30.6373L84.4239 30.6372L84.3943 30.6339L46.0792 30.6091L45.9137 28.1361L52.4879 24.899L51.7871 8.68452L44.7588 4.29125L44.586 1.42134H81.6458L81.6615 1.42045L81.6619 1.42043L81.6624 1.4204L81.6634 1.42036C81.6655 1.42025 81.6695 1.42007 81.6753 1.41983C81.682 1.41956 81.691 1.41923 81.7024 1.41888C81.7106 1.41862 81.7201 1.41836 81.7308 1.41811C81.7813 1.41693 81.8584 1.41601 81.9587 1.4174C82.1595 1.42019 82.4522 1.43224 82.8104 1.46974C83.5286 1.54493 84.4986 1.72133 85.5134 2.12325C87.519 2.91765 89.7092 4.59054 90.4975 8.19373C90.4988 8.20383 90.5006 8.21807 90.5028 8.23623C90.5081 8.28041 90.5155 8.34774 90.5233 8.43535C90.5388 8.61073 90.5555 8.86642 90.5592 9.17953C90.5666 9.80819 90.5214 10.6556 90.3156 11.544C89.9058 13.3123 88.8829 15.183 86.3933 15.912L85.0488 16.3057L86.2611 17.0145C88.65 18.4115 89.7209 20.2858 90.2034 21.8034C90.4461 22.5666 90.5405 23.2428 90.5743 23.7252C90.5912 23.966 90.5929 24.1573 90.5906 24.2854C90.5895 24.3494 90.5873 24.3975 90.5856 24.428C90.5851 24.4372 90.5846 24.4448 90.5843 24.4507C90.056 27.9201 88.4709 29.4178 87.097 30.0867C86.3913 30.4302 85.7138 30.5681 85.2118 30.6194C84.9616 30.6449 84.7577 30.6487 84.6195 30.6464C84.5505 30.6452 84.4982 30.6425 84.465 30.6403C84.4484 30.6393 84.4367 30.6383 84.43 30.6377L84.4258 30.6374ZM91.1762 24.5195C91.7691 24.5744 91.7691 24.5741 91.7691 24.5737L91.7694 24.571L91.7698 24.5657C91.7702 24.5616 91.7706 24.5562 91.7711 24.5496C91.772 24.5365 91.7732 24.5185 91.7745 24.4959C91.777 24.4508 91.7797 24.3873 91.7812 24.3071C91.784 24.1469 91.7817 23.9196 91.7621 23.6396C91.7229 23.0804 91.6142 22.3059 91.3367 21.4331C90.8542 19.9153 89.8627 18.1094 87.8658 16.6333C90.0874 15.5533 91.0684 13.5737 91.4748 11.82C91.7089 10.8095 91.7581 9.85931 91.7499 9.16506C91.7458 8.81672 91.7271 8.52964 91.7093 8.3276C91.7003 8.22651 91.6916 8.14647 91.6848 8.09046C91.6815 8.06245 91.6786 8.04042 91.6765 8.02475C91.6755 8.01691 91.6746 8.01066 91.6739 8.00604L91.6731 8.00034L91.6728 7.99842L91.6727 7.9977C91.6727 7.9974 91.6727 7.99712 91.0839 8.08675L91.6727 7.99712L91.6697 7.97708L91.6654 7.95728C90.779 3.86625 88.2467 1.90999 85.9468 0.999023C84.8066 0.547436 83.7262 0.352192 82.9327 0.269112C82.535 0.227468 82.2065 0.213724 81.9751 0.210506C81.8593 0.208897 81.7675 0.209921 81.7032 0.211428C81.6711 0.212183 81.6458 0.213057 81.6278 0.213787C81.623 0.21398 81.6187 0.214167 81.6149 0.214334H43.3203L43.6079 4.9899L50.6251 9.37623L51.264 24.1597L44.6714 27.406L44.9664 31.8154L84.3351 31.8409C84.3491 31.8421 84.3669 31.8434 84.3882 31.8448C84.4392 31.8482 84.5106 31.8517 84.5998 31.8532C84.7781 31.8562 85.0289 31.8512 85.3312 31.8203C85.9341 31.7587 86.7529 31.5932 87.6125 31.1747C89.3664 30.3209 91.1844 28.4645 91.7647 24.6106L91.7675 24.5926L91.7691 24.5744L91.1762 24.5195ZM73.7591 23.5968C73.3957 23.9928 72.8029 24.2597 72.061 24.2399L72.0532 24.2397H67.9027L67.6923 20.1502H71.5411C72.9002 20.1496 73.5058 20.6515 73.7944 21.0589C73.9494 21.2775 74.0332 21.4979 74.0777 21.6637C74.0998 21.7459 74.1116 21.8123 74.1177 21.8548C74.1207 21.8759 74.1223 21.8908 74.123 21.8984C74.1232 21.9002 74.1233 21.9016 74.1234 21.9026C74.1234 21.9029 74.1234 21.9032 74.1234 21.9035L74.1258 21.9518L74.1379 22.0045C74.2881 22.6596 74.1151 23.2089 73.7591 23.5968ZM75.3076 21.7758C75.5276 22.7956 75.2539 23.7401 74.631 24.4189C74.0081 25.0976 73.074 25.4723 72.0378 25.4467H66.7724L66.4378 18.9432H71.5406C71.5407 18.9432 71.5408 18.9432 71.5409 18.9432C73.2448 18.9425 74.2275 19.6011 74.7616 20.3547C75.0179 20.7165 75.1541 21.0766 75.2266 21.3463C75.263 21.4818 75.284 21.5968 75.2961 21.6814C75.3015 21.7189 75.3051 21.7506 75.3076 21.7758ZM73.5562 11.0437C73.971 11.9986 73.2533 13.7169 71.2934 13.6381L71.2816 13.6376L67.3534 13.637L67.1398 9.20572H70.9804C72.2535 9.25015 72.8593 9.72427 73.159 10.1104C73.3175 10.3147 73.4072 10.5163 73.4566 10.6641C73.4812 10.7377 73.4953 10.7964 73.5028 10.8331C73.5066 10.8513 73.5087 10.8639 73.5096 10.8698C73.5097 10.8706 73.5098 10.8713 73.5099 10.8719L73.5193 10.9587L73.5562 11.0437ZM74.6776 10.6333C75.3952 12.4427 74.0019 14.9475 71.2583 14.8447L66.2194 14.8439L65.8894 7.99871H71.0001L71.0099 7.99904C72.6133 8.05216 73.5606 8.6758 74.0948 9.36401C74.3535 9.69732 74.501 10.0274 74.5844 10.2768C74.6262 10.4018 74.6524 10.5082 74.6685 10.5869C74.672 10.6036 74.675 10.6191 74.6776 10.6333Z" fill="black"/>
<path fill-rule="evenodd" clip-rule="evenodd" d="M22.2226 27.0528H23.0998C25.1175 27.0528 26.6674 25.3412 26.5617 23.23L25.8691 9.39248C25.7631 7.28132 24.042 5.56975 22.0239 5.56975H21.1469C19.1291 5.56975 17.5792 7.28132 17.6846 9.39248L18.3779 23.23C18.4834 25.3412 20.2049 27.0528 22.2226 27.0528ZM14.8032 31.2131H31.0171C38.0802 31.2131 43.5054 25.2226 43.135 17.833L42.953 14.2013C42.5828 6.81103 36.5577 0.821245 29.4956 0.821245H13.2815C6.21953 0.821245 0.794107 6.81103 1.16436 14.2013L1.34562 17.833C1.71622 25.2226 7.74124 31.2131 14.8032 31.2131Z" fill="#FF7313"/>
<path fill-rule="evenodd" clip-rule="evenodd" d="M1.93988 17.8024C1.93987 17.8024 1.93988 17.8024 1.93988 17.8024L1.75863 14.1709C1.40463 7.10503 6.57968 1.42476 13.2812 1.42476H29.4952C36.2233 1.42476 42.003 7.1451 42.358 14.232L42.54 17.8637C42.8942 24.9288 37.7193 30.6096 31.0168 30.6096H14.8029C8.0751 30.6096 2.29534 24.8885 1.93988 17.8024ZM0.75066 17.8637C1.13648 25.5567 7.40673 31.8167 14.8029 31.8167H31.0168C38.4403 31.8167 44.1159 25.5165 43.7292 17.8024L43.5473 14.1707C43.1618 6.47697 36.8915 0.217749 29.4952 0.217749H13.2812C5.85872 0.217749 0.182951 6.51709 0.5694 14.2318C0.569398 14.2318 0.569402 14.2319 0.5694 14.2318L0.75066 17.8637ZM22.2222 26.4493C20.5386 26.4493 19.0625 25.0072 18.9722 23.1995L18.2788 9.36201C18.2788 9.36197 18.2789 9.36205 18.2788 9.36201C18.1898 7.57523 19.4894 6.17327 21.1465 6.17327H22.0235C23.7074 6.17327 25.1833 7.6153 25.2742 9.42307C25.2742 9.42311 25.2742 9.42304 25.2742 9.42307L25.9668 23.2606C26.0562 25.0474 24.7566 26.4493 23.0994 26.4493H22.2222ZM17.7829 23.2606C17.9036 25.6753 19.8704 27.6563 22.2222 27.6563H23.0994C25.4777 27.6563 27.2779 25.635 27.156 23.1995L26.4634 9.36192C26.3421 6.94742 24.3758 4.96626 22.0235 4.96626H21.1465C18.7682 4.96626 16.9681 6.9875 17.0896 9.42298L17.7829 23.2606Z" fill="black"/>
<path d="M120.18 11.9752C120.18 12.7458 120.478 13.4446 120.961 13.949C121.443 14.454 122.11 14.7664 122.847 14.7664C123.584 14.7664 124.25 14.454 124.733 13.949C125.216 13.4448 125.514 12.746 125.514 11.9752C125.514 11.2051 125.216 10.507 124.733 10.002H124.732C124.249 9.49708 123.582 9.18462 122.847 9.18462C122.113 9.18462 121.445 9.49708 120.962 10.002C120.962 10.0027 120.961 10.0027 120.961 10.0034C120.478 10.5091 120.18 11.2065 120.18 11.9752ZM122.849 11.6438H122.257V10.585H121.762V13.388L123.139 13.3887C123.533 13.3775 123.82 13.1634 123.959 12.8922C124.019 12.7743 124.052 12.646 124.053 12.5183V12.5169C124.054 12.3865 124.024 12.2546 123.959 12.1334C123.864 11.957 123.696 11.807 123.45 11.7204L124.153 10.5353H123.506L122.849 11.6438ZM122.257 12.1614C122.551 12.1614 122.803 12.1809 123.133 12.1809H123.177L123.178 12.1787C123.366 12.2142 123.478 12.2924 123.529 12.3858C123.55 12.4242 123.56 12.4689 123.559 12.5128C123.559 12.5596 123.547 12.6076 123.525 12.6503C123.463 12.7702 123.324 12.8658 123.126 12.8713H122.257V12.1614ZM121.327 13.5667C120.938 13.1595 120.698 12.5965 120.698 11.9752C120.698 11.3538 120.937 10.7908 121.326 10.385L121.327 10.3843C121.715 9.97773 122.253 9.72652 122.847 9.72652C123.441 9.72652 123.979 9.97827 124.367 10.3843V10.385C124.756 10.7923 124.997 11.3538 124.997 11.9752C124.997 12.5965 124.756 13.1595 124.367 13.566C123.978 13.9733 123.44 14.2251 122.847 14.2251C122.254 14.2251 121.716 13.9733 121.327 13.5667Z" fill="black"/>
</svg>
