<svg width="128" height="28" viewBox="0 0 128 28" fill="none" xmlns="http://www.w3.org/2000/svg">
<g clip-path="url(#clip0_2130_197391)">
<path fill-rule="evenodd" clip-rule="evenodd" d="M15.7662 0.158115C12.911 -0.143027 10.0328 0.448677 7.52716 1.8519C5.0215 3.25512 3.01138 5.40096 1.7731 7.99449C0.534831 10.588 0.12919 13.5019 0.611938 16.3356C1.09469 19.1694 2.44212 21.7838 4.46904 23.8197C6.49596 25.8555 9.10286 27.2128 11.9314 27.7049C14.76 28.1971 17.6713 27.7999 20.2653 26.568C22.8593 25.3362 25.0086 23.3301 26.4177 20.8256C27.8269 18.321 28.4267 15.4409 28.1348 12.5811C27.8136 9.4023 26.4082 6.43141 24.1554 4.16868C21.9026 1.90595 18.9399 0.489599 15.7662 0.158115ZM15.3159 21.3595C13.7803 21.5657 12.2188 21.285 10.8508 20.5568C9.48273 19.8285 8.377 18.6894 7.68895 17.2994C7.0009 15.9094 6.76513 14.3385 7.01478 12.8074C7.26443 11.2764 7.98694 9.8621 9.08077 8.76342C10.1746 7.66473 11.5848 6.93686 13.1131 6.68211C14.6414 6.42735 16.211 6.6585 17.6013 7.34309C18.9916 8.02768 20.1328 9.13128 20.8643 10.4988C21.5959 11.8663 21.8811 13.429 21.6799 14.9672C21.4688 16.5851 20.7309 18.0882 19.5804 19.2438C18.4299 20.3994 16.9311 21.143 15.3159 21.3595ZM35.5674 0.708585C35.0854 0.70974 34.6098 0.81847 34.175 1.02686C33.7403 1.23526 33.3575 1.53807 33.0543 1.91327C32.7512 2.28847 32.5354 2.72662 32.4227 3.19584C32.31 3.66505 32.3031 4.15353 32.4027 4.62572C32.7076 6.15547 34.1346 7.20071 35.6892 7.20071H44.7104L30.6713 25.8037C30.5675 25.941 30.5039 26.1046 30.4877 26.2761C30.4715 26.4476 30.5033 26.6202 30.5796 26.7746C30.6559 26.9289 30.7736 27.059 30.9196 27.1502C31.0656 27.2413 31.234 27.2899 31.406 27.2906H53.4278C54.9813 27.2906 56.4093 26.2456 56.7142 24.7156C56.8138 24.2435 56.807 23.7551 56.6944 23.2859C56.5818 22.8168 56.3661 22.3786 56.0631 22.0034C55.7602 21.6282 55.3775 21.3253 54.9429 21.1168C54.5083 20.9082 54.0328 20.7993 53.5509 20.798H42.5591L56.5875 2.20943C56.6923 2.07076 56.7565 1.90558 56.7729 1.73243C56.7892 1.55927 56.757 1.38498 56.6799 1.22912C56.6028 1.07326 56.4838 0.941999 56.3364 0.850053C56.189 0.758107 56.0188 0.709119 55.8451 0.708585H35.5674ZM123.565 0.783469C122.836 0.95706 122.188 1.37459 121.728 1.96703C121.268 2.55947 121.024 3.29133 121.035 4.04162V14.8508L103.543 0.912744C103.406 0.803715 103.241 0.735675 103.067 0.716451C102.893 0.697227 102.717 0.7276 102.559 0.804077C102.402 0.880553 102.269 1.00003 102.176 1.14875C102.083 1.29748 102.034 1.46941 102.035 1.64478V23.9633C102.023 24.7136 102.267 25.4455 102.727 26.038C103.187 26.6304 103.835 27.048 104.564 27.2215C105.037 27.3258 105.528 27.3224 106 27.2114C106.472 27.1005 106.913 26.8848 107.291 26.5805C107.668 26.2761 107.973 25.8907 108.182 25.4527C108.391 25.0148 108.499 24.5354 108.498 24.0501V13.1474L125.991 27.0857C126.128 27.1946 126.293 27.2626 126.467 27.2818C126.641 27.301 126.817 27.2707 126.975 27.1942C127.132 27.1178 127.265 26.9983 127.358 26.8497C127.45 26.701 127.499 26.5292 127.499 26.3539V3.95386C127.5 3.46858 127.391 2.98938 127.182 2.55158C126.973 2.11379 126.669 1.72856 126.291 1.4243C125.913 1.12004 125.473 0.904507 125.001 0.793597C124.529 0.682687 124.038 0.679226 123.565 0.783469ZM78.0199 6.57929C85.4186 6.57929 90.9469 10.4943 90.9469 13.9963C90.9469 17.4983 85.4186 21.4133 78.0199 21.4133C70.6211 21.4133 65.0928 17.4983 65.0928 13.9963C65.0928 10.4943 70.6211 6.57929 78.0199 6.57929ZM78.0199 0.0874346C67.3105 0.0874346 58.6291 6.3147 58.6291 13.9963C58.6291 21.6779 67.3105 27.9052 78.0199 27.9052C88.7292 27.9052 97.4104 21.6779 97.4104 13.9963C97.4104 6.3147 88.729 0.0874346 78.0199 0.0874346Z" fill="#0069FF"/>
</g>
<defs>
<clipPath id="clip0_2130_197391">
<rect width="127" height="27.8356" fill="white" transform="translate(0.5 0.0822144)"/>
</clipPath>
</defs>
</svg>
