<svg width="128" height="40" viewBox="0 0 128 40" fill="none" xmlns="http://www.w3.org/2000/svg">
<path d="M61.7025 24.5894H70.8756C70.9009 24.9211 70.9009 25.3033 70.9009 25.6098C70.9009 31.3228 66.7614 34.2559 62.3407 34.2559C57.026 34.2559 53.2441 30.4298 53.2441 25.0996C53.2441 19.922 57.026 15.9427 62.3407 15.9427C65.6627 15.9427 68.7035 17.677 70.1857 20.8907L68.0901 21.5536C66.9402 19.3854 64.7681 18.1102 62.3407 18.1102C58.4571 18.1102 55.6715 20.967 55.6715 25.099C55.6715 29.231 58.4565 32.0872 62.3407 32.0872C65.5856 32.0872 68.3965 30.2508 68.7288 26.7564H61.702V24.5894H61.7025Z" fill="black"/>
<path d="M73.7129 20.7634H75.8591V22.294C76.2167 21.1973 77.3413 20.5344 78.8999 20.5344C79.334 20.5344 79.9222 20.5855 80.1263 20.6618V22.7278C79.794 22.6004 79.3593 22.5493 78.9252 22.5493C76.9319 22.5493 75.8591 23.6208 75.8591 25.4825V34.027H73.7129V20.7634Z" fill="black"/>
<path d="M88.3549 20.5341C92.4944 20.5341 95.4076 23.4162 95.4076 27.3697C95.4076 31.3742 92.5202 34.2563 88.3296 34.2563C84.2412 34.2563 81.3027 31.3742 81.3027 27.3697C81.3022 23.4162 84.1642 20.5341 88.3549 20.5341ZM88.329 32.2414C91.191 32.2414 93.1584 30.2517 93.1584 27.3697C93.1584 24.5129 91.0887 22.5491 88.329 22.5491C85.5693 22.5491 83.5507 24.4876 83.5507 27.3697C83.5507 30.2265 85.5181 32.2414 88.329 32.2414Z" fill="black"/>
<path d="M107.927 31.9096C107.237 33.338 105.551 34.2562 103.609 34.2562C100.006 34.2562 98.1406 32.4451 98.1406 28.3647V20.7636H100.287V28.0583C100.287 30.3286 101.054 32.2413 104.043 32.2413C106.368 32.2413 107.927 30.7877 107.927 28.3137V20.7636H110.073V34.0267H107.927V31.9096H107.927Z" fill="black"/>
<path d="M116.052 32.0118V39.128H113.906V20.7637H116.052V23.1356C116.947 21.5798 118.633 20.5341 121.087 20.5341C124.715 20.5341 127.5 23.1103 127.5 27.2934C127.5 31.4253 124.791 34.2563 120.908 34.2563C118.506 34.2563 116.998 33.4144 116.052 32.0118ZM125.251 27.3444C125.251 24.3861 123.335 22.5496 120.652 22.5496C117.841 22.5496 116.052 24.3092 116.052 27.1918V27.6767C116.052 30.7631 118.148 32.242 120.728 32.242C123.437 32.2414 125.251 30.3286 125.251 27.3444Z" fill="black"/>
<path d="M31.9281 34.0269L28.2227 27.8795L24.5943 34.0269H20.2501L25.831 24.7679L20.1426 16.1717H24.6811L28.325 21.9111L31.8005 16.1717H36.1447L30.5483 25.0485L36.2982 34.0269H31.9281Z" fill="black"/>
<path d="M50.4186 27.9569C50.4186 31.8851 47.4542 34.3339 43.57 34.3339C40.1457 34.3339 37.263 32.4464 36.9824 28.3397H40.6879C40.9431 30.125 42.3747 30.8906 43.9334 30.8906C45.8755 30.8906 46.7137 29.5896 46.7137 27.9064C46.7137 26.1463 45.4104 25.0496 43.5959 25.0496C42.0884 25.0496 41.0915 25.7641 40.6315 26.5291H37.0899L38.314 16.1733H49.9627L49.574 19.6425H41.2409L40.9098 23.0691C40.9098 23.0691 41.7848 22.0402 44.4376 22.0402C47.6331 22.039 50.4186 24.1802 50.4186 27.9569Z" fill="black"/>
<path d="M37.4216 13.9488C35.4473 6.26848 29.1857 0.872253 16.1899 0.872253H0.5L2.63013 15.248C4.23246 28.2195 9.20275 32.3928 17.9981 33.9297C18.0389 33.936 18.3177 33.9756 18.3212 33.6502C18.3223 33.5331 18.2482 33.4321 18.1464 33.3885C12.201 30.8898 11.5226 22.6959 10.2526 14.4733L9.27002 7.9207H18.2269C26.4847 7.9207 32.8607 7.79042 36.8967 14.1537C36.9565 14.2432 37.0502 14.3092 37.1612 14.3092C37.317 14.3092 37.4331 14.1829 37.4331 14.0274C37.4331 13.9993 37.4291 13.9729 37.4216 13.9488Z" fill="#5FAF2D"/>
</svg>
