<svg width="13" height="12" viewBox="0 0 13 12" fill="none" xmlns="http://www.w3.org/2000/svg">
<path d="M12.4586 5.40008H1.6526L5.79039 1.03453C6.00706 0.805937 6.01545 0.426141 5.80908 0.186144C5.60297 -0.053553 5.2601 -0.063153 5.04316 0.165444L0.317661 5.15138C0.113182 5.37818 0.000244141 5.67938 0.000244141 6.00007C0.000244141 6.32047 0.113182 6.62197 0.32714 6.85866L5.04343 11.8344C5.14824 11.9451 5.28258 12 5.41691 12C5.55991 12 5.70291 11.9376 5.80935 11.8137C6.01572 11.5737 6.00733 11.1942 5.79066 10.9656L1.63554 6.60007H12.4586C12.7576 6.60007 13.0002 6.33127 13.0002 6.00007C13.0002 5.66888 12.7576 5.40008 12.4586 5.40008Z" fill="#C7C7C7"/>
</svg>
