<svg width="13" height="12" viewBox="0 0 13 12" fill="none" xmlns="http://www.w3.org/2000/svg">
<path d="M0.541422 5.40008H11.3474L7.20961 1.03453C6.99294 0.805937 6.98455 0.426141 7.19092 0.186144C7.39703 -0.053553 7.7399 -0.063153 7.95684 0.165444L12.6823 5.15138C12.8868 5.37818 12.9998 5.67938 12.9998 6.00007C12.9998 6.32047 12.8868 6.62197 12.6729 6.85866L7.95657 11.8344C7.85176 11.9451 7.71742 12 7.58309 12C7.44009 12 7.29709 11.9376 7.19065 11.8137C6.98428 11.5737 6.99267 11.1942 7.20934 10.9656L11.3645 6.60007H0.541422C0.242422 6.60007 -0.000244141 6.33127 -0.000244141 6.00007C-0.000244141 5.66888 0.242422 5.40008 0.541422 5.40008Z" fill="#C7C7C7"/>
</svg>
