<svg width="19" height="19" viewBox="0 0 19 19" fill="none" xmlns="http://www.w3.org/2000/svg">
<path d="M18.7678 17.6486L13.3648 12.2455C14.4113 10.9527 15.0415 9.31 15.0415 7.52085C15.0415 3.3741 11.6674 0 7.52073 0C3.37402 0 0 3.37406 0 7.52081C0 11.6676 3.37406 15.0417 7.52076 15.0417C9.3099 15.0417 10.9526 14.4115 12.2454 13.3649L17.6484 18.768C17.8028 18.9224 18.0055 19 18.2081 19C18.4108 19 18.6135 18.9224 18.7679 18.768C19.0774 18.4585 19.0774 17.9582 18.7678 17.6486ZM7.52076 13.4583C4.24645 13.4583 1.58333 10.7952 1.58333 7.52081C1.58333 4.24646 4.24645 1.58331 7.52076 1.58331C10.7951 1.58331 13.4582 4.24646 13.4582 7.52081C13.4582 10.7952 10.795 13.4583 7.52076 13.4583Z" fill="#C4C4C4"/>
</svg>
