<svg width="99" height="99" viewBox="0 0 99 99" fill="none" xmlns="http://www.w3.org/2000/svg">
<g clip-path="url(#clip0)" filter="url(#filter0_d)">
<path d="M65.2874 7.71216L25.4722 5.04905C24.1743 4.96307 23.0486 5.94727 22.9617 7.24479L22.6502 11.9019H17.3584C16.058 11.9019 15 12.9599 15 14.2603V71.5985C15 72.8988 16.058 73.9569 17.3584 73.9569H47.8344C48.0986 73.9569 48.3603 73.8489 48.5476 73.6624L53.1482 69.0821C53.195 69.0921 53.2427 69.1001 53.2918 69.1033L61.1462 69.6286C62.3998 69.7114 63.5726 68.6917 63.6567 67.4329L67.4831 10.2228C67.5692 8.93879 66.5713 7.798 65.2874 7.71216ZM48.8452 70.4997V63.4784C48.8452 63.2927 48.9964 63.1415 49.1821 63.1415H56.1764L48.8452 70.4997ZM61.6397 67.2981C61.6068 67.5016 61.4873 67.6062 61.2812 67.6117L55.0443 67.1945L59.3233 62.9344C59.5139 62.7448 59.621 62.487 59.621 62.2181V14.2604C59.621 12.9601 58.563 11.902 57.2626 11.902H46.7519C45.445 11.902 45.445 13.9235 46.7519 13.9235H57.2626C57.4485 13.9235 57.5996 14.0747 57.5996 14.2604V61.12H49.1821C47.8817 61.12 46.8237 62.1781 46.8237 63.4784V71.9354H17.3584C17.1727 71.9354 17.0215 71.7842 17.0215 71.5985V14.2604C17.0215 14.0747 17.1727 13.9235 17.3584 13.9235H41.3693C42.6761 13.9235 42.6761 11.902 41.3693 11.902H24.6762L24.9786 7.37983C25.0115 7.17619 25.131 7.07175 25.3372 7.06623L65.1524 9.72919C65.356 9.76208 65.4606 9.88161 65.4661 10.0878L61.6397 67.2981Z" fill="#0C83F1"/>
<path d="M51.0939 36.9458H23.5272C22.969 36.9458 22.5164 37.3983 22.5164 37.9565C22.5164 38.5147 22.969 38.9673 23.5272 38.9673H51.0939C51.6522 38.9673 52.1046 38.5147 52.1046 37.9565C52.1046 37.3983 51.6522 36.9458 51.0939 36.9458Z" fill="#0C83F1"/>
<path d="M51.0939 43.9921H23.5272C22.969 43.9921 22.5164 44.4446 22.5164 45.0028C22.5164 45.561 22.969 46.0135 23.5272 46.0135H51.0939C51.6522 46.0135 52.1046 45.561 52.1046 45.0028C52.1046 44.4446 51.6522 43.9921 51.0939 43.9921Z" fill="#0C83F1"/>
<path d="M22.5164 30.9104C22.5164 31.4686 22.969 31.9211 23.5272 31.9211H51.0939C51.6522 31.9211 52.1046 31.4686 52.1046 30.9104C52.1046 30.3522 51.6522 29.8997 51.0939 29.8997H23.5272C22.969 29.8997 22.5164 30.3522 22.5164 30.9104Z" fill="#0C83F1"/>
<path d="M27.3724 23.8641C27.3724 24.4223 27.825 24.8749 28.3832 24.8749H46.2379C46.7961 24.8749 47.2486 24.4223 47.2486 23.8641C47.2486 23.3059 46.7961 22.8534 46.2379 22.8534H28.3832C27.825 22.8534 27.3724 23.3059 27.3724 23.8641Z" fill="#0C83F1"/>
<path d="M41.2463 64.1335C39.4284 64.1383 37.6106 64.1422 35.7927 64.1451C35.1817 64.146 34.5708 64.1468 33.9599 64.1472C32.8528 64.148 32.1069 63.9258 31.8589 62.7081C31.6492 61.6785 30.1927 61.8169 29.9097 62.7081C29.2102 64.9097 28.0534 64.0471 27.4054 62.5662C26.759 61.0887 26.5932 59.4352 26.3109 57.8628C26.1033 56.7075 24.356 57.0313 24.3255 58.1316C24.2853 59.5804 24.15 61.0063 23.7823 62.4115C23.4029 63.8613 22.8343 65.2546 22.2699 66.6399C21.7779 67.8475 23.7344 68.367 24.2192 67.1773C24.7193 65.9499 25.2201 64.7157 25.5928 63.4424C26.2855 65.1081 27.7186 66.9921 29.7607 65.8818C30.1406 65.6752 30.4955 65.3815 30.8069 65.0391C31.8689 66.2663 33.4495 66.1695 34.9286 66.1678C37.0346 66.1651 39.1406 66.1605 41.2465 66.155C42.5469 66.1516 42.5493 64.1301 41.2463 64.1335Z" fill="#0C83F1"/>
<path d="M83.1822 38.2116C82.657 37.689 81.935 37.4209 81.2018 37.4011L80.438 37.4049V35.9603C80.438 35.0805 79.9154 34.1508 79.1667 33.6879V31.6532C79.1667 27.4662 72.6479 27.4844 72.6479 31.6729V33.7079C71.8852 34.1793 71.3736 35.0206 71.3736 35.9789V37.4589C68.0091 37.688 67.9995 42.8152 71.3774 43.0156C71.399 47.5403 71.3979 51.991 71.3736 56.5915C71.367 57.8602 73.3883 57.9346 73.3951 56.6021C73.4194 51.9977 73.4205 47.5432 73.399 43.0146L78.4138 42.9897C78.4138 42.9897 78.4073 57.9282 78.4073 64.6579C78.4073 67.9378 73.3915 67.9596 73.3915 64.6238L73.3932 62.7806C73.4721 61.4761 71.4544 61.3544 71.3754 62.6588V64.3883C71.3754 65.8708 71.8339 67.1262 72.7214 68.0094C72.8004 70.1242 73.6915 72.1707 75.1969 73.6636C75.6289 74.0921 76.2268 73.9612 76.6449 73.6391C78.1765 72.1048 79.0395 70.0821 79.0934 67.9231C79.7607 67.2586 80.4287 66.5895 80.4287 64.2985L80.4295 55.0871C82.1774 55.5842 84 54.2316 84 52.399V40.1796C84 39.4353 83.7096 38.7364 83.1822 38.2116ZM73.3951 37.4398V35.9788C73.3951 35.6798 73.6004 35.429 73.8766 35.3544L77.923 35.3344C78.0362 35.3624 78.1406 35.4159 78.2253 35.5002C78.3486 35.623 78.4165 35.7864 78.4165 35.9603V37.415L73.3951 37.4398ZM75.9113 30.432C76.5318 30.432 77.1451 31.0403 77.1451 31.6532V33.2928L74.6692 33.305V31.6729C74.6693 30.9919 75.2262 30.4353 75.9113 30.432ZM75.9099 71.3874C75.4399 70.7214 75.1001 69.9682 74.9103 69.1764C75.2232 69.2442 75.5402 69.2795 75.8573 69.2795C76.2113 69.2795 76.5652 69.2356 76.9137 69.1506C76.7286 69.9543 76.3892 70.7121 75.9099 71.3874ZM81.9785 52.399C81.9785 53.356 80.4352 53.4314 80.4352 52.4167C80.4352 52.4167 80.4369 42.8518 80.438 41.9751C80.4387 41.4096 79.9686 40.9631 79.4194 40.9631L71.5506 41.0022C70.5746 41.0022 70.5974 39.4752 71.5606 39.4704L81.2118 39.4226C81.6785 39.4624 81.934 39.7148 81.9784 40.1796V52.399H81.9785Z" fill="#0C83F1"/>
</g>
<defs>
<filter id="filter0_d" x="0" y="0" width="99" height="99" filterUnits="userSpaceOnUse" color-interpolation-filters="sRGB">
<feFlood flood-opacity="0" result="BackgroundImageFix"/>
<feColorMatrix in="SourceAlpha" type="matrix" values="0 0 0 0 0 0 0 0 0 0 0 0 0 0 0 0 0 0 127 0" result="hardAlpha"/>
<feOffset dy="10"/>
<feGaussianBlur stdDeviation="7.5"/>
<feColorMatrix type="matrix" values="0 0 0 0 0.0470588 0 0 0 0 0.513726 0 0 0 0 0.945098 0 0 0 0.2 0"/>
<feBlend mode="normal" in2="BackgroundImageFix" result="effect1_dropShadow"/>
<feBlend mode="normal" in="SourceGraphic" in2="effect1_dropShadow" result="shape"/>
</filter>
<clipPath id="clip0">
<rect width="69" height="69" fill="white" transform="translate(15 5)"/>
</clipPath>
</defs>
</svg>
