<svg width="69" height="69" viewBox="0 0 69 69" fill="none" xmlns="http://www.w3.org/2000/svg">
<g clip-path="url(#clip0_407_145)">
<path d="M50.2874 2.71216L10.4722 0.0490543C9.1743 -0.0369262 8.04861 0.947267 7.96168 2.24479L7.65024 6.90189H2.3584C1.05804 6.90189 0 7.95993 0 9.26028V66.5985C0 67.8988 1.05804 68.9569 2.3584 68.9569H32.8344C33.0986 68.9569 33.3603 68.8489 33.5476 68.6624L38.1482 64.0821C38.195 64.0921 38.2427 64.1001 38.2918 64.1033L46.1462 64.6286C47.3998 64.7114 48.5726 63.6917 48.6567 62.4329L52.4831 5.22284C52.5692 3.93879 51.5713 2.798 50.2874 2.71216ZM33.8452 65.4997V58.4784C33.8452 58.2927 33.9964 58.1415 34.1821 58.1415H41.1764L33.8452 65.4997ZM46.6397 62.2981C46.6068 62.5016 46.4873 62.6062 46.2812 62.6117L40.0443 62.1945L44.3233 57.9344C44.5139 57.7448 44.621 57.487 44.621 57.2181V9.26042C44.621 7.96007 43.563 6.90202 42.2626 6.90202H31.7519C30.445 6.90202 30.445 8.92351 31.7519 8.92351H42.2626C42.4485 8.92351 42.5996 9.07471 42.5996 9.26042V56.12H34.1821C32.8817 56.12 31.8237 57.1781 31.8237 58.4784V66.9354H2.3584C2.17269 66.9354 2.02148 66.7842 2.02148 66.5985V9.26042C2.02148 9.07471 2.17269 8.92351 2.3584 8.92351H26.3693C27.6761 8.92351 27.6761 6.90202 26.3693 6.90202H9.67617L9.97859 2.37983C10.0115 2.17619 10.131 2.07175 10.3372 2.06623L50.1524 4.72919C50.356 4.76208 50.4606 4.88161 50.4661 5.08781L46.6397 62.2981Z" fill="#89D3CF"/>
<path d="M50.2874 2.71216L10.4722 0.0490543C9.1743 -0.0369262 8.04861 0.947267 7.96168 2.24479L7.65024 6.90189H2.3584C1.05804 6.90189 0 7.95993 0 9.26028V66.5985C0 67.8988 1.05804 68.9569 2.3584 68.9569H32.8344C33.0986 68.9569 33.3603 68.8489 33.5476 68.6624L38.1482 64.0821C38.195 64.0921 38.2427 64.1001 38.2918 64.1033L46.1462 64.6286C47.3998 64.7114 48.5726 63.6917 48.6567 62.4329L52.4831 5.22284C52.5692 3.93879 51.5713 2.798 50.2874 2.71216ZM33.8452 65.4997V58.4784C33.8452 58.2927 33.9964 58.1415 34.1821 58.1415H41.1764L33.8452 65.4997ZM46.6397 62.2981C46.6068 62.5016 46.4873 62.6062 46.2812 62.6117L40.0443 62.1945L44.3233 57.9344C44.5139 57.7448 44.621 57.487 44.621 57.2181V9.26042C44.621 7.96007 43.563 6.90202 42.2626 6.90202H31.7519C30.445 6.90202 30.445 8.92351 31.7519 8.92351H42.2626C42.4485 8.92351 42.5996 9.07471 42.5996 9.26042V56.12H34.1821C32.8817 56.12 31.8237 57.1781 31.8237 58.4784V66.9354H2.3584C2.17269 66.9354 2.02148 66.7842 2.02148 66.5985V9.26042C2.02148 9.07471 2.17269 8.92351 2.3584 8.92351H26.3693C27.6761 8.92351 27.6761 6.90202 26.3693 6.90202H9.67617L9.97859 2.37983C10.0115 2.17619 10.131 2.07175 10.3372 2.06623L50.1524 4.72919C50.356 4.76208 50.4606 4.88161 50.4661 5.08781L46.6397 62.2981Z" fill="url(#paint0_linear_407_145)"/>
<path d="M50.2874 2.71216L10.4722 0.0490543C9.1743 -0.0369262 8.04861 0.947267 7.96168 2.24479L7.65024 6.90189H2.3584C1.05804 6.90189 0 7.95993 0 9.26028V66.5985C0 67.8988 1.05804 68.9569 2.3584 68.9569H32.8344C33.0986 68.9569 33.3603 68.8489 33.5476 68.6624L38.1482 64.0821C38.195 64.0921 38.2427 64.1001 38.2918 64.1033L46.1462 64.6286C47.3998 64.7114 48.5726 63.6917 48.6567 62.4329L52.4831 5.22284C52.5692 3.93879 51.5713 2.798 50.2874 2.71216ZM33.8452 65.4997V58.4784C33.8452 58.2927 33.9964 58.1415 34.1821 58.1415H41.1764L33.8452 65.4997ZM46.6397 62.2981C46.6068 62.5016 46.4873 62.6062 46.2812 62.6117L40.0443 62.1945L44.3233 57.9344C44.5139 57.7448 44.621 57.487 44.621 57.2181V9.26042C44.621 7.96007 43.563 6.90202 42.2626 6.90202H31.7519C30.445 6.90202 30.445 8.92351 31.7519 8.92351H42.2626C42.4485 8.92351 42.5996 9.07471 42.5996 9.26042V56.12H34.1821C32.8817 56.12 31.8237 57.1781 31.8237 58.4784V66.9354H2.3584C2.17269 66.9354 2.02148 66.7842 2.02148 66.5985V9.26042C2.02148 9.07471 2.17269 8.92351 2.3584 8.92351H26.3693C27.6761 8.92351 27.6761 6.90202 26.3693 6.90202H9.67617L9.97859 2.37983C10.0115 2.17619 10.131 2.07175 10.3372 2.06623L50.1524 4.72919C50.356 4.76208 50.4606 4.88161 50.4661 5.08781L46.6397 62.2981Z" fill="url(#paint1_linear_407_145)"/>
<path d="M36.0939 31.9458H8.52716C7.96896 31.9458 7.51642 32.3983 7.51642 32.9565C7.51642 33.5147 7.96896 33.9673 8.52716 33.9673H36.0939C36.6522 33.9673 37.1046 33.5147 37.1046 32.9565C37.1046 32.3983 36.6522 31.9458 36.0939 31.9458Z" fill="#89D3CF"/>
<path d="M36.0939 31.9458H8.52716C7.96896 31.9458 7.51642 32.3983 7.51642 32.9565C7.51642 33.5147 7.96896 33.9673 8.52716 33.9673H36.0939C36.6522 33.9673 37.1046 33.5147 37.1046 32.9565C37.1046 32.3983 36.6522 31.9458 36.0939 31.9458Z" fill="url(#paint2_linear_407_145)"/>
<path d="M36.0939 31.9458H8.52716C7.96896 31.9458 7.51642 32.3983 7.51642 32.9565C7.51642 33.5147 7.96896 33.9673 8.52716 33.9673H36.0939C36.6522 33.9673 37.1046 33.5147 37.1046 32.9565C37.1046 32.3983 36.6522 31.9458 36.0939 31.9458Z" fill="url(#paint3_linear_407_145)"/>
<path d="M36.0939 38.9921H8.52716C7.96896 38.9921 7.51642 39.4446 7.51642 40.0028C7.51642 40.561 7.96896 41.0135 8.52716 41.0135H36.0939C36.6522 41.0135 37.1046 40.561 37.1046 40.0028C37.1046 39.4446 36.6522 38.9921 36.0939 38.9921Z" fill="#89D3CF"/>
<path d="M36.0939 38.9921H8.52716C7.96896 38.9921 7.51642 39.4446 7.51642 40.0028C7.51642 40.561 7.96896 41.0135 8.52716 41.0135H36.0939C36.6522 41.0135 37.1046 40.561 37.1046 40.0028C37.1046 39.4446 36.6522 38.9921 36.0939 38.9921Z" fill="url(#paint4_linear_407_145)"/>
<path d="M36.0939 38.9921H8.52716C7.96896 38.9921 7.51642 39.4446 7.51642 40.0028C7.51642 40.561 7.96896 41.0135 8.52716 41.0135H36.0939C36.6522 41.0135 37.1046 40.561 37.1046 40.0028C37.1046 39.4446 36.6522 38.9921 36.0939 38.9921Z" fill="url(#paint5_linear_407_145)"/>
<path d="M7.51642 25.9104C7.51642 26.4686 7.96896 26.9211 8.52716 26.9211H36.0939C36.6522 26.9211 37.1046 26.4686 37.1046 25.9104C37.1046 25.3522 36.6522 24.8997 36.0939 24.8997H8.52716C7.96896 24.8997 7.51642 25.3522 7.51642 25.9104Z" fill="#89D3CF"/>
<path d="M7.51642 25.9104C7.51642 26.4686 7.96896 26.9211 8.52716 26.9211H36.0939C36.6522 26.9211 37.1046 26.4686 37.1046 25.9104C37.1046 25.3522 36.6522 24.8997 36.0939 24.8997H8.52716C7.96896 24.8997 7.51642 25.3522 7.51642 25.9104Z" fill="url(#paint6_linear_407_145)"/>
<path d="M7.51642 25.9104C7.51642 26.4686 7.96896 26.9211 8.52716 26.9211H36.0939C36.6522 26.9211 37.1046 26.4686 37.1046 25.9104C37.1046 25.3522 36.6522 24.8997 36.0939 24.8997H8.52716C7.96896 24.8997 7.51642 25.3522 7.51642 25.9104Z" fill="url(#paint7_linear_407_145)"/>
<path d="M12.3724 18.8641C12.3724 19.4223 12.825 19.8749 13.3832 19.8749H31.2379C31.7961 19.8749 32.2486 19.4223 32.2486 18.8641C32.2486 18.3059 31.7961 17.8534 31.2379 17.8534H13.3832C12.825 17.8534 12.3724 18.3059 12.3724 18.8641Z" fill="#89D3CF"/>
<path d="M12.3724 18.8641C12.3724 19.4223 12.825 19.8749 13.3832 19.8749H31.2379C31.7961 19.8749 32.2486 19.4223 32.2486 18.8641C32.2486 18.3059 31.7961 17.8534 31.2379 17.8534H13.3832C12.825 17.8534 12.3724 18.3059 12.3724 18.8641Z" fill="url(#paint8_linear_407_145)"/>
<path d="M12.3724 18.8641C12.3724 19.4223 12.825 19.8749 13.3832 19.8749H31.2379C31.7961 19.8749 32.2486 19.4223 32.2486 18.8641C32.2486 18.3059 31.7961 17.8534 31.2379 17.8534H13.3832C12.825 17.8534 12.3724 18.3059 12.3724 18.8641Z" fill="url(#paint9_linear_407_145)"/>
<path d="M26.2463 59.1335C24.4285 59.1383 22.6106 59.1422 20.7927 59.1451C20.1817 59.146 19.5708 59.1468 18.9599 59.1472C17.8528 59.148 17.1069 58.9258 16.8589 57.7081C16.6492 56.6785 15.1927 56.8169 14.9097 57.7081C14.2103 59.9097 13.0534 59.0471 12.4055 57.5662C11.759 56.0887 11.5932 54.4352 11.3109 52.8628C11.1034 51.7075 9.356 52.0313 9.32554 53.1316C9.28538 54.5804 9.15007 56.0063 8.7823 57.4115C8.40293 58.8613 7.83436 60.2546 7.26996 61.6399C6.77793 62.8475 8.73446 63.367 9.21921 62.1773C9.71932 60.9499 10.2201 59.7157 10.5929 58.4424C11.2856 60.1081 12.7187 61.9921 14.7608 60.8818C15.1407 60.6752 15.4955 60.3815 15.807 60.0391C16.8689 61.2663 18.4496 61.1695 19.9286 61.1678C22.0346 61.1651 24.1406 61.1605 26.2466 61.155C27.5469 61.1516 27.5494 59.1301 26.2463 59.1335Z" fill="#89D3CF"/>
<path d="M26.2463 59.1335C24.4285 59.1383 22.6106 59.1422 20.7927 59.1451C20.1817 59.146 19.5708 59.1468 18.9599 59.1472C17.8528 59.148 17.1069 58.9258 16.8589 57.7081C16.6492 56.6785 15.1927 56.8169 14.9097 57.7081C14.2103 59.9097 13.0534 59.0471 12.4055 57.5662C11.759 56.0887 11.5932 54.4352 11.3109 52.8628C11.1034 51.7075 9.356 52.0313 9.32554 53.1316C9.28538 54.5804 9.15007 56.0063 8.7823 57.4115C8.40293 58.8613 7.83436 60.2546 7.26996 61.6399C6.77793 62.8475 8.73446 63.367 9.21921 62.1773C9.71932 60.9499 10.2201 59.7157 10.5929 58.4424C11.2856 60.1081 12.7187 61.9921 14.7608 60.8818C15.1407 60.6752 15.4955 60.3815 15.807 60.0391C16.8689 61.2663 18.4496 61.1695 19.9286 61.1678C22.0346 61.1651 24.1406 61.1605 26.2466 61.155C27.5469 61.1516 27.5494 59.1301 26.2463 59.1335Z" fill="url(#paint10_linear_407_145)"/>
<path d="M26.2463 59.1335C24.4285 59.1383 22.6106 59.1422 20.7927 59.1451C20.1817 59.146 19.5708 59.1468 18.9599 59.1472C17.8528 59.148 17.1069 58.9258 16.8589 57.7081C16.6492 56.6785 15.1927 56.8169 14.9097 57.7081C14.2103 59.9097 13.0534 59.0471 12.4055 57.5662C11.759 56.0887 11.5932 54.4352 11.3109 52.8628C11.1034 51.7075 9.356 52.0313 9.32554 53.1316C9.28538 54.5804 9.15007 56.0063 8.7823 57.4115C8.40293 58.8613 7.83436 60.2546 7.26996 61.6399C6.77793 62.8475 8.73446 63.367 9.21921 62.1773C9.71932 60.9499 10.2201 59.7157 10.5929 58.4424C11.2856 60.1081 12.7187 61.9921 14.7608 60.8818C15.1407 60.6752 15.4955 60.3815 15.807 60.0391C16.8689 61.2663 18.4496 61.1695 19.9286 61.1678C22.0346 61.1651 24.1406 61.1605 26.2466 61.155C27.5469 61.1516 27.5494 59.1301 26.2463 59.1335Z" fill="url(#paint11_linear_407_145)"/>
<path d="M68.1822 33.2116C67.657 32.689 66.935 32.4209 66.2018 32.4011L65.438 32.4049V30.9603C65.438 30.0805 64.9154 29.1508 64.1667 28.6879V26.6532C64.1667 22.4662 57.6479 22.4844 57.6479 26.6729V28.7079C56.8852 29.1793 56.3736 30.0206 56.3736 30.9789V32.4589C53.0091 32.688 52.9995 37.8152 56.3774 38.0156C56.399 42.5403 56.3979 46.991 56.3736 51.5915C56.367 52.8602 58.3883 52.9346 58.3951 51.6021C58.4194 46.9977 58.4205 42.5432 58.399 38.0146L63.4138 37.9897C63.4138 37.9897 63.4073 52.9282 63.4073 59.6579C63.4073 62.9378 58.3915 62.9596 58.3915 59.6238L58.3932 57.7806C58.4721 56.4761 56.4544 56.3544 56.3754 57.6588V59.3883C56.3754 60.8708 56.8339 62.1262 57.7214 63.0094C57.8004 65.1242 58.6915 67.1707 60.1969 68.6636C60.6289 69.0921 61.2268 68.9612 61.6449 68.6391C63.1765 67.1048 64.0395 65.0821 64.0934 62.9231C64.7607 62.2586 65.4287 61.5895 65.4287 59.2985L65.4295 50.0871C67.1774 50.5842 69 49.2316 69 47.399V35.1796C69 34.4353 68.7096 33.7364 68.1822 33.2116ZM58.3951 32.4398V30.9788C58.3951 30.6798 58.6004 30.429 58.8766 30.3544L62.923 30.3344C63.0362 30.3624 63.1406 30.4159 63.2253 30.5002C63.3486 30.623 63.4165 30.7864 63.4165 30.9603V32.415L58.3951 32.4398ZM60.9113 25.432C61.5318 25.432 62.1451 26.0403 62.1451 26.6532V28.2928L59.6692 28.305V26.6729C59.6693 25.9919 60.2262 25.4353 60.9113 25.432ZM60.9099 66.3874C60.4399 65.7214 60.1001 64.9682 59.9103 64.1764C60.2232 64.2442 60.5402 64.2795 60.8573 64.2795C61.2113 64.2795 61.5652 64.2356 61.9137 64.1506C61.7286 64.9543 61.3892 65.7121 60.9099 66.3874ZM66.9785 47.399C66.9785 48.356 65.4352 48.4314 65.4352 47.4167C65.4352 47.4167 65.4369 37.8518 65.438 36.9751C65.4387 36.4096 64.9686 35.9631 64.4194 35.9631L56.5506 36.0022C55.5746 36.0022 55.5974 34.4752 56.5606 34.4704L66.2118 34.4226C66.6785 34.4624 66.934 34.7148 66.9784 35.1796V47.399H66.9785Z" fill="#89D3CF"/>
<path d="M68.1822 33.2116C67.657 32.689 66.935 32.4209 66.2018 32.4011L65.438 32.4049V30.9603C65.438 30.0805 64.9154 29.1508 64.1667 28.6879V26.6532C64.1667 22.4662 57.6479 22.4844 57.6479 26.6729V28.7079C56.8852 29.1793 56.3736 30.0206 56.3736 30.9789V32.4589C53.0091 32.688 52.9995 37.8152 56.3774 38.0156C56.399 42.5403 56.3979 46.991 56.3736 51.5915C56.367 52.8602 58.3883 52.9346 58.3951 51.6021C58.4194 46.9977 58.4205 42.5432 58.399 38.0146L63.4138 37.9897C63.4138 37.9897 63.4073 52.9282 63.4073 59.6579C63.4073 62.9378 58.3915 62.9596 58.3915 59.6238L58.3932 57.7806C58.4721 56.4761 56.4544 56.3544 56.3754 57.6588V59.3883C56.3754 60.8708 56.8339 62.1262 57.7214 63.0094C57.8004 65.1242 58.6915 67.1707 60.1969 68.6636C60.6289 69.0921 61.2268 68.9612 61.6449 68.6391C63.1765 67.1048 64.0395 65.0821 64.0934 62.9231C64.7607 62.2586 65.4287 61.5895 65.4287 59.2985L65.4295 50.0871C67.1774 50.5842 69 49.2316 69 47.399V35.1796C69 34.4353 68.7096 33.7364 68.1822 33.2116ZM58.3951 32.4398V30.9788C58.3951 30.6798 58.6004 30.429 58.8766 30.3544L62.923 30.3344C63.0362 30.3624 63.1406 30.4159 63.2253 30.5002C63.3486 30.623 63.4165 30.7864 63.4165 30.9603V32.415L58.3951 32.4398ZM60.9113 25.432C61.5318 25.432 62.1451 26.0403 62.1451 26.6532V28.2928L59.6692 28.305V26.6729C59.6693 25.9919 60.2262 25.4353 60.9113 25.432ZM60.9099 66.3874C60.4399 65.7214 60.1001 64.9682 59.9103 64.1764C60.2232 64.2442 60.5402 64.2795 60.8573 64.2795C61.2113 64.2795 61.5652 64.2356 61.9137 64.1506C61.7286 64.9543 61.3892 65.7121 60.9099 66.3874ZM66.9785 47.399C66.9785 48.356 65.4352 48.4314 65.4352 47.4167C65.4352 47.4167 65.4369 37.8518 65.438 36.9751C65.4387 36.4096 64.9686 35.9631 64.4194 35.9631L56.5506 36.0022C55.5746 36.0022 55.5974 34.4752 56.5606 34.4704L66.2118 34.4226C66.6785 34.4624 66.934 34.7148 66.9784 35.1796V47.399H66.9785Z" fill="url(#paint12_linear_407_145)"/>
<path d="M68.1822 33.2116C67.657 32.689 66.935 32.4209 66.2018 32.4011L65.438 32.4049V30.9603C65.438 30.0805 64.9154 29.1508 64.1667 28.6879V26.6532C64.1667 22.4662 57.6479 22.4844 57.6479 26.6729V28.7079C56.8852 29.1793 56.3736 30.0206 56.3736 30.9789V32.4589C53.0091 32.688 52.9995 37.8152 56.3774 38.0156C56.399 42.5403 56.3979 46.991 56.3736 51.5915C56.367 52.8602 58.3883 52.9346 58.3951 51.6021C58.4194 46.9977 58.4205 42.5432 58.399 38.0146L63.4138 37.9897C63.4138 37.9897 63.4073 52.9282 63.4073 59.6579C63.4073 62.9378 58.3915 62.9596 58.3915 59.6238L58.3932 57.7806C58.4721 56.4761 56.4544 56.3544 56.3754 57.6588V59.3883C56.3754 60.8708 56.8339 62.1262 57.7214 63.0094C57.8004 65.1242 58.6915 67.1707 60.1969 68.6636C60.6289 69.0921 61.2268 68.9612 61.6449 68.6391C63.1765 67.1048 64.0395 65.0821 64.0934 62.9231C64.7607 62.2586 65.4287 61.5895 65.4287 59.2985L65.4295 50.0871C67.1774 50.5842 69 49.2316 69 47.399V35.1796C69 34.4353 68.7096 33.7364 68.1822 33.2116ZM58.3951 32.4398V30.9788C58.3951 30.6798 58.6004 30.429 58.8766 30.3544L62.923 30.3344C63.0362 30.3624 63.1406 30.4159 63.2253 30.5002C63.3486 30.623 63.4165 30.7864 63.4165 30.9603V32.415L58.3951 32.4398ZM60.9113 25.432C61.5318 25.432 62.1451 26.0403 62.1451 26.6532V28.2928L59.6692 28.305V26.6729C59.6693 25.9919 60.2262 25.4353 60.9113 25.432ZM60.9099 66.3874C60.4399 65.7214 60.1001 64.9682 59.9103 64.1764C60.2232 64.2442 60.5402 64.2795 60.8573 64.2795C61.2113 64.2795 61.5652 64.2356 61.9137 64.1506C61.7286 64.9543 61.3892 65.7121 60.9099 66.3874ZM66.9785 47.399C66.9785 48.356 65.4352 48.4314 65.4352 47.4167C65.4352 47.4167 65.4369 37.8518 65.438 36.9751C65.4387 36.4096 64.9686 35.9631 64.4194 35.9631L56.5506 36.0022C55.5746 36.0022 55.5974 34.4752 56.5606 34.4704L66.2118 34.4226C66.6785 34.4624 66.934 34.7148 66.9784 35.1796V47.399H66.9785Z" fill="url(#paint13_linear_407_145)"/>
</g>
<defs>
<linearGradient id="paint0_linear_407_145" x1="30.4232" y1="23.1789" x2="-41.9697" y2="40.3958" gradientUnits="userSpaceOnUse">
<stop stop-color="#66ABC6"/>
<stop offset="1" stop-color="white" stop-opacity="0"/>
</linearGradient>
<linearGradient id="paint1_linear_407_145" x1="44.9661" y1="-7.33972" x2="-11.0232" y2="4.21757" gradientUnits="userSpaceOnUse">
<stop stop-color="#3561A6"/>
<stop offset="0.630208" stop-color="white" stop-opacity="0"/>
</linearGradient>
<linearGradient id="paint2_linear_407_145" x1="24.6663" y1="32.6244" x2="22.6964" y2="41.6275" gradientUnits="userSpaceOnUse">
<stop stop-color="#66ABC6"/>
<stop offset="1" stop-color="white" stop-opacity="0"/>
</linearGradient>
<linearGradient id="paint3_linear_407_145" x1="32.8643" y1="31.7292" x2="30.898" y2="39.5291" gradientUnits="userSpaceOnUse">
<stop stop-color="#3561A6"/>
<stop offset="0.630208" stop-color="white" stop-opacity="0"/>
</linearGradient>
<linearGradient id="paint4_linear_407_145" x1="24.6663" y1="39.6707" x2="22.6964" y2="48.6738" gradientUnits="userSpaceOnUse">
<stop stop-color="#66ABC6"/>
<stop offset="1" stop-color="white" stop-opacity="0"/>
</linearGradient>
<linearGradient id="paint5_linear_407_145" x1="32.8643" y1="38.7755" x2="30.898" y2="46.5753" gradientUnits="userSpaceOnUse">
<stop stop-color="#3561A6"/>
<stop offset="0.630208" stop-color="white" stop-opacity="0"/>
</linearGradient>
<linearGradient id="paint6_linear_407_145" x1="24.6663" y1="25.5783" x2="22.6964" y2="34.5814" gradientUnits="userSpaceOnUse">
<stop stop-color="#66ABC6"/>
<stop offset="1" stop-color="white" stop-opacity="0"/>
</linearGradient>
<linearGradient id="paint7_linear_407_145" x1="32.8643" y1="24.6831" x2="30.898" y2="32.4829" gradientUnits="userSpaceOnUse">
<stop stop-color="#3561A6"/>
<stop offset="0.630208" stop-color="white" stop-opacity="0"/>
</linearGradient>
<linearGradient id="paint8_linear_407_145" x1="23.893" y1="18.532" x2="21.1149" y2="27.0612" gradientUnits="userSpaceOnUse">
<stop stop-color="#66ABC6"/>
<stop offset="1" stop-color="white" stop-opacity="0"/>
</linearGradient>
<linearGradient id="paint9_linear_407_145" x1="29.4001" y1="17.6368" x2="26.6713" y2="24.9083" gradientUnits="userSpaceOnUse">
<stop stop-color="#3561A6"/>
<stop offset="0.630208" stop-color="white" stop-opacity="0"/>
</linearGradient>
<linearGradient id="paint10_linear_407_145" x1="18.8018" y1="55.7335" x2="-2.96782" y2="68.4436" gradientUnits="userSpaceOnUse">
<stop stop-color="#66ABC6"/>
<stop offset="1" stop-color="white" stop-opacity="0"/>
</linearGradient>
<linearGradient id="paint11_linear_407_145" x1="24.352" y1="50.9891" x2="6.62585" y2="59.9718" gradientUnits="userSpaceOnUse">
<stop stop-color="#3561A6"/>
<stop offset="0.630208" stop-color="white" stop-opacity="0"/>
</linearGradient>
<linearGradient id="paint12_linear_407_145" x1="62.63" y1="38.7682" x2="40.7859" y2="41.044" gradientUnits="userSpaceOnUse">
<stop stop-color="#66ABC6"/>
<stop offset="1" stop-color="white" stop-opacity="0"/>
</linearGradient>
<linearGradient id="paint13_linear_407_145" x1="66.8284" y1="18.6565" x2="50.1128" y2="20.168" gradientUnits="userSpaceOnUse">
<stop stop-color="#3561A6"/>
<stop offset="0.630208" stop-color="white" stop-opacity="0"/>
</linearGradient>
<clipPath id="clip0_407_145">
<rect width="69" height="69" fill="white"/>
</clipPath>
</defs>
</svg>
