<svg width="69" height="69" viewBox="0 0 69 69" fill="none" xmlns="http://www.w3.org/2000/svg">
<g clip-path="url(#clip0_407_109)">
<path d="M34.477 69C34.2499 69 34.0199 68.9454 33.8129 68.8362L0.773375 51.5862C0.299 51.3389 0 50.8473 0 50.3125V17.9688C0 17.4714 0.25875 17.0085 0.681375 16.7469C1.104 16.4853 1.63587 16.4623 2.07862 16.6837L35.1181 33.2149C35.604 33.4593 35.9116 33.9567 35.9116 34.5V67.5625C35.9116 68.0657 35.65 68.5314 35.2188 68.793C34.9945 68.931 34.7357 69 34.477 69ZM2.875 49.4414L33.0395 65.1907V35.3884L2.875 20.2947V49.4414Z" fill="#89D3CF"/>
<path d="M34.477 69C34.2499 69 34.0199 68.9454 33.8129 68.8362L0.773375 51.5862C0.299 51.3389 0 50.8473 0 50.3125V17.9688C0 17.4714 0.25875 17.0085 0.681375 16.7469C1.104 16.4853 1.63587 16.4623 2.07862 16.6837L35.1181 33.2149C35.604 33.4593 35.9116 33.9567 35.9116 34.5V67.5625C35.9116 68.0657 35.65 68.5314 35.2188 68.793C34.9945 68.931 34.7357 69 34.477 69ZM2.875 49.4414L33.0395 65.1907V35.3884L2.875 20.2947V49.4414Z" fill="url(#paint0_linear_407_109)"/>
<path d="M34.477 69C34.2499 69 34.0199 68.9454 33.8129 68.8362L0.773375 51.5862C0.299 51.3389 0 50.8473 0 50.3125V17.9688C0 17.4714 0.25875 17.0085 0.681375 16.7469C1.104 16.4853 1.63587 16.4623 2.07862 16.6837L35.1181 33.2149C35.604 33.4593 35.9116 33.9567 35.9116 34.5V67.5625C35.9116 68.0657 35.65 68.5314 35.2188 68.793C34.9945 68.931 34.7357 69 34.477 69ZM2.875 49.4414L33.0395 65.1907V35.3884L2.875 20.2947V49.4414Z" fill="url(#paint1_linear_407_109)"/>
<path d="M34.523 69C34.2643 69 34.0055 68.931 33.7784 68.793C33.35 68.5313 33.0855 68.0656 33.0855 67.5625V34.5C33.0855 33.9566 33.3931 33.4592 33.879 33.2149L66.9185 16.6836C67.3584 16.4594 67.8932 16.4823 68.3158 16.7468C68.7413 17.0085 69 17.4714 69 17.9687V50.3125C69 50.8472 68.701 51.3389 68.2267 51.5861L35.1871 68.8361C34.9801 68.9454 34.7501 69 34.523 69V69ZM35.9605 35.3884V65.1906L66.125 49.4414V20.2946L35.9605 35.3884ZM67.5625 50.3125H67.5913H67.5625Z" fill="#89D3CF"/>
<path d="M34.523 69C34.2643 69 34.0055 68.931 33.7784 68.793C33.35 68.5313 33.0855 68.0656 33.0855 67.5625V34.5C33.0855 33.9566 33.3931 33.4592 33.879 33.2149L66.9185 16.6836C67.3584 16.4594 67.8932 16.4823 68.3158 16.7468C68.7413 17.0085 69 17.4714 69 17.9687V50.3125C69 50.8472 68.701 51.3389 68.2267 51.5861L35.1871 68.8361C34.9801 68.9454 34.7501 69 34.523 69V69ZM35.9605 35.3884V65.1906L66.125 49.4414V20.2946L35.9605 35.3884ZM67.5625 50.3125H67.5913H67.5625Z" fill="url(#paint2_linear_407_109)"/>
<path d="M34.523 69C34.2643 69 34.0055 68.931 33.7784 68.793C33.35 68.5313 33.0855 68.0656 33.0855 67.5625V34.5C33.0855 33.9566 33.3931 33.4592 33.879 33.2149L66.9185 16.6836C67.3584 16.4594 67.8932 16.4823 68.3158 16.7468C68.7413 17.0085 69 17.4714 69 17.9687V50.3125C69 50.8472 68.701 51.3389 68.2267 51.5861L35.1871 68.8361C34.9801 68.9454 34.7501 69 34.523 69V69ZM35.9605 35.3884V65.1906L66.125 49.4414V20.2946L35.9605 35.3884ZM67.5625 50.3125H67.5913H67.5625Z" fill="url(#paint3_linear_407_109)"/>
<path d="M1.43725 19.4064C0.908253 19.4064 0.402253 19.116 0.149253 18.6129C-0.207247 17.9028 0.0831281 17.0403 0.793253 16.6838L33.8788 0.152524C34.2841 -0.0487256 34.7614 -0.0487256 35.1639 0.152524L68.2034 16.6838C68.9135 17.0403 69.201 17.9028 68.8474 18.6129C68.4909 19.323 67.6313 19.6077 66.9183 19.2569L34.5228 3.04477L2.08125 19.254C1.87425 19.3575 1.65575 19.4064 1.43725 19.4064V19.4064Z" fill="#89D3CF"/>
<path d="M1.43725 19.4064C0.908253 19.4064 0.402253 19.116 0.149253 18.6129C-0.207247 17.9028 0.0831281 17.0403 0.793253 16.6838L33.8788 0.152524C34.2841 -0.0487256 34.7614 -0.0487256 35.1639 0.152524L68.2034 16.6838C68.9135 17.0403 69.201 17.9028 68.8474 18.6129C68.4909 19.323 67.6313 19.6077 66.9183 19.2569L34.5228 3.04477L2.08125 19.254C1.87425 19.3575 1.65575 19.4064 1.43725 19.4064V19.4064Z" fill="url(#paint4_linear_407_109)"/>
<path d="M1.43725 19.4064C0.908253 19.4064 0.402253 19.116 0.149253 18.6129C-0.207247 17.9028 0.0831281 17.0403 0.793253 16.6838L33.8788 0.152524C34.2841 -0.0487256 34.7614 -0.0487256 35.1639 0.152524L68.2034 16.6838C68.9135 17.0403 69.201 17.9028 68.8474 18.6129C68.4909 19.323 67.6313 19.6077 66.9183 19.2569L34.5228 3.04477L2.08125 19.254C1.87425 19.3575 1.65575 19.4064 1.43725 19.4064V19.4064Z" fill="url(#paint5_linear_407_109)"/>
<path d="M51.75 43.125C50.9565 43.125 50.3125 42.481 50.3125 41.6875V26.7634L18.0665 10.6289C17.3564 10.2752 17.0689 9.40985 17.4254 8.69973C17.7819 7.9896 18.6444 7.70498 19.3545 8.05573L52.394 24.587C52.8799 24.8342 53.1875 25.3316 53.1875 25.875V41.6875C53.1875 42.481 52.5435 43.125 51.75 43.125V43.125Z" fill="#89D3CF"/>
<path d="M51.75 43.125C50.9565 43.125 50.3125 42.481 50.3125 41.6875V26.7634L18.0665 10.6289C17.3564 10.2752 17.0689 9.40985 17.4254 8.69973C17.7819 7.9896 18.6444 7.70498 19.3545 8.05573L52.394 24.587C52.8799 24.8342 53.1875 25.3316 53.1875 25.875V41.6875C53.1875 42.481 52.5435 43.125 51.75 43.125V43.125Z" fill="url(#paint6_linear_407_109)"/>
<path d="M51.75 43.125C50.9565 43.125 50.3125 42.481 50.3125 41.6875V26.7634L18.0665 10.6289C17.3564 10.2752 17.0689 9.40985 17.4254 8.69973C17.7819 7.9896 18.6444 7.70498 19.3545 8.05573L52.394 24.587C52.8799 24.8342 53.1875 25.3316 53.1875 25.875V41.6875C53.1875 42.481 52.5435 43.125 51.75 43.125V43.125Z" fill="url(#paint7_linear_407_109)"/>
</g>
<defs>
<linearGradient id="paint0_linear_407_109" x1="20.815" y1="34.1468" x2="-29.2306" y2="44.8425" gradientUnits="userSpaceOnUse">
<stop stop-color="#66ABC6"/>
<stop offset="1" stop-color="white" stop-opacity="0"/>
</linearGradient>
<linearGradient id="paint1_linear_407_109" x1="30.7651" y1="10.9112" x2="-7.84557" y2="18.0734" gradientUnits="userSpaceOnUse">
<stop stop-color="#3561A6"/>
<stop offset="0.630208" stop-color="white" stop-opacity="0"/>
</linearGradient>
<linearGradient id="paint2_linear_407_109" x1="53.9022" y1="34.1453" x2="3.85276" y2="44.8423" gradientUnits="userSpaceOnUse">
<stop stop-color="#66ABC6"/>
<stop offset="1" stop-color="white" stop-opacity="0"/>
</linearGradient>
<linearGradient id="paint3_linear_407_109" x1="63.853" y1="10.9088" x2="25.2394" y2="18.0718" gradientUnits="userSpaceOnUse">
<stop stop-color="#3561A6"/>
<stop offset="0.630208" stop-color="white" stop-opacity="0"/>
</linearGradient>
<linearGradient id="paint4_linear_407_109" x1="39.9915" y1="6.51622" x2="-5.04316" y2="56.518" gradientUnits="userSpaceOnUse">
<stop stop-color="#66ABC6"/>
<stop offset="1" stop-color="white" stop-opacity="0"/>
</linearGradient>
<linearGradient id="paint5_linear_407_109" x1="59.1098" y1="-2.07755" x2="19.3205" y2="36.2665" gradientUnits="userSpaceOnUse">
<stop stop-color="#3561A6"/>
<stop offset="0.630208" stop-color="white" stop-opacity="0"/>
</linearGradient>
<linearGradient id="paint6_linear_407_109" x1="38.0894" y1="19.7294" x2="-9.42934" y2="34.8602" gradientUnits="userSpaceOnUse">
<stop stop-color="#66ABC6"/>
<stop offset="1" stop-color="white" stop-opacity="0"/>
</linearGradient>
<linearGradient id="paint7_linear_407_109" x1="48.0405" y1="4.13227" x2="10.9317" y2="14.388" gradientUnits="userSpaceOnUse">
<stop stop-color="#3561A6"/>
<stop offset="0.630208" stop-color="white" stop-opacity="0"/>
</linearGradient>
<clipPath id="clip0_407_109">
<rect width="69" height="69" fill="white"/>
</clipPath>
</defs>
</svg>
