<svg width="99" height="99" viewBox="0 0 99 99" fill="none" xmlns="http://www.w3.org/2000/svg">
<g clip-path="url(#clip0)" filter="url(#filter0_d)">
<path d="M49.477 74C49.2499 74 49.0199 73.9454 48.8129 73.8362L15.7734 56.5862C15.299 56.3389 15 55.8473 15 55.3125V22.9688C15 22.4714 15.2588 22.0085 15.6814 21.7469C16.104 21.4853 16.6359 21.4623 17.0786 21.6837L50.1181 38.2149C50.604 38.4593 50.9116 38.9567 50.9116 39.5V72.5625C50.9116 73.0657 50.65 73.5314 50.2188 73.793C49.9945 73.931 49.7357 74 49.477 74ZM17.875 54.4414L48.0395 70.1907V40.3884L17.875 25.2947V54.4414Z" fill="#0C83F1"/>
<path d="M49.523 74C49.2642 74 49.0054 73.931 48.7783 73.793C48.3499 73.5313 48.0854 73.0656 48.0854 72.5625V39.5C48.0854 38.9566 48.3931 38.4592 48.8789 38.2149L81.9185 21.6836C82.3583 21.4594 82.8931 21.4823 83.3157 21.7468C83.7412 22.0085 84 22.4714 84 22.9687V55.3125C84 55.8472 83.701 56.3389 83.2266 56.5861L50.1871 73.8361C49.9801 73.9454 49.7501 74 49.523 74ZM50.9605 40.3883V70.1906L81.125 54.4414V25.2946L50.9605 40.3883ZM82.5625 55.3125H82.5912H82.5625Z" fill="#0C83F1"/>
<path d="M16.4373 24.4064C15.9083 24.4064 15.4023 24.116 15.1493 23.6129C14.7928 22.9028 15.0832 22.0403 15.7933 21.6838L48.8788 5.15252C49.2842 4.95127 49.7614 4.95127 50.1639 5.15252L83.2034 21.6838C83.9136 22.0403 84.2011 22.9028 83.8475 23.6129C83.4909 24.323 82.6313 24.6077 81.9183 24.2569L49.5228 8.04477L17.0813 24.254C16.8743 24.3575 16.6558 24.4064 16.4373 24.4064Z" fill="#0C83F1"/>
<path d="M66.75 48.125C65.9565 48.125 65.3125 47.481 65.3125 46.6875V31.7634L33.0665 15.6289C32.3564 15.2752 32.0689 14.4099 32.4254 13.6997C32.7819 12.9896 33.6444 12.705 34.3545 13.0557L67.394 29.587C67.8799 29.8342 68.1875 30.3316 68.1875 30.875V46.6875C68.1875 47.481 67.5435 48.125 66.75 48.125Z" fill="#0C83F1"/>
</g>
<defs>
<filter id="filter0_d" x="0" y="0" width="99" height="99" filterUnits="userSpaceOnUse" color-interpolation-filters="sRGB">
<feFlood flood-opacity="0" result="BackgroundImageFix"/>
<feColorMatrix in="SourceAlpha" type="matrix" values="0 0 0 0 0 0 0 0 0 0 0 0 0 0 0 0 0 0 127 0" result="hardAlpha"/>
<feOffset dy="10"/>
<feGaussianBlur stdDeviation="7.5"/>
<feColorMatrix type="matrix" values="0 0 0 0 0.0470588 0 0 0 0 0.513726 0 0 0 0 0.945098 0 0 0 0.2 0"/>
<feBlend mode="normal" in2="BackgroundImageFix" result="effect1_dropShadow"/>
<feBlend mode="normal" in="SourceGraphic" in2="effect1_dropShadow" result="shape"/>
</filter>
<clipPath id="clip0">
<rect width="69" height="69" fill="white" transform="translate(15 5)"/>
</clipPath>
</defs>
</svg>
