<svg width="89" height="99" viewBox="0 0 89 99" fill="none" xmlns="http://www.w3.org/2000/svg">
<g filter="url(#filter0_d)">
<path d="M70.2709 14.1445H64.4516V8.32534C64.4518 6.4963 62.9552 5 61.1271 5H18.7288C16.8999 5 15.4036 6.4963 15.4036 8.32534V61.53C15.4036 63.3589 16.8999 64.8554 18.729 64.8554H24.5483V70.6747C24.5483 72.5036 26.0439 74 27.8736 74H56.1378C57.9659 74 60.553 72.9742 61.8839 71.7214L71.1732 62.9775C72.5057 61.7248 73.5948 59.2025 73.5948 57.3736L73.5964 17.4701C73.5963 15.6409 72.0998 14.1445 70.2709 14.1445ZM24.548 17.47V62.3614H18.7288C18.2783 62.3614 17.8976 61.9807 17.8976 61.5302V8.32534C17.8976 7.87481 18.2783 7.4941 18.7288 7.4941H61.1272C61.5769 7.4941 61.9585 7.87481 61.9585 8.32534V14.1446H27.8733C26.0436 14.1446 24.548 15.6409 24.548 17.47ZM69.4638 61.1617L60.1746 69.9049C59.9843 70.0837 59.7364 70.259 59.4629 70.426V62.777C59.4629 62.2059 59.6932 61.692 60.0731 61.3097C60.4564 60.9298 60.9701 60.6988 61.5412 60.6988H69.8587C69.7297 60.874 69.5976 61.0353 69.4638 61.1617ZM71.1005 57.3733C71.1005 57.6202 71.0555 57.9062 70.9875 58.2046H61.5411C59.0181 58.2095 56.9739 60.2538 56.9688 62.7769V71.4051C56.672 71.4651 56.386 71.5056 56.1375 71.5056H27.8733V71.5058C27.4219 71.5058 27.0421 71.1251 27.0421 70.6745V17.4698C27.0421 17.0193 27.422 16.6386 27.8733 16.6386H70.2708C70.7213 16.6386 71.102 17.0193 71.102 17.4698L71.1005 57.3733Z" fill="#0C83F1"/>
<path d="M61.1272 25.783H37.0188C36.3296 25.783 35.7719 26.3408 35.7719 27.0299C35.7719 27.7191 36.3298 28.2769 37.0188 28.2769H61.1272C61.8155 28.2769 62.3741 27.7191 62.3741 27.0299C62.3741 26.3408 61.8155 25.783 61.1272 25.783Z" fill="#0C83F1"/>
<path d="M61.1272 42.4095H37.0188C36.3296 42.4095 35.7719 42.9673 35.7719 43.6565C35.7719 44.3457 36.3298 44.9035 37.0188 44.9035H61.1272C61.8155 44.9035 62.3741 44.3457 62.3741 43.6565C62.3741 42.9672 61.8155 42.4095 61.1272 42.4095Z" fill="#0C83F1"/>
<path d="M50.32 50.7228H37.019C36.3298 50.7228 35.772 51.2806 35.772 51.9698C35.772 52.659 36.3298 53.2167 37.019 53.2167H50.32C51.0084 53.2167 51.5662 52.659 51.5662 51.9698C51.5662 51.2806 51.0084 50.7228 50.32 50.7228Z" fill="#0C83F1"/>
<path d="M61.1272 34.0963H37.0188C36.3296 34.0963 35.7719 34.6541 35.7719 35.3433C35.7719 36.0325 36.3298 36.5903 37.0188 36.5903H61.1272C61.8155 36.5903 62.3741 36.0325 62.3741 35.3433C62.3741 34.6541 61.8155 34.0963 61.1272 34.0963Z" fill="#0C83F1"/>
</g>
<defs>
<filter id="filter0_d" x="-5" y="0" width="99" height="99" filterUnits="userSpaceOnUse" color-interpolation-filters="sRGB">
<feFlood flood-opacity="0" result="BackgroundImageFix"/>
<feColorMatrix in="SourceAlpha" type="matrix" values="0 0 0 0 0 0 0 0 0 0 0 0 0 0 0 0 0 0 127 0" result="hardAlpha"/>
<feOffset dy="10"/>
<feGaussianBlur stdDeviation="7.5"/>
<feColorMatrix type="matrix" values="0 0 0 0 0.0470588 0 0 0 0 0.513726 0 0 0 0 0.945098 0 0 0 0.2 0"/>
<feBlend mode="normal" in2="BackgroundImageFix" result="effect1_dropShadow"/>
<feBlend mode="normal" in="SourceGraphic" in2="effect1_dropShadow" result="shape"/>
</filter>
</defs>
</svg>
