<svg width="69" height="69" viewBox="0 0 69 69" fill="none" xmlns="http://www.w3.org/2000/svg">
<path d="M60.2709 9.1445H54.4516V3.32534C54.4518 1.4963 52.9552 0 51.1271 0H8.72883C6.89993 0 5.40363 1.4963 5.40363 3.32534V56.53C5.40363 58.3589 6.89993 59.8554 8.72896 59.8554H14.5483V65.6747C14.5483 67.5036 16.0439 69 17.8736 69H46.1378C47.9659 69 50.553 67.9742 51.8839 66.7214L61.1732 57.9775C62.5057 56.7248 63.5948 54.2025 63.5948 52.3736L63.5964 12.4701C63.5963 10.6409 62.0998 9.1445 60.2709 9.1445ZM14.548 12.47V57.3614H8.72883C8.27831 57.3614 7.89759 56.9807 7.89759 56.5302V3.32534C7.89759 2.87481 8.27831 2.4941 8.72883 2.4941H51.1272C51.5769 2.4941 51.9585 2.87481 51.9585 3.32534V9.14464H17.8733C16.0436 9.14464 14.548 10.6409 14.548 12.47ZM59.4638 56.1617L50.1746 64.9049C49.9843 65.0837 49.7364 65.259 49.4629 65.426V57.777C49.4629 57.2059 49.6932 56.692 50.0731 56.3097C50.4564 55.9298 50.9701 55.6988 51.5412 55.6988H59.8587C59.7297 55.874 59.5976 56.0353 59.4638 56.1617ZM61.1005 52.3733C61.1005 52.6202 61.0555 52.9062 60.9875 53.2046H51.5411C49.0181 53.2095 46.9739 55.2538 46.9688 57.7769V66.4051C46.672 66.4651 46.386 66.5056 46.1375 66.5056H17.8733V66.5058C17.4219 66.5058 17.0421 66.1251 17.0421 65.6745V12.4698C17.0421 12.0193 17.422 11.6386 17.8733 11.6386H60.2708C60.7213 11.6386 61.102 12.0193 61.102 12.4698L61.1005 52.3733Z" fill="#89D3CF"/>
<path d="M60.2709 9.1445H54.4516V3.32534C54.4518 1.4963 52.9552 0 51.1271 0H8.72883C6.89993 0 5.40363 1.4963 5.40363 3.32534V56.53C5.40363 58.3589 6.89993 59.8554 8.72896 59.8554H14.5483V65.6747C14.5483 67.5036 16.0439 69 17.8736 69H46.1378C47.9659 69 50.553 67.9742 51.8839 66.7214L61.1732 57.9775C62.5057 56.7248 63.5948 54.2025 63.5948 52.3736L63.5964 12.4701C63.5963 10.6409 62.0998 9.1445 60.2709 9.1445ZM14.548 12.47V57.3614H8.72883C8.27831 57.3614 7.89759 56.9807 7.89759 56.5302V3.32534C7.89759 2.87481 8.27831 2.4941 8.72883 2.4941H51.1272C51.5769 2.4941 51.9585 2.87481 51.9585 3.32534V9.14464H17.8733C16.0436 9.14464 14.548 10.6409 14.548 12.47ZM59.4638 56.1617L50.1746 64.9049C49.9843 65.0837 49.7364 65.259 49.4629 65.426V57.777C49.4629 57.2059 49.6932 56.692 50.0731 56.3097C50.4564 55.9298 50.9701 55.6988 51.5412 55.6988H59.8587C59.7297 55.874 59.5976 56.0353 59.4638 56.1617ZM61.1005 52.3733C61.1005 52.6202 61.0555 52.9062 60.9875 53.2046H51.5411C49.0181 53.2095 46.9739 55.2538 46.9688 57.7769V66.4051C46.672 66.4651 46.386 66.5056 46.1375 66.5056H17.8733V66.5058C17.4219 66.5058 17.0421 66.1251 17.0421 65.6745V12.4698C17.0421 12.0193 17.422 11.6386 17.8733 11.6386H60.2708C60.7213 11.6386 61.102 12.0193 61.102 12.4698L61.1005 52.3733Z" fill="url(#paint0_linear_407_114)"/>
<path d="M60.2709 9.1445H54.4516V3.32534C54.4518 1.4963 52.9552 0 51.1271 0H8.72883C6.89993 0 5.40363 1.4963 5.40363 3.32534V56.53C5.40363 58.3589 6.89993 59.8554 8.72896 59.8554H14.5483V65.6747C14.5483 67.5036 16.0439 69 17.8736 69H46.1378C47.9659 69 50.553 67.9742 51.8839 66.7214L61.1732 57.9775C62.5057 56.7248 63.5948 54.2025 63.5948 52.3736L63.5964 12.4701C63.5963 10.6409 62.0998 9.1445 60.2709 9.1445ZM14.548 12.47V57.3614H8.72883C8.27831 57.3614 7.89759 56.9807 7.89759 56.5302V3.32534C7.89759 2.87481 8.27831 2.4941 8.72883 2.4941H51.1272C51.5769 2.4941 51.9585 2.87481 51.9585 3.32534V9.14464H17.8733C16.0436 9.14464 14.548 10.6409 14.548 12.47ZM59.4638 56.1617L50.1746 64.9049C49.9843 65.0837 49.7364 65.259 49.4629 65.426V57.777C49.4629 57.2059 49.6932 56.692 50.0731 56.3097C50.4564 55.9298 50.9701 55.6988 51.5412 55.6988H59.8587C59.7297 55.874 59.5976 56.0353 59.4638 56.1617ZM61.1005 52.3733C61.1005 52.6202 61.0555 52.9062 60.9875 53.2046H51.5411C49.0181 53.2095 46.9739 55.2538 46.9688 57.7769V66.4051C46.672 66.4651 46.386 66.5056 46.1375 66.5056H17.8733V66.5058C17.4219 66.5058 17.0421 66.1251 17.0421 65.6745V12.4698C17.0421 12.0193 17.422 11.6386 17.8733 11.6386H60.2708C60.7213 11.6386 61.102 12.0193 61.102 12.4698L61.1005 52.3733Z" fill="url(#paint1_linear_407_114)"/>
<path d="M51.1272 20.783H27.0188C26.3296 20.783 25.7719 21.3408 25.7719 22.0299C25.7719 22.7191 26.3298 23.2769 27.0188 23.2769H51.1272C51.8155 23.2769 52.3741 22.7191 52.3741 22.0299C52.3741 21.3408 51.8155 20.783 51.1272 20.783Z" fill="#89D3CF"/>
<path d="M51.1272 20.783H27.0188C26.3296 20.783 25.7719 21.3408 25.7719 22.0299C25.7719 22.7191 26.3298 23.2769 27.0188 23.2769H51.1272C51.8155 23.2769 52.3741 22.7191 52.3741 22.0299C52.3741 21.3408 51.8155 20.783 51.1272 20.783Z" fill="url(#paint2_linear_407_114)"/>
<path d="M51.1272 20.783H27.0188C26.3296 20.783 25.7719 21.3408 25.7719 22.0299C25.7719 22.7191 26.3298 23.2769 27.0188 23.2769H51.1272C51.8155 23.2769 52.3741 22.7191 52.3741 22.0299C52.3741 21.3408 51.8155 20.783 51.1272 20.783Z" fill="url(#paint3_linear_407_114)"/>
<path d="M51.1272 37.4095H27.0188C26.3296 37.4095 25.7719 37.9673 25.7719 38.6565C25.7719 39.3457 26.3298 39.9035 27.0188 39.9035H51.1272C51.8155 39.9035 52.3741 39.3457 52.3741 38.6565C52.3741 37.9672 51.8155 37.4095 51.1272 37.4095Z" fill="#89D3CF"/>
<path d="M51.1272 37.4095H27.0188C26.3296 37.4095 25.7719 37.9673 25.7719 38.6565C25.7719 39.3457 26.3298 39.9035 27.0188 39.9035H51.1272C51.8155 39.9035 52.3741 39.3457 52.3741 38.6565C52.3741 37.9672 51.8155 37.4095 51.1272 37.4095Z" fill="url(#paint4_linear_407_114)"/>
<path d="M51.1272 37.4095H27.0188C26.3296 37.4095 25.7719 37.9673 25.7719 38.6565C25.7719 39.3457 26.3298 39.9035 27.0188 39.9035H51.1272C51.8155 39.9035 52.3741 39.3457 52.3741 38.6565C52.3741 37.9672 51.8155 37.4095 51.1272 37.4095Z" fill="url(#paint5_linear_407_114)"/>
<path d="M40.32 45.7228H27.019C26.3298 45.7228 25.772 46.2806 25.772 46.9698C25.772 47.659 26.3298 48.2167 27.019 48.2167H40.32C41.0084 48.2167 41.5662 47.659 41.5662 46.9698C41.5662 46.2806 41.0084 45.7228 40.32 45.7228Z" fill="#89D3CF"/>
<path d="M40.32 45.7228H27.019C26.3298 45.7228 25.772 46.2806 25.772 46.9698C25.772 47.659 26.3298 48.2167 27.019 48.2167H40.32C41.0084 48.2167 41.5662 47.659 41.5662 46.9698C41.5662 46.2806 41.0084 45.7228 40.32 45.7228Z" fill="url(#paint6_linear_407_114)"/>
<path d="M40.32 45.7228H27.019C26.3298 45.7228 25.772 46.2806 25.772 46.9698C25.772 47.659 26.3298 48.2167 27.019 48.2167H40.32C41.0084 48.2167 41.5662 47.659 41.5662 46.9698C41.5662 46.2806 41.0084 45.7228 40.32 45.7228Z" fill="url(#paint7_linear_407_114)"/>
<path d="M51.1272 29.0963H27.0188C26.3296 29.0963 25.7719 29.6541 25.7719 30.3433C25.7719 31.0325 26.3298 31.5903 27.0188 31.5903H51.1272C51.8155 31.5903 52.3741 31.0325 52.3741 30.3433C52.3741 29.6541 51.8155 29.0963 51.1272 29.0963Z" fill="#89D3CF"/>
<path d="M51.1272 29.0963H27.0188C26.3296 29.0963 25.7719 29.6541 25.7719 30.3433C25.7719 31.0325 26.3298 31.5903 27.0188 31.5903H51.1272C51.8155 31.5903 52.3741 31.0325 52.3741 30.3433C52.3741 29.6541 51.8155 29.0963 51.1272 29.0963Z" fill="url(#paint8_linear_407_114)"/>
<path d="M51.1272 29.0963H27.0188C26.3296 29.0963 25.7719 29.6541 25.7719 30.3433C25.7719 31.0325 26.3298 31.5903 27.0188 31.5903H51.1272C51.8155 31.5903 52.3741 31.0325 52.3741 30.3433C52.3741 29.6541 51.8155 29.0963 51.1272 29.0963Z" fill="url(#paint9_linear_407_114)"/>
<defs>
<linearGradient id="paint0_linear_407_114" x1="39.1332" y1="23.1643" x2="-40.1676" y2="44.0474" gradientUnits="userSpaceOnUse">
<stop stop-color="#66ABC6"/>
<stop offset="1" stop-color="white" stop-opacity="0"/>
</linearGradient>
<linearGradient id="paint1_linear_407_114" x1="55.2567" y1="-7.39286" x2="-6.24933" y2="6.66526" gradientUnits="userSpaceOnUse">
<stop stop-color="#3561A6"/>
<stop offset="0.630208" stop-color="white" stop-opacity="0"/>
</linearGradient>
<linearGradient id="paint2_linear_407_114" x1="41.191" y1="21.6202" x2="37.9854" y2="32.2969" gradientUnits="userSpaceOnUse">
<stop stop-color="#66ABC6"/>
<stop offset="1" stop-color="white" stop-opacity="0"/>
</linearGradient>
<linearGradient id="paint3_linear_407_114" x1="48.5617" y1="20.5157" x2="45.3997" y2="29.6564" gradientUnits="userSpaceOnUse">
<stop stop-color="#3561A6"/>
<stop offset="0.630208" stop-color="white" stop-opacity="0"/>
</linearGradient>
<linearGradient id="paint4_linear_407_114" x1="41.191" y1="38.2468" x2="37.9854" y2="48.9235" gradientUnits="userSpaceOnUse">
<stop stop-color="#66ABC6"/>
<stop offset="1" stop-color="white" stop-opacity="0"/>
</linearGradient>
<linearGradient id="paint5_linear_407_114" x1="48.5617" y1="37.1423" x2="45.3997" y2="46.283" gradientUnits="userSpaceOnUse">
<stop stop-color="#3561A6"/>
<stop offset="0.630208" stop-color="white" stop-opacity="0"/>
</linearGradient>
<linearGradient id="paint6_linear_407_114" x1="34.9266" y1="46.56" x2="30.2394" y2="55.8288" gradientUnits="userSpaceOnUse">
<stop stop-color="#66ABC6"/>
<stop offset="1" stop-color="white" stop-opacity="0"/>
</linearGradient>
<linearGradient id="paint7_linear_407_114" x1="39.3027" y1="45.4556" x2="34.8509" y2="53.0962" gradientUnits="userSpaceOnUse">
<stop stop-color="#3561A6"/>
<stop offset="0.630208" stop-color="white" stop-opacity="0"/>
</linearGradient>
<linearGradient id="paint8_linear_407_114" x1="41.191" y1="29.9336" x2="37.9854" y2="40.6102" gradientUnits="userSpaceOnUse">
<stop stop-color="#66ABC6"/>
<stop offset="1" stop-color="white" stop-opacity="0"/>
</linearGradient>
<linearGradient id="paint9_linear_407_114" x1="48.5617" y1="28.8291" x2="45.3997" y2="37.9698" gradientUnits="userSpaceOnUse">
<stop stop-color="#3561A6"/>
<stop offset="0.630208" stop-color="white" stop-opacity="0"/>
</linearGradient>
</defs>
</svg>
