<svg width="83" height="99" viewBox="0 0 83 99" fill="none" xmlns="http://www.w3.org/2000/svg">
<g clip-path="url(#clip0)" filter="url(#filter0_d)">
<path d="M64.4841 43.2646L54.1815 27.1139C55.6412 26.3468 56.6398 24.816 56.6398 23.0556C56.6398 21.1287 55.4436 19.4769 53.7553 18.8008L56.8764 7.88895C57.0111 7.41819 56.8798 6.91157 56.5337 6.56534C54.4575 4.48928 51.0795 4.48928 49.0033 6.56534C48.5067 7.06198 47.8464 7.33543 47.1441 7.33543C46.4418 7.33543 45.7816 7.06198 45.2818 6.5621L45.2752 6.5555C43.2065 4.48645 39.8343 4.48066 37.7571 6.54323L37.7185 6.58178C36.6932 7.59973 35.0281 7.59676 34.0067 6.57518L33.9968 6.56534C31.9206 4.48928 28.5427 4.48928 26.4665 6.56534C26.1201 6.91184 25.989 7.41886 26.1239 7.88989L29.2517 18.7982C27.5598 19.4726 26.3604 21.1262 26.3604 23.0557C26.3604 24.8161 27.3588 26.3469 28.8187 27.114L18.5159 43.2646C14.5301 49.5128 14.2775 57.1229 17.8403 63.6216C21.403 70.1202 27.9546 74.0001 35.366 74.0001H47.6339C55.0451 74.0001 61.5967 70.1202 65.1596 63.6216C68.7224 57.1229 68.4699 49.5128 64.4841 43.2646ZM32.0907 8.47131L32.1006 8.48115C34.1696 10.5501 37.5416 10.5557 39.6186 8.49341L39.6573 8.45487C40.6824 7.43692 42.3475 7.43988 43.3722 8.46457L43.3788 8.47117C45.455 10.5472 48.833 10.5472 50.9092 8.47117C51.7539 7.62641 53.0352 7.47776 54.0336 8.02521L51.0454 18.4733H31.9628L28.9668 8.02507C29.9652 7.47776 31.2461 7.62668 32.0907 8.47131ZM62.7961 62.3258C59.7138 67.9481 54.0458 71.3047 47.634 71.3047H35.3661C28.9544 71.3047 23.2864 67.9482 20.2041 62.3258C17.1218 56.7036 17.3403 50.1199 20.7885 44.7143L31.6815 27.6379H35.4353C36.1796 27.6379 36.783 27.0345 36.783 26.2902C36.783 25.5458 36.1796 24.9424 35.4353 24.9424H30.9427C29.9023 24.9424 29.0559 24.096 29.0559 23.0556C29.0559 22.0151 29.9023 21.1688 30.9427 21.1688H30.9472H52.0573C53.0978 21.1688 53.9441 22.0151 53.9441 23.0556C53.9441 24.096 53.0978 24.9424 52.0573 24.9424H47.5649C46.8205 24.9424 46.2172 25.5458 46.2172 26.2902C46.2172 27.0345 46.8205 27.6379 47.5649 27.6379H51.3185L62.2117 44.7143C65.6599 50.1198 65.8784 56.7035 62.7961 62.3258Z" fill="#0C83F1"/>
<path d="M43.8762 49.0143C43.538 48.8948 43.1928 48.7704 42.8478 48.6411V42.5329C43.7616 42.8018 44.3718 43.2378 44.3977 43.2566C44.9906 43.7007 45.8317 43.5829 46.2797 42.9917C46.7292 42.3984 46.6126 41.5531 46.0193 41.1035C45.9402 41.0435 44.6871 40.1133 42.8478 39.7611V38.4199C42.8478 37.6755 42.2444 37.0721 41.5001 37.0721C40.7557 37.0721 40.1524 37.6755 40.1524 38.4199V39.7514C39.924 39.7952 39.6926 39.8506 39.4581 39.9211C37.5613 40.4911 36.1435 42.1132 35.7579 44.1545C35.406 46.0184 36.0032 47.8162 37.3164 48.8461C38.0291 49.405 38.9196 49.9154 40.1524 50.4575V58.2738C39.091 58.2067 38.381 57.9652 37.1974 57.1909C36.5746 56.7832 35.7392 56.958 35.3318 57.5809C34.9242 58.2039 35.0989 59.0391 35.7218 59.4466C37.4477 60.5756 38.6163 60.8954 40.1524 60.971V62.3647C40.1524 63.1091 40.7557 63.7125 41.5001 63.7125C42.2444 63.7125 42.8478 63.1091 42.8478 62.3647V60.831C45.7339 60.1989 47.4218 57.7906 47.8005 55.5378C48.2955 52.5924 46.7552 50.0319 43.8762 49.0143ZM38.98 46.725C38.4619 46.3187 38.2422 45.5253 38.4066 44.6545C38.5578 43.8537 39.0967 42.888 40.1524 42.5307V47.4666C39.7092 47.2303 39.3093 46.9834 38.98 46.725ZM45.1422 55.0907C44.9481 56.2451 44.169 57.4693 42.8477 58.0103V51.509C42.8916 51.5246 42.9333 51.5398 42.9778 51.5556C45.3941 52.4097 45.2455 54.4774 45.1422 55.0907Z" fill="#0C83F1"/>
<path d="M41.5001 27.6379C41.8545 27.6379 42.2023 27.4937 42.4529 27.243C42.7036 26.9923 42.8478 26.6446 42.8478 26.2901C42.8478 25.9357 42.7036 25.588 42.4529 25.3373C42.2023 25.0866 41.8545 24.9424 41.5001 24.9424C41.1456 24.9424 40.7979 25.0866 40.5472 25.3373C40.2966 25.588 40.1523 25.9357 40.1523 26.2901C40.1523 26.6446 40.2966 26.9923 40.5472 27.243C40.7979 27.4937 41.1455 27.6379 41.5001 27.6379Z" fill="#0C83F1"/>
</g>
<defs>
<filter id="filter0_d" x="-8" y="0" width="99" height="99" filterUnits="userSpaceOnUse" color-interpolation-filters="sRGB">
<feFlood flood-opacity="0" result="BackgroundImageFix"/>
<feColorMatrix in="SourceAlpha" type="matrix" values="0 0 0 0 0 0 0 0 0 0 0 0 0 0 0 0 0 0 127 0" result="hardAlpha"/>
<feOffset dy="10"/>
<feGaussianBlur stdDeviation="7.5"/>
<feColorMatrix type="matrix" values="0 0 0 0 0.0470588 0 0 0 0 0.513726 0 0 0 0 0.945098 0 0 0 0.2 0"/>
<feBlend mode="normal" in2="BackgroundImageFix" result="effect1_dropShadow"/>
<feBlend mode="normal" in="SourceGraphic" in2="effect1_dropShadow" result="shape"/>
</filter>
<clipPath id="clip0">
<rect width="69" height="69" fill="white" transform="translate(7 5)"/>
</clipPath>
</defs>
</svg>
