<svg width="69" height="69" viewBox="0 0 69 69" fill="none" xmlns="http://www.w3.org/2000/svg">
<g clip-path="url(#clip0_407_207)">
<path d="M57.4841 38.2646L47.1815 22.1139C48.6412 21.3468 49.6398 19.816 49.6398 18.0556C49.6398 16.1287 48.4436 14.4769 46.7553 13.8008L49.8764 2.88895C50.0111 2.41819 49.8798 1.91157 49.5337 1.56534C47.4575 -0.510718 44.0795 -0.510718 42.0033 1.56534C41.5067 2.06198 40.8464 2.33543 40.1441 2.33543C39.4418 2.33543 38.7816 2.06198 38.2818 1.5621L38.2752 1.5555C36.2065 -0.513548 32.8343 -0.519343 30.7571 1.54323L30.7185 1.58178C29.6932 2.59973 28.0281 2.59676 27.0067 1.57518L26.9968 1.56534C24.9206 -0.510718 21.5427 -0.510718 19.4665 1.56534C19.1201 1.91184 18.989 2.41886 19.1239 2.88989L22.2517 13.7982C20.5598 14.4726 19.3604 16.1262 19.3604 18.0557C19.3604 19.8161 20.3588 21.3469 21.8187 22.114L11.5159 38.2646C7.5301 44.5128 7.27753 52.1229 10.8403 58.6216C14.403 65.1202 20.9546 69.0001 28.366 69.0001H40.6339C48.0451 69.0001 54.5967 65.1202 58.1596 58.6216C61.7224 52.1229 61.4699 44.5128 57.4841 38.2646ZM25.0907 3.47131L25.1006 3.48115C27.1696 5.55006 30.5416 5.55572 32.6186 3.49341L32.6573 3.45487C33.6824 2.43692 35.3475 2.43988 36.3722 3.46457L36.3788 3.47117C38.455 5.54723 41.833 5.54723 43.9092 3.47117C44.7539 2.62641 46.0352 2.47776 47.0336 3.02521L44.0454 13.4733H24.9628L21.9668 3.02507C22.9652 2.47776 24.2461 2.62668 25.0907 3.47131ZM55.7961 57.3258C52.7138 62.9481 47.0458 66.3047 40.634 66.3047H28.3661C21.9544 66.3047 16.2864 62.9482 13.2041 57.3258C10.1218 51.7036 10.3403 45.1199 13.7885 39.7143L24.6815 22.6379H28.4353C29.1796 22.6379 29.783 22.0345 29.783 21.2902C29.783 20.5458 29.1796 19.9424 28.4353 19.9424H23.9427C22.9023 19.9424 22.0559 19.096 22.0559 18.0556C22.0559 17.0151 22.9023 16.1688 23.9427 16.1688H23.9472H45.0573C46.0978 16.1688 46.9441 17.0151 46.9441 18.0556C46.9441 19.096 46.0978 19.9424 45.0573 19.9424H40.5649C39.8205 19.9424 39.2172 20.5458 39.2172 21.2902C39.2172 22.0345 39.8205 22.6379 40.5649 22.6379H44.3185L55.2117 39.7143C58.6599 45.1198 58.8784 51.7035 55.7961 57.3258Z" fill="#89D3CF"/>
<path d="M57.4841 38.2646L47.1815 22.1139C48.6412 21.3468 49.6398 19.816 49.6398 18.0556C49.6398 16.1287 48.4436 14.4769 46.7553 13.8008L49.8764 2.88895C50.0111 2.41819 49.8798 1.91157 49.5337 1.56534C47.4575 -0.510718 44.0795 -0.510718 42.0033 1.56534C41.5067 2.06198 40.8464 2.33543 40.1441 2.33543C39.4418 2.33543 38.7816 2.06198 38.2818 1.5621L38.2752 1.5555C36.2065 -0.513548 32.8343 -0.519343 30.7571 1.54323L30.7185 1.58178C29.6932 2.59973 28.0281 2.59676 27.0067 1.57518L26.9968 1.56534C24.9206 -0.510718 21.5427 -0.510718 19.4665 1.56534C19.1201 1.91184 18.989 2.41886 19.1239 2.88989L22.2517 13.7982C20.5598 14.4726 19.3604 16.1262 19.3604 18.0557C19.3604 19.8161 20.3588 21.3469 21.8187 22.114L11.5159 38.2646C7.5301 44.5128 7.27753 52.1229 10.8403 58.6216C14.403 65.1202 20.9546 69.0001 28.366 69.0001H40.6339C48.0451 69.0001 54.5967 65.1202 58.1596 58.6216C61.7224 52.1229 61.4699 44.5128 57.4841 38.2646ZM25.0907 3.47131L25.1006 3.48115C27.1696 5.55006 30.5416 5.55572 32.6186 3.49341L32.6573 3.45487C33.6824 2.43692 35.3475 2.43988 36.3722 3.46457L36.3788 3.47117C38.455 5.54723 41.833 5.54723 43.9092 3.47117C44.7539 2.62641 46.0352 2.47776 47.0336 3.02521L44.0454 13.4733H24.9628L21.9668 3.02507C22.9652 2.47776 24.2461 2.62668 25.0907 3.47131ZM55.7961 57.3258C52.7138 62.9481 47.0458 66.3047 40.634 66.3047H28.3661C21.9544 66.3047 16.2864 62.9482 13.2041 57.3258C10.1218 51.7036 10.3403 45.1199 13.7885 39.7143L24.6815 22.6379H28.4353C29.1796 22.6379 29.783 22.0345 29.783 21.2902C29.783 20.5458 29.1796 19.9424 28.4353 19.9424H23.9427C22.9023 19.9424 22.0559 19.096 22.0559 18.0556C22.0559 17.0151 22.9023 16.1688 23.9427 16.1688H23.9472H45.0573C46.0978 16.1688 46.9441 17.0151 46.9441 18.0556C46.9441 19.096 46.0978 19.9424 45.0573 19.9424H40.5649C39.8205 19.9424 39.2172 20.5458 39.2172 21.2902C39.2172 22.0345 39.8205 22.6379 40.5649 22.6379H44.3185L55.2117 39.7143C58.6599 45.1198 58.8784 51.7035 55.7961 57.3258Z" fill="url(#paint0_linear_407_207)"/>
<path d="M57.4841 38.2646L47.1815 22.1139C48.6412 21.3468 49.6398 19.816 49.6398 18.0556C49.6398 16.1287 48.4436 14.4769 46.7553 13.8008L49.8764 2.88895C50.0111 2.41819 49.8798 1.91157 49.5337 1.56534C47.4575 -0.510718 44.0795 -0.510718 42.0033 1.56534C41.5067 2.06198 40.8464 2.33543 40.1441 2.33543C39.4418 2.33543 38.7816 2.06198 38.2818 1.5621L38.2752 1.5555C36.2065 -0.513548 32.8343 -0.519343 30.7571 1.54323L30.7185 1.58178C29.6932 2.59973 28.0281 2.59676 27.0067 1.57518L26.9968 1.56534C24.9206 -0.510718 21.5427 -0.510718 19.4665 1.56534C19.1201 1.91184 18.989 2.41886 19.1239 2.88989L22.2517 13.7982C20.5598 14.4726 19.3604 16.1262 19.3604 18.0557C19.3604 19.8161 20.3588 21.3469 21.8187 22.114L11.5159 38.2646C7.5301 44.5128 7.27753 52.1229 10.8403 58.6216C14.403 65.1202 20.9546 69.0001 28.366 69.0001H40.6339C48.0451 69.0001 54.5967 65.1202 58.1596 58.6216C61.7224 52.1229 61.4699 44.5128 57.4841 38.2646ZM25.0907 3.47131L25.1006 3.48115C27.1696 5.55006 30.5416 5.55572 32.6186 3.49341L32.6573 3.45487C33.6824 2.43692 35.3475 2.43988 36.3722 3.46457L36.3788 3.47117C38.455 5.54723 41.833 5.54723 43.9092 3.47117C44.7539 2.62641 46.0352 2.47776 47.0336 3.02521L44.0454 13.4733H24.9628L21.9668 3.02507C22.9652 2.47776 24.2461 2.62668 25.0907 3.47131ZM55.7961 57.3258C52.7138 62.9481 47.0458 66.3047 40.634 66.3047H28.3661C21.9544 66.3047 16.2864 62.9482 13.2041 57.3258C10.1218 51.7036 10.3403 45.1199 13.7885 39.7143L24.6815 22.6379H28.4353C29.1796 22.6379 29.783 22.0345 29.783 21.2902C29.783 20.5458 29.1796 19.9424 28.4353 19.9424H23.9427C22.9023 19.9424 22.0559 19.096 22.0559 18.0556C22.0559 17.0151 22.9023 16.1688 23.9427 16.1688H23.9472H45.0573C46.0978 16.1688 46.9441 17.0151 46.9441 18.0556C46.9441 19.096 46.0978 19.9424 45.0573 19.9424H40.5649C39.8205 19.9424 39.2172 20.5458 39.2172 21.2902C39.2172 22.0345 39.8205 22.6379 40.5649 22.6379H44.3185L55.2117 39.7143C58.6599 45.1198 58.8784 51.7035 55.7961 57.3258Z" fill="url(#paint1_linear_407_207)"/>
<path d="M36.8762 44.0143C36.538 43.8948 36.1928 43.7704 35.8478 43.6411V37.5329C36.7616 37.8018 37.3718 38.2378 37.3977 38.2566C37.9906 38.7007 38.8317 38.5829 39.2797 37.9917C39.7292 37.3984 39.6126 36.5531 39.0193 36.1035C38.9402 36.0435 37.6871 35.1133 35.8478 34.7611V33.4199C35.8478 32.6755 35.2444 32.0721 34.5001 32.0721C33.7557 32.0721 33.1524 32.6755 33.1524 33.4199V34.7514C32.924 34.7952 32.6926 34.8506 32.4581 34.9211C30.5613 35.4911 29.1435 37.1132 28.7579 39.1545C28.406 41.0184 29.0032 42.8162 30.3164 43.8461C31.0291 44.405 31.9196 44.9154 33.1524 45.4575V53.2738C32.091 53.2067 31.381 52.9652 30.1974 52.1909C29.5746 51.7832 28.7392 51.958 28.3318 52.5809C27.9242 53.2039 28.0989 54.0391 28.7218 54.4466C30.4477 55.5756 31.6163 55.8954 33.1524 55.971V57.3647C33.1524 58.1091 33.7557 58.7125 34.5001 58.7125C35.2444 58.7125 35.8478 58.1091 35.8478 57.3647V55.831C38.7339 55.1989 40.4218 52.7906 40.8005 50.5378C41.2955 47.5924 39.7552 45.0319 36.8762 44.0143ZM31.98 41.725C31.4619 41.3187 31.2422 40.5253 31.4066 39.6545C31.5578 38.8537 32.0967 37.888 33.1524 37.5307V42.4666C32.7092 42.2303 32.3093 41.9834 31.98 41.725ZM38.1422 50.0907C37.9481 51.2451 37.169 52.4693 35.8477 53.0103V46.509C35.8916 46.5246 35.9333 46.5398 35.9778 46.5556C38.3941 47.4097 38.2455 49.4774 38.1422 50.0907Z" fill="#89D3CF"/>
<path d="M36.8762 44.0143C36.538 43.8948 36.1928 43.7704 35.8478 43.6411V37.5329C36.7616 37.8018 37.3718 38.2378 37.3977 38.2566C37.9906 38.7007 38.8317 38.5829 39.2797 37.9917C39.7292 37.3984 39.6126 36.5531 39.0193 36.1035C38.9402 36.0435 37.6871 35.1133 35.8478 34.7611V33.4199C35.8478 32.6755 35.2444 32.0721 34.5001 32.0721C33.7557 32.0721 33.1524 32.6755 33.1524 33.4199V34.7514C32.924 34.7952 32.6926 34.8506 32.4581 34.9211C30.5613 35.4911 29.1435 37.1132 28.7579 39.1545C28.406 41.0184 29.0032 42.8162 30.3164 43.8461C31.0291 44.405 31.9196 44.9154 33.1524 45.4575V53.2738C32.091 53.2067 31.381 52.9652 30.1974 52.1909C29.5746 51.7832 28.7392 51.958 28.3318 52.5809C27.9242 53.2039 28.0989 54.0391 28.7218 54.4466C30.4477 55.5756 31.6163 55.8954 33.1524 55.971V57.3647C33.1524 58.1091 33.7557 58.7125 34.5001 58.7125C35.2444 58.7125 35.8478 58.1091 35.8478 57.3647V55.831C38.7339 55.1989 40.4218 52.7906 40.8005 50.5378C41.2955 47.5924 39.7552 45.0319 36.8762 44.0143ZM31.98 41.725C31.4619 41.3187 31.2422 40.5253 31.4066 39.6545C31.5578 38.8537 32.0967 37.888 33.1524 37.5307V42.4666C32.7092 42.2303 32.3093 41.9834 31.98 41.725ZM38.1422 50.0907C37.9481 51.2451 37.169 52.4693 35.8477 53.0103V46.509C35.8916 46.5246 35.9333 46.5398 35.9778 46.5556C38.3941 47.4097 38.2455 49.4774 38.1422 50.0907Z" fill="url(#paint2_linear_407_207)"/>
<path d="M36.8762 44.0143C36.538 43.8948 36.1928 43.7704 35.8478 43.6411V37.5329C36.7616 37.8018 37.3718 38.2378 37.3977 38.2566C37.9906 38.7007 38.8317 38.5829 39.2797 37.9917C39.7292 37.3984 39.6126 36.5531 39.0193 36.1035C38.9402 36.0435 37.6871 35.1133 35.8478 34.7611V33.4199C35.8478 32.6755 35.2444 32.0721 34.5001 32.0721C33.7557 32.0721 33.1524 32.6755 33.1524 33.4199V34.7514C32.924 34.7952 32.6926 34.8506 32.4581 34.9211C30.5613 35.4911 29.1435 37.1132 28.7579 39.1545C28.406 41.0184 29.0032 42.8162 30.3164 43.8461C31.0291 44.405 31.9196 44.9154 33.1524 45.4575V53.2738C32.091 53.2067 31.381 52.9652 30.1974 52.1909C29.5746 51.7832 28.7392 51.958 28.3318 52.5809C27.9242 53.2039 28.0989 54.0391 28.7218 54.4466C30.4477 55.5756 31.6163 55.8954 33.1524 55.971V57.3647C33.1524 58.1091 33.7557 58.7125 34.5001 58.7125C35.2444 58.7125 35.8478 58.1091 35.8478 57.3647V55.831C38.7339 55.1989 40.4218 52.7906 40.8005 50.5378C41.2955 47.5924 39.7552 45.0319 36.8762 44.0143ZM31.98 41.725C31.4619 41.3187 31.2422 40.5253 31.4066 39.6545C31.5578 38.8537 32.0967 37.888 33.1524 37.5307V42.4666C32.7092 42.2303 32.3093 41.9834 31.98 41.725ZM38.1422 50.0907C37.9481 51.2451 37.169 52.4693 35.8477 53.0103V46.509C35.8916 46.5246 35.9333 46.5398 35.9778 46.5556C38.3941 47.4097 38.2455 49.4774 38.1422 50.0907Z" fill="url(#paint3_linear_407_207)"/>
<path d="M34.5001 22.6379C34.8545 22.6379 35.2023 22.4937 35.4529 22.243C35.7036 21.9923 35.8478 21.6446 35.8478 21.2901C35.8478 20.9357 35.7036 20.588 35.4529 20.3373C35.2023 20.0866 34.8545 19.9424 34.5001 19.9424C34.1456 19.9424 33.7979 20.0866 33.5472 20.3373C33.2966 20.588 33.1523 20.9357 33.1523 21.2901C33.1523 21.6446 33.2966 21.9923 33.5472 22.243C33.7979 22.4937 34.1455 22.6379 34.5001 22.6379Z" fill="#89D3CF"/>
<path d="M34.5001 22.6379C34.8545 22.6379 35.2023 22.4937 35.4529 22.243C35.7036 21.9923 35.8478 21.6446 35.8478 21.2901C35.8478 20.9357 35.7036 20.588 35.4529 20.3373C35.2023 20.0866 34.8545 19.9424 34.5001 19.9424C34.1456 19.9424 33.7979 20.0866 33.5472 20.3373C33.2966 20.588 33.1523 20.9357 33.1523 21.2901C33.1523 21.6446 33.2966 21.9923 33.5472 22.243C33.7979 22.4937 34.1455 22.6379 34.5001 22.6379Z" fill="url(#paint4_linear_407_207)"/>
<path d="M34.5001 22.6379C34.8545 22.6379 35.2023 22.4937 35.4529 22.243C35.7036 21.9923 35.8478 21.6446 35.8478 21.2901C35.8478 20.9357 35.7036 20.588 35.4529 20.3373C35.2023 20.0866 34.8545 19.9424 34.5001 19.9424C34.1456 19.9424 33.7979 20.0866 33.5472 20.3373C33.2966 20.588 33.1523 20.9357 33.1523 21.2901C33.1523 21.6446 33.2966 21.9923 33.5472 22.243C33.7979 22.4937 34.1455 22.6379 34.5001 22.6379Z" fill="url(#paint5_linear_407_207)"/>
</g>
<defs>
<linearGradient id="paint0_linear_407_207" x1="38.6661" y1="23.1643" x2="-33.5372" y2="40.2616" gradientUnits="userSpaceOnUse">
<stop stop-color="#66ABC6"/>
<stop offset="1" stop-color="white" stop-opacity="0"/>
</linearGradient>
<linearGradient id="paint1_linear_407_207" x1="53.1642" y1="-7.39287" x2="-2.67233" y2="4.08289" gradientUnits="userSpaceOnUse">
<stop stop-color="#3561A6"/>
<stop offset="0.630208" stop-color="white" stop-opacity="0"/>
</linearGradient>
<linearGradient id="paint2_linear_407_207" x1="35.5194" y1="41.0157" x2="17.3042" y2="43.7443" gradientUnits="userSpaceOnUse">
<stop stop-color="#66ABC6"/>
<stop offset="1" stop-color="white" stop-opacity="0"/>
</linearGradient>
<linearGradient id="paint3_linear_407_207" x1="39.0605" y1="29.2178" x2="25.083" y2="31.0351" gradientUnits="userSpaceOnUse">
<stop stop-color="#3561A6"/>
<stop offset="0.630208" stop-color="white" stop-opacity="0"/>
</linearGradient>
<linearGradient id="paint4_linear_407_207" x1="34.7147" y1="20.8473" x2="31.1357" y2="21.9648" gradientUnits="userSpaceOnUse">
<stop stop-color="#66ABC6"/>
<stop offset="1" stop-color="white" stop-opacity="0"/>
</linearGradient>
<linearGradient id="paint5_linear_407_207" x1="35.4615" y1="19.6536" x2="32.6689" y2="20.4104" gradientUnits="userSpaceOnUse">
<stop stop-color="#3561A6"/>
<stop offset="0.630208" stop-color="white" stop-opacity="0"/>
</linearGradient>
<clipPath id="clip0_407_207">
<rect width="69" height="69" fill="white"/>
</clipPath>
</defs>
</svg>
