<svg width="69" height="69" viewBox="0 0 69 69" fill="none" xmlns="http://www.w3.org/2000/svg">
<path d="M35.4008 37.6571C35.2731 37.6295 35.1422 37.6245 35.0128 37.6439C33.7169 37.493 32.7393 36.3966 32.7371 35.0924C32.7371 34.4673 32.2303 33.9606 31.6053 33.9606C30.9803 33.9606 30.4735 34.4673 30.4735 35.0924C30.4768 37.2703 31.9336 39.178 34.0336 39.7544V40.8862C34.0336 41.5112 34.5403 42.018 35.1654 42.018C35.7904 42.018 36.2972 41.5112 36.2972 40.8862V39.8229C38.721 39.3156 40.3684 37.0581 40.1137 34.595C39.8584 32.1319 37.7832 30.2601 35.3068 30.2596C33.8877 30.2596 32.7371 29.109 32.7371 27.6898C32.7371 26.2706 33.8877 25.12 35.3068 25.12C36.726 25.12 37.8766 26.2706 37.8766 27.6898C37.8766 28.3148 38.3834 28.8216 39.0084 28.8216C39.6334 28.8216 40.1402 28.3148 40.1402 27.6898C40.1369 25.403 38.5348 23.4306 36.2972 22.9587V21.9286C36.2972 21.3035 35.7904 20.7968 35.1654 20.7968C34.5403 20.7968 34.0336 21.3035 34.0336 21.9286V23.0277C31.6981 23.6655 30.195 25.933 30.5166 28.3325C30.8382 30.7321 32.8857 32.5231 35.3068 32.5226C36.7072 32.5226 37.8495 33.6439 37.8749 35.0437C37.9009 36.4436 36.8001 37.6063 35.4008 37.6571Z" fill="#89D3CF"/>
<path d="M35.4008 37.6571C35.2731 37.6295 35.1422 37.6245 35.0128 37.6439C33.7169 37.493 32.7393 36.3966 32.7371 35.0924C32.7371 34.4673 32.2303 33.9606 31.6053 33.9606C30.9803 33.9606 30.4735 34.4673 30.4735 35.0924C30.4768 37.2703 31.9336 39.178 34.0336 39.7544V40.8862C34.0336 41.5112 34.5403 42.018 35.1654 42.018C35.7904 42.018 36.2972 41.5112 36.2972 40.8862V39.8229C38.721 39.3156 40.3684 37.0581 40.1137 34.595C39.8584 32.1319 37.7832 30.2601 35.3068 30.2596C33.8877 30.2596 32.7371 29.109 32.7371 27.6898C32.7371 26.2706 33.8877 25.12 35.3068 25.12C36.726 25.12 37.8766 26.2706 37.8766 27.6898C37.8766 28.3148 38.3834 28.8216 39.0084 28.8216C39.6334 28.8216 40.1402 28.3148 40.1402 27.6898C40.1369 25.403 38.5348 23.4306 36.2972 22.9587V21.9286C36.2972 21.3035 35.7904 20.7968 35.1654 20.7968C34.5403 20.7968 34.0336 21.3035 34.0336 21.9286V23.0277C31.6981 23.6655 30.195 25.933 30.5166 28.3325C30.8382 30.7321 32.8857 32.5231 35.3068 32.5226C36.7072 32.5226 37.8495 33.6439 37.8749 35.0437C37.9009 36.4436 36.8001 37.6063 35.4008 37.6571Z" fill="url(#paint0_linear_407_179)"/>
<path d="M35.4008 37.6571C35.2731 37.6295 35.1422 37.6245 35.0128 37.6439C33.7169 37.493 32.7393 36.3966 32.7371 35.0924C32.7371 34.4673 32.2303 33.9606 31.6053 33.9606C30.9803 33.9606 30.4735 34.4673 30.4735 35.0924C30.4768 37.2703 31.9336 39.178 34.0336 39.7544V40.8862C34.0336 41.5112 34.5403 42.018 35.1654 42.018C35.7904 42.018 36.2972 41.5112 36.2972 40.8862V39.8229C38.721 39.3156 40.3684 37.0581 40.1137 34.595C39.8584 32.1319 37.7832 30.2601 35.3068 30.2596C33.8877 30.2596 32.7371 29.109 32.7371 27.6898C32.7371 26.2706 33.8877 25.12 35.3068 25.12C36.726 25.12 37.8766 26.2706 37.8766 27.6898C37.8766 28.3148 38.3834 28.8216 39.0084 28.8216C39.6334 28.8216 40.1402 28.3148 40.1402 27.6898C40.1369 25.403 38.5348 23.4306 36.2972 22.9587V21.9286C36.2972 21.3035 35.7904 20.7968 35.1654 20.7968C34.5403 20.7968 34.0336 21.3035 34.0336 21.9286V23.0277C31.6981 23.6655 30.195 25.933 30.5166 28.3325C30.8382 30.7321 32.8857 32.5231 35.3068 32.5226C36.7072 32.5226 37.8495 33.6439 37.8749 35.0437C37.9009 36.4436 36.8001 37.6063 35.4008 37.6571Z" fill="url(#paint1_linear_407_179)"/>
<path d="M18.8947 31.4781C18.8947 40.5425 26.2425 47.8903 35.3069 47.8903C44.3712 47.8903 51.719 40.5425 51.719 31.4781C51.719 22.4138 44.3712 15.0659 35.3069 15.0659C26.2469 15.0759 18.9052 22.4182 18.8947 31.4781ZM35.3069 17.3295C43.1211 17.3295 49.4554 23.6638 49.4554 31.4781C49.4554 39.2924 43.1211 45.6267 35.3069 45.6267C27.4926 45.6267 21.1583 39.2924 21.1583 31.4781C21.1671 23.6677 27.4964 17.3384 35.3069 17.3295Z" fill="#89D3CF"/>
<path d="M18.8947 31.4781C18.8947 40.5425 26.2425 47.8903 35.3069 47.8903C44.3712 47.8903 51.719 40.5425 51.719 31.4781C51.719 22.4138 44.3712 15.0659 35.3069 15.0659C26.2469 15.0759 18.9052 22.4182 18.8947 31.4781ZM35.3069 17.3295C43.1211 17.3295 49.4554 23.6638 49.4554 31.4781C49.4554 39.2924 43.1211 45.6267 35.3069 45.6267C27.4926 45.6267 21.1583 39.2924 21.1583 31.4781C21.1671 23.6677 27.4964 17.3384 35.3069 17.3295Z" fill="url(#paint2_linear_407_179)"/>
<path d="M18.8947 31.4781C18.8947 40.5425 26.2425 47.8903 35.3069 47.8903C44.3712 47.8903 51.719 40.5425 51.719 31.4781C51.719 22.4138 44.3712 15.0659 35.3069 15.0659C26.2469 15.0759 18.9052 22.4182 18.8947 31.4781ZM35.3069 17.3295C43.1211 17.3295 49.4554 23.6638 49.4554 31.4781C49.4554 39.2924 43.1211 45.6267 35.3069 45.6267C27.4926 45.6267 21.1583 39.2924 21.1583 31.4781C21.1671 23.6677 27.4964 17.3384 35.3069 17.3295Z" fill="url(#paint3_linear_407_179)"/>
<path d="M57.2985 50.6805L48.4325 54.8695C47.2084 52.5927 44.8603 51.1436 42.2761 51.0707L34.0916 50.8458C32.7957 50.8087 31.5241 50.4805 30.3718 49.8853L29.539 49.4537C25.2748 47.231 20.1923 47.2365 15.9325 49.4681L15.9845 47.5814C16.0016 46.9563 15.5092 46.4357 14.8842 46.4186L5.90937 46.1716C5.28434 46.1544 4.76431 46.6468 4.74718 47.2719L4.20504 66.9667C4.18791 67.5918 4.68031 68.1123 5.30534 68.1295L14.2802 68.3765H14.3111C14.9245 68.3765 15.4263 67.8885 15.4429 67.2757L15.4689 66.3334L17.8004 65.085C18.7156 64.5926 19.7855 64.4754 20.7852 64.7584L34.7084 68.6661C34.7327 68.6733 34.757 68.6788 34.7819 68.6843C35.7882 68.8949 36.8139 69.0004 37.8418 68.9999C40.0192 69.001 42.1712 68.5318 44.1501 67.6233C44.1988 67.6012 44.2457 67.5752 44.2905 67.5459L64.4778 54.4882C64.9807 54.1627 65.1431 53.5023 64.8486 52.9806C63.3498 50.3213 60.0257 49.3083 57.2985 50.6805ZM6.49903 65.8979L6.97872 48.4656L13.6905 48.6502L13.2108 66.0831L6.49903 65.8979ZM43.1305 65.6017C40.6718 66.7114 37.9258 67.0176 35.2831 66.4776L21.3976 62.5799C19.8347 62.1383 18.1619 62.3213 16.7322 63.09L15.5407 63.7283L15.8596 52.1378C19.6352 49.6267 24.4774 49.3686 28.4984 51.4636L29.3312 51.8952C30.7868 52.6468 32.3923 53.0613 34.0297 53.1088L42.2148 53.3337C44.5138 53.4001 46.4662 55.037 46.9327 57.2895L34.741 56.953C34.1159 56.9358 33.5959 57.4288 33.5782 58.0533C33.5611 58.6783 34.054 59.1989 34.6785 59.216L48.133 59.5863H48.1645C48.7774 59.5857 49.2786 59.0977 49.2952 58.4854C49.309 57.9936 49.2725 57.5012 49.1858 57.0171L58.2794 52.7203C58.2882 52.7165 58.2971 52.712 58.3059 52.7076C59.5958 52.0549 61.1553 52.2732 62.2164 53.2553L43.1305 65.6017Z" fill="#89D3CF"/>
<path d="M57.2985 50.6805L48.4325 54.8695C47.2084 52.5927 44.8603 51.1436 42.2761 51.0707L34.0916 50.8458C32.7957 50.8087 31.5241 50.4805 30.3718 49.8853L29.539 49.4537C25.2748 47.231 20.1923 47.2365 15.9325 49.4681L15.9845 47.5814C16.0016 46.9563 15.5092 46.4357 14.8842 46.4186L5.90937 46.1716C5.28434 46.1544 4.76431 46.6468 4.74718 47.2719L4.20504 66.9667C4.18791 67.5918 4.68031 68.1123 5.30534 68.1295L14.2802 68.3765H14.3111C14.9245 68.3765 15.4263 67.8885 15.4429 67.2757L15.4689 66.3334L17.8004 65.085C18.7156 64.5926 19.7855 64.4754 20.7852 64.7584L34.7084 68.6661C34.7327 68.6733 34.757 68.6788 34.7819 68.6843C35.7882 68.8949 36.8139 69.0004 37.8418 68.9999C40.0192 69.001 42.1712 68.5318 44.1501 67.6233C44.1988 67.6012 44.2457 67.5752 44.2905 67.5459L64.4778 54.4882C64.9807 54.1627 65.1431 53.5023 64.8486 52.9806C63.3498 50.3213 60.0257 49.3083 57.2985 50.6805ZM6.49903 65.8979L6.97872 48.4656L13.6905 48.6502L13.2108 66.0831L6.49903 65.8979ZM43.1305 65.6017C40.6718 66.7114 37.9258 67.0176 35.2831 66.4776L21.3976 62.5799C19.8347 62.1383 18.1619 62.3213 16.7322 63.09L15.5407 63.7283L15.8596 52.1378C19.6352 49.6267 24.4774 49.3686 28.4984 51.4636L29.3312 51.8952C30.7868 52.6468 32.3923 53.0613 34.0297 53.1088L42.2148 53.3337C44.5138 53.4001 46.4662 55.037 46.9327 57.2895L34.741 56.953C34.1159 56.9358 33.5959 57.4288 33.5782 58.0533C33.5611 58.6783 34.054 59.1989 34.6785 59.216L48.133 59.5863H48.1645C48.7774 59.5857 49.2786 59.0977 49.2952 58.4854C49.309 57.9936 49.2725 57.5012 49.1858 57.0171L58.2794 52.7203C58.2882 52.7165 58.2971 52.712 58.3059 52.7076C59.5958 52.0549 61.1553 52.2732 62.2164 53.2553L43.1305 65.6017Z" fill="url(#paint4_linear_407_179)"/>
<path d="M57.2985 50.6805L48.4325 54.8695C47.2084 52.5927 44.8603 51.1436 42.2761 51.0707L34.0916 50.8458C32.7957 50.8087 31.5241 50.4805 30.3718 49.8853L29.539 49.4537C25.2748 47.231 20.1923 47.2365 15.9325 49.4681L15.9845 47.5814C16.0016 46.9563 15.5092 46.4357 14.8842 46.4186L5.90937 46.1716C5.28434 46.1544 4.76431 46.6468 4.74718 47.2719L4.20504 66.9667C4.18791 67.5918 4.68031 68.1123 5.30534 68.1295L14.2802 68.3765H14.3111C14.9245 68.3765 15.4263 67.8885 15.4429 67.2757L15.4689 66.3334L17.8004 65.085C18.7156 64.5926 19.7855 64.4754 20.7852 64.7584L34.7084 68.6661C34.7327 68.6733 34.757 68.6788 34.7819 68.6843C35.7882 68.8949 36.8139 69.0004 37.8418 68.9999C40.0192 69.001 42.1712 68.5318 44.1501 67.6233C44.1988 67.6012 44.2457 67.5752 44.2905 67.5459L64.4778 54.4882C64.9807 54.1627 65.1431 53.5023 64.8486 52.9806C63.3498 50.3213 60.0257 49.3083 57.2985 50.6805ZM6.49903 65.8979L6.97872 48.4656L13.6905 48.6502L13.2108 66.0831L6.49903 65.8979ZM43.1305 65.6017C40.6718 66.7114 37.9258 67.0176 35.2831 66.4776L21.3976 62.5799C19.8347 62.1383 18.1619 62.3213 16.7322 63.09L15.5407 63.7283L15.8596 52.1378C19.6352 49.6267 24.4774 49.3686 28.4984 51.4636L29.3312 51.8952C30.7868 52.6468 32.3923 53.0613 34.0297 53.1088L42.2148 53.3337C44.5138 53.4001 46.4662 55.037 46.9327 57.2895L34.741 56.953C34.1159 56.9358 33.5959 57.4288 33.5782 58.0533C33.5611 58.6783 34.054 59.1989 34.6785 59.216L48.133 59.5863H48.1645C48.7774 59.5857 49.2786 59.0977 49.2952 58.4854C49.309 57.9936 49.2725 57.5012 49.1858 57.0171L58.2794 52.7203C58.2882 52.7165 58.2971 52.712 58.3059 52.7076C59.5958 52.0549 61.1553 52.2732 62.2164 53.2553L43.1305 65.6017Z" fill="url(#paint5_linear_407_179)"/>
<path d="M36.4386 11.8839V1.1318C36.4386 0.506767 35.9319 0 35.3068 0C34.6818 0 34.175 0.506767 34.175 1.1318V11.8839C34.175 12.5089 34.6818 13.0157 35.3068 13.0157C35.9319 13.0157 36.4386 12.5089 36.4386 11.8839Z" fill="#89D3CF"/>
<path d="M36.4386 11.8839V1.1318C36.4386 0.506767 35.9319 0 35.3068 0C34.6818 0 34.175 0.506767 34.175 1.1318V11.8839C34.175 12.5089 34.6818 13.0157 35.3068 13.0157C35.9319 13.0157 36.4386 12.5089 36.4386 11.8839Z" fill="url(#paint6_linear_407_179)"/>
<path d="M36.4386 11.8839V1.1318C36.4386 0.506767 35.9319 0 35.3068 0C34.6818 0 34.175 0.506767 34.175 1.1318V11.8839C34.175 12.5089 34.6818 13.0157 35.3068 13.0157C35.9319 13.0157 36.4386 12.5089 36.4386 11.8839Z" fill="url(#paint7_linear_407_179)"/>
<path d="M44.9271 11.8838V6.79073C44.9271 6.1657 44.4204 5.65894 43.7953 5.65894C43.1703 5.65894 42.6635 6.1657 42.6635 6.79073V11.8838C42.6635 12.5089 43.1703 13.0156 43.7953 13.0156C44.4204 13.0156 44.9271 12.5089 44.9271 11.8838Z" fill="#89D3CF"/>
<path d="M44.9271 11.8838V6.79073C44.9271 6.1657 44.4204 5.65894 43.7953 5.65894C43.1703 5.65894 42.6635 6.1657 42.6635 6.79073V11.8838C42.6635 12.5089 43.1703 13.0156 43.7953 13.0156C44.4204 13.0156 44.9271 12.5089 44.9271 11.8838Z" fill="url(#paint8_linear_407_179)"/>
<path d="M44.9271 11.8838V6.79073C44.9271 6.1657 44.4204 5.65894 43.7953 5.65894C43.1703 5.65894 42.6635 6.1657 42.6635 6.79073V11.8838C42.6635 12.5089 43.1703 13.0156 43.7953 13.0156C44.4204 13.0156 44.9271 12.5089 44.9271 11.8838Z" fill="url(#paint9_linear_407_179)"/>
<path d="M27.9501 11.8838V6.79073C27.9501 6.1657 27.4434 5.65894 26.8183 5.65894C26.1933 5.65894 25.6865 6.1657 25.6865 6.79073V11.8838C25.6865 12.5089 26.1933 13.0156 26.8183 13.0156C27.4434 13.0156 27.9501 12.5089 27.9501 11.8838Z" fill="#89D3CF"/>
<path d="M27.9501 11.8838V6.79073C27.9501 6.1657 27.4434 5.65894 26.8183 5.65894C26.1933 5.65894 25.6865 6.1657 25.6865 6.79073V11.8838C25.6865 12.5089 26.1933 13.0156 26.8183 13.0156C27.4434 13.0156 27.9501 12.5089 27.9501 11.8838Z" fill="url(#paint10_linear_407_179)"/>
<path d="M27.9501 11.8838V6.79073C27.9501 6.1657 27.4434 5.65894 26.8183 5.65894C26.1933 5.65894 25.6865 6.1657 25.6865 6.79073V11.8838C25.6865 12.5089 26.1933 13.0156 26.8183 13.0156C27.4434 13.0156 27.9501 12.5089 27.9501 11.8838Z" fill="url(#paint11_linear_407_179)"/>
<defs>
<linearGradient id="paint0_linear_407_179" x1="36.0764" y1="27.921" x2="22.269" y2="29.885" gradientUnits="userSpaceOnUse">
<stop stop-color="#66ABC6"/>
<stop offset="1" stop-color="white" stop-opacity="0"/>
</linearGradient>
<linearGradient id="paint1_linear_407_179" x1="38.7548" y1="18.523" x2="28.1652" y2="19.8304" gradientUnits="userSpaceOnUse">
<stop stop-color="#3561A6"/>
<stop offset="0.630208" stop-color="white" stop-opacity="0"/>
</linearGradient>
<linearGradient id="paint2_linear_407_179" x1="37.9203" y1="26.0855" x2="-5.66308" y2="39.6943" gradientUnits="userSpaceOnUse">
<stop stop-color="#66ABC6"/>
<stop offset="1" stop-color="white" stop-opacity="0"/>
</linearGradient>
<linearGradient id="paint3_linear_407_179" x1="47.0149" y1="11.549" x2="13.007" y2="20.7656" gradientUnits="userSpaceOnUse">
<stop stop-color="#3561A6"/>
<stop offset="0.630208" stop-color="white" stop-opacity="0"/>
</linearGradient>
<linearGradient id="paint4_linear_407_179" x1="39.4399" y1="53.8351" x2="-12.9356" y2="97.3842" gradientUnits="userSpaceOnUse">
<stop stop-color="#66ABC6"/>
<stop offset="1" stop-color="white" stop-opacity="0"/>
</linearGradient>
<linearGradient id="paint5_linear_407_179" x1="56.2831" y1="43.7252" x2="11.8279" y2="75.8075" gradientUnits="userSpaceOnUse">
<stop stop-color="#3561A6"/>
<stop offset="0.630208" stop-color="white" stop-opacity="0"/>
</linearGradient>
<linearGradient id="paint6_linear_407_179" x1="35.487" y1="4.36956" x2="32.1981" y2="4.54816" gradientUnits="userSpaceOnUse">
<stop stop-color="#66ABC6"/>
<stop offset="1" stop-color="white" stop-opacity="0"/>
</linearGradient>
<linearGradient id="paint7_linear_407_179" x1="36.1142" y1="-1.39454" x2="33.6023" y2="-1.27615" gradientUnits="userSpaceOnUse">
<stop stop-color="#3561A6"/>
<stop offset="0.630208" stop-color="white" stop-opacity="0"/>
</linearGradient>
<linearGradient id="paint8_linear_407_179" x1="43.9756" y1="8.12868" x2="40.7072" y2="8.4427" gradientUnits="userSpaceOnUse">
<stop stop-color="#66ABC6"/>
<stop offset="1" stop-color="white" stop-opacity="0"/>
</linearGradient>
<linearGradient id="paint9_linear_407_179" x1="44.6027" y1="4.87072" x2="42.1027" y2="5.0792" gradientUnits="userSpaceOnUse">
<stop stop-color="#3561A6"/>
<stop offset="0.630208" stop-color="white" stop-opacity="0"/>
</linearGradient>
<linearGradient id="paint10_linear_407_179" x1="26.9986" y1="8.12868" x2="23.7302" y2="8.4427" gradientUnits="userSpaceOnUse">
<stop stop-color="#66ABC6"/>
<stop offset="1" stop-color="white" stop-opacity="0"/>
</linearGradient>
<linearGradient id="paint11_linear_407_179" x1="27.6257" y1="4.87072" x2="25.1257" y2="5.07919" gradientUnits="userSpaceOnUse">
<stop stop-color="#3561A6"/>
<stop offset="0.630208" stop-color="white" stop-opacity="0"/>
</linearGradient>
</defs>
</svg>
