<svg width="91" height="99" viewBox="0 0 91 99" fill="none" xmlns="http://www.w3.org/2000/svg">
<g filter="url(#filter0_d)">
<path d="M46.4008 42.6571C46.2732 42.6295 46.1422 42.6245 46.0129 42.6439C44.7169 42.493 43.7393 41.3966 43.7371 40.0924C43.7371 39.4673 43.2303 38.9606 42.6053 38.9606C41.9803 38.9606 41.4735 39.4673 41.4735 40.0924C41.4768 42.2703 42.9336 44.178 45.0336 44.7544V45.8862C45.0336 46.5112 45.5404 47.018 46.1654 47.018C46.7904 47.018 47.2972 46.5112 47.2972 45.8862V44.8229C49.721 44.3156 51.3685 42.0581 51.1137 39.595C50.8584 37.1319 48.7832 35.2601 46.3069 35.2596C44.8877 35.2596 43.7371 34.109 43.7371 32.6898C43.7371 31.2706 44.8877 30.12 46.3069 30.12C47.726 30.12 48.8766 31.2706 48.8766 32.6898C48.8766 33.3148 49.3834 33.8216 50.0084 33.8216C50.6335 33.8216 51.1402 33.3148 51.1402 32.6898C51.1369 30.403 49.5348 28.4306 47.2972 27.9587V26.9286C47.2972 26.3035 46.7904 25.7968 46.1654 25.7968C45.5404 25.7968 45.0336 26.3035 45.0336 26.9286V28.0277C42.6981 28.6655 41.195 30.933 41.5166 33.3325C41.8382 35.7321 43.8858 37.5231 46.3069 37.5226C47.7072 37.5226 48.8495 38.6439 48.875 40.0437C48.9009 41.4436 47.8001 42.6063 46.4008 42.6571Z" fill="#0C83F1"/>
<path d="M29.8947 36.4781C29.8947 45.5425 37.2425 52.8903 46.3068 52.8903C55.3712 52.8903 62.719 45.5425 62.719 36.4781C62.719 27.4138 55.3712 20.0659 46.3068 20.0659C37.2469 20.0759 29.9052 27.4182 29.8947 36.4781ZM46.3068 22.3295C54.1211 22.3295 60.4554 28.6638 60.4554 36.4781C60.4554 44.2924 54.1211 50.6267 46.3068 50.6267C38.4926 50.6267 32.1583 44.2924 32.1583 36.4781C32.1671 28.6677 38.4964 22.3384 46.3068 22.3295Z" fill="#0C83F1"/>
<path d="M68.2984 55.6805L59.4325 59.8695C58.2084 57.5927 55.8603 56.1436 53.2761 56.0707L45.0916 55.8458C43.7957 55.8087 42.524 55.4805 41.3718 54.8853L40.539 54.4537C36.2748 52.231 31.1922 52.2365 26.9325 54.4681L26.9845 52.5814C27.0016 51.9563 26.5092 51.4357 25.8842 51.4186L16.9094 51.1716C16.2843 51.1544 15.7643 51.6468 15.7472 52.2719L15.205 71.9667C15.1879 72.5918 15.6803 73.1123 16.3053 73.1295L25.2801 73.3765H25.3111C25.9245 73.3765 26.4263 72.8885 26.4429 72.2757L26.4689 71.3334L28.8004 70.085C29.7156 69.5926 30.7855 69.4754 31.7852 69.7584L45.7083 73.6661C45.7327 73.6733 45.757 73.6788 45.7818 73.6843C46.7882 73.8949 47.8139 74.0004 48.8418 73.9999C51.0192 74.001 53.1711 73.5318 55.1501 72.6233C55.1988 72.6012 55.2457 72.5752 55.2905 72.5459L75.4777 59.4882C75.9806 59.1627 76.1431 58.5023 75.8486 57.9806C74.3498 55.3213 71.0257 54.3083 68.2984 55.6805ZM17.499 70.8979L17.9787 53.4656L24.6905 53.6502L24.2108 71.0831L17.499 70.8979ZM54.1305 70.6017C51.6718 71.7114 48.9258 72.0176 46.2831 71.4776L32.3975 67.5799C30.8347 67.1383 29.1619 67.3213 27.7322 68.09L26.5407 68.7283L26.8596 57.1378C30.6352 54.6267 35.4774 54.3686 39.4984 56.4636L40.3312 56.8952C41.7868 57.6468 43.3922 58.0613 45.0297 58.1088L53.2148 58.3337C55.5138 58.4001 57.4662 60.037 57.9326 62.2895L45.7409 61.953C45.1159 61.9358 44.5959 62.4288 44.5782 63.0533C44.5611 63.6783 45.054 64.1989 45.6785 64.216L59.133 64.5863H59.1645C59.7773 64.5857 60.2786 64.0977 60.2952 63.4854C60.309 62.9936 60.2725 62.5012 60.1857 62.0171L69.2794 57.7203C69.2882 57.7165 69.2971 57.712 69.3059 57.7076C70.5958 57.0549 72.1553 57.2732 73.2164 58.2553L54.1305 70.6017Z" fill="#0C83F1"/>
<path d="M47.4386 16.8839V6.1318C47.4386 5.50677 46.9319 5 46.3068 5C45.6818 5 45.175 5.50677 45.175 6.1318V16.8839C45.175 17.5089 45.6818 18.0157 46.3068 18.0157C46.9319 18.0157 47.4386 17.5089 47.4386 16.8839Z" fill="#0C83F1"/>
<path d="M55.9271 16.8838V11.7907C55.9271 11.1657 55.4204 10.6589 54.7953 10.6589C54.1703 10.6589 53.6635 11.1657 53.6635 11.7907V16.8838C53.6635 17.5089 54.1703 18.0156 54.7953 18.0156C55.4204 18.0156 55.9271 17.5089 55.9271 16.8838Z" fill="#0C83F1"/>
<path d="M38.9501 16.8838V11.7907C38.9501 11.1657 38.4434 10.6589 37.8183 10.6589C37.1933 10.6589 36.6866 11.1657 36.6866 11.7907V16.8838C36.6866 17.5089 37.1933 18.0156 37.8183 18.0156C38.4434 18.0156 38.9501 17.5089 38.9501 16.8838Z" fill="#0C83F1"/>
</g>
<defs>
<filter id="filter0_d" x="-4" y="0" width="99" height="99" filterUnits="userSpaceOnUse" color-interpolation-filters="sRGB">
<feFlood flood-opacity="0" result="BackgroundImageFix"/>
<feColorMatrix in="SourceAlpha" type="matrix" values="0 0 0 0 0 0 0 0 0 0 0 0 0 0 0 0 0 0 127 0" result="hardAlpha"/>
<feOffset dy="10"/>
<feGaussianBlur stdDeviation="7.5"/>
<feColorMatrix type="matrix" values="0 0 0 0 0.0470588 0 0 0 0 0.513726 0 0 0 0 0.945098 0 0 0 0.2 0"/>
<feBlend mode="normal" in2="BackgroundImageFix" result="effect1_dropShadow"/>
<feBlend mode="normal" in="SourceGraphic" in2="effect1_dropShadow" result="shape"/>
</filter>
</defs>
</svg>
