<svg width="15" height="15" viewBox="0 0 15 15" fill="none" xmlns="http://www.w3.org/2000/svg">
<path d="M13.7304 1.26389C12.0376 -0.421298 9.2832 -0.421298 7.59036 1.26389C6.88847 1.96264 6.45843 2.84995 6.34673 3.82992C6.25165 4.66399 6.4048 5.514 6.7795 6.25904L0 13.0082L1.93323 14.9328L2.72072 14.1488L3.57576 15L5.41065 13.1733L4.55561 12.3221L5.18477 11.6958L6.03981 12.547L7.8747 10.7203L7.01966 9.86912L8.71273 8.18361C9.46116 8.5566 10.315 8.70912 11.1528 8.61444C12.1372 8.50324 13.0285 8.07513 13.7304 7.37638C15.4232 5.69119 15.4232 2.94911 13.7304 1.26389ZM13.106 6.75481C11.9743 7.8815 10.2302 8.09072 8.86482 7.26359L8.56844 7.08406L5.77087 9.86912L6.62591 10.7203L6.03981 11.3038L5.18477 10.4526L3.30679 12.3221L4.16183 13.1733L3.57576 13.7568L2.72072 12.9056L1.93323 13.6896L1.24882 13.0082L7.88403 6.40271L7.70369 6.10767C6.87284 4.74838 7.08303 3.01217 8.21476 1.88549C9.56327 0.54305 11.7575 0.54305 13.106 1.88549C14.4545 3.22799 14.4545 5.41235 13.106 6.75481Z" fill="#949494"/>
<path d="M10.4765 2.46703C9.91255 3.02841 9.91255 3.94185 10.4765 4.50329C10.7584 4.78395 11.1288 4.92431 11.4992 4.92431C11.8695 4.92431 12.2399 4.78395 12.5219 4.50326H12.5219C13.0858 3.94185 13.0858 3.02841 12.5219 2.46703C11.9579 1.90565 11.0404 1.90568 10.4765 2.46703ZM11.8975 3.88167C11.6778 4.10035 11.3205 4.10029 11.1009 3.88167C10.8813 3.66301 10.8813 3.30725 11.1009 3.08865C11.2107 2.97932 11.3549 2.92465 11.4992 2.92465C11.6434 2.92465 11.7877 2.97929 11.8975 3.08862C12.1171 3.30728 12.1171 3.66301 11.8975 3.88167Z" fill="#949494"/>
</svg>
