<svg width="16" height="16" viewBox="0 0 16 16" fill="none" xmlns="http://www.w3.org/2000/svg">
<path d="M15.7576 7.41479L12.6366 4.29379C12.5597 4.21694 12.4685 4.15598 12.3681 4.11438C12.2677 4.07279 12.1601 4.05138 12.0514 4.05138C11.9427 4.05138 11.8351 4.07279 11.7347 4.11438C11.6342 4.15598 11.543 4.21694 11.4662 4.29379C11.311 4.44899 11.2238 4.65949 11.2238 4.87898C11.2238 5.09847 11.311 5.30897 11.4662 5.46417L13.1744 7.17241H4.13793C3.91844 7.17241 3.70794 7.2596 3.55274 7.41481C3.39753 7.57001 3.31034 7.78051 3.31034 8C3.31034 8.21949 3.39753 8.42999 3.55274 8.58519C3.70794 8.74039 3.91844 8.82759 4.13793 8.82759H13.1744L11.4662 10.5358C11.311 10.691 11.2238 10.9015 11.2238 11.121C11.2238 11.3405 11.311 11.551 11.4662 11.7062C11.6214 11.8614 11.8319 11.9486 12.0514 11.9486C12.2709 11.9486 12.4814 11.8614 12.6366 11.7062L15.7576 8.58517C15.9128 8.42997 16 8.21947 16 7.99998C16 7.78049 15.9128 7.56999 15.7576 7.41479Z" fill="#949494"/>
<path d="M9.65516 12.6897C9.43568 12.6897 9.22518 12.7768 9.06997 12.9321C8.91477 13.0873 8.82758 13.2978 8.82758 13.5172V14.3448H1.65517V1.65517H8.82758V2.48276C8.82758 2.70225 8.91477 2.91275 9.06997 3.06795C9.22518 3.22315 9.43568 3.31034 9.65516 3.31034C9.87465 3.31034 10.0852 3.22315 10.2404 3.06795C10.3956 2.91275 10.4827 2.70225 10.4827 2.48276V1.37931C10.4827 1.19818 10.4471 1.01882 10.3778 0.851471C10.3084 0.684125 10.2068 0.532071 10.0788 0.403991C9.95068 0.27591 9.79863 0.174311 9.63128 0.104994C9.46393 0.0356769 9.28457 0 9.10344 0H1.37931C1.01349 0 0.662661 0.14532 0.40399 0.403991C0.14532 0.662661 0 1.01349 0 1.37931V14.6207C0 14.9865 0.14532 15.3373 0.40399 15.596C0.662661 15.8547 1.01349 16 1.37931 16H9.10344C9.28457 16 9.46393 15.9643 9.63128 15.895C9.79863 15.8257 9.95068 15.7241 10.0788 15.596C10.2068 15.4679 10.3084 15.3159 10.3778 15.1485C10.4471 14.9812 10.4827 14.8018 10.4827 14.6207V13.5172C10.4827 13.2978 10.3956 13.0873 10.2404 12.9321C10.0852 12.7768 9.87465 12.6897 9.65516 12.6897Z" fill="#949494"/>
</svg>
