<svg viewBox="0 0 20 20" fill="none" xmlns="http://www.w3.org/2000/svg">
  <path
    d="M4.1665 12.5H3.33317C2.89114 12.5 2.46722 12.3244 2.15466 12.0118C1.8421 11.6993 1.6665 11.2754 1.6665 10.8333V3.33332C1.6665 2.8913 1.8421 2.46737 2.15466 2.15481C2.46722 1.84225 2.89114 1.66666 3.33317 1.66666H10.8332C11.2752 1.66666 11.6991 1.84225 12.0117 2.15481C12.3242 2.46737 12.4998 2.8913 12.4998 3.33332V4.16666M9.1665 7.49999H16.6665C17.587 7.49999 18.3332 8.24618 18.3332 9.16666V16.6667C18.3332 17.5871 17.587 18.3333 16.6665 18.3333H9.1665C8.24603 18.3333 7.49984 17.5871 7.49984 16.6667V9.16666C7.49984 8.24618 8.24603 7.49999 9.1665 7.49999Z"
    stroke-linecap="round" stroke-linejoin="round"/>
</svg>
