<svg viewBox="0 0 40 40" fill="none" xmlns="http://www.w3.org/2000/svg">
<path d="M26.666 6.66683H29.9993C30.8834 6.66683 31.7312 7.01802 32.3564 7.64314C32.9815 8.26826 33.3327 9.11611 33.3327 10.0002V33.3335C33.3327 34.2176 32.9815 35.0654 32.3564 35.6905C31.7312 36.3156 30.8834 36.6668 29.9993 36.6668H9.99935C9.11529 36.6668 8.26745 36.3156 7.64233 35.6905C7.0172 35.0654 6.66602 34.2176 6.66602 33.3335V10.0002C6.66602 9.11611 7.0172 8.26826 7.64233 7.64314C8.26745 7.01802 9.11529 6.66683 9.99935 6.66683H13.3327M14.9993 21.6668L18.3327 25.0002L24.9993 18.3335M14.9993 3.3335H24.9993C25.9198 3.3335 26.666 4.07969 26.666 5.00016V8.3335C26.666 9.25397 25.9198 10.0002 24.9993 10.0002H14.9993C14.0789 10.0002 13.3327 9.25397 13.3327 8.3335V5.00016C13.3327 4.07969 14.0789 3.3335 14.9993 3.3335Z"  stroke-width="2" stroke-linecap="round" stroke-linejoin="round"/>
</svg>
