<svg viewBox="0 0 20 20" fill="none" xmlns="http://www.w3.org/2000/svg">
<path d="M8.33333 10.8332C8.69121 11.3117 9.1478 11.7075 9.67212 11.994C10.1965 12.2805 10.7763 12.4508 11.3722 12.4935C11.9682 12.5362 12.5663 12.4502 13.1261 12.2414C13.6859 12.0326 14.1943 11.7058 14.6167 11.2832L17.1167 8.78322C17.8757 7.99738 18.2956 6.94487 18.2861 5.85238C18.2766 4.7599 17.8384 3.71485 17.0659 2.94231C16.2934 2.16978 15.2483 1.73157 14.1558 1.72208C13.0633 1.71259 12.0108 2.13256 11.225 2.89156L9.79166 4.31656M11.6667 9.16656C11.3088 8.68811 10.8522 8.29224 10.3279 8.00577C9.80355 7.71931 9.22374 7.54896 8.62779 7.50628C8.03184 7.4636 7.43368 7.54958 6.87388 7.7584C6.31408 7.96723 5.80574 8.294 5.38333 8.71656L2.88333 11.2166C2.12434 12.0024 1.70436 13.0549 1.71386 14.1474C1.72335 15.2399 2.16155 16.2849 2.93409 17.0575C3.70662 17.83 4.75167 18.2682 5.84416 18.2777C6.93665 18.2872 7.98916 17.8672 8.775 17.1082L10.2 15.6832" stroke-linecap="round" stroke-linejoin="round"/>
</svg>
