<svg width="41" height="40" viewBox="0 0 41 40" fill="none" xmlns="http://www.w3.org/2000/svg">
<path fill-rule="evenodd" clip-rule="evenodd" d="M21.8673 0.0304638C27.087 0.26924 32.006 2.54075 35.5718 6.35909C39.1376 10.1774 41.0673 15.2393 40.9479 20.4619C40.8284 25.6844 38.6693 30.6527 34.9325 34.3043C31.196 37.9556 26.1783 40 20.9531 40C15.728 40 10.7103 37.9556 6.97357 34.3043C3.23684 30.6527 1.07781 25.6844 0.958358 20.4619C0.83891 15.2393 2.76854 10.1774 6.33441 6.35909C9.9003 2.54075 14.8193 0.26924 20.0389 0.0304638V5.69694C17.1534 5.87807 14.3904 6.92867 12.1138 8.71041C9.83719 10.4921 8.15372 12.9215 7.28509 15.6784C6.41645 18.4354 6.40339 21.3908 7.24763 24.1552C8.09184 26.9198 9.75379 29.3638 12.0146 31.1657L17.4386 16.8979H13.6702C13.2692 16.8151 12.8517 16.8877 12.5021 17.101L11.6083 17.9541C11.5578 17.0882 11.5578 16.2202 11.6083 15.3544C11.7098 15.0497 12.0146 12.6937 13.0709 11.4954C13.8148 10.7655 14.7788 10.3015 15.8134 10.1753L27.85 10.0941L26.1132 11.9118L30.2878 30.7899C32.4487 28.9273 34.0035 26.4616 34.7525 23.7091C35.5016 20.9568 35.4106 18.0433 34.4912 15.3429C33.5721 12.6425 31.8665 10.2785 29.5936 8.55427C27.3205 6.83007 24.584 5.82443 21.7353 5.66647L21.7961 0L21.8673 0.0304638ZM17.266 11.7899C17.389 11.7959 17.5077 11.8378 17.6071 11.9105C17.7066 11.9832 17.7826 12.0835 17.8256 12.199C17.8686 12.3144 17.8768 12.4399 17.8492 12.56C17.8216 12.6801 17.7593 12.7894 17.6702 12.8744C17.581 12.9594 17.4688 13.0164 17.3476 13.0384C17.2263 13.0603 17.1013 13.0462 16.988 12.9978C16.8747 12.9494 16.7781 12.8688 16.7101 12.766C16.6421 12.6632 16.6059 12.5428 16.6057 12.4195C16.611 12.249 16.6833 12.0873 16.8068 11.9695C16.9303 11.8517 17.0953 11.7872 17.266 11.7899Z" fill="#0A3576"/>
</svg>
