<svg viewBox="0 0 16 16" fill="none" xmlns="http://www.w3.org/2000/svg">
  <path
    d="M7.9987 13.3334C8.36689 13.3334 8.66536 13.0349 8.66536 12.6667C8.66536 12.2985 8.36689 12 7.9987 12C7.63051 12 7.33203 12.2985 7.33203 12.6667C7.33203 13.0349 7.63051 13.3334 7.9987 13.3334Z"
    stroke-linecap="round" stroke-linejoin="round"/>
  <path
    d="M7.9987 8.66669C8.36689 8.66669 8.66536 8.36821 8.66536 8.00002C8.66536 7.63183 8.36689 7.33335 7.9987 7.33335C7.63051 7.33335 7.33203 7.63183 7.33203 8.00002C7.33203 8.36821 7.63051 8.66669 7.9987 8.66669Z"
    stroke-linecap="round" stroke-linejoin="round"/>
  <path
    d="M7.9987 4.00002C8.36689 4.00002 8.66536 3.70154 8.66536 3.33335C8.66536 2.96516 8.36689 2.66669 7.9987 2.66669C7.63051 2.66669 7.33203 2.96516 7.33203 3.33335C7.33203 3.70154 7.63051 4.00002 7.9987 4.00002Z"
    stroke-linecap="round" stroke-linejoin="round"/>
</svg>
