<svg viewBox="0 0 40 40" fill="none" xmlns="http://www.w3.org/2000/svg">
<path d="M29.7443 36.6668C32.4461 34.8024 34.7895 32.4532 36.6665 29.6878M38.3327 5.00016C36.7367 6.12595 34.9695 6.98701 33.0994 7.55016C32.0956 6.39601 30.7616 5.57798 29.2777 5.2067C27.7939 4.83543 26.2318 4.92882 24.8028 5.47425C23.3738 6.01968 22.1468 6.99083 21.2877 8.25635C20.4286 9.52188 19.9788 11.0207 19.9993 12.5502V14.2168C17.0704 14.2928 14.1681 13.6432 11.551 12.3259C8.93392 11.0086 6.68321 9.06447 4.99935 6.66675C4.99935 6.66675 -1.66732 21.6668 13.3327 28.3335C9.90023 30.6634 5.81128 31.8317 1.66602 31.6668C16.666 40.0002 34.9994 31.6668 34.9994 12.5002C34.9978 12.0359 34.9532 11.5728 34.866 11.1168C36.567 9.43931 37.7674 7.32135 38.3327 5.00016Z"  stroke-width="2" stroke-linecap="round" stroke-linejoin="round"/>
</svg>
