<svg width="212" height="40" viewBox="0 0 212 40" fill="none" xmlns="http://www.w3.org/2000/svg">
<mask id="mask0_7732_2367" style="mask-type:luminance" maskUnits="userSpaceOnUse" x="0" y="0" width="212" height="40">
<path d="M212 0H0V40H212V0Z" fill="white"/>
</mask>
<g mask="url(#mask0_7732_2367)">
<path d="M212 24.4948H121.35V40.0001H212V24.4948Z" fill="#009FD9"/>
<path d="M136.302 28.5959H138.242V29.4999H138.39C139.028 29.4999 139.584 29.6154 140.059 29.8464C140.539 30.0774 140.905 30.4022 141.159 30.8207C141.417 31.2393 141.546 31.7147 141.546 32.2471C141.546 32.8028 141.42 33.29 141.169 33.7086C140.919 34.1238 140.55 34.4451 140.065 34.6728C139.579 34.9006 138.992 35.0144 138.303 35.0144H138.242V36.1443H136.302V35.0144H136.2C135.515 35.0144 134.932 34.9039 134.45 34.6828C133.971 34.4585 133.61 34.1404 133.365 33.7287C133.121 33.3135 132.998 32.8162 132.998 32.237C132.998 31.6913 133.128 31.2074 133.385 30.7856C133.647 30.3603 134.009 30.0406 134.475 29.8263C134.943 29.6087 135.49 29.4999 136.114 29.4999H136.302V28.5959ZM138.242 33.5127H138.303C138.73 33.5127 139.051 33.4089 139.265 33.2012C139.479 32.9937 139.586 32.6723 139.586 32.237C139.586 31.8553 139.476 31.5574 139.255 31.3431C139.035 31.1254 138.724 31.0166 138.324 31.0166H138.242V33.5127ZM136.302 31.0166H136.185C135.788 31.0166 135.484 31.1203 135.274 31.328C135.064 31.5355 134.958 31.8386 134.958 32.237C134.958 32.689 135.06 33.0154 135.264 33.2163C135.471 33.4139 135.783 33.5127 136.2 33.5127H136.302V31.0166ZM147.309 36.044L146.943 34.6679H144.524L144.147 36.044H141.938L144.366 28.6712H147.049L149.509 36.044H147.309ZM146.526 33.0406L146.205 31.8352C146.129 31.5674 146.038 31.2208 145.929 30.7956C145.825 30.3704 145.754 30.0657 145.72 29.8816C145.69 30.0523 145.629 30.3336 145.537 30.7252C145.449 31.117 145.25 31.8888 144.942 33.0406H146.526ZM156.824 36.044H154.548L152.339 32.3224V36.044H150.317V28.7012H152.339V32.2571L154.467 28.7012H156.676L154.38 32.2068L156.824 36.044ZM160.871 36.044H158.86V30.3235H157.043V28.7012H162.684V30.3235H160.871V36.044ZM170.712 32.3626C170.712 33.598 170.405 34.5372 169.791 35.1801C169.176 35.823 168.277 36.1443 167.092 36.1443C165.925 36.1443 165.029 35.8212 164.404 35.1751C163.783 34.5289 163.473 33.588 163.473 32.3526C163.473 31.1304 163.782 30.1979 164.4 29.5551C165.02 28.9089 165.922 28.5858 167.102 28.5858C168.287 28.5858 169.185 28.9056 169.796 29.545C170.406 30.1846 170.712 31.1238 170.712 32.3626ZM165.59 32.3626C165.59 33.7822 166.091 34.492 167.092 34.492C167.602 34.492 167.978 34.3196 168.222 33.9747C168.47 33.6298 168.594 33.0924 168.594 32.3626C168.594 31.6294 168.468 31.0886 168.218 30.7403C167.97 30.3888 167.598 30.213 167.102 30.213C166.094 30.213 165.59 30.9296 165.59 32.3626ZM177.458 31.0367C177.458 31.857 177.211 32.4915 176.719 32.9401C176.231 33.3855 175.535 33.6081 174.632 33.6081H174.067V36.044H172.056V28.7012H174.632C175.572 28.7012 176.278 28.9039 176.75 29.309C177.221 29.7142 177.458 30.29 177.458 31.0367ZM174.067 31.991H174.433C174.735 31.991 174.975 31.9072 175.151 31.7398C175.331 31.5724 175.421 31.3414 175.421 31.0467C175.421 30.5512 175.143 30.3034 174.586 30.3034H174.067V31.991ZM178.644 28.7012H180.435V31.8553C180.435 32.1902 180.408 32.8598 180.354 33.8642H180.395L183.363 28.7012H185.847V36.044H184.066V32.9703C184.066 32.5049 184.096 31.8084 184.157 30.881H184.117L181.123 36.044H178.644V28.7012ZM193.84 36.044H191.819V33.0506H189.483V36.044H187.461V28.7012H189.483V31.4234H191.819V28.7012H193.84V36.044ZM200.418 28.7012V30.3034H197.475V36.044H195.453V28.7012H200.418Z" fill="white"/>
<path fill-rule="evenodd" clip-rule="evenodd" d="M40.9276 18.0187L40.0572 11.0502L38.572 18.0187H36.5412L34.9167 11.0332L33.9419 18.0187H30.3679L32.4391 4.12686H36.1351L37.4754 10.2633L38.8968 4.14951H42.4709L44.5016 18.0414L40.9276 18.0187ZM53.2337 4.12686V7.61966H49.619V9.40851H52.1776V12.9239H49.619V14.5882H53.2337V18.0187H46.0449V4.14951L53.2337 4.12686ZM55.1832 4.12686H63.0623V7.9027H60.9097V18.0187H57.295V7.92535H55.1832V4.14951V4.12686ZM64.4258 18.0187L67.9591 4.12686H72.1425L75.6526 18.0187H72.1192L71.539 16.0261H68.4871L67.9591 18.0187H64.4258ZM70.924 13.2635L70.0711 9.73117L69.1369 13.2635H70.924ZM84.3847 4.14951L87.2277 18.0187H83.6131L82.0696 7.65929H81.7853L80.2015 18.0187H76.61L79.3718 4.12686L84.3847 4.14951ZM95.9888 4.14951L98.8897 18.0414H95.275L93.7317 7.68191H93.4474L91.8171 18.0187H88.243L91.0455 4.12686L95.9888 4.14951ZM110.935 4.14951V18.0187H107.32V11.6615L103.961 18.0187H100.398V4.14951H103.972V10.852L107.546 4.14951H110.935ZM117.108 4.14951V9.43114H119.83V4.14951H123.404V18.0187H119.83V12.9239H117.108V18.0187H113.534V4.14951H117.108ZM131.363 4.14951C131.804 4.1354 132.242 4.21931 132.644 4.39489C133.046 4.57045 133.402 4.83308 133.684 5.16283C134.272 5.9198 134.574 6.85181 134.538 7.8008C134.571 8.48342 134.446 9.16464 134.172 9.79344C134.078 9.9979 133.943 10.1822 133.777 10.3357C133.609 10.4892 133.412 10.6089 133.197 10.6879C133.824 10.8512 134.371 11.2264 134.74 11.7465C135.196 12.416 135.423 13.2082 135.39 14.0109C135.464 15.0719 135.147 16.1239 134.497 16.9771C134.168 17.337 133.759 17.6189 133.302 17.8013C132.844 17.9838 132.35 18.0621 131.857 18.0301H125.851V4.14951H131.363ZM129.495 7.15546V9.1481H130.104C130.632 9.1481 130.917 8.82542 130.917 8.17442C130.917 7.52341 130.632 7.15546 130.104 7.15546H129.495ZM129.495 12.4371V14.4694H130.43C131.01 14.4694 131.323 14.1466 131.323 13.456C131.344 13.1907 131.256 12.9282 131.08 12.7258C130.909 12.5525 130.675 12.451 130.43 12.4427L129.495 12.4371ZM144.441 4.14951V7.6423H140.827V9.43114H144.401V12.9239H140.827V14.5882H144.441V18.0187H137.224V4.14951H144.441ZM152.646 8.62163C152.357 8.61183 152.07 8.66939 151.808 8.7895C151.547 8.90962 151.319 9.08883 151.143 9.31227C150.794 9.84508 150.624 10.47 150.655 11.1011C150.629 11.7374 150.814 12.3648 151.184 12.8899C151.348 13.1158 151.568 13.2974 151.823 13.4181C152.079 13.5389 152.362 13.5947 152.646 13.5806C152.946 13.604 153.248 13.5753 153.539 13.4957C153.742 13.4563 153.937 13.3875 154.119 13.2919V18.0187C153.962 18.0755 153.798 18.1171 153.632 18.1433C153.294 18.1832 152.955 18.1965 152.617 18.183C151.737 18.2119 150.864 18.0262 150.077 17.6426C149.29 17.259 148.613 16.6898 148.108 15.9865C147.128 14.5334 146.607 12.832 146.607 11.0926C146.607 9.35324 147.128 7.65191 148.108 6.19876C148.738 5.4221 149.562 4.81638 150.5 4.4397C151.44 4.06301 152.462 3.92801 153.469 4.04763C153.681 4.11708 153.899 4.17193 154.119 4.21178V8.96128C153.962 8.88335 153.798 8.8153 153.632 8.7575C153.3 8.6755 152.959 8.63554 152.617 8.63861L152.646 8.62163ZM156.057 4.14951H163.977V7.92535H161.824V18.0187H158.187V7.92535H156.034V4.14951H156.057ZM169.784 9.3066H171.978C172.454 9.29464 172.928 9.38708 173.365 9.57711C173.801 9.76716 174.186 10.05 174.496 10.4048C175.253 11.2739 175.632 12.3974 175.552 13.5353C175.61 14.7128 175.251 15.8741 174.536 16.8243C174.235 17.2059 173.847 17.5143 173.403 17.7255C172.959 17.9366 172.472 18.0447 171.978 18.0414H166.175V4.14951H174.501V7.07621H169.79V9.31227L169.784 9.3066ZM169.784 12.7031V14.6958H170.678C171.259 14.6958 171.572 14.3731 171.572 13.6825C171.592 13.4173 171.504 13.1547 171.328 12.9522C171.244 12.8688 171.142 12.8039 171.029 12.7618C170.918 12.7199 170.798 12.7018 170.678 12.7088L169.784 12.7031ZM176.689 18.064L180.222 4.17217H184.365L187.875 18.0187H184.341L183.814 16.0261H180.727L180.199 18.0187L176.689 18.064ZM183.147 13.2296L182.293 9.83308L181.36 13.2296H183.147ZM193.34 4.17217V9.45379H196.021V4.14951H199.595V18.0187H196.021V12.9239H193.34V18.0187H189.726V4.14951L193.34 4.17217ZM205.728 4.17217V9.21037L208.206 4.17217H211.901L208.733 10.6313L212 18.0187H208.316L205.716 12.0465V18.0187H202.143V4.14951L205.728 4.17217Z" fill="#0A3576"/>
<path fill-rule="evenodd" clip-rule="evenodd" d="M11.899 -0.000474C14.8806 0.132632 17.6903 1.39889 19.7272 3.52742C21.764 5.65595 22.8663 8.47772 22.798 11.389C22.7298 14.3003 21.4965 17.0699 19.362 19.1055C17.2276 21.1409 14.3615 22.2806 11.3768 22.2806C8.39217 22.2806 5.52603 21.1409 3.39157 19.1055C1.25712 17.0699 0.0238554 14.3003 -0.0443744 11.389C-0.112604 8.47772 0.989616 5.65595 3.02648 3.52742C5.06335 1.39889 7.8731 0.132632 10.8546 -0.000474V3.1583C9.2064 3.25927 7.62814 3.84493 6.32771 4.83816C5.0273 5.83139 4.06569 7.18562 3.56951 8.7225C3.07334 10.2594 3.06588 11.9068 3.54812 13.4479C4.03034 14.989 4.97966 16.3514 6.27104 17.3559L9.36931 9.40229H7.21676C6.98768 9.35613 6.74919 9.39661 6.54954 9.51551L6.03895 9.99103C6.01012 9.50838 6.01012 9.0245 6.03895 8.54183C6.09697 8.37202 6.27104 7.05867 6.87444 6.39068C7.29935 5.98379 7.85 5.7251 8.441 5.65477L15.3164 5.60948L14.3243 6.62278L16.7089 17.1464C17.9432 16.1081 18.8313 14.7336 19.2591 13.1992C19.6871 11.6649 19.6351 10.0408 19.1099 8.53545C18.5849 7.03012 17.6106 5.71228 16.3123 4.75112C15.0139 3.78997 13.4508 3.22938 11.8236 3.14132L11.8584 -0.0174561L11.899 -0.000474ZM9.27068 6.55485C9.34099 6.55818 9.40875 6.58155 9.46557 6.62207C9.52239 6.6626 9.56579 6.71852 9.59036 6.78287C9.61494 6.84723 9.61962 6.91719 9.60383 6.98412C9.58805 7.05105 9.5525 7.11198 9.50156 7.15939C9.45064 7.20678 9.38656 7.23856 9.3173 7.25079C9.24803 7.26301 9.17661 7.25515 9.11189 7.22815C9.04716 7.20117 8.99199 7.15623 8.95318 7.09893C8.91436 7.04164 8.89363 6.97451 8.89355 6.90582C8.89659 6.81073 8.93784 6.72062 9.00841 6.65495C9.07898 6.58927 9.17318 6.55332 9.27068 6.55485Z" fill="#0A3576"/>
<path d="M121.35 24.4948H0V40.0001H121.35V24.4948Z" fill="#C8DDE7"/>
</g>
</svg>
