<svg width="210" height="40" viewBox="0 0 210 40" fill="none" xmlns="http://www.w3.org/2000/svg">
<mask id="mask0_7701_3315" style="mask-type:luminance" maskUnits="userSpaceOnUse" x="0" y="0" width="210" height="40">
<path d="M210 0H0V40H210V0Z" fill="white"/>
</mask>
<g mask="url(#mask0_7701_3315)">
<path d="M210 24.4949H120.205V40.0001H210V24.4949Z" fill="#009FD9"/>
<path d="M135.016 28.596H136.939V29.5H137.084C137.717 29.5 138.267 29.6155 138.738 29.8465C139.213 30.0775 139.576 30.4023 139.828 30.8208C140.083 31.2394 140.211 31.7149 140.211 32.2472C140.211 32.803 140.086 33.2902 139.837 33.7087C139.589 34.1239 139.224 34.4453 138.744 34.6729C138.263 34.9007 137.681 35.0145 136.998 35.0145H136.939V36.1445H135.016V35.0145H134.915C134.237 35.0145 133.659 34.904 133.182 34.683C132.708 34.4586 132.35 34.1406 132.107 33.7288C131.865 33.3136 131.744 32.8163 131.744 32.2371C131.744 31.6914 131.872 31.2075 132.127 30.7857C132.386 30.3605 132.745 30.0407 133.207 29.8264C133.67 29.6088 134.212 29.5 134.831 29.5H135.016V28.596ZM136.939 33.5128H136.998C137.422 33.5128 137.74 33.409 137.952 33.2014C138.163 32.9938 138.27 32.6725 138.27 32.2371C138.27 31.8554 138.161 31.5575 137.942 31.3432C137.723 31.1255 137.416 31.0167 137.019 31.0167H136.939V33.5128ZM135.016 31.0167H134.901C134.507 31.0167 134.206 31.1205 133.999 31.3281C133.79 31.5357 133.685 31.8387 133.685 32.2371C133.685 32.6891 133.786 33.0155 133.988 33.2165C134.194 33.4141 134.502 33.5128 134.915 33.5128H135.016V31.0167ZM145.919 36.0441L145.557 34.668H143.161L142.788 36.0441H140.599L143.004 28.6713H145.662L148.098 36.0441H145.919ZM145.143 33.0407L144.826 31.8353C144.751 31.5675 144.66 31.2209 144.553 30.7958C144.449 30.3705 144.379 30.0658 144.346 29.8817C144.316 30.0525 144.255 30.3337 144.165 30.7254C144.077 31.1171 143.88 31.8889 143.575 33.0407H145.143ZM155.345 36.0441H153.09L150.902 32.3225V36.0441H148.899V28.7014H150.902V32.2573L153.01 28.7014H155.198L152.924 32.207L155.345 36.0441ZM159.353 36.0441H157.361V30.3237H155.562V28.7014H161.149V30.3237H159.353V36.0441ZM169.102 32.3627C169.102 33.5982 168.798 34.5374 168.19 35.1802C167.58 35.8231 166.69 36.1445 165.516 36.1445C164.36 36.1445 163.472 35.8214 162.853 35.1752C162.238 34.529 161.931 33.5881 161.931 32.3527C161.931 31.1305 162.237 30.1981 162.849 29.5552C163.464 28.909 164.357 28.5859 165.526 28.5859C166.7 28.5859 167.589 28.9057 168.194 29.5451C168.799 30.1847 169.102 31.1239 169.102 32.3627ZM164.029 32.3627C164.029 33.7823 164.524 34.4921 165.516 34.4921C166.021 34.4921 166.394 34.3198 166.636 33.9749C166.881 33.6299 167.004 33.0926 167.004 32.3627C167.004 31.6295 166.879 31.0887 166.631 30.7405C166.386 30.3889 166.017 30.2131 165.526 30.2131C164.528 30.2131 164.029 30.9297 164.029 32.3627ZM175.784 31.0368C175.784 31.8571 175.54 32.4917 175.052 32.9402C174.569 33.3856 173.879 33.6082 172.985 33.6082H172.425V36.0441H170.433V28.7014H172.985C173.916 28.7014 174.616 28.904 175.083 29.3091C175.55 29.7143 175.784 30.2902 175.784 31.0368ZM172.425 31.9911H172.788C173.087 31.9911 173.325 31.9073 173.499 31.7399C173.677 31.5726 173.767 31.3415 173.767 31.0469C173.767 30.5513 173.491 30.3035 172.939 30.3035H172.425V31.9911ZM176.959 28.7014H178.733V31.8554C178.733 32.1903 178.707 32.8599 178.653 33.8643H178.693L181.633 28.7014H184.094V36.0441H182.33V32.9704C182.33 32.505 182.359 31.8086 182.42 30.8811H182.38L179.415 36.0441H176.959V28.7014ZM192.011 36.0441H190.01V33.0507H187.695V36.0441H185.693V28.7014H187.695V31.4235H190.01V28.7014H192.011V36.0441ZM198.527 28.7014V30.3035H195.612V36.0441H193.61V28.7014H198.527Z" fill="white"/>
<path fill-rule="evenodd" clip-rule="evenodd" d="M40.5416 18.0188L39.6795 11.0502L38.2082 18.0188H36.1966L34.5874 11.0332L33.6218 18.0188H30.0815L32.1332 4.12692H35.7943L37.1219 10.2634L38.53 4.14957H42.0704L44.0819 18.0414L40.5416 18.0188ZM52.7316 4.12692V7.61972H49.151V9.40857H51.6855V12.924H49.151V14.5883H52.7316V18.0188H45.6106V4.14957L52.7316 4.12692ZM54.6627 4.12692H62.4674V7.90276H60.3352V18.0188H56.7546V7.92541H54.6627V4.14957V4.12692ZM63.8181 18.0188L67.3181 4.12692H71.462L74.939 18.0188H71.4389L70.8642 16.0261H67.8412L67.3181 18.0188H63.8181ZM70.255 13.2636L69.4102 9.73123L68.4848 13.2636H70.255ZM83.5887 4.14957L86.4049 18.0188H82.8244L81.2955 7.65935H81.0139L79.445 18.0188H75.8874L78.6231 4.12692L83.5887 4.14957ZM95.0833 4.14957L97.9569 18.0414H94.3763L92.8476 7.68197H92.566L90.951 18.0188H87.4106L90.1866 4.12692L95.0833 4.14957ZM109.888 4.14957V18.0188H106.308V11.6616L102.98 18.0188H99.4512V4.14957H102.992V10.8521L106.532 4.14957H109.888ZM116.004 4.14957V9.4312H118.699V4.14957H122.24V18.0188H118.699V12.924H116.004V18.0188H112.463V4.14957H116.004ZM130.124 4.14957C130.56 4.13546 130.994 4.21937 131.392 4.39495C131.791 4.57051 132.144 4.83314 132.423 5.16289C133.006 5.91986 133.304 6.85187 133.269 7.80087C133.302 8.48348 133.178 9.16471 132.906 9.79351C132.813 9.99796 132.68 10.1822 132.515 10.3358C132.348 10.4893 132.153 10.6089 131.941 10.6879C132.562 10.8513 133.103 11.2265 133.469 11.7466C133.92 12.4161 134.145 13.2083 134.113 14.0109C134.187 15.072 133.872 16.124 133.228 16.9772C132.902 17.3371 132.497 17.6189 132.044 17.8013C131.591 17.9838 131.102 18.0621 130.613 18.0301H124.664V4.14957H130.124ZM128.273 7.15552V9.14816H128.877C129.4 9.14816 129.682 8.82548 129.682 8.17448C129.682 7.52347 129.4 7.15552 128.877 7.15552H128.273ZM128.273 12.4372V14.4694H129.199C129.774 14.4694 130.084 14.1467 130.084 13.4561C130.105 13.1908 130.018 12.9283 129.843 12.7259C129.674 12.5525 129.443 12.451 129.199 12.4428L128.273 12.4372ZM143.079 4.14957V7.64236H139.499V9.4312H143.039V12.924H139.499V14.5883H143.079V18.0188H135.93V4.14957H143.079ZM151.206 8.62169C150.92 8.61189 150.635 8.66945 150.376 8.78956C150.118 8.90968 149.892 9.08889 149.717 9.31233C149.372 9.84514 149.203 10.4701 149.234 11.1012C149.208 11.7374 149.392 12.3649 149.758 12.89C149.921 13.1158 150.139 13.2974 150.391 13.4181C150.645 13.5389 150.925 13.5948 151.206 13.5806C151.503 13.6041 151.802 13.5754 152.091 13.4957C152.291 13.4564 152.485 13.3876 152.665 13.292V18.0188C152.509 18.0756 152.348 18.1172 152.182 18.1434C151.848 18.1833 151.512 18.1965 151.177 18.183C150.306 18.212 149.441 18.0262 148.662 17.6427C147.881 17.259 147.211 16.6899 146.711 15.9866C145.74 14.5334 145.224 12.8321 145.224 11.0927C145.224 9.3533 145.74 7.65197 146.711 6.19882C147.335 5.42216 148.151 4.81644 149.081 4.43976C150.011 4.06307 151.023 3.92807 152.022 4.04769C152.232 4.11714 152.447 4.17199 152.665 4.21184V8.96135C152.509 8.88341 152.348 8.81536 152.182 8.75756C151.854 8.67556 151.516 8.6356 151.177 8.63867L151.206 8.62169ZM154.585 4.14957H162.43V7.92541H160.298V18.0188H156.694V7.92541H154.562V4.14957H154.585ZM168.182 9.30666H170.356C170.828 9.29471 171.297 9.38714 171.73 9.57717C172.161 9.76722 172.543 10.05 172.85 10.4049C173.6 11.2739 173.975 12.3974 173.896 13.5354C173.953 14.7129 173.598 15.8741 172.89 16.8244C172.591 17.206 172.207 17.5144 171.767 17.7256C171.328 17.9366 170.845 18.0448 170.356 18.0414H164.608V4.14957H172.855V7.07627H168.188V9.31233L168.182 9.30666ZM168.182 12.7032V14.6958H169.068C169.643 14.6958 169.953 14.3732 169.953 13.6826C169.974 13.4173 169.887 13.1548 169.712 12.9523C169.628 12.8689 169.527 12.804 169.416 12.7619C169.306 12.72 169.187 12.7019 169.068 12.7089L168.182 12.7032ZM175.022 18.0641L178.522 4.17223H182.625L186.102 18.0188H182.602L182.08 16.0261H179.022L178.499 18.0188L175.022 18.0641ZM181.419 13.2297L180.574 9.83314L179.649 13.2297H181.419ZM191.517 4.17223V9.45385H194.172V4.14957H197.712V18.0188H194.172V12.924H191.517V18.0188H187.936V4.14957L191.517 4.17223ZM203.787 4.17223V9.21043L206.242 4.17223H209.902L206.764 10.6313L210 18.0188H206.351L203.776 12.0466V18.0188H200.236V4.14957L203.787 4.17223Z" fill="#0A3576"/>
<path fill-rule="evenodd" clip-rule="evenodd" d="M11.7868 -0.00035193C14.7402 0.132754 17.5235 1.39901 19.5411 3.52754C21.5587 5.65607 22.6506 8.47784 22.583 11.3891C22.5154 14.3004 21.2937 17.07 19.1794 19.1056C17.0652 21.141 14.226 22.2807 11.2695 22.2807C8.31304 22.2807 5.47394 21.141 3.35962 19.1056C1.2453 17.07 0.0236718 14.3004 -0.0439143 11.3891C-0.1115 8.47784 0.980322 5.65607 2.99797 3.52754C5.01562 1.39901 7.79887 0.132754 10.7523 -0.00035193V3.15842C9.11959 3.2594 7.55622 3.84505 6.26806 4.83829C4.97991 5.83151 4.02737 7.18574 3.53588 8.72262C3.04439 10.2595 3.037 11.907 3.51469 13.448C3.99236 14.9891 4.93272 16.3515 6.21192 17.356L9.28096 9.40241H7.14872C6.9218 9.35625 6.68556 9.39673 6.48779 9.51564L5.98202 9.99116C5.95346 9.5085 5.95346 9.02462 5.98202 8.54196C6.03949 8.37214 6.21192 7.05879 6.80963 6.3908C7.23053 5.98391 7.77599 5.72522 8.3614 5.65489L15.1719 5.6096L14.1892 6.6229L16.5513 17.1465C17.774 16.1082 18.6537 14.7337 19.0775 13.1993C19.5014 11.665 19.4499 10.0409 18.9297 8.53557C18.4096 7.03024 17.4445 5.7124 16.1585 4.75125C14.8723 3.79009 13.3239 3.2295 11.7121 3.14144L11.7465 -0.017334L11.7868 -0.00035193ZM9.18326 6.55497C9.25291 6.5583 9.32003 6.58167 9.37631 6.6222C9.4326 6.66272 9.47559 6.71864 9.49993 6.783C9.52428 6.84735 9.52891 6.91732 9.51327 6.98424C9.49764 7.05117 9.46242 7.1121 9.41197 7.15951C9.36152 7.2069 9.29805 7.23869 9.22944 7.25092C9.16083 7.26313 9.09008 7.25527 9.02597 7.22828C8.96186 7.20129 8.9072 7.15636 8.86876 7.09905C8.8303 7.04176 8.80977 6.97463 8.80969 6.90594C8.8127 6.81085 8.85356 6.72074 8.92347 6.65508C8.99337 6.5894 9.08669 6.55344 9.18326 6.55497Z" fill="#0A3576"/>
<path d="M120.205 24.4949H0V40.0001H120.205V24.4949Z" fill="#C8DDE7"/>
</g>
</svg>
