<svg width="176" height="46" viewBox="0 0 176 40" fill="none" xmlns="http://www.w3.org/2000/svg">
  <g clip-path="url(#clip0_660_25857)">
    <mask id="mask0_660_25857" style="mask-type:luminance" maskUnits="userSpaceOnUse" x="0" y="3" width="176"
          height="34">
      <path d="M176 3H0V37H176V3Z" fill="white"/>
    </mask>
    <g mask="url(#mask0_660_25857)">
      <path d="M176 23.8206H100.743V37.0001H176V23.8206Z" fill="#009FD9"/>
      <path
        d="M113.156 27.3065H114.767V28.0749H114.89C115.419 28.0749 115.881 28.1731 116.275 28.3694C116.674 28.5658 116.978 28.8418 117.189 29.1976C117.403 29.5534 117.51 29.9575 117.51 30.41C117.51 30.8824 117.405 31.2966 117.197 31.6523C116.989 32.0052 116.683 32.2784 116.28 32.4719C115.877 32.6655 115.39 32.7622 114.817 32.7622H114.767V33.7227H113.156V32.7622H113.072C112.503 32.7622 112.019 32.6683 111.619 32.4804C111.221 32.2897 110.921 32.0194 110.718 31.6694C110.516 31.3165 110.414 30.8938 110.414 30.4015C110.414 29.9376 110.521 29.5263 110.735 29.1678C110.952 28.8063 111.253 28.5345 111.64 28.3523C112.028 28.1674 112.482 28.0749 113.001 28.0749H113.156V27.3065ZM114.767 31.4858H114.817C115.172 31.4858 115.439 31.3976 115.617 31.2211C115.794 31.0447 115.883 30.7715 115.883 30.4015C115.883 30.077 115.792 29.8238 115.608 29.6416C115.425 29.4566 115.167 29.3641 114.835 29.3641H114.767V31.4858ZM113.156 29.3641H113.059C112.729 29.3641 112.477 29.4523 112.303 29.6288C112.128 29.8052 112.041 30.0628 112.041 30.4015C112.041 30.7857 112.125 31.0631 112.295 31.2339C112.467 31.4019 112.726 31.4858 113.072 31.4858H113.156V29.3641ZM122.294 33.6374L121.99 32.4677H119.982L119.669 33.6374H117.835L119.851 27.3705H122.079L124.12 33.6374H122.294ZM121.644 31.0845L121.378 30.0599C121.315 29.8323 121.239 29.5377 121.149 29.1763C121.062 28.8148 121.003 28.5559 120.976 28.3994C120.95 28.5445 120.9 28.7836 120.824 29.1165C120.75 29.4495 120.585 30.1055 120.329 31.0845H121.644ZM130.194 33.6374H128.304L126.47 30.474V33.6374H124.792V27.3961H126.47V30.4186L128.237 27.3961H130.071L128.165 30.3758L130.194 33.6374ZM133.553 33.6374H131.884V28.775H130.376V27.3961H135.058V28.775H133.553V33.6374ZM141.723 30.5082C141.723 31.5584 141.468 32.3567 140.959 32.9031C140.448 33.4495 139.702 33.7227 138.718 33.7227C137.749 33.7227 137.005 33.4481 136.487 32.8988C135.971 32.3496 135.713 31.5498 135.713 30.4997C135.713 29.4608 135.97 28.6683 136.483 28.1218C136.998 27.5726 137.746 27.298 138.726 27.298C139.71 27.298 140.456 27.5698 140.963 28.1133C141.469 28.6569 141.723 29.4552 141.723 30.5082ZM137.471 30.5082C137.471 31.7149 137.887 32.3182 138.718 32.3182C139.141 32.3182 139.454 32.1717 139.657 31.8785C139.862 31.5854 139.965 31.1286 139.965 30.5082C139.965 29.885 139.86 29.4253 139.653 29.1293C139.447 28.8305 139.138 28.6811 138.726 28.6811C137.89 28.6811 137.471 29.2902 137.471 30.5082ZM147.324 29.3812C147.324 30.0785 147.119 30.6178 146.71 30.9991C146.305 31.3777 145.727 31.5669 144.978 31.5669H144.509V33.6374H142.839V27.3961H144.978C145.758 27.3961 146.345 27.5683 146.736 27.9127C147.127 28.257 147.324 28.7466 147.324 29.3812ZM144.509 30.1923H144.812C145.063 30.1923 145.263 30.1211 145.409 29.9788C145.558 29.8366 145.633 29.6402 145.633 29.3897C145.633 28.9685 145.402 28.7579 144.939 28.7579H144.509V30.1923ZM148.308 27.3961H149.795V30.077C149.795 30.3616 149.773 30.9308 149.728 31.7846H149.762L152.226 27.3961H154.289V33.6374H152.809V31.0247C152.809 30.6292 152.834 30.0372 152.885 29.2489H152.852L150.367 33.6374H148.308V27.3961ZM160.924 33.6374H159.246V31.093H157.307V33.6374H155.628V27.3961H157.307V29.7099H159.246V27.3961H160.924V33.6374ZM166.384 27.3961V28.7579H163.942V33.6374H162.263V27.3961H166.384Z"
        fill="white"/>
      <path fill-rule="evenodd" clip-rule="evenodd"
            d="M33.978 18.3159L33.2554 12.3926L32.0223 18.3159H30.3364L28.9877 12.3782L28.1785 18.3159H25.2114L26.9309 6.50783H29.9993L31.1119 11.7238L32.292 6.52708H35.2592L36.945 18.3352L33.978 18.3159ZM44.1943 6.50783V9.47671H41.1935V10.9972H43.3176V13.9853H41.1935V15.4H44.1943V18.3159H38.2263V6.52708L44.1943 6.50783ZM45.8128 6.50783H52.3539V9.71729H50.5669V18.3159H47.566V9.73655H45.8128V6.52708V6.50783ZM53.4859 18.3159L56.4192 6.50783H59.8922L62.8063 18.3159H59.8729L59.3912 16.6222H56.8576L56.4192 18.3159H53.4859ZM58.8806 14.274L58.1726 11.2715L57.397 14.274H58.8806ZM70.0556 6.52708L72.4158 18.3159H69.4149L68.1336 9.51039H67.8976L66.5827 18.3159H63.6011L65.8939 6.50783L70.0556 6.52708ZM79.6891 6.52708L82.0974 18.3352H79.0966L77.8153 9.52962H77.5793L76.2259 18.3159H73.2587L75.5852 6.50783L79.6891 6.52708ZM92.0971 6.52708V18.3159H89.0963V12.9123L86.3073 18.3159H83.3498V6.52708H86.317V12.2242L89.2841 6.52708H92.0971ZM97.2225 6.52708V11.0165H99.4816V6.52708H102.449V18.3159H99.4816V13.9853H97.2225V18.3159H94.255V6.52708H97.2225ZM109.057 6.52708C109.422 6.51509 109.786 6.58641 110.12 6.73565C110.453 6.88488 110.749 7.10811 110.983 7.3884C111.472 8.03183 111.722 8.82404 111.692 9.63068C111.72 10.2109 111.616 10.7899 111.388 11.3244C111.31 11.4982 111.199 11.6549 111.06 11.7853C110.921 11.9158 110.757 12.0175 110.579 12.0847C111.1 12.2236 111.553 12.5424 111.86 12.9845C112.238 13.5536 112.427 14.227 112.4 14.9092C112.461 15.8111 112.198 16.7053 111.658 17.4306C111.385 17.7365 111.046 17.976 110.666 18.1311C110.286 18.2862 109.876 18.3528 109.466 18.3256H104.481V6.52708H109.057ZM107.505 9.08214V10.7759H108.011C108.45 10.7759 108.687 10.5016 108.687 9.94825C108.687 9.3949 108.45 9.08214 108.011 9.08214H107.505ZM107.505 13.5716V15.299H108.282C108.763 15.299 109.023 15.0246 109.023 14.4376C109.04 14.2121 108.967 13.989 108.821 13.817C108.68 13.6696 108.485 13.5833 108.282 13.5763L107.505 13.5716ZM119.914 6.52708V9.49595H116.913V11.0165H119.88V13.9853H116.913V15.4H119.914V18.3159H113.922V6.52708H119.914ZM126.725 10.3284C126.486 10.3201 126.247 10.369 126.03 10.4711C125.813 10.5732 125.624 10.7255 125.478 10.9154C125.188 11.3683 125.047 11.8995 125.073 12.4359C125.051 12.9768 125.205 13.5101 125.511 13.9565C125.648 14.1484 125.831 14.3028 126.042 14.4054C126.255 14.508 126.489 14.5555 126.725 14.5435C126.974 14.5634 127.225 14.539 127.467 14.4713C127.635 14.4379 127.797 14.3794 127.948 14.2981V18.3159C127.818 18.3642 127.682 18.3996 127.544 18.4218C127.264 18.4557 126.982 18.467 126.701 18.4555C125.971 18.4801 125.246 18.3222 124.593 17.9962C123.939 17.6701 123.377 17.1864 122.958 16.5885C122.144 15.3534 121.711 13.9072 121.711 12.4287C121.711 10.9503 122.144 9.50412 122.958 8.26894C123.481 7.60878 124.165 7.09392 124.944 6.77374C125.724 6.45356 126.572 6.3388 127.409 6.44048C127.585 6.49951 127.766 6.54613 127.948 6.58001V10.6171C127.818 10.5508 127.682 10.493 127.544 10.4439C127.268 10.3742 126.985 10.3402 126.701 10.3428L126.725 10.3284ZM129.557 6.52708H136.132V9.73655H134.345V18.3159H131.325V9.73655H129.538V6.52708H129.557ZM140.953 10.9106H142.775C143.17 10.9004 143.563 10.979 143.926 11.1405C144.288 11.3021 144.608 11.5425 144.865 11.8441C145.494 12.5828 145.808 13.5378 145.742 14.505C145.79 15.5059 145.492 16.493 144.898 17.3007C144.648 17.6251 144.326 17.8871 143.958 18.0667C143.589 18.2461 143.184 18.338 142.775 18.3352H137.957V6.52708H144.869V9.01478H140.958V10.9154L140.953 10.9106ZM140.953 13.7976V15.4914H141.696C142.177 15.4914 142.437 15.2172 142.437 14.6301C142.454 14.4047 142.381 14.1815 142.235 14.0094C142.165 13.9385 142.08 13.8833 141.987 13.8476C141.895 13.8119 141.795 13.7966 141.696 13.8025L140.953 13.7976ZM146.685 18.3544L149.619 6.54634H153.058L155.972 18.3159H153.039L152.601 16.6222H150.038L149.599 18.3159L146.685 18.3544ZM152.047 14.2452L151.338 11.3581L150.563 14.2452H152.047ZM160.509 6.54634V11.0357H162.735V6.52708H165.702V18.3159H162.735V13.9853H160.509V18.3159H157.509V6.52708L160.509 6.54634ZM170.793 6.54634V10.8288L172.851 6.54634H175.919L173.288 12.0366L176 18.3159H172.942L170.784 13.2395V18.3159H167.817V6.52708L170.793 6.54634Z"
            fill="#0A3576"/>
      <path fill-rule="evenodd" clip-rule="evenodd"
            d="M9.8787 2.99962C12.3539 3.11276 14.6866 4.18907 16.3775 5.99833C18.0685 7.80758 18.9836 10.2061 18.9269 12.6807C18.8703 15.1553 17.8464 17.5095 16.0744 19.2397C14.3025 20.9698 11.923 21.9385 9.44517 21.9385C6.96734 21.9385 4.58791 20.9698 2.8159 19.2397C1.0439 17.5095 0.0200625 15.1553 -0.0365812 12.6807C-0.0932248 10.2061 0.821826 7.80758 2.51281 5.99833C4.20379 4.18907 6.53642 3.11276 9.01165 2.99962V5.68458C7.6433 5.7704 6.33306 6.26821 5.25346 7.11246C4.17386 7.9567 3.37554 9.1078 2.96363 10.4141C2.55171 11.7205 2.54552 13.1208 2.94586 14.4307C3.3462 15.7407 4.13432 16.8987 5.20641 17.7525L7.77855 10.992H5.99153C5.80135 10.9527 5.60336 10.9871 5.43761 11.0882L5.01373 11.4924C4.98979 11.0821 4.98979 10.6708 5.01373 10.2606C5.06189 10.1162 5.20641 8.99989 5.70734 8.4321C6.06009 8.08624 6.51724 7.86636 7.00788 7.80658L12.7158 7.76808L11.8921 8.62939L13.8718 17.5744C14.8965 16.6919 15.6338 15.5236 15.989 14.2193C16.3442 12.9152 16.3011 11.5347 15.8651 10.2551C15.4292 8.97562 14.6204 7.85546 13.5426 7.03848C12.4646 6.2215 11.167 5.74499 9.81609 5.67014L9.84494 2.98518L9.8787 2.99962ZM7.69667 8.57164C7.75504 8.57447 7.81129 8.59434 7.85847 8.62878C7.90564 8.66323 7.94167 8.71076 7.96207 8.76546C7.98247 8.82017 7.98636 8.87964 7.97325 8.93652C7.96015 8.99341 7.93064 9.04521 7.88835 9.0855C7.84607 9.12579 7.79288 9.1528 7.73537 9.1632C7.67787 9.17358 7.61858 9.1669 7.56485 9.14395C7.51111 9.12102 7.4653 9.08282 7.43309 9.03411C7.40086 8.98541 7.38365 8.92835 7.38358 8.86997C7.3861 8.78914 7.42035 8.71255 7.47894 8.65673C7.53752 8.6009 7.61573 8.57034 7.69667 8.57164Z"
            fill="#0A3576"/>
      <path d="M100.743 23.8206H0V37.0001H100.743V23.8206Z" fill="#C8DDE7"/>
    </g>
  </g>
  <defs>
    <clipPath id="clip0_660_25857">
      <rect width="176" height="34" fill="white" transform="translate(0 3)"/>
    </clipPath>
  </defs>
</svg>
