<svg width="223" height="43" viewBox="0 0 223 43" fill="none" xmlns="http://www.w3.org/2000/svg">
<mask id="mask0_7702_3319" style="mask-type:luminance" maskUnits="userSpaceOnUse" x="0" y="0" width="223" height="43">
<path d="M223 0H0V42.4762H223V0Z" fill="white"/>
</mask>
<g mask="url(#mask0_7702_3319)">
<path d="M223 26.0112H127.646V42.4763H223V26.0112Z" fill="#009FD9"/>
<path d="M143.374 30.3661H145.415V31.3261H145.57C146.242 31.3261 146.827 31.4488 147.326 31.6941C147.831 31.9393 148.216 32.2843 148.484 32.7287C148.754 33.1732 148.891 33.6781 148.891 34.2434C148.891 34.8336 148.758 35.3509 148.494 35.7953C148.23 36.2362 147.843 36.5775 147.332 36.8193C146.822 37.0611 146.204 37.182 145.479 37.182H145.415V38.3819H143.374V37.182H143.267C142.547 37.182 141.933 37.0646 141.426 36.8299C140.923 36.5917 140.542 36.254 140.285 35.8167C140.028 35.3758 139.899 34.8477 139.899 34.2327C139.899 33.6532 140.035 33.1394 140.306 32.6914C140.581 32.2398 140.963 31.9003 141.453 31.6727C141.945 31.4416 142.52 31.3261 143.177 31.3261H143.374V30.3661ZM145.415 35.5873H145.479C145.928 35.5873 146.266 35.4771 146.491 35.2566C146.716 35.0362 146.829 34.695 146.829 34.2327C146.829 33.8274 146.713 33.511 146.48 33.2834C146.249 33.0522 145.922 32.9367 145.501 32.9367H145.415V35.5873ZM143.374 32.9367H143.251C142.833 32.9367 142.514 33.0469 142.293 33.2674C142.072 33.4878 141.961 33.8096 141.961 34.2327C141.961 34.7127 142.068 35.0593 142.282 35.2726C142.501 35.4825 142.828 35.5873 143.267 35.5873H143.374V32.9367ZM154.952 38.2753L154.567 36.814H152.023L151.627 38.2753H149.303L151.857 30.4461H154.679L157.266 38.2753H154.952ZM154.128 35.086L153.791 33.806C153.712 33.5216 153.615 33.1536 153.501 32.7021C153.391 32.2505 153.317 31.927 153.281 31.7315C153.25 31.9128 153.185 32.2114 153.089 32.6273C152.996 33.0434 152.787 33.8629 152.462 35.086H154.128ZM164.961 38.2753H162.567L160.243 34.3234V38.2753H158.117V30.478H160.243V34.2541L162.482 30.478H164.805L162.39 34.2007L164.961 38.2753ZM169.218 38.2753H167.102V32.2008H165.192V30.478H171.125V32.2008H169.218V38.2753ZM179.57 34.3661C179.57 35.678 179.247 36.6753 178.601 37.358C177.954 38.0406 177.008 38.3819 175.762 38.3819C174.535 38.3819 173.591 38.0388 172.935 37.3526C172.281 36.6665 171.955 35.6673 171.955 34.3554C171.955 33.0576 172.28 32.0674 172.93 31.3847C173.583 30.6986 174.531 30.3555 175.773 30.3555C177.019 30.3555 177.964 30.695 178.606 31.374C179.248 32.0532 179.57 33.0505 179.57 34.3661ZM174.182 34.3661C174.182 35.8735 174.709 36.6273 175.762 36.6273C176.298 36.6273 176.694 36.4442 176.951 36.078C177.212 35.7117 177.342 35.1411 177.342 34.3661C177.342 33.5874 177.209 33.0131 176.946 32.6434C176.685 32.2701 176.294 32.0834 175.773 32.0834C174.713 32.0834 174.182 32.8443 174.182 34.3661ZM186.666 32.958C186.666 33.8292 186.406 34.503 185.888 34.9793C185.375 35.4522 184.643 35.6887 183.693 35.6887H183.099V38.2753H180.983V30.478H183.693C184.682 30.478 185.425 30.6932 185.921 31.1234C186.417 31.5537 186.666 32.1652 186.666 32.958ZM183.099 33.9714H183.484C183.802 33.9714 184.054 33.8824 184.239 33.7047C184.428 33.527 184.523 33.2816 184.523 32.9687C184.523 32.4425 184.231 32.1794 183.645 32.1794H183.099V33.9714ZM187.913 30.478H189.797V33.8274C189.797 34.1829 189.769 34.894 189.712 35.9606H189.755L192.877 30.478H195.491V38.2753H193.616V35.0113C193.616 34.5172 193.648 33.7776 193.713 32.7928H193.67L190.521 38.2753H187.913V30.478ZM203.897 38.2753H201.772V35.0967H199.314V38.2753H197.188V30.478H199.314V33.3687H201.772V30.478H203.897V38.2753ZM210.817 30.478V32.1794H207.721V38.2753H205.595V30.478H210.817Z" fill="white"/>
<path fill-rule="evenodd" clip-rule="evenodd" d="M43.0514 19.1341L42.1359 11.7341L40.5736 19.1341H38.4374L36.7286 11.7161L35.7033 19.1341H31.9438L34.1225 4.38225H38.0103L39.4201 10.8986L40.9153 4.4063H44.6748L46.8109 19.1581L43.0514 19.1341ZM55.996 4.38225V8.09127H52.1938V9.99086H54.8852V13.7239H52.1938V15.4912H55.996V19.1341H48.4343V4.4063L55.996 4.38225ZM58.0467 4.38225H66.3346V8.39183H64.0704V19.1341H60.2681V8.41589H58.0467V4.4063V4.38225ZM67.7689 19.1341L71.4855 4.38225H75.8859L79.5782 19.1341H75.8614L75.2512 17.0181H72.041L71.4855 19.1341H67.7689ZM74.6042 14.0845L73.7071 10.3335L72.7245 14.0845H74.6042ZM88.7634 4.4063L91.7539 19.1341H87.9517L86.3282 8.13335H86.0292L84.3631 19.1341H80.5853L83.4904 4.38225L88.7634 4.4063ZM100.97 4.4063L104.021 19.1581H100.219L98.5954 8.15738H98.2963L96.5814 19.1341H92.8219L95.7697 4.38225L100.97 4.4063ZM116.691 4.4063V19.1341H112.889V12.3833L109.355 19.1341H105.608V4.4063H109.367V11.5237L113.127 4.4063H116.691ZM123.185 4.4063V10.0149H126.048V4.4063H129.807V19.1341H126.048V13.7239H123.185V19.1341H119.425V4.4063H123.185ZM138.18 4.4063C138.643 4.39132 139.103 4.48042 139.526 4.66687C139.949 4.8533 140.324 5.13219 140.621 5.48235C141.24 6.28618 141.556 7.27589 141.519 8.28363C141.554 9.0085 141.422 9.7319 141.134 10.3996C141.035 10.6167 140.893 10.8124 140.718 10.9754C140.541 11.1385 140.334 11.2655 140.109 11.3494C140.768 11.5229 141.343 11.9213 141.732 12.4736C142.211 13.1845 142.45 14.0258 142.415 14.8781C142.493 16.0048 142.16 17.122 141.476 18.028C141.13 18.4102 140.7 18.7095 140.218 18.9032C139.737 19.097 139.218 19.1801 138.699 19.1461H132.382V4.4063H138.18ZM136.214 7.59833V9.71432H136.855C137.411 9.71432 137.711 9.37168 137.711 8.68037C137.711 7.98906 137.411 7.59833 136.855 7.59833H136.214ZM136.214 13.207V15.365H137.198C137.808 15.365 138.137 15.0223 138.137 14.2889C138.159 14.0072 138.066 13.7285 137.881 13.5135C137.702 13.3294 137.456 13.2217 137.198 13.2129L136.214 13.207ZM151.936 4.4063V8.11531H148.134V10.0149H151.894V13.7239H148.134V15.4912H151.936V19.1341H144.345V4.4063H151.936ZM160.566 9.15526C160.263 9.14486 159.961 9.20598 159.685 9.33353C159.411 9.46108 159.171 9.65139 158.986 9.88866C158.619 10.4545 158.44 11.1181 158.473 11.7882C158.445 12.4639 158.64 13.1302 159.028 13.6878C159.201 13.9276 159.433 14.1205 159.701 14.2486C159.97 14.3769 160.268 14.4362 160.566 14.4212C160.882 14.4461 161.2 14.4156 161.506 14.331C161.719 14.2893 161.925 14.2162 162.116 14.1146V19.1341C161.951 19.1944 161.779 19.2386 161.603 19.2664C161.249 19.3088 160.892 19.3228 160.536 19.3085C159.611 19.3392 158.692 19.142 157.865 18.7347C157.036 18.3273 156.324 17.7229 155.793 16.9761C154.762 15.433 154.214 13.6263 154.214 11.7792C154.214 9.93217 154.762 8.12552 155.793 6.58241C156.456 5.75767 157.322 5.11446 158.309 4.71445C159.298 4.31445 160.372 4.17108 161.433 4.29811C161.656 4.37186 161.885 4.4301 162.116 4.47242V9.51595C161.951 9.43319 161.779 9.36092 161.603 9.29955C161.255 9.21247 160.895 9.17003 160.536 9.1733L160.566 9.15526ZM164.155 4.4063H172.485V8.41589H170.221V19.1341H166.395V8.41589H164.131V4.4063H164.155ZM178.594 9.88264H180.902C181.403 9.86994 181.901 9.9681 182.361 10.1699C182.819 10.3717 183.225 10.672 183.55 11.0488C184.347 11.9717 184.745 13.1648 184.661 14.3731C184.722 15.6235 184.344 16.8567 183.592 17.8658C183.276 18.271 182.867 18.5984 182.401 18.8227C181.934 19.0469 181.421 19.1617 180.902 19.1581H174.798V4.4063H183.556V7.51418H178.6V9.88866L178.594 9.88264ZM178.594 13.4894V15.6054H179.535C180.145 15.6054 180.474 15.2628 180.474 14.5295C180.496 14.2478 180.403 13.969 180.218 13.754C180.129 13.6654 180.022 13.5964 179.904 13.5518C179.787 13.5072 179.66 13.4881 179.535 13.4955L178.594 13.4894ZM185.857 19.1822L189.573 4.43036H193.931L197.623 19.1341H193.907L193.352 17.0181H190.105L189.549 19.1341L185.857 19.1822ZM192.65 14.0485L191.752 10.4417L190.77 14.0485H192.65ZM203.372 4.43036V10.0389H206.192V4.4063H209.952V19.1341H206.192V13.7239H203.372V19.1341H199.571V4.4063L203.372 4.43036ZM216.403 4.43036V9.78045L219.009 4.43036H222.897L219.564 11.2893L223 19.1341H219.125L216.391 12.7922V19.1341H212.631V4.4063L216.403 4.43036Z" fill="#0A3576"/>
<path fill-rule="evenodd" clip-rule="evenodd" d="M12.5164 -0.00052136C15.6527 0.140824 18.6082 1.48547 20.7508 3.74577C22.8933 6.00606 24.0527 9.00251 23.981 12.094C23.9092 15.1856 22.6119 18.1266 20.3667 20.2882C18.1215 22.4496 15.1067 23.6598 11.9671 23.6598C8.82762 23.6598 5.81277 22.4496 3.56757 20.2882C1.32236 18.1266 0.0251093 15.1856 -0.0466607 12.094C-0.118431 9.00251 1.04098 6.00606 3.18353 3.74577C5.32609 1.48547 8.28163 0.140824 11.4179 -0.00052136V3.3538C9.6841 3.46102 8.02396 4.08293 6.65606 5.13765C5.28816 6.19236 4.27666 7.63042 3.75474 9.26244C3.23282 10.8945 3.22498 12.6439 3.73223 14.2803C4.23948 15.9169 5.23806 17.3636 6.59644 18.4303L9.85547 9.98432H7.59123C7.35027 9.9353 7.0994 9.97829 6.88939 10.1046L6.35231 10.6095C6.32198 10.097 6.32198 9.58314 6.35231 9.0706C6.41334 8.89027 6.59644 7.49562 7.23115 6.78628C7.6781 6.3542 8.25733 6.0795 8.87899 6.00481L16.1111 5.95672L15.0675 7.03275L17.5759 18.2078C18.8743 17.1052 19.8084 15.6456 20.2584 14.0163C20.7086 12.387 20.6539 10.6623 20.1015 9.06381C19.5492 7.4653 18.5244 6.06588 17.1587 5.04523C15.793 4.02457 14.1487 3.42927 12.4371 3.33576L12.4737 -0.0185547L12.5164 -0.00052136ZM9.75172 6.96061C9.82568 6.96414 9.89695 6.98896 9.95672 7.03199C10.0165 7.07503 10.0621 7.13441 10.088 7.20275C10.1138 7.27109 10.1188 7.34538 10.1022 7.41645C10.0856 7.48752 10.0482 7.55223 9.99458 7.60257C9.94102 7.6529 9.87362 7.68665 9.80076 7.69964C9.7279 7.71261 9.65277 7.70426 9.58469 7.67559C9.51661 7.64694 9.45857 7.59922 9.41775 7.53837C9.37691 7.47753 9.35511 7.40625 9.35503 7.33331C9.35822 7.23232 9.40161 7.13664 9.47585 7.06691C9.55007 6.99716 9.64917 6.95898 9.75172 6.96061Z" fill="#0A3576"/>
<path d="M127.646 26.0112H0V42.4763H127.646V26.0112Z" fill="#C8DDE7"/>
</g>
</svg>
