<svg viewBox="0 0 176 96" xmlns="http://www.w3.org/2000/svg">
<g id="Clip path group">
<path id="Vector" fill-rule="evenodd" clip-rule="evenodd" d="M122.355 -5.95383C136.438 3.05944 146.435 17.2248 150.208 33.5117C153.98 49.7987 151.229 66.9143 142.542 81.1963C133.855 95.4783 119.922 105.792 103.724 109.933C87.5269 114.073 70.3503 111.71 55.8699 103.35C41.3896 94.99 30.7553 81.2961 26.2419 65.1985C21.7288 49.1003 23.6948 31.8772 31.7198 17.213C39.7449 2.54879 53.1915 -8.39183 69.1829 -13.2681C85.1743 -18.1444 102.44 -16.569 117.288 -8.87926L108.221 6.82413C99.935 2.70926 90.597 1.19997 81.437 2.49509C72.2772 3.79018 63.7249 7.82899 56.9065 14.0795C50.0881 20.33 45.3233 28.4993 43.2398 37.5111C41.156 46.5234 41.8513 55.9555 45.2336 64.5663L83.0936 33.7047L72.6503 27.6752C71.6714 26.8041 70.3981 26.3373 69.0882 26.3692L65.2462 27.303C66.4917 24.8228 67.8805 22.4172 69.4058 20.0985C70.1746 19.4168 74.7888 13.3752 79.6335 11.7446C82.8628 10.912 86.2769 11.1684 89.346 12.4742L122.833 31.5075L115.111 33.766L96.4751 92.762C105.444 91.0578 113.698 86.7122 120.177 80.2825C126.657 73.8537 131.066 65.6339 132.839 56.6795C134.613 47.7254 133.668 38.4449 130.128 30.03C126.588 21.6149 120.613 14.4495 112.971 9.45389L122.206 -6.15215L122.355 -5.95383ZM90.7879 19.2728C91.1194 19.4863 91.3811 19.7923 91.5404 20.1529C91.6998 20.5135 91.7499 20.9131 91.6844 21.3018C91.6189 21.6906 91.4408 22.0516 91.1721 22.34C90.9035 22.6285 90.5561 22.8319 90.1729 22.9249C89.7898 23.0179 89.3877 22.9964 89.0165 22.8632C88.6454 22.7299 88.3215 22.4907 88.0849 22.1752C87.8484 21.8598 87.7097 21.4818 87.6858 21.0883C87.6619 20.6947 87.7541 20.3029 87.9508 19.9612C88.2385 19.497 88.6973 19.1646 89.2281 19.0358C89.759 18.907 90.3192 18.9921 90.7879 19.2728Z" />
</g>
</svg>
