<svg  viewBox="0 0 129 128" fill="none" xmlns="http://www.w3.org/2000/svg">
<path fill-rule="evenodd" clip-rule="evenodd" d="M99.3342 10.1214C113.417 19.1346 123.415 33.2999 127.187 49.5869C130.96 65.8739 128.209 82.9895 119.522 97.2715C110.834 111.553 96.9016 121.868 80.7035 126.008C64.5063 130.148 47.3298 127.786 32.8494 119.425C18.3691 111.065 7.73477 97.3713 3.22134 81.2737C-1.29176 65.1755 0.674295 47.9524 8.69932 33.2882C16.7244 18.624 30.171 7.68336 46.1623 2.80712C62.1538 -2.06917 79.42 -0.493836 94.2672 7.19594L85.2009 22.8993C76.9145 18.7845 67.5765 17.2752 58.4165 18.5703C49.2566 19.8654 40.7044 23.9042 33.886 30.1547C27.0676 36.4052 22.3028 44.5745 20.2193 53.5863C18.1355 62.5986 18.8308 72.0307 22.2131 80.6414L60.0731 49.7799L49.6298 43.7504C48.6509 42.8793 47.3776 42.4125 46.0677 42.4444L42.2257 43.3782C43.4712 40.898 44.86 38.4924 46.3852 36.1737C47.1541 35.492 51.7682 29.4504 56.613 27.8198C59.8423 26.9872 63.2563 27.2436 66.3255 28.5494L99.8122 47.5827L92.0905 49.8412L73.4546 108.837C82.4233 107.133 90.677 102.787 97.1567 96.3577C103.637 89.9289 108.046 81.7091 109.819 72.7547C111.592 63.8006 110.648 54.5201 107.108 46.1052C103.567 37.69 97.5924 30.5247 89.9507 25.5291L99.1857 9.92304L99.3342 10.1214ZM67.7674 35.348C68.0989 35.5615 68.3606 35.8675 68.5199 36.2281C68.6793 36.5887 68.7293 36.9883 68.6638 37.377C68.5984 37.7658 68.4203 38.1267 68.1516 38.4152C67.8829 38.7037 67.5356 38.9071 67.1524 39.0001C66.7693 39.093 66.3672 39.0716 65.996 38.9384C65.6249 38.8051 65.301 38.5659 65.0644 38.2504C64.8279 37.935 64.6892 37.557 64.6653 37.1635C64.6414 36.7699 64.7336 36.3781 64.9303 36.0364C65.218 35.5722 65.6767 35.2398 66.2076 35.111C66.7385 34.9821 67.2987 35.0673 67.7674 35.348Z" fill="#D1E0D3"/>
</svg>
