<svg viewBox="0 0 24 24" xmlns="http://www.w3.org/2000/svg">
<g id="Media">
<path id="telegram" d="M4.09992 10.7083C8.39487 8.83705 11.2589 7.60341 12.6919 7.00738C16.7834 5.30558 17.6335 5.00996 18.1877 5.00009C18.3095 4.99805 18.582 5.02826 18.7586 5.17149C18.9076 5.29243 18.9486 5.45581 18.9683 5.57048C18.9879 5.68514 19.0123 5.94636 18.9929 6.15046C18.7712 8.48009 17.8118 14.1335 17.3237 16.7427C17.1172 17.8468 16.7105 18.217 16.3168 18.2532C15.4613 18.3319 14.8116 17.6878 13.9829 17.1446C12.6862 16.2946 11.9537 15.7654 10.695 14.936C9.24042 13.9774 10.1834 13.4506 11.0124 12.5896C11.2293 12.3643 14.999 8.93546 15.0719 8.62441C15.0811 8.58551 15.0895 8.44051 15.0034 8.36394C14.9172 8.28737 14.7901 8.31355 14.6983 8.33438C14.5683 8.36389 12.4968 9.73307 8.48389 12.4419C7.89591 12.8457 7.36333 13.0424 6.88616 13.0321C6.36012 13.0207 5.34822 12.7346 4.59598 12.4901C3.67333 12.1902 2.94002 12.0316 3.00388 11.5223C3.03714 11.257 3.40248 10.9856 4.09992 10.7083Z" />
</g>
</svg>
