<svg viewBox="0 0 24 24"  xmlns="http://www.w3.org/2000/svg">
<g id="Media">
<path id="whatsapp" fill-rule="evenodd" clip-rule="evenodd" d="M17.6 6.3C16.1 4.8 14.1 4 12 4C7.6 4 4 7.6 4 12C4 13.4 4.40001 14.8 5.10001 16L4 20L8.20001 18.9C9.40001 19.5 10.7 19.9 12 19.9C16.4 19.9 20 16.3 20 11.9C20 9.8 19.1 7.8 17.6 6.3ZM12 18.6C10.8 18.6 9.60001 18.3 8.60001 17.7L8.39999 17.6L5.89999 18.3L6.60001 15.9L6.39999 15.6C5.69999 14.5 5.39999 13.3 5.39999 12.1C5.39999 8.5 8.4 5.5 12 5.5C13.8 5.5 15.4 6.2 16.7 7.4C18 8.7 18.6 10.3 18.6 12.1C18.6 15.6 15.7 18.6 12 18.6ZM15.6 13.6C15.4 13.5 14.4 13 14.2 13C14 12.9 13.9 12.9 13.8 13.1C13.7 13.3 13.3 13.7 13.2 13.9C13.1 14 13 14 12.8 14C12.6 13.9 12 13.7 11.2 13C10.6 12.5 10.2 11.8 10.1 11.6C10 11.4 10.1 11.3 10.2 11.2C10.3 11.1 10.4 11 10.5 10.9C10.6 10.8 10.6 10.7 10.7 10.6C10.8 10.5 10.7 10.4 10.7 10.3C10.7 10.2 10.3 9.2 10.1 8.8C10 8.5 9.80001 8.5 9.70001 8.5C9.60001 8.5 9.49999 8.5 9.29999 8.5C9.19999 8.5 8.99999 8.5 8.79999 8.7C8.59999 8.9 8.10001 9.4 8.10001 10.4C8.10001 11.4 8.79999 12.3 8.89999 12.5C8.99999 12.6 10.3 14.7 12.3 15.5C14 16.2 14.3 16 14.7 16C15.1 16 15.9 15.5 16 15.1C16.2 14.6 16.2 14.2 16.1 14.2C16 13.7 15.8 13.7 15.6 13.6Z" />
</g>
</svg>
